<svg width="68" height="95" viewBox="0 0 68 95" fill="none" xmlns="http://www.w3.org/2000/svg">
<path d="M17.2727 55.0662C17.2727 57.0362 16.8927 58.0961 14.9227 58.0961C12.9527 58.0961 11.2827 56.8861 11.2827 54.9161C11.2827 52.9461 12.9027 51.2861 14.8827 51.2861C16.8627 51.2861 17.2727 53.0962 17.2727 55.0662Z" fill="#063536"/>
<path fill-rule="evenodd" clip-rule="evenodd" d="M7.96289 80.5661C7.96289 80.5661 20.5829 80.806 26.1929 78.486C26.1929 78.486 23.7729 76.256 18.4929 75.916C13.2129 75.576 7.96289 80.5661 7.96289 80.5661Z" fill="#F993B3"/>
<path d="M62.5527 37.7263C62.5527 37.7263 63.0027 38.8163 63.9327 40.0563C63.9327 40.0563 65.1127 41.3963 65.4527 41.9263C66.3227 43.2463 66.6527 42.9263 67.6127 42.7263C67.6127 42.7263 67.9427 39.1762 64.3627 36.9062L62.5627 37.7363L62.5527 37.7263Z" fill="#ECA98D"/>
<path d="M53.9625 31.8662C53.9625 31.8662 55.5725 31.4262 53.5425 28.4162C53.3425 28.1162 46.8225 16.4562 46.8225 16.4562C46.8225 16.4562 45.3625 14.4662 42.9925 16.2662C41.7825 17.1762 39.1725 18.0063 40.4225 20.3763C43.3225 25.8863 52.2225 32.9563 53.9725 31.8763L53.9625 31.8662Z" fill="#F8C2AB"/>
<path d="M49.1326 30.3564L49.7626 31.4264C49.8926 31.6264 54.0527 34.8264 64.1727 39.0064C64.1727 39.0064 65.9926 38.4864 64.1326 36.6964L53.4627 27.4964C50.5727 27.1264 48.6426 28.9664 49.1326 30.3564Z" fill="#ECA98D"/>
<path d="M53.4629 27.4966L49.7729 31.4266C49.7729 31.4266 40.7828 22.2766 39.7028 19.5666C38.3628 16.2266 42.8729 11.5366 46.7929 15.7566L53.4629 27.4966Z" fill="#D36C05"/>
<path d="M55.0529 30.5059C58.3629 35.8959 63.5228 43.7858 54.0228 47.0958C43.8428 50.6458 43.3728 40.3359 42.9028 33.6259L55.0428 30.5059H55.0529Z" fill="#063536"/>
<path d="M44.7126 42.6261C44.7126 42.6261 41.4326 27.0161 39.9326 19.9261C39.4626 17.7261 40.7126 15.5061 42.8226 14.7461C44.9826 13.9661 47.3726 14.9361 48.3926 16.9961L58.5826 37.6861L57.7026 38.1161L47.5126 17.4261C46.7226 15.8161 44.8426 15.0561 43.1526 15.6661C41.5026 16.2561 40.5226 17.9961 40.8926 19.7161C42.3926 26.8061 45.6726 42.4161 45.6726 42.4161L44.7126 42.6161V42.6261Z" fill="#063536"/>
<path d="M48.5427 47.5964C48.1227 47.4364 55.0527 47.2165 57.2427 43.0865C58.8027 40.1465 58.2227 37.0064 57.5927 34.8564C57.5927 34.8564 61.0827 40.9865 58.2027 44.6765C55.5827 48.0365 50.6727 48.4164 48.5427 47.5964Z" fill="#032323"/>
<path d="M43.3428 14.4663C43.3428 14.4663 46.7328 15.2962 48.4028 13.3562C50.5128 10.9062 50.4428 8.42624 49.6428 6.85624C48.8428 5.28624 51.4028 4.03626 49.2128 1.15626C47.8728 -0.613739 46.2028 0.0662476 45.1428 0.486248C44.3828 0.786248 42.6328 2.67625 42.6328 2.67625C38.8728 1.88625 37.8628 3.41626 37.4728 7.34626C37.0828 11.2763 34.8428 11.6463 33.5828 12.1163C32.3228 12.5863 29.7429 14.4563 29.6629 17.9663C29.5529 23.4263 34.7628 24.4762 34.7628 24.4762L43.3328 14.4663H43.3428Z" fill="#063536"/>
<path fill-rule="evenodd" clip-rule="evenodd" d="M19.1228 56.5566C20.4628 55.7366 21.8028 54.2566 23.5828 52.8266C23.5828 52.8266 27.7028 47.2366 28.1328 47.5466C29.7628 48.6866 25.3328 55.6566 21.7028 57.9566C17.7628 60.1866 18.4828 57.3266 19.1128 56.5666L19.1228 56.5566Z" fill="#ECA98D"/>
<path fill-rule="evenodd" clip-rule="evenodd" d="M17.9427 57.3467L20.7028 55.3467L22.7928 58.3967L19.2428 60.1067C19.2428 60.1067 17.6427 58.9067 17.9427 57.3467Z" fill="#FF9FB8"/>
<path fill-rule="evenodd" clip-rule="evenodd" d="M19.8129 59.8365L22.7928 58.3965C22.7928 58.3965 20.7028 58.4865 17.9028 57.1865L19.8129 59.8265V59.8365Z" fill="#F993B3"/>
<path d="M15.6428 58.5661C15.4828 57.1961 14.5928 55.5661 14.5928 55.5661C15.0528 55.3861 16.7128 55.516 17.7128 56.466C17.7128 56.466 18.0128 56.9861 18.5628 57.9561C19.6928 60.2161 15.4128 60.1461 15.6328 58.5661H15.6428Z" fill="#F8C2AB"/>
<path d="M15.9526 55.1758L16.0226 56.1558C16.0226 56.1558 16.4727 57.7658 18.5627 57.9558L17.7126 56.4658C16.9926 56.1758 15.9526 55.1758 15.9526 55.1758Z" fill="#ECA98D"/>
<path d="M9.62302 86.3863C9.79302 84.4463 11.063 82.5862 11.303 81.9962L11.983 77.2762C12.613 74.1662 16.153 69.0063 17.963 72.4463C17.963 72.4463 16.693 77.8963 14.373 82.7063C12.963 85.6263 11.603 92.8862 10.973 92.6762C9.493 92.1562 9.62302 86.3762 9.62302 86.3762V86.3863Z" fill="#F8C2AB"/>
<path d="M11.7528 91.2866C11.7528 91.2866 13.3229 93.2066 13.8629 93.7766C14.3929 94.3466 12.9129 94.2466 11.8729 93.7766C10.8329 93.3066 9.59285 93.3966 9.40285 92.6866C9.20285 91.9866 10.0429 91.1066 10.0429 91.1066C10.0429 91.1066 11.1028 90.4966 11.7528 91.2866Z" fill="#F8C2AB"/>
<path d="M18.7128 87.726C18.0728 85.886 18.4628 83.676 18.4528 83.036L17.1328 78.4561C16.4328 75.3661 17.5528 69.206 20.6028 71.596C20.6028 71.596 21.6128 77.196 21.4728 82.546C21.3828 85.786 23.1728 92.8561 22.5228 92.9261C20.9628 93.056 18.7128 87.736 18.7128 87.736V87.726Z" fill="#ECA98D"/>
<path d="M22.6129 91.1261C22.6129 91.1261 25.0029 91.7861 25.7729 91.9461C26.5429 92.1061 25.2629 92.876 24.1429 93.096C23.0229 93.316 22.0629 94.0961 21.5029 93.6361C20.9329 93.1761 21.1129 91.976 21.1129 91.976C21.1129 91.976 21.6229 90.8661 22.6129 91.1361V91.1261Z" fill="#ECA98D"/>
<path fill-rule="evenodd" clip-rule="evenodd" d="M15.6629 58.306C15.6629 58.306 16.6929 59.146 17.7729 58.886C18.7829 58.496 18.5629 57.9561 18.5629 57.9561C18.5629 57.9561 19.9329 58.566 20.8429 60.186C21.6029 61.536 24.5029 74.636 24.5029 74.636C25.8429 76.206 26.1829 78.496 26.1829 78.496C26.1829 78.496 24.9629 78.356 22.5829 78.106C21.5329 77.996 20.1829 78.986 18.6729 79.166C17.5129 79.296 16.3429 79.326 15.1829 79.226C13.5729 79.086 12.1729 79.626 11.0129 79.726C8.48288 79.946 7.94287 80.566 7.94287 80.566C7.94287 80.566 8.15292 78.686 8.74292 77.656C9.33292 76.626 10.0529 75.8961 10.0529 75.8961L12.6629 63.626C13.4829 60.506 14.3329 59.606 15.6529 58.296L15.6629 58.306Z" fill="#FF9FB8"/>
<path d="M16.5128 57.3463C15.6428 57.4463 14.6328 56.8063 14.5928 55.8963C15.4228 53.9563 15.8528 51.4463 15.8528 51.4463C15.8528 51.4463 17.0828 51.7962 18.1528 53.1562C20.7828 56.5162 18.4928 56.9563 16.5128 57.3563V57.3463Z" fill="#F8C2AB"/>
<path d="M44.0427 69.5863L30.3127 87.9963C30.3127 87.9963 30.5527 89.5763 31.4827 92.3563C31.4827 92.3563 30.6727 93.3063 29.5027 91.9863C27.0627 89.2463 26.6727 87.6363 27.6327 86.2563C28.4227 85.1163 37.1227 65.8463 37.1227 65.8463L40.9727 61.9062L46.5127 62.2863C46.8827 64.9763 45.9627 67.6763 44.0427 69.5963V69.5863Z" fill="#ECA98D"/>
<path d="M31.4828 92.3558C31.4828 92.3558 32.0628 92.4958 32.5328 92.8658C33.1828 93.3758 32.9528 94.1759 31.8828 94.3359L29.4828 94.2758L26.0928 88.4858L27.6428 86.2559C27.6428 86.2559 28.9628 91.5458 31.4928 92.3558H31.4828Z" fill="#063536"/>
<path d="M53.8728 65.9758L57.6027 89.5958C57.6027 89.5958 59.7127 90.8258 62.1127 90.8258C62.1127 90.8258 61.2528 91.9158 59.8128 92.2358C56.0828 93.0558 54.7127 91.5958 54.6527 91.2658C54.3627 89.6758 49.9427 79.9058 48.4527 74.6258C47.8127 72.3458 48.0527 69.5058 48.2127 67.1358L48.4328 65.1758L53.8627 65.9658L53.8728 65.9758Z" fill="#F8C2AB"/>
<path d="M46.3426 9.95602C46.3426 9.95602 46.1326 10.746 45.4626 11.006L45.7926 15.346C47.2426 18.806 41.9326 20.246 39.1426 17.836C39.1426 17.836 43.1626 11.536 42.0326 7.66602C42.0326 7.66602 44.5026 8.24602 46.3326 9.95602H46.3426Z" fill="#F8C2AB"/>
<path d="M45.7624 11.4557L46.0925 9.72572C46.0925 9.72572 44.2625 8.5257 43.1225 9.0457C41.9825 9.5657 42.8825 12.5557 45.6825 13.8157L45.7624 11.4457V11.4557Z" fill="#ECA98D"/>
<path d="M48.993 8.13613C49.143 10.7261 48.003 12.9562 46.353 12.4762C44.073 11.8162 42.5229 9.97613 42.5229 8.51613C42.5229 6.21613 44.053 4.42614 46.103 4.30614C48.153 4.18614 48.843 5.54615 48.993 8.12615V8.13613Z" fill="#F8C2AB"/>
<path d="M40.0427 34.5365C40.0427 34.5365 35.4626 23.7665 38.7626 17.4065C38.7626 17.4065 43.1326 10.5265 47.3826 16.9565C51.5226 23.2065 49.8526 25.1166 48.8326 27.8866C48.8326 27.8866 48.2426 29.2265 49.3326 34.5465H40.0427V34.5365Z" fill="#DF7807"/>
<path d="M40.5425 19.5762C36.0325 22.0562 38.9625 31.4662 38.9625 31.4662C39.5125 33.6662 46.1025 26.9963 45.1125 22.3763C45.1125 22.3763 46.9225 16.0563 40.5425 19.5663V19.5762Z" fill="#D36C05"/>
<path d="M29.993 43.2961C29.993 43.2961 29.093 44.0662 28.213 45.3262C28.213 45.3262 27.303 46.8661 26.913 47.3561C25.923 48.5961 26.953 48.8861 27.673 49.6561C27.673 49.6561 30.303 48.8662 31.343 44.7462L29.993 43.2861V43.2961Z" fill="#F8C2AB"/>
<path d="M46.8228 7.90625C46.8228 7.90625 46.9328 8.08624 47.3228 8.67624C47.5428 9.00624 47.7527 9.09625 47.7527 9.31625C47.7527 9.65625 47.0228 9.63623 47.0228 9.63623C47.0228 9.63623 46.7628 8.76625 46.8328 7.90625H46.8228Z" fill="#ECA98D"/>
<path d="M45.1126 7.62639C45.1226 7.82639 44.9726 7.98638 44.7826 7.99638C44.5926 8.00638 44.4226 7.85637 44.4126 7.66637C44.4026 7.46637 44.5526 7.30637 44.7426 7.29637C44.9426 7.28637 45.1026 7.43639 45.1126 7.62639Z" fill="#063536"/>
<path d="M48.5926 7.53654C48.6026 7.73654 48.4526 7.89654 48.2626 7.90654C48.0626 7.91654 47.9026 7.76652 47.8926 7.57652C47.8826 7.37652 48.0326 7.21653 48.2226 7.20653C48.4226 7.19653 48.5826 7.34654 48.5926 7.53654Z" fill="#063536"/>
<path d="M42.7325 7.42633C43.1925 7.78633 43.2625 8.44634 42.9025 8.90634C42.5425 9.36634 41.8825 9.43632 41.4225 9.07632C40.9625 8.71632 40.8925 8.05634 41.2525 7.59634C41.6125 7.13634 42.2725 7.06633 42.7325 7.42633Z" fill="#F8C2AB"/>
<path d="M42.3825 7.95676C42.5325 8.20676 42.5926 8.76677 42.3426 8.90677C42.0926 9.05677 41.6326 8.72676 41.4926 8.48676C41.3426 8.23676 41.4226 7.92677 41.6726 7.77677C41.9226 7.62677 42.2325 7.70676 42.3825 7.95676Z" fill="#ECA98D"/>
<path d="M32.8828 33.3063C32.8828 33.3063 33.8028 34.6963 36.0328 31.8263C36.2528 31.5363 45.3028 21.7163 45.3028 21.7163C45.3028 21.7163 46.7328 19.7163 44.2928 18.0163C43.0528 17.1563 41.4428 14.9263 39.5828 16.8563C35.2528 21.3363 31.3128 31.9963 32.8828 33.3163V33.3063Z" fill="#F8C2AB"/>
<path d="M32.8127 28.2465C32.8127 28.2465 31.9927 29.1765 31.9927 29.1865C31.8427 29.3765 30.1027 34.3165 29.2827 45.2365C29.2827 45.2365 30.3427 46.8065 31.4627 44.4765L36.8727 31.4665C36.3227 28.6065 33.9727 27.3465 32.8127 28.2465Z" fill="#F8C2AB"/>
<path d="M36.8729 31.4662L31.9829 29.1863C31.9829 29.1863 37.8729 17.7963 40.1029 15.9163C42.8529 13.5963 48.7229 16.4163 45.9329 21.4663L36.8629 31.4662H36.8729Z" fill="#DF7807"/>
<path d="M47.3428 10.2959L46.0928 10.4559L47.3528 10.7559C47.3528 10.7559 47.7228 10.5259 47.3328 10.2959H47.3428Z" fill="#FF9FB8"/>
<path d="M46.0928 10.4561L47.0027 11.1161C47.0027 11.1161 47.5028 11.3461 47.3528 10.7561L46.0928 10.4561Z" fill="#FF9FB8"/>
<path d="M43.7026 6.60665C43.7026 6.60665 44.2327 5.76666 45.2927 6.45666L43.7026 6.60665Z" fill="#063536"/>
<path d="M49.3326 6.60665C49.3326 6.60665 48.8027 5.76666 47.7427 6.45666L49.3326 6.60665Z" fill="#063536"/>
<path d="M49.3328 34.5361L57.2528 67.4661C57.2528 67.4661 34.3328 71.2261 28.9628 70.6561C28.9628 70.6561 28.5928 48.8161 40.0428 34.5361H49.3328Z" fill="white"/>
<mask id="mask0_695_9610" style="mask-type:luminance" maskUnits="userSpaceOnUse" x="28" y="34" width="30" height="37">
<path d="M49.3328 34.5361L57.2528 67.4661C57.2528 67.4661 34.3328 71.2261 28.9628 70.6561C28.9628 70.6561 28.5928 48.8161 40.0428 34.5361H49.3328Z" fill="white"/>
</mask>
<g mask="url(#mask0_695_9610)">
<path d="M44.3728 34.5361C44.3728 34.5361 35.1828 43.2662 31.3428 52.6262C31.3428 52.6262 33.0828 40.5961 40.0428 34.5361H44.3728Z" fill="#DDF7ED"/>
<path d="M34.6325 48.3965C34.0125 48.3965 34.0125 49.3564 34.6325 49.3564C35.2525 49.3564 35.2525 48.3965 34.6325 48.3965Z" fill="#DF7807"/>
<path d="M40.4728 55.5859C39.8528 55.5859 39.8528 56.5459 40.4728 56.5459C41.0928 56.5459 41.0928 55.5859 40.4728 55.5859Z" fill="#DF7807"/>
<path d="M33.0628 54.5762H32.9528C32.3328 54.5762 32.3328 55.5361 32.9528 55.5361H33.0628C33.6828 55.5361 33.6828 54.5762 33.0628 54.5762Z" fill="#DF7807"/>
<path d="M29.0226 62.0957C28.4026 62.0957 28.4026 63.0557 29.0226 63.0557C29.6426 63.0557 29.6426 62.0957 29.0226 62.0957Z" fill="#DF7807"/>
<path d="M34.4128 63.1162C33.7928 63.1162 33.7928 64.0762 34.4128 64.0762C35.0328 64.0762 35.0328 63.1162 34.4128 63.1162Z" fill="#DF7807"/>
<path d="M37.4425 58.0566C36.8225 58.0566 36.8225 59.0167 37.4425 59.0167C38.0625 59.0167 38.0625 58.0566 37.4425 58.0566Z" fill="#DF7807"/>
<path d="M42.4624 63.0363V63.1463C42.4624 63.7663 43.4224 63.7663 43.4224 63.1463V63.0363C43.4224 62.4163 42.4624 62.4163 42.4624 63.0363Z" fill="#DF7807"/>
<path d="M30.8224 59.9658C30.2024 59.9658 30.2024 60.9258 30.8224 60.9258C31.4424 60.9258 31.4424 59.9658 30.8224 59.9658Z" fill="#DF7807"/>
<path d="M30.8225 67.4961H30.7126C30.0926 67.4961 30.0926 68.4561 30.7126 68.4561H30.8225C31.4425 68.4561 31.4425 67.4961 30.8225 67.4961Z" fill="#DF7807"/>
<path d="M37.9727 67.1857V67.2957C37.9727 67.9157 38.9327 67.9157 38.9327 67.2957V67.1857C38.9327 66.5657 37.9727 66.5657 37.9727 67.1857Z" fill="#DF7807"/>
<path d="M38.7627 70.4464V70.5564C38.7627 71.1764 39.7227 71.1764 39.7227 70.5564V70.4464C39.7227 69.8264 38.7627 69.8264 38.7627 70.4464Z" fill="#DF7807"/>
<path d="M38.9025 50.5361C38.2825 50.5361 38.2825 51.4962 38.9025 51.4962C39.5225 51.4962 39.5225 50.5361 38.9025 50.5361Z" fill="#DF7807"/>
<path d="M45.0827 46.4863C44.4627 46.4863 44.4627 47.4464 45.0827 47.4464C45.7027 47.4464 45.7027 46.4863 45.0827 46.4863Z" fill="#DF7807"/>
<path d="M41.5625 43.9357V44.0457C41.5625 44.6657 42.5225 44.6657 42.5225 44.0457V43.9357C42.5225 43.3157 41.5625 43.3157 41.5625 43.9357Z" fill="#DF7807"/>
<path d="M38.4528 44.5859C37.8328 44.5859 37.8328 45.5459 38.4528 45.5459C39.0728 45.5459 39.0728 44.5859 38.4528 44.5859Z" fill="#DF7807"/>
<path d="M36.9928 40.0859C36.3728 40.0859 36.3728 41.0459 36.9928 41.0459C37.6128 41.0459 37.6128 40.0859 36.9928 40.0859Z" fill="#DF7807"/>
<path d="M43.1725 37.166C42.5525 37.166 42.5525 38.126 43.1725 38.126C43.7925 38.126 43.7925 37.166 43.1725 37.166Z" fill="#DF7807"/>
<path d="M39.8024 35.376C39.1824 35.376 39.1824 36.336 39.8024 36.336C40.4224 36.336 40.4224 35.376 39.8024 35.376Z" fill="#DF7807"/>
<path d="M47.1826 36.1964V36.3064C47.1826 36.9264 48.1426 36.9264 48.1426 36.3064V36.1964C48.1426 35.5764 47.1826 35.5764 47.1826 36.1964Z" fill="#DF7807"/>
<path d="M47.1826 40.5666V40.6765C47.1826 41.2965 48.1426 41.2965 48.1426 40.6765V40.5666C48.1426 39.9466 47.1826 39.9466 47.1826 40.5666Z" fill="#DF7807"/>
<path d="M48.9829 47.4259V47.5359C48.9829 48.1559 49.9429 48.1559 49.9429 47.5359V47.4259C49.9429 46.8059 48.9829 46.8059 48.9829 47.4259Z" fill="#DF7807"/>
<path d="M52.2329 50.7863V50.8963C52.2329 51.5163 53.1929 51.5163 53.1929 50.8963V50.7863C53.1929 50.1663 52.2329 50.1663 52.2329 50.7863Z" fill="#DF7807"/>
<path d="M44.4128 50.9863C43.7928 50.9863 43.7928 51.9464 44.4128 51.9464C45.0328 51.9464 45.0328 50.9863 44.4128 50.9863Z" fill="#DF7807"/>
<path d="M48.5327 51.1261V51.2361C48.5327 51.8561 49.4927 51.8561 49.4927 51.2361V51.1261C49.4927 50.5061 48.5327 50.5061 48.5327 51.1261Z" fill="#DF7807"/>
<path d="M47.8525 59.4357V59.5457C47.8525 60.1657 48.8126 60.1657 48.8126 59.5457V59.4357C48.8126 58.8157 47.8525 58.8157 47.8525 59.4357Z" fill="#DF7807"/>
<path d="M45.5329 55.3662C44.9129 55.3662 44.9129 56.3262 45.5329 56.3262C46.1529 56.3262 46.1529 55.3662 45.5329 55.3662Z" fill="#DF7807"/>
<path d="M53.6125 57.6064C52.9925 57.6064 52.9925 58.5665 53.6125 58.5665C54.2325 58.5665 54.2325 57.6064 53.6125 57.6064Z" fill="#DF7807"/>
<path d="M51.2624 42.4463C50.6424 42.4463 50.6424 43.4062 51.2624 43.4062C51.8824 43.4062 51.8824 42.4463 51.2624 42.4463Z" fill="#DF7807"/>
<path d="M46.0927 67.4061L45.9827 67.5161C45.5427 67.9561 46.2227 68.6361 46.6627 68.1961C46.7027 68.1561 46.7327 68.1261 46.7727 68.0861C47.2127 67.6461 46.5327 66.9661 46.0927 67.4061Z" fill="#DF7807"/>
<path d="M51.5625 62.1359V62.2459C51.5625 62.8659 52.5225 62.8659 52.5225 62.2459V62.1359C52.5225 61.5159 51.5625 61.5159 51.5625 62.1359Z" fill="#DF7807"/>
<path d="M56.8727 66.4766C56.2527 66.4766 56.2527 67.4366 56.8727 67.4366C57.4927 67.4366 57.4927 66.4766 56.8727 66.4766Z" fill="#DF7807"/>
<path d="M52.6027 68.7266C51.9827 68.7266 51.9827 69.6866 52.6027 69.6866C53.2227 69.6866 53.2227 68.7266 52.6027 68.7266Z" fill="#DF7807"/>
<path d="M50.2428 65.1357C49.6228 65.1357 49.6228 66.0957 50.2428 66.0957C50.8628 66.0957 50.8628 65.1357 50.2428 65.1357Z" fill="#DF7807"/>
<path d="M42.9528 68.6162C42.3328 68.6162 42.3328 69.5762 42.9528 69.5762C43.5728 69.5762 43.5728 68.6162 42.9528 68.6162Z" fill="#DF7807"/>
</g>
<path d="M17.3428 52.5667C17.3428 52.5667 17.6728 52.8366 18.0528 52.8666C18.4728 52.9066 18.5428 52.8266 18.7228 52.9766C18.9428 53.1666 18.5128 53.8066 18.5128 53.8066C18.5128 53.8066 17.8328 53.4166 17.3428 52.5566V52.5667Z" fill="#F8C2AB"/>
<path d="M17.0926 53.1358C17.2526 53.0958 17.4125 53.1957 17.4425 53.3557C17.4825 53.5157 17.3826 53.6758 17.2226 53.7058C17.0626 53.7458 16.9026 53.6458 16.8726 53.4858C16.8326 53.3258 16.9326 53.1658 17.0926 53.1358Z" fill="#063536"/>
<path d="M14.2926 55.4365C14.7326 55.2065 15.2826 55.3765 15.5226 55.8165C15.7526 56.2565 15.5826 56.8065 15.1426 57.0465C14.7026 57.2765 14.1526 57.1065 13.9126 56.6665C13.6826 56.2265 13.8526 55.6765 14.2926 55.4365Z" fill="#F8C2AB"/>
<path d="M14.5927 55.8964C14.8327 55.8664 15.3027 56.0164 15.3327 56.2564C15.3627 56.4964 14.9426 56.7563 14.7026 56.7863C14.4626 56.8163 14.2326 56.6464 14.2026 56.3964C14.1726 56.1564 14.3427 55.9264 14.5927 55.8964Z" fill="#ECA98D"/>
<path d="M16.9329 52.5866C16.9329 52.5866 16.0528 52.3665 16.1928 53.5965L16.9329 52.5866Z" fill="#063536"/>
<path d="M42.5826 9.51663C42.5826 9.76663 42.3826 9.97665 42.1226 9.97665C41.8626 9.97665 41.6626 9.77663 41.6626 9.51663C41.6626 9.25663 41.8626 9.05664 42.1226 9.05664C42.3826 9.05664 42.5826 9.25663 42.5826 9.51663Z" fill="white"/>
<path d="M13.6728 92.6957C12.5228 92.3057 11.9527 91.3857 11.9527 91.3857C10.9927 91.6557 10.5927 92.6957 10.5927 92.6957L9.31277 92.2957C9.13277 92.3557 9.07272 92.9057 9.07272 92.9057C8.99272 93.3457 9.27272 93.7657 9.70272 93.8557L13.0528 94.5858C13.4928 94.6858 13.9127 94.4157 14.0327 93.9757C14.1727 93.4757 14.2028 92.8657 13.6828 92.6857L13.6728 92.6957ZM11.2627 93.0157C11.1227 93.0157 11.0127 92.9057 11.0127 92.7657C11.0127 92.6257 11.1227 92.5157 11.2627 92.5157C11.4027 92.5157 11.5127 92.6257 11.5127 92.7657C11.5127 92.9057 11.4027 93.0157 11.2627 93.0157ZM11.7827 92.2157C11.7827 92.0757 11.8927 91.9657 12.0327 91.9657C12.1727 91.9657 12.2827 92.0757 12.2827 92.2157C12.2827 92.3557 12.1727 92.4657 12.0327 92.4657C11.8927 92.4657 11.7827 92.3557 11.7827 92.2157ZM12.4328 93.2357C12.2928 93.2357 12.1828 93.1257 12.1828 92.9857C12.1828 92.8457 12.2928 92.7357 12.4328 92.7357C12.5728 92.7357 12.6828 92.8457 12.6828 92.9857C12.6828 93.1257 12.5728 93.2357 12.4328 93.2357Z" fill="#5AD59F"/>
<path d="M9.9157 90.874L9.49121 91.2393L10.6783 92.6189L11.1028 92.2536L9.9157 90.874Z" fill="#5AD59F"/>
<path d="M24.9726 91.0366C23.8026 91.3866 22.8026 90.9766 22.8026 90.9766C22.1826 91.7566 22.4626 92.8366 22.4626 92.8366L21.1826 93.2566C21.0726 93.4066 21.3426 93.8966 21.3426 93.8966C21.5326 94.2966 22.0026 94.4766 22.4126 94.2966L25.5626 92.9366C25.9726 92.7566 26.1625 92.2866 26.0025 91.8766C25.8225 91.3866 25.4926 90.8766 24.9626 91.0366H24.9726ZM23.2126 92.7066C23.1026 92.7866 22.9426 92.7566 22.8626 92.6466C22.7826 92.5366 22.8126 92.3766 22.9226 92.2966C23.0326 92.2166 23.1926 92.2466 23.2726 92.3566C23.3526 92.4666 23.3226 92.6266 23.2126 92.7066ZM23.1626 91.7466C23.0826 91.6366 23.1126 91.4766 23.2226 91.3966C23.3326 91.3166 23.4926 91.3466 23.5726 91.4566C23.6526 91.5666 23.6226 91.7266 23.5126 91.8066C23.4026 91.8866 23.2426 91.8566 23.1626 91.7466ZM24.2826 92.1966C24.1726 92.2766 24.0126 92.2466 23.9326 92.1366C23.8526 92.0266 23.8826 91.8666 23.9926 91.7866C24.1026 91.7066 24.2626 91.7366 24.3426 91.8466C24.4226 91.9566 24.3926 92.1166 24.2826 92.1966Z" fill="#5AD59F"/>
<path d="M20.9419 91.8366L20.8101 92.3809L22.5789 92.8094L22.7108 92.2652L20.9419 91.8366Z" fill="#5AD59F"/>
<path d="M62.1129 90.8262C62.1129 90.8262 62.9428 90.8761 63.5328 90.9861C64.2628 91.1261 64.5929 92.3361 62.9329 92.6761L55.5428 94.2562L54.6528 91.2662C54.6528 91.2662 56.0629 92.4662 62.1129 90.8262Z" fill="#063536"/>
<path fill-rule="evenodd" clip-rule="evenodd" d="M12.9627 62.4262L11.2627 70.7162C14.7327 70.6362 17.2527 65.9962 15.3227 61.3762C15.3227 61.3762 13.9127 58.8562 12.9627 62.4262Z" fill="#F993B3"/>
<path fill-rule="evenodd" clip-rule="evenodd" d="M15.6726 63.2862C14.5326 64.3662 13.5126 66.0862 12.0626 67.8462C12.0626 67.8462 9.17257 74.1563 8.68257 73.9463C6.85257 73.1563 9.81255 65.1763 12.8525 62.4463C16.2525 59.4663 16.1326 62.4062 15.6726 63.2862Z" fill="#F8C2AB"/>
<path fill-rule="evenodd" clip-rule="evenodd" d="M14.6328 59.4561L11.0728 62.916L14.4828 65.616C14.4828 65.616 18.3428 60.6661 14.6328 59.4561Z" fill="#FF9FB8"/>
<path d="M11.8627 53.8563C11.8627 53.8563 9.6927 51.7563 6.7027 52.7863C5.1927 53.3063 4.56275 54.7362 4.31275 56.0262C4.07275 57.2462 3.20269 58.2663 2.00269 58.5863C1.22269 58.7963 0.662721 59.2963 0.282721 60.1363C-0.677279 62.2563 0.782731 65.2262 5.04273 64.4062C8.78273 63.6862 9.64273 60.4563 9.60273 58.7463C9.56273 57.0363 8.46274 54.5563 11.5527 54.7363C11.5527 54.7363 12.4027 54.7063 11.8627 53.8563Z" fill="#063536"/>
<path fill-rule="evenodd" clip-rule="evenodd" d="M18.4026 54.6266C18.4026 54.6266 18.7726 54.5765 18.9726 54.4365C19.0426 54.3865 18.9926 54.0065 18.7626 54.1065L18.3926 54.6366L18.4026 54.6266Z" fill="#FF9FB8"/>
<path fill-rule="evenodd" clip-rule="evenodd" d="M18.4429 54.6158C18.4429 54.6158 18.9529 54.7258 19.1129 54.6758C19.1129 54.6758 19.2429 54.4358 18.9829 54.4258L18.4429 54.6158Z" fill="#FF9FB8"/>
</svg>
