<svg width="72" height="192" viewBox="0 0 72 192" fill="none" xmlns="http://www.w3.org/2000/svg">
<path d="M8.09009 14.9806C8.09009 15.6706 7.47008 16.2406 6.71008 16.2406C5.95008 16.2406 5.33008 15.6706 5.33008 14.9806V4.90063C5.33008 4.20063 5.95008 3.64062 6.71008 3.64062C7.47008 3.64062 8.09009 4.21063 8.09009 4.90063V14.9806Z" fill="#797573"/>
<path d="M6.71008 16.4304C5.83008 16.4304 5.12012 15.7804 5.12012 14.9804V4.90042C5.12012 4.09042 5.83008 3.44043 6.71008 3.44043C7.59008 3.44043 8.30011 4.09042 8.30011 4.90042V14.9804C8.30011 15.7804 7.58008 16.4304 6.71008 16.4304ZM6.71008 3.84042C6.07008 3.84042 5.55011 4.32042 5.55011 4.90042V14.9804C5.55011 15.5604 6.08008 16.0404 6.71008 16.0404C7.34008 16.0404 7.87012 15.5604 7.87012 14.9804V4.90042C7.87012 4.31042 7.34008 3.84042 6.71008 3.84042Z" fill="#555451"/>
<path d="M8.64001 15.0001C8.64001 15.2301 8.50006 15.4101 8.31006 15.4101H5.11005C4.92005 15.4101 4.78003 15.2301 4.78003 15.0001C4.78003 14.7701 4.92005 14.5801 5.11005 14.5801H8.31006C8.50006 14.5801 8.64001 14.7701 8.64001 15.0001Z" fill="#797573"/>
<path d="M8.31006 15.6199H5.11005C4.81005 15.6199 4.56006 15.3499 4.56006 14.9999C4.56006 14.6499 4.81005 14.3799 5.11005 14.3799H8.31006C8.61006 14.3799 8.85004 14.6499 8.85004 14.9999C8.85004 15.3499 8.61006 15.6199 8.31006 15.6199ZM5.11005 14.7799C5.11005 14.7799 5.00006 14.8699 5.00006 15.0099C5.00006 15.1499 5.08005 15.2299 5.11005 15.2299H8.31006C8.31006 15.2299 8.42004 15.1499 8.42004 15.0099C8.42004 14.8699 8.35006 14.7799 8.31006 14.7799H5.11005Z" fill="#555451"/>
<path d="M8.64001 13.5606C8.64001 13.7906 8.50006 13.9706 8.31006 13.9706H5.11005C4.92005 13.9706 4.78003 13.7806 4.78003 13.5606C4.78003 13.3206 4.92005 13.1406 5.11005 13.1406H8.31006C8.50006 13.1406 8.64001 13.3306 8.64001 13.5606Z" fill="#797573"/>
<path d="M8.31006 14.1704H5.11005C4.81005 14.1704 4.56006 13.9004 4.56006 13.5604C4.56006 13.2204 4.81005 12.9404 5.11005 12.9404H8.31006C8.61006 12.9404 8.85004 13.2104 8.85004 13.5604C8.85004 13.9104 8.61006 14.1704 8.31006 14.1704ZM5.11005 13.3304C5.11005 13.3304 5.00006 13.4204 5.00006 13.5604C5.00006 13.6904 5.07005 13.7804 5.11005 13.7804H8.31006C8.31006 13.7804 8.42004 13.7004 8.42004 13.5604C8.42004 13.4204 8.35006 13.3304 8.31006 13.3304H5.11005Z" fill="#555451"/>
<path d="M8.64001 12.1104C8.64001 12.3404 8.50006 12.5304 8.31006 12.5304H5.11005C4.92005 12.5304 4.78003 12.3404 4.78003 12.1104C4.78003 11.8804 4.92005 11.6904 5.11005 11.6904H8.31006C8.50006 11.6904 8.64001 11.8804 8.64001 12.1104Z" fill="#797573"/>
<path d="M8.31006 12.7302H5.11005C4.81005 12.7302 4.56006 12.4602 4.56006 12.1102C4.56006 11.7602 4.81005 11.4902 5.11005 11.4902H8.31006C8.61006 11.4902 8.85004 11.7602 8.85004 12.1102C8.85004 12.4602 8.61006 12.7302 8.31006 12.7302ZM5.11005 11.8802C5.11005 11.8802 5.00006 11.9602 5.00006 12.1002C5.00006 12.2402 5.08005 12.3202 5.11005 12.3202H8.31006C8.31006 12.3202 8.42004 12.2402 8.42004 12.1002C8.42004 11.9602 8.35006 11.8802 8.31006 11.8802H5.11005Z" fill="#555451"/>
<path d="M8.64001 10.6602C8.64001 10.8902 8.50006 11.0802 8.31006 11.0802H5.11005C4.92005 11.0802 4.78003 10.8902 4.78003 10.6602C4.78003 10.4302 4.92005 10.2402 5.11005 10.2402H8.31006C8.50006 10.2402 8.64001 10.4202 8.64001 10.6602Z" fill="#797573"/>
<path d="M8.31006 11.2801H5.11005C4.81005 11.2801 4.56006 11.01 4.56006 10.66C4.56006 10.31 4.81005 10.04 5.11005 10.04H8.31006C8.61006 10.04 8.85004 10.31 8.85004 10.66C8.85004 11.01 8.61006 11.2801 8.31006 11.2801ZM5.11005 10.4401C5.11005 10.4401 5.00006 10.53 5.00006 10.66C5.00006 10.79 5.07005 10.88 5.11005 10.88H8.31006C8.31006 10.88 8.42004 10.8 8.42004 10.66C8.42004 10.52 8.35006 10.4401 8.31006 10.4401H5.11005Z" fill="#555451"/>
<path d="M8.64001 9.21005C8.64001 9.44005 8.50006 9.63004 8.31006 9.63004H5.11005C4.92005 9.63004 4.78003 9.44005 4.78003 9.21005C4.78003 8.98005 4.92005 8.79004 5.11005 8.79004H8.31006C8.50006 8.79004 8.64001 8.98005 8.64001 9.21005Z" fill="#797573"/>
<path d="M8.31006 9.82983H5.11005C4.81005 9.82983 4.56006 9.55984 4.56006 9.20984C4.56006 8.85984 4.81005 8.58984 5.11005 8.58984H8.31006C8.61006 8.58984 8.85004 8.85984 8.85004 9.20984C8.85004 9.55984 8.61006 9.82983 8.31006 9.82983ZM5.11005 8.98984C5.11005 8.98984 5.00006 9.06984 5.00006 9.20984C5.00006 9.33984 5.07005 9.42984 5.11005 9.42984H8.31006C8.31006 9.42984 8.42004 9.34984 8.42004 9.20984C8.42004 9.06984 8.35006 8.98984 8.31006 8.98984H5.11005Z" fill="#555451"/>
<path d="M8.64001 7.76962C8.64001 7.99962 8.50006 8.18964 8.31006 8.18964H5.11005C4.92005 8.18964 4.78003 7.99962 4.78003 7.76962C4.78003 7.53962 4.92005 7.34961 5.11005 7.34961H8.31006C8.50006 7.34961 8.64001 7.52962 8.64001 7.76962Z" fill="#797573"/>
<path d="M8.31006 8.37964H5.11005C4.81005 8.37964 4.56006 8.10964 4.56006 7.75964C4.56006 7.40964 4.81005 7.13965 5.11005 7.13965H8.31006C8.61006 7.13965 8.85004 7.40964 8.85004 7.75964C8.85004 8.10964 8.61006 8.37964 8.31006 8.37964ZM5.11005 7.53964C5.11005 7.53964 5.00006 7.61965 5.00006 7.76965C5.00006 7.91965 5.08005 7.98965 5.11005 7.98965H8.31006C8.31006 7.98965 8.42004 7.90965 8.42004 7.76965C8.42004 7.62965 8.35006 7.53964 8.31006 7.53964H5.11005Z" fill="#555451"/>
<path d="M8.64001 6.32037C8.64001 6.55037 8.50006 6.74039 8.31006 6.74039H5.11005C4.92005 6.74039 4.78003 6.55037 4.78003 6.32037C4.78003 6.09037 4.92005 5.90039 5.11005 5.90039H8.31006C8.50006 5.90039 8.64001 6.09037 8.64001 6.32037Z" fill="#797573"/>
<path d="M8.31006 6.94022H5.11005C4.81005 6.94022 4.56006 6.67019 4.56006 6.32019C4.56006 5.97019 4.81005 5.7002 5.11005 5.7002H8.31006C8.61006 5.7002 8.85004 5.97019 8.85004 6.32019C8.85004 6.67019 8.61006 6.94022 8.31006 6.94022ZM5.11005 6.09021C5.11005 6.09021 5.00006 6.18021 5.00006 6.31021C5.00006 6.44021 5.08005 6.54019 5.11005 6.54019H8.31006C8.31006 6.54019 8.42004 6.46021 8.42004 6.31021C8.42004 6.16021 8.35006 6.09021 8.31006 6.09021H5.11005Z" fill="#555451"/>
<path d="M8.64001 4.87021C8.64001 5.10021 8.50006 5.29019 8.31006 5.29019H5.11005C4.92005 5.29019 4.78003 5.10021 4.78003 4.87021C4.78003 4.64021 4.92005 4.4502 5.11005 4.4502H8.31006C8.50006 4.4502 8.64001 4.64021 8.64001 4.87021Z" fill="#797573"/>
<path d="M8.31006 5.48999H5.11005C4.81005 5.48999 4.56006 5.22 4.56006 4.87C4.56006 4.52 4.81005 4.25 5.11005 4.25H8.31006C8.61006 4.25 8.85004 4.53 8.85004 4.87C8.85004 5.21 8.61006 5.48999 8.31006 5.48999ZM5.11005 4.64999C5.11005 4.64999 5.00006 4.73 5.00006 4.87C5.00006 5.01 5.07005 5.09 5.11005 5.09H8.31006C8.31006 5.09 8.42004 5.01 8.42004 4.87C8.42004 4.73 8.35006 4.64999 8.31006 4.64999H5.11005Z" fill="#555451"/>
<path d="M23.4102 14.9806C23.4102 15.6706 22.7902 16.2406 22.0302 16.2406C21.2702 16.2406 20.6501 15.6706 20.6501 14.9806V4.90063C20.6501 4.20063 21.2702 3.64062 22.0302 3.64062C22.8002 3.64062 23.4102 4.21063 23.4102 4.90063V14.9806Z" fill="#797573"/>
<path d="M22.0302 16.4304C21.1502 16.4304 20.4402 15.7804 20.4402 14.9804V4.90042C20.4402 4.09042 21.1602 3.44043 22.0302 3.44043C22.9002 3.44043 23.6302 4.09042 23.6302 4.90042V14.9804C23.6302 15.7804 22.9102 16.4304 22.0302 16.4304ZM22.0302 3.84042C21.3902 3.84042 20.8702 4.32042 20.8702 4.90042V14.9804C20.8702 15.5604 21.3902 16.0404 22.0302 16.0404C22.6702 16.0404 23.1902 15.5604 23.1902 14.9804V4.90042C23.1902 4.31042 22.6702 3.84042 22.0302 3.84042Z" fill="#555451"/>
<path d="M23.9601 15.0001C23.9601 15.2301 23.8101 15.4101 23.6301 15.4101H20.4401C20.2501 15.4101 20.1101 15.2301 20.1101 15.0001C20.1101 14.7701 20.2601 14.5801 20.4401 14.5801H23.6301C23.8101 14.5801 23.9601 14.7701 23.9601 15.0001Z" fill="#797573"/>
<path d="M23.6302 15.6199H20.4402C20.1302 15.6199 19.8901 15.3499 19.8901 14.9999C19.8901 14.6499 20.1302 14.3799 20.4402 14.3799H23.6302C23.9402 14.3799 24.1802 14.6499 24.1802 14.9999C24.1802 15.3499 23.9402 15.6199 23.6302 15.6199ZM20.4402 14.7799C20.4402 14.7799 20.3301 14.8699 20.3301 15.0099C20.3301 15.1499 20.4102 15.2299 20.4402 15.2299H23.6302C23.6302 15.2299 23.7402 15.1499 23.7402 15.0099C23.7402 14.8699 23.6602 14.7799 23.6302 14.7799H20.4402Z" fill="#555451"/>
<path d="M23.9601 13.5606C23.9601 13.7906 23.8101 13.9706 23.6301 13.9706H20.4401C20.2501 13.9706 20.1101 13.7806 20.1101 13.5606C20.1101 13.3206 20.2601 13.1406 20.4401 13.1406H23.6301C23.8101 13.1406 23.9601 13.3306 23.9601 13.5606Z" fill="#797573"/>
<path d="M23.6302 14.1704H20.4402C20.1302 14.1704 19.8901 13.9004 19.8901 13.5604C19.8901 13.2204 20.1302 12.9404 20.4402 12.9404H23.6302C23.9402 12.9404 24.1802 13.2104 24.1802 13.5604C24.1802 13.9104 23.9402 14.1704 23.6302 14.1704ZM20.4402 13.3304C20.4402 13.3304 20.3301 13.4204 20.3301 13.5604C20.3301 13.6904 20.4002 13.7804 20.4402 13.7804H23.6302C23.6302 13.7804 23.7402 13.7004 23.7402 13.5604C23.7402 13.4104 23.6602 13.3304 23.6302 13.3304H20.4402Z" fill="#555451"/>
<path d="M23.9601 12.1104C23.9601 12.3404 23.8101 12.5304 23.6301 12.5304H20.4401C20.2501 12.5304 20.1101 12.3404 20.1101 12.1104C20.1101 11.8804 20.2601 11.6904 20.4401 11.6904H23.6301C23.8101 11.6904 23.9601 11.8804 23.9601 12.1104Z" fill="#797573"/>
<path d="M23.6302 12.7302H20.4402C20.1302 12.7302 19.8901 12.4602 19.8901 12.1102C19.8901 11.7602 20.1302 11.4902 20.4402 11.4902H23.6302C23.9402 11.4902 24.1802 11.7602 24.1802 12.1102C24.1802 12.4602 23.9402 12.7302 23.6302 12.7302ZM20.4402 11.8802C20.4402 11.8802 20.3301 11.9602 20.3301 12.1002C20.3301 12.2402 20.4002 12.3202 20.4402 12.3202H23.6302C23.6302 12.3202 23.7402 12.2402 23.7402 12.1002C23.7402 11.9602 23.6702 11.8802 23.6302 11.8802H20.4402Z" fill="#555451"/>
<path d="M23.9601 10.6602C23.9601 10.8902 23.8101 11.0802 23.6301 11.0802H20.4401C20.2501 11.0802 20.1101 10.8902 20.1101 10.6602C20.1101 10.4302 20.2601 10.2402 20.4401 10.2402H23.6301C23.8101 10.2402 23.9601 10.4202 23.9601 10.6602Z" fill="#797573"/>
<path d="M23.6302 11.2801H20.4402C20.1302 11.2801 19.8901 11.01 19.8901 10.66C19.8901 10.31 20.1302 10.04 20.4402 10.04H23.6302C23.9402 10.04 24.1802 10.31 24.1802 10.66C24.1802 11.01 23.9402 11.2801 23.6302 11.2801ZM20.4402 10.4401C20.4402 10.4401 20.3301 10.53 20.3301 10.66C20.3301 10.79 20.4002 10.88 20.4402 10.88H23.6302C23.6302 10.88 23.7402 10.8 23.7402 10.66C23.7402 10.52 23.6602 10.4401 23.6302 10.4401H20.4402Z" fill="#555451"/>
<path d="M23.9601 9.21005C23.9601 9.44005 23.8101 9.63004 23.6301 9.63004H20.4401C20.2501 9.63004 20.1101 9.44005 20.1101 9.21005C20.1101 8.98005 20.2601 8.79004 20.4401 8.79004H23.6301C23.8101 8.79004 23.9601 8.98005 23.9601 9.21005Z" fill="#797573"/>
<path d="M23.6302 9.82983H20.4402C20.1302 9.82983 19.8901 9.55984 19.8901 9.20984C19.8901 8.85984 20.1302 8.58984 20.4402 8.58984H23.6302C23.9402 8.58984 24.1802 8.85984 24.1802 9.20984C24.1802 9.55984 23.9402 9.82983 23.6302 9.82983ZM20.4402 8.98984C20.4402 8.98984 20.3301 9.07984 20.3301 9.20984C20.3301 9.33984 20.4002 9.42984 20.4402 9.42984H23.6302C23.6302 9.42984 23.7402 9.34984 23.7402 9.20984C23.7402 9.06984 23.6702 8.98984 23.6302 8.98984H20.4402Z" fill="#555451"/>
<path d="M23.9601 7.76962C23.9601 7.99962 23.8101 8.18964 23.6301 8.18964H20.4401C20.2501 8.18964 20.1101 7.99962 20.1101 7.76962C20.1101 7.53962 20.2601 7.34961 20.4401 7.34961H23.6301C23.8101 7.34961 23.9601 7.52962 23.9601 7.76962Z" fill="#797573"/>
<path d="M23.6302 8.37964H20.4402C20.1302 8.37964 19.8901 8.10964 19.8901 7.75964C19.8901 7.40964 20.1302 7.13965 20.4402 7.13965H23.6302C23.9402 7.13965 24.1802 7.40964 24.1802 7.75964C24.1802 8.10964 23.9402 8.37964 23.6302 8.37964ZM20.4402 7.53964C20.4402 7.53964 20.3301 7.62965 20.3301 7.76965C20.3301 7.90965 20.4002 7.98965 20.4402 7.98965H23.6302C23.6302 7.98965 23.7402 7.90965 23.7402 7.76965C23.7402 7.62965 23.6702 7.53964 23.6302 7.53964H20.4402Z" fill="#555451"/>
<path d="M23.9601 6.32037C23.9601 6.55037 23.8101 6.74039 23.6301 6.74039H20.4401C20.2501 6.74039 20.1101 6.55037 20.1101 6.32037C20.1101 6.09037 20.2601 5.90039 20.4401 5.90039H23.6301C23.8101 5.90039 23.9601 6.09037 23.9601 6.32037Z" fill="#797573"/>
<path d="M23.6302 6.94022H20.4402C20.1302 6.94022 19.8901 6.67019 19.8901 6.32019C19.8901 5.97019 20.1302 5.7002 20.4402 5.7002H23.6302C23.9402 5.7002 24.1802 5.97019 24.1802 6.32019C24.1802 6.67019 23.9402 6.94022 23.6302 6.94022ZM20.4402 6.09021C20.4402 6.09021 20.3301 6.18021 20.3301 6.31021C20.3301 6.44021 20.4102 6.54019 20.4402 6.54019H23.6302C23.6302 6.54019 23.7402 6.45021 23.7402 6.31021C23.7402 6.17021 23.6602 6.09021 23.6302 6.09021H20.4402Z" fill="#555451"/>
<path d="M23.9601 4.87021C23.9601 5.10021 23.8101 5.29019 23.6301 5.29019H20.4401C20.2501 5.29019 20.1101 5.10021 20.1101 4.87021C20.1101 4.64021 20.2601 4.4502 20.4401 4.4502H23.6301C23.8101 4.4502 23.9601 4.64021 23.9601 4.87021Z" fill="#797573"/>
<path d="M23.6302 5.48999H20.4402C20.1302 5.48999 19.8901 5.22 19.8901 4.87C19.8901 4.52 20.1302 4.25 20.4402 4.25H23.6302C23.9402 4.25 24.1802 4.53 24.1802 4.87C24.1802 5.21 23.9402 5.48999 23.6302 5.48999ZM20.4402 4.64999C20.4402 4.64999 20.3301 4.73 20.3301 4.87C20.3301 5.01 20.4002 5.09 20.4402 5.09H23.6302C23.6302 5.09 23.7402 5.01 23.7402 4.87C23.7402 4.73 23.6702 4.64999 23.6302 4.64999H20.4402Z" fill="#555451"/>
<path d="M49.73 14.9806C49.73 15.6706 49.11 16.2406 48.35 16.2406C47.58 16.2406 46.97 15.6706 46.97 14.9806V4.90063C46.97 4.20063 47.59 3.64062 48.35 3.64062C49.11 3.64062 49.73 4.21063 49.73 4.90063V14.9806Z" fill="#797573"/>
<path d="M48.35 16.4304C47.47 16.4304 46.75 15.7804 46.75 14.9804V4.90042C46.75 4.09042 47.47 3.44043 48.35 3.44043C49.23 3.44043 49.94 4.09042 49.94 4.90042V14.9804C49.94 15.7804 49.22 16.4304 48.35 16.4304ZM48.35 3.84042C47.71 3.84042 47.19 4.32042 47.19 4.90042V14.9804C47.19 15.5604 47.71 16.0404 48.35 16.0404C48.99 16.0404 49.51 15.5604 49.51 14.9804V4.90042C49.51 4.31042 48.98 3.84042 48.35 3.84042Z" fill="#555451"/>
<path d="M50.2799 15.0001C50.2799 15.2301 50.13 15.4101 49.95 15.4101H46.7499C46.5599 15.4101 46.4199 15.2301 46.4199 15.0001C46.4199 14.7701 46.5599 14.5801 46.7499 14.5801H49.95C50.13 14.5801 50.2799 14.7701 50.2799 15.0001Z" fill="#797573"/>
<path d="M49.95 15.6199H46.7499C46.4499 15.6199 46.2 15.3499 46.2 14.9999C46.2 14.6499 46.4399 14.3799 46.7499 14.3799H49.95C50.25 14.3799 50.4899 14.6499 50.4899 14.9999C50.4899 15.3499 50.25 15.6199 49.95 15.6199ZM46.7499 14.7799C46.7499 14.7799 46.6399 14.8699 46.6399 15.0099C46.6399 15.1499 46.7199 15.2299 46.7499 15.2299H49.95C49.95 15.2299 50.0599 15.1499 50.0599 15.0099C50.0599 14.8699 49.98 14.7799 49.95 14.7799H46.7499Z" fill="#555451"/>
<path d="M50.2799 13.5606C50.2799 13.7906 50.13 13.9706 49.95 13.9706H46.7499C46.5599 13.9706 46.4199 13.7806 46.4199 13.5606C46.4199 13.3206 46.5599 13.1406 46.7499 13.1406H49.95C50.13 13.1406 50.2799 13.3306 50.2799 13.5606Z" fill="#797573"/>
<path d="M49.95 14.1704H46.7499C46.4499 14.1704 46.2 13.9004 46.2 13.5604C46.2 13.2204 46.4399 12.9404 46.7499 12.9404H49.95C50.25 12.9404 50.4899 13.2104 50.4899 13.5604C50.4899 13.9104 50.25 14.1704 49.95 14.1704ZM46.7499 13.3304C46.7499 13.3304 46.6399 13.4204 46.6399 13.5604C46.6399 13.6904 46.7099 13.7804 46.7499 13.7804H49.95C49.95 13.7804 50.0599 13.7004 50.0599 13.5604C50.0599 13.4104 49.98 13.3304 49.95 13.3304H46.7499Z" fill="#555451"/>
<path d="M50.2799 12.1104C50.2799 12.3404 50.13 12.5304 49.95 12.5304H46.7499C46.5599 12.5304 46.4199 12.3404 46.4199 12.1104C46.4199 11.8804 46.5599 11.6904 46.7499 11.6904H49.95C50.13 11.6904 50.2799 11.8804 50.2799 12.1104Z" fill="#797573"/>
<path d="M49.95 12.7302H46.7499C46.4499 12.7302 46.2 12.4602 46.2 12.1102C46.2 11.7602 46.4399 11.4902 46.7499 11.4902H49.95C50.25 11.4902 50.4899 11.7602 50.4899 12.1102C50.4899 12.4602 50.25 12.7302 49.95 12.7302ZM46.7499 11.8802C46.7499 11.8802 46.6399 11.9602 46.6399 12.1002C46.6399 12.2402 46.7199 12.3202 46.7499 12.3202H49.95C49.95 12.3202 50.0599 12.2402 50.0599 12.1002C50.0599 11.9602 49.98 11.8802 49.95 11.8802H46.7499Z" fill="#555451"/>
<path d="M50.2799 10.6602C50.2799 10.8902 50.13 11.0802 49.95 11.0802H46.7499C46.5599 11.0802 46.4199 10.8902 46.4199 10.6602C46.4199 10.4302 46.5599 10.2402 46.7499 10.2402H49.95C50.13 10.2402 50.2799 10.4202 50.2799 10.6602Z" fill="#797573"/>
<path d="M49.95 11.2801H46.7499C46.4499 11.2801 46.2 11.01 46.2 10.66C46.2 10.31 46.4399 10.04 46.7499 10.04H49.95C50.25 10.04 50.4899 10.31 50.4899 10.66C50.4899 11.01 50.25 11.2801 49.95 11.2801ZM46.7499 10.4401C46.7499 10.4401 46.6399 10.53 46.6399 10.66C46.6399 10.79 46.7099 10.88 46.7499 10.88H49.95C49.95 10.88 50.0599 10.8 50.0599 10.66C50.0599 10.52 49.98 10.4401 49.95 10.4401H46.7499Z" fill="#555451"/>
<path d="M50.2799 9.21005C50.2799 9.44005 50.13 9.63004 49.95 9.63004H46.7499C46.5599 9.63004 46.4199 9.44005 46.4199 9.21005C46.4199 8.98005 46.5599 8.79004 46.7499 8.79004H49.95C50.13 8.79004 50.2799 8.98005 50.2799 9.21005Z" fill="#797573"/>
<path d="M49.95 9.82983H46.7499C46.4499 9.82983 46.2 9.55984 46.2 9.20984C46.2 8.85984 46.4399 8.58984 46.7499 8.58984H49.95C50.25 8.58984 50.4899 8.85984 50.4899 9.20984C50.4899 9.55984 50.25 9.82983 49.95 9.82983ZM46.7499 8.98984C46.7499 8.98984 46.6399 9.06984 46.6399 9.20984C46.6399 9.33984 46.7099 9.42984 46.7499 9.42984H49.95C49.95 9.42984 50.0599 9.34984 50.0599 9.20984C50.0599 9.06984 49.98 8.98984 49.95 8.98984H46.7499Z" fill="#555451"/>
<path d="M50.2799 7.76962C50.2799 7.99962 50.13 8.18964 49.95 8.18964H46.7499C46.5599 8.18964 46.4199 7.99962 46.4199 7.76962C46.4199 7.53962 46.5599 7.34961 46.7499 7.34961H49.95C50.13 7.34961 50.2799 7.52962 50.2799 7.76962Z" fill="#797573"/>
<path d="M49.95 8.37964H46.7499C46.4499 8.37964 46.2 8.10964 46.2 7.75964C46.2 7.40964 46.4399 7.13965 46.7499 7.13965H49.95C50.25 7.13965 50.4899 7.40964 50.4899 7.75964C50.4899 8.10964 50.25 8.37964 49.95 8.37964ZM46.7499 7.53964C46.7499 7.53964 46.6399 7.61965 46.6399 7.76965C46.6399 7.91965 46.7199 7.98965 46.7499 7.98965H49.95C49.95 7.98965 50.0599 7.90965 50.0599 7.76965C50.0599 7.62965 49.98 7.53964 49.95 7.53964H46.7499Z" fill="#555451"/>
<path d="M50.2799 6.32037C50.2799 6.55037 50.13 6.74039 49.95 6.74039H46.7499C46.5599 6.74039 46.4199 6.55037 46.4199 6.32037C46.4199 6.09037 46.5599 5.90039 46.7499 5.90039H49.95C50.13 5.90039 50.2799 6.09037 50.2799 6.32037Z" fill="#797573"/>
<path d="M49.95 6.94022H46.7499C46.4499 6.94022 46.2 6.67019 46.2 6.32019C46.2 5.97019 46.4399 5.7002 46.7499 5.7002H49.95C50.25 5.7002 50.4899 5.97019 50.4899 6.32019C50.4899 6.67019 50.25 6.94022 49.95 6.94022ZM46.7499 6.09021C46.7499 6.09021 46.6399 6.18021 46.6399 6.31021C46.6399 6.44021 46.7199 6.54019 46.7499 6.54019H49.95C49.95 6.54019 50.0599 6.45021 50.0599 6.31021C50.0599 6.17021 49.98 6.09021 49.95 6.09021H46.7499Z" fill="#555451"/>
<path d="M50.2799 4.87021C50.2799 5.10021 50.13 5.29019 49.95 5.29019H46.7499C46.5599 5.29019 46.4199 5.10021 46.4199 4.87021C46.4199 4.64021 46.5599 4.4502 46.7499 4.4502H49.95C50.13 4.4502 50.2799 4.64021 50.2799 4.87021Z" fill="#797573"/>
<path d="M49.95 5.48999H46.7499C46.4499 5.48999 46.2 5.22 46.2 4.87C46.2 4.52 46.4399 4.25 46.7499 4.25H49.95C50.25 4.25 50.4899 4.53 50.4899 4.87C50.4899 5.21 50.25 5.48999 49.95 5.48999ZM46.7499 4.64999C46.7499 4.64999 46.6399 4.73 46.6399 4.87C46.6399 5.01 46.7099 5.09 46.7499 5.09H49.95C49.95 5.09 50.0599 5.01 50.0599 4.87C50.0599 4.73 49.98 4.64999 49.95 4.64999H46.7499Z" fill="#555451"/>
<path d="M65.0498 14.9806C65.0498 15.6706 64.4298 16.2406 63.6698 16.2406C62.9098 16.2406 62.2898 15.6706 62.2898 14.9806V4.90063C62.2898 4.20063 62.9098 3.64062 63.6698 3.64062C64.4398 3.64062 65.0498 4.21063 65.0498 4.90063V14.9806Z" fill="#797573"/>
<path d="M63.6699 16.4304C62.7899 16.4304 62.0798 15.7804 62.0798 14.9804V4.90042C62.0798 4.09042 62.7999 3.44043 63.6699 3.44043C64.5399 3.44043 65.2698 4.09042 65.2698 4.90042V14.9804C65.2698 15.7804 64.5499 16.4304 63.6699 16.4304ZM63.6699 3.84042C63.0299 3.84042 62.5099 4.32042 62.5099 4.90042V14.9804C62.5099 15.5604 63.0399 16.0404 63.6699 16.0404C64.2999 16.0404 64.8298 15.5604 64.8298 14.9804V4.90042C64.8298 4.31042 64.3099 3.84042 63.6699 3.84042Z" fill="#555451"/>
<path d="M65.5997 15.0001C65.5997 15.2301 65.4597 15.4101 65.2797 15.4101H62.0797C61.8997 15.4101 61.7498 15.2301 61.7498 15.0001C61.7498 14.7701 61.8997 14.5801 62.0797 14.5801H65.2797C65.4597 14.5801 65.5997 14.7701 65.5997 15.0001Z" fill="#797573"/>
<path d="M65.2698 15.6199H62.0698C61.7698 15.6199 61.5298 15.3499 61.5298 14.9999C61.5298 14.6499 61.7698 14.3799 62.0698 14.3799H65.2698C65.5698 14.3799 65.8098 14.6499 65.8098 14.9999C65.8098 15.3499 65.5698 15.6199 65.2698 15.6199ZM62.0698 14.7799C62.0698 14.7799 61.9598 14.8699 61.9598 15.0099C61.9598 15.1499 62.0398 15.2299 62.0698 15.2299H65.2698C65.2698 15.2299 65.3798 15.1499 65.3798 15.0099C65.3798 14.8699 65.2898 14.7799 65.2698 14.7799H62.0698Z" fill="#555451"/>
<path d="M65.5997 13.5606C65.5997 13.7906 65.4597 13.9706 65.2797 13.9706H62.0797C61.8997 13.9706 61.7498 13.7806 61.7498 13.5606C61.7498 13.3206 61.8997 13.1406 62.0797 13.1406H65.2797C65.4597 13.1406 65.5997 13.3306 65.5997 13.5606Z" fill="#797573"/>
<path d="M65.2698 14.1704H62.0698C61.7698 14.1704 61.5298 13.9004 61.5298 13.5604C61.5298 13.2204 61.7698 12.9404 62.0698 12.9404H65.2698C65.5698 12.9404 65.8098 13.2104 65.8098 13.5604C65.8098 13.9104 65.5698 14.1704 65.2698 14.1704ZM62.0698 13.3304C62.0698 13.3304 61.9598 13.4204 61.9598 13.5604C61.9598 13.6904 62.0298 13.7804 62.0698 13.7804H65.2698C65.2698 13.7804 65.3798 13.7004 65.3798 13.5604C65.3798 13.4204 65.2898 13.3304 65.2698 13.3304H62.0698Z" fill="#555451"/>
<path d="M65.5997 12.1104C65.5997 12.3404 65.4597 12.5304 65.2797 12.5304H62.0797C61.8997 12.5304 61.7498 12.3404 61.7498 12.1104C61.7498 11.8804 61.8997 11.6904 62.0797 11.6904H65.2797C65.4597 11.6904 65.5997 11.8804 65.5997 12.1104Z" fill="#797573"/>
<path d="M65.2698 12.7302H62.0698C61.7698 12.7302 61.5298 12.4602 61.5298 12.1102C61.5298 11.7602 61.7698 11.4902 62.0698 11.4902H65.2698C65.5698 11.4902 65.8098 11.7602 65.8098 12.1102C65.8098 12.4602 65.5698 12.7302 65.2698 12.7302ZM62.0698 11.8802C62.0698 11.8802 61.9598 11.9602 61.9598 12.1002C61.9598 12.2402 62.0398 12.3202 62.0698 12.3202H65.2698C65.2698 12.3202 65.3798 12.2402 65.3798 12.1002C65.3798 11.9602 65.2998 11.8802 65.2698 11.8802H62.0698Z" fill="#555451"/>
<path d="M65.5997 10.6602C65.5997 10.8902 65.4597 11.0802 65.2797 11.0802H62.0797C61.8997 11.0802 61.7498 10.8902 61.7498 10.6602C61.7498 10.4302 61.8997 10.2402 62.0797 10.2402H65.2797C65.4597 10.2402 65.5997 10.4202 65.5997 10.6602Z" fill="#797573"/>
<path d="M65.2698 11.2801H62.0698C61.7698 11.2801 61.5298 11.01 61.5298 10.66C61.5298 10.31 61.7698 10.04 62.0698 10.04H65.2698C65.5698 10.04 65.8098 10.31 65.8098 10.66C65.8098 11.01 65.5698 11.2801 65.2698 11.2801ZM62.0698 10.4401C62.0698 10.4401 61.9598 10.53 61.9598 10.66C61.9598 10.79 62.0298 10.88 62.0698 10.88H65.2698C65.2698 10.88 65.3798 10.8 65.3798 10.66C65.3798 10.52 65.2898 10.4401 65.2698 10.4401H62.0698Z" fill="#555451"/>
<path d="M65.5997 9.21005C65.5997 9.44005 65.4597 9.63004 65.2797 9.63004H62.0797C61.8997 9.63004 61.7498 9.44005 61.7498 9.21005C61.7498 8.98005 61.8997 8.79004 62.0797 8.79004H65.2797C65.4597 8.79004 65.5997 8.98005 65.5997 9.21005Z" fill="#797573"/>
<path d="M65.2698 9.82983H62.0698C61.7698 9.82983 61.5298 9.55984 61.5298 9.20984C61.5298 8.85984 61.7698 8.58984 62.0698 8.58984H65.2698C65.5698 8.58984 65.8098 8.85984 65.8098 9.20984C65.8098 9.55984 65.5698 9.82983 65.2698 9.82983ZM62.0698 8.98984C62.0698 8.98984 61.9598 9.06984 61.9598 9.20984C61.9598 9.33984 62.0298 9.42984 62.0698 9.42984H65.2698C65.2698 9.42984 65.3798 9.34984 65.3798 9.20984C65.3798 9.06984 65.2898 8.98984 65.2698 8.98984H62.0698Z" fill="#555451"/>
<path d="M65.5997 7.76962C65.5997 7.99962 65.4597 8.18964 65.2797 8.18964H62.0797C61.8997 8.18964 61.7498 7.99962 61.7498 7.76962C61.7498 7.53962 61.8997 7.34961 62.0797 7.34961H65.2797C65.4597 7.34961 65.5997 7.52962 65.5997 7.76962Z" fill="#797573"/>
<path d="M65.2698 8.37964H62.0698C61.7698 8.37964 61.5298 8.10964 61.5298 7.75964C61.5298 7.40964 61.7698 7.13965 62.0698 7.13965H65.2698C65.5698 7.13965 65.8098 7.40964 65.8098 7.75964C65.8098 8.10964 65.5698 8.37964 65.2698 8.37964ZM62.0698 7.53964C62.0698 7.53964 61.9598 7.61965 61.9598 7.76965C61.9598 7.91965 62.0398 7.98965 62.0698 7.98965H65.2698C65.2698 7.98965 65.3798 7.90965 65.3798 7.76965C65.3798 7.62965 65.2898 7.53964 65.2698 7.53964H62.0698Z" fill="#555451"/>
<path d="M65.5997 6.32037C65.5997 6.55037 65.4597 6.74039 65.2797 6.74039H62.0797C61.8997 6.74039 61.7498 6.55037 61.7498 6.32037C61.7498 6.09037 61.8997 5.90039 62.0797 5.90039H65.2797C65.4597 5.90039 65.5997 6.09037 65.5997 6.32037Z" fill="#797573"/>
<path d="M65.2698 6.94022H62.0698C61.7698 6.94022 61.5298 6.67019 61.5298 6.32019C61.5298 5.97019 61.7698 5.7002 62.0698 5.7002H65.2698C65.5698 5.7002 65.8098 5.97019 65.8098 6.32019C65.8098 6.67019 65.5698 6.94022 65.2698 6.94022ZM62.0698 6.09021C62.0698 6.09021 61.9598 6.18021 61.9598 6.31021C61.9598 6.44021 62.0398 6.54019 62.0698 6.54019H65.2698C65.2698 6.54019 65.3798 6.46021 65.3798 6.31021C65.3798 6.16021 65.2898 6.09021 65.2698 6.09021H62.0698Z" fill="#555451"/>
<path d="M65.5997 4.87021C65.5997 5.10021 65.4597 5.29019 65.2797 5.29019H62.0797C61.8997 5.29019 61.7498 5.10021 61.7498 4.87021C61.7498 4.64021 61.8997 4.4502 62.0797 4.4502H65.2797C65.4597 4.4502 65.5997 4.64021 65.5997 4.87021Z" fill="#797573"/>
<path d="M65.2698 5.48999H62.0698C61.7698 5.48999 61.5298 5.22 61.5298 4.87C61.5298 4.52 61.7698 4.25 62.0698 4.25H65.2698C65.5698 4.25 65.8098 4.53 65.8098 4.87C65.8098 5.21 65.5698 5.48999 65.2698 5.48999ZM62.0698 4.64999C62.0698 4.64999 61.9598 4.73 61.9598 4.87C61.9598 5.01 62.0298 5.09 62.0698 5.09H65.2698C65.2698 5.09 65.3798 5.01 65.3798 4.87C65.3798 4.73 65.2898 4.64999 65.2698 4.64999H62.0698Z" fill="#555451"/>
<path d="M39.75 0.200195H31.51V191.23H39.75V0.200195Z" fill="#B9B0AB"/>
<path d="M39.7501 191.43H31.5101C31.3901 191.43 31.29 191.34 31.29 191.23V0.199982C31.29 0.0899817 31.3901 0 31.5101 0H39.7501C39.8701 0 39.97 0.0899817 39.97 0.199982V191.23C39.97 191.34 39.8701 191.43 39.7501 191.43ZM31.72 191.03H39.53V0.389984H31.72V191.03Z" fill="#7A7674"/>
<g style="mix-blend-mode:multiply" opacity="0.6">
<path d="M39.75 32.6504H31.51V62.2604H39.75V32.6504Z" fill="#797573"/>
</g>
<g style="mix-blend-mode:multiply">
<path d="M39.75 0.200195H36.96V191.23H39.75V0.200195Z" fill="#B9B0AB"/>
</g>
<g style="mix-blend-mode:screen">
<path d="M32.6799 0.200195H31.95V191.23H32.6799V0.200195Z" fill="#B9B0AB"/>
</g>
<path d="M43.5398 89.1396C43.5398 92.9296 40.2098 95.9996 36.0598 95.9996C31.8998 95.9996 28.5598 92.9296 28.5598 89.1396V34.4095C28.5598 30.6195 31.8998 27.5596 36.0598 27.5596C40.2098 27.5596 43.5398 30.6195 43.5398 34.4095V89.1396Z" fill="#797573"/>
<path d="M36.0599 97.0395C31.2699 97.0395 27.3699 93.4895 27.3699 89.1295V34.3995C27.3699 30.0095 31.2699 26.4795 36.0599 26.4795C40.8499 26.4795 44.7499 29.9995 44.7499 34.3995V89.1295C44.7499 93.4795 40.8299 97.0395 36.0599 97.0395ZM36.0599 28.6395C32.5599 28.6395 29.7399 31.2095 29.7399 34.3995V89.1295C29.7399 92.3095 32.5699 94.8995 36.0599 94.8995C39.5499 94.8995 42.3799 92.3095 42.3799 89.1295V34.3995C42.3799 31.2095 39.5199 28.6395 36.0599 28.6395Z" fill="#555451"/>
<path d="M46.5399 89.279C46.5399 90.549 45.7299 91.559 44.7499 91.559H27.3699C26.3899 91.559 25.5798 90.559 25.5798 89.279C25.5798 88.019 26.3899 86.999 27.3699 86.999H44.7499C45.7299 86.999 46.5399 88.019 46.5399 89.279Z" fill="#797573"/>
<path d="M44.7499 92.619H27.3699C25.6899 92.619 24.4199 91.149 24.4199 89.279C24.4199 87.409 25.6899 85.9189 27.3699 85.9189H44.7499C46.3999 85.9189 47.7 87.389 47.7 89.279C47.7 91.169 46.3999 92.619 44.7499 92.619ZM27.3699 88.049C27.1899 88.049 26.7499 88.479 26.7499 89.279C26.7499 90.079 27.1899 90.4789 27.3699 90.4789H44.7499C44.9099 90.4789 45.3699 90.049 45.3699 89.279C45.3699 88.509 44.9099 88.049 44.7499 88.049H27.3699Z" fill="#555451"/>
<path d="M46.5399 81.4289C46.5399 82.6689 45.7299 83.6789 44.7499 83.6789H27.3699C26.3899 83.6789 25.5798 82.6689 25.5798 81.4289C25.5798 80.1689 26.3899 79.1289 27.3699 79.1289H44.7499C45.7299 79.1289 46.5399 80.1689 46.5399 81.4289Z" fill="#797573"/>
<path d="M44.7499 84.7693H27.3699C25.6899 84.7693 24.4199 83.2994 24.4199 81.4294C24.4199 79.5594 25.6899 78.0693 27.3699 78.0693H44.7499C46.3999 78.0693 47.7 79.5394 47.7 81.4294C47.7 83.3194 46.3999 84.7693 44.7499 84.7693ZM27.3699 80.2094C27.1899 80.2094 26.7499 80.6294 26.7499 81.4294C26.7499 82.1694 27.1899 82.6194 27.3699 82.6194H44.7499C44.9299 82.6194 45.3699 82.1694 45.3699 81.4294C45.3699 80.6494 44.9399 80.2094 44.7499 80.2094H27.3699Z" fill="#555451"/>
<path d="M46.5399 73.5488C46.5399 74.8088 45.7299 75.8288 44.7499 75.8288H27.3699C26.3899 75.8288 25.5798 74.8088 25.5798 73.5488C25.5798 72.2888 26.3899 71.2588 27.3699 71.2588H44.7499C45.7299 71.2588 46.5399 72.2888 46.5399 73.5488Z" fill="#797573"/>
<path d="M44.7499 76.909H27.3699C25.6899 76.909 24.4199 75.429 24.4199 73.549C24.4199 71.669 25.6899 70.209 27.3699 70.209H44.7499C46.3999 70.209 47.7 71.659 47.7 73.549C47.7 75.439 46.3999 76.909 44.7499 76.909ZM27.3699 72.359C27.1899 72.359 26.7499 72.809 26.7499 73.549C26.7499 74.289 27.1899 74.769 27.3699 74.769H44.7499C44.9299 74.769 45.3699 74.309 45.3699 73.549C45.3699 72.789 44.9399 72.359 44.7499 72.359H27.3699Z" fill="#555451"/>
<path d="M46.5399 65.7197C46.5399 66.9697 45.7299 67.9697 44.7499 67.9697H27.3699C26.3899 67.9697 25.5798 66.9597 25.5798 65.7197C25.5798 64.4297 26.3899 63.4297 27.3699 63.4297H44.7499C45.7299 63.4297 46.5399 64.4397 46.5399 65.7197Z" fill="#797573"/>
<path d="M44.7499 69.0596H27.3699C25.6899 69.0596 24.4199 67.5696 24.4199 65.7196C24.4199 63.8696 25.6899 62.3496 27.3699 62.3496H44.7499C46.3999 62.3496 47.7 63.8196 47.7 65.7196C47.7 67.6196 46.3999 69.0596 44.7499 69.0596ZM27.3699 64.4896C27.1899 64.4896 26.7499 64.9196 26.7499 65.7196C26.7499 66.4696 27.1899 66.8996 27.3699 66.8996H44.7499C44.9299 66.8996 45.3699 66.4496 45.3699 65.7196C45.3699 64.9196 44.9099 64.4896 44.7499 64.4896H27.3699Z" fill="#555451"/>
<path d="M46.5399 57.8386C46.5399 59.0886 45.7299 60.0886 44.7499 60.0886H27.3699C26.3899 60.0886 25.5798 59.0786 25.5798 57.8386C25.5798 56.5786 26.3899 55.5586 27.3699 55.5586H44.7499C45.7299 55.5586 46.5399 56.5786 46.5399 57.8386Z" fill="#797573"/>
<path d="M44.7499 61.199H27.3699C25.6899 61.199 24.4199 59.709 24.4199 57.839C24.4199 55.969 25.6899 54.499 27.3699 54.499H44.7499C46.3999 54.499 47.7 55.939 47.7 57.839C47.7 59.739 46.3999 61.199 44.7499 61.199ZM27.3699 56.639C27.1899 56.639 26.7499 57.049 26.7499 57.839C26.7499 58.629 27.1899 59.059 27.3699 59.059H44.7499C44.9099 59.059 45.3699 58.609 45.3699 57.839C45.3699 57.069 44.9099 56.639 44.7499 56.639H27.3699Z" fill="#555451"/>
<path d="M46.5399 49.9785C46.5399 51.2385 45.7299 52.2485 44.7499 52.2485H27.3699C26.3899 52.2485 25.5798 51.2385 25.5798 49.9785C25.5798 48.7085 26.3899 47.6885 27.3699 47.6885H44.7499C45.7299 47.6885 46.5399 48.7085 46.5399 49.9785Z" fill="#797573"/>
<path d="M44.7499 53.3488H27.3699C25.6899 53.3488 24.4199 51.8689 24.4199 49.9789C24.4199 48.0889 25.6899 46.5889 27.3699 46.5889H44.7499C46.3999 46.5889 47.7 48.0889 47.7 49.9789C47.7 51.8689 46.3999 53.3488 44.7499 53.3488ZM27.3699 48.7789C27.1899 48.7789 26.7499 49.2089 26.7499 49.9789C26.7499 50.7489 27.1899 51.1789 27.3699 51.1789H44.7499C44.9299 51.1789 45.3699 50.7289 45.3699 49.9789C45.3699 49.2289 44.9399 48.7789 44.7499 48.7789H27.3699Z" fill="#555451"/>
<path d="M46.5399 42.0991C46.5399 43.3791 45.7299 44.3791 44.7499 44.3791H27.3699C26.3899 44.3791 25.5798 43.3691 25.5798 42.0991C25.5798 40.8591 26.3899 39.8291 27.3699 39.8291H44.7499C45.7299 39.8291 46.5399 40.8591 46.5399 42.0991Z" fill="#797573"/>
<path d="M44.7499 45.4788H27.3699C25.6899 45.4788 24.4199 43.9888 24.4199 42.0988C24.4199 40.2088 25.6899 38.7588 27.3699 38.7588H44.7499C46.3999 38.7588 47.7 40.2088 47.7 42.0988C47.7 43.9888 46.3999 45.4788 44.7499 45.4788ZM27.3699 40.8988C27.1899 40.8988 26.7499 41.3388 26.7499 42.0988C26.7499 42.8588 27.1899 43.3288 27.3699 43.3288H44.7499C44.9299 43.3288 45.3699 42.8488 45.3699 42.0988C45.3699 41.3488 44.9099 40.8988 44.7499 40.8988H27.3699Z" fill="#555451"/>
<path d="M46.5399 34.2695C46.5399 35.5195 45.7299 36.5295 44.7499 36.5295H27.3699C26.3899 36.5295 25.5798 35.5095 25.5798 34.2695C25.5798 32.9795 26.3899 31.9795 27.3699 31.9795H44.7499C45.7299 31.9795 46.5399 32.9795 46.5399 34.2695Z" fill="#797573"/>
<path d="M44.7499 37.6092H27.3699C25.6899 37.6092 24.4199 36.1292 24.4199 34.2692C24.4199 32.4092 25.6899 30.9092 27.3699 30.9092H44.7499C46.3999 30.9092 47.7 32.3692 47.7 34.2692C47.7 36.1692 46.3999 37.6092 44.7499 37.6092ZM27.3699 33.0392C27.1899 33.0392 26.7499 33.4692 26.7499 34.2692C26.7499 35.0692 27.1899 35.4592 27.3699 35.4592H44.7499C44.9099 35.4592 45.3699 35.0592 45.3699 34.2692C45.3699 33.4792 44.9099 33.0392 44.7499 33.0392H27.3699Z" fill="#555451"/>
<path d="M71.0399 8.25H0.199951V13.57H71.0399V8.25Z" fill="#797573"/>
<path d="M71.05 13.7698H0.209961C0.0899609 13.7698 0 13.6798 0 13.5698V8.24982C0 8.13982 0.0999609 8.0498 0.209961 8.0498H71.05C71.18 8.0498 71.27 8.13982 71.27 8.24982V13.5698C71.27 13.6798 71.17 13.7698 71.05 13.7698ZM0.419983 13.3698H70.83V8.4498H0.419983V13.3698Z" fill="#555451"/>
<path d="M71.0399 8.25H0.199951V9.50998H71.0399V8.25Z" fill="#B9B0AB"/>
<g style="mix-blend-mode:multiply">
<path d="M71.0399 12.2695H0.199951V13.5695H71.0399V12.2695Z" fill="#797573"/>
</g>
<path d="M35.8099 10.5504C35.8099 10.9104 35.4898 11.2104 35.0898 11.2104C34.6898 11.2104 34.3799 10.9204 34.3799 10.5504C34.3799 10.1804 34.6998 9.90039 35.0898 9.90039C35.4798 9.90039 35.8099 10.1904 35.8099 10.5504Z" fill="#B9B0AB"/>
</svg>
