<svg width="332" height="126" viewBox="0 0 332 126" fill="none" xmlns="http://www.w3.org/2000/svg">
<path d="M320.14 19.7598H9.55005V125.07H320.14V19.7598Z" fill="#DDDCD5"/>
<path d="M326.62 68.0508H6.1001V71.1908H326.62V68.0508Z" fill="#F29936"/>
<path d="M331.58 34.1094H0V37.2494H331.58V34.1094Z" fill="#F29936"/>
<path d="M320.14 111.141H9.55005V125.071H320.14V111.141Z" fill="#EB7B34"/>
<path d="M215.28 14.6504H114.41V125.07H215.28V14.6504Z" fill="#FBF8E4"/>
<path d="M210.41 14.6504H119.29V28.8204H210.41V14.6504Z" fill="#DDDCD5"/>
<path d="M124.16 14.6504H114.41V119.96H124.16V14.6504Z" fill="#F29936"/>
<path d="M215.28 14.6504H205.53V119.96H215.28V14.6504Z" fill="#F29936"/>
<path d="M127.36 100.471H111.23V125.071H127.36V100.471Z" fill="#F0A267"/>
<path d="M218.48 100.471H202.35V125.071H218.48V100.471Z" fill="#F0A267"/>
<path d="M127.36 14.6504H111.23V19.7604H127.36V14.6504Z" fill="#F0A267"/>
<path d="M218.48 14.6504H202.35V19.7604H218.48V14.6504Z" fill="#F0A267"/>
<path d="M181.36 51.7598H147.22V104.94H181.36V51.7598Z" fill="#384C4B"/>
<path d="M202.34 118.109H127.35V125.069H202.34V118.109Z" fill="#ADB6BB"/>
<path d="M202.34 115.02H127.35V118.1H202.34V115.02Z" fill="#C3D0D9"/>
<path d="M202.34 108.061H127.35V115.021H202.34V108.061Z" fill="#ADB6BB"/>
<path d="M202.34 104.971H127.35V108.051H202.34V104.971Z" fill="#C3D0D9"/>
<path d="M127.36 100.471H111.23V103.231H127.36V100.471Z" fill="#F8EABD"/>
<path d="M218.48 100.471H202.35V103.231H218.48V100.471Z" fill="#F8EABD"/>
<path d="M162.46 57.1992H152.51V81.8792H162.46V57.1992Z" fill="#6DBFD5"/>
<path d="M177.19 57.1992H167.24V81.8792H177.19V57.1992Z" fill="#6DBFD5"/>
<path d="M162.46 86.5801H152.51V93.1201H162.46V86.5801Z" fill="#6DBFD5"/>
<path d="M177.19 86.5801H167.24V93.1201H177.19V86.5801Z" fill="#6DBFD5"/>
<path d="M47.6901 42.2598H34.3601V63.0298H47.6901V42.2598Z" fill="#6DBFD5"/>
<path d="M41.4801 42.2598H40.5601V63.0298H41.4801V42.2598Z" fill="#384C4B"/>
<path d="M47.6901 52.1895H34.3601V53.1094H47.6901V52.1895Z" fill="#384C4B"/>
<path d="M68.2199 42.2598H54.8899V63.0298H68.2199V42.2598Z" fill="#6DBFD5"/>
<path d="M62.0198 42.2598H61.0999V63.0298H62.0198V42.2598Z" fill="#384C4B"/>
<path d="M68.2199 52.1895H54.8899V53.1094H68.2199V52.1895Z" fill="#384C4B"/>
<path d="M88.7599 42.2598H75.4299V63.0298H88.7599V42.2598Z" fill="#6DBFD5"/>
<path d="M82.5599 42.2598H81.6399V63.0298H82.5599V42.2598Z" fill="#384C4B"/>
<path d="M88.7599 52.1895H75.4299V53.1094H88.7599V52.1895Z" fill="#384C4B"/>
<path d="M47.6901 79.4609H34.3601V100.231H47.6901V79.4609Z" fill="#6DBFD5"/>
<path d="M41.4801 79.4609H40.5601V100.231H41.4801V79.4609Z" fill="#384C4B"/>
<path d="M47.6901 89.3906H34.3601V90.3106H47.6901V89.3906Z" fill="#384C4B"/>
<path d="M68.2199 79.4609H54.8899V100.231H68.2199V79.4609Z" fill="#6DBFD5"/>
<path d="M62.0198 79.4609H61.0999V100.231H62.0198V79.4609Z" fill="#384C4B"/>
<path d="M68.2199 89.3906H54.8899V90.3106H68.2199V89.3906Z" fill="#384C4B"/>
<path d="M88.7599 79.4609H75.4299V100.231H88.7599V79.4609Z" fill="#6DBFD5"/>
<path d="M82.5599 79.4609H81.6399V100.231H82.5599V79.4609Z" fill="#384C4B"/>
<path d="M88.7599 89.3906H75.4299V90.3106H88.7599V89.3906Z" fill="#384C4B"/>
<path d="M254.26 79.4609H240.93V100.231H254.26V79.4609Z" fill="#6DBFD5"/>
<path d="M248.06 79.4609H247.14V100.231H248.06V79.4609Z" fill="#384C4B"/>
<path d="M254.26 89.3906H240.93V90.3106H254.26V89.3906Z" fill="#384C4B"/>
<path d="M274.8 79.4609H261.47V100.231H274.8V79.4609Z" fill="#6DBFD5"/>
<path d="M268.6 79.4609H267.68V100.231H268.6V79.4609Z" fill="#384C4B"/>
<path d="M274.8 89.3906H261.47V90.3106H274.8V89.3906Z" fill="#384C4B"/>
<path d="M295.34 79.4609H282.01V100.231H295.34V79.4609Z" fill="#6DBFD5"/>
<path d="M289.13 79.4609H288.21V100.231H289.13V79.4609Z" fill="#384C4B"/>
<path d="M295.34 89.3906H282.01V90.3106H295.34V89.3906Z" fill="#384C4B"/>
<path d="M164.09 32.4707H145.75V41.6907H164.09V32.4707Z" fill="#6DBFD5"/>
<path d="M183.94 32.4707H166.33V41.6907H183.94V32.4707Z" fill="#6DBFD5"/>
<path d="M230.61 1.14062H228.17V125.811H230.61V1.14062Z" fill="#384C4B"/>
<path d="M230.62 13.4696V19.0896C240.26 24.1196 249.9 14.0596 259.55 19.0896V13.4696C249.91 8.43961 240.27 18.4996 230.62 13.4696Z" fill="white"/>
<path d="M230.62 7.85047V13.4705C240.26 18.5005 249.9 8.44047 259.55 13.4705V7.85047C249.91 2.82047 240.27 12.8805 230.62 7.85047Z" fill="#6DBFD5"/>
<path d="M230.62 19.0907V24.7107C240.26 29.7407 249.9 19.6807 259.55 24.7107V19.0907C249.91 14.0607 240.27 24.1207 230.62 19.0907Z" fill="#6DBFD5"/>
<path d="M232.59 3.20001C232.59 1.43001 231.16 0 229.39 0C227.62 0 226.19 1.43001 226.19 3.20001C226.19 4.97001 227.62 6.40002 229.39 6.40002C231.16 6.40002 232.59 4.97001 232.59 3.20001Z" fill="#384C4B"/>
<path d="M246.531 17.8053C247.34 17.0047 247.346 15.7004 246.545 14.8921C245.745 14.0838 244.44 14.0777 243.632 14.8784C242.824 15.679 242.818 16.9833 243.618 17.7916C244.419 18.5999 245.723 18.606 246.531 17.8053Z" fill="#FFC33A"/>
<path d="M296.56 39.8691H239.88V65.0292H296.56V39.8691Z" fill="#6DBFD5"/>
</svg>
