<svg width="72" height="192" viewBox="0 0 72 192" fill="none" xmlns="http://www.w3.org/2000/svg">
<path d="M39.75 0.200195H31.51V191.23H39.75V0.200195Z" fill="#B9B0AB"/>
<path d="M39.7501 191.43H31.5101C31.3901 191.43 31.29 191.34 31.29 191.23V0.199982C31.29 0.0899817 31.3901 0 31.5101 0H39.7501C39.8701 0 39.97 0.0899817 39.97 0.199982V191.23C39.97 191.34 39.8701 191.43 39.7501 191.43ZM31.72 191.03H39.53V0.389984H31.72V191.03Z" fill="#7A7674"/>
<g style="mix-blend-mode:multiply" opacity="0.6">
<path d="M39.75 32.6504H31.51V62.2604H39.75V32.6504Z" fill="#797573"/>
</g>
<g style="mix-blend-mode:multiply">
<path d="M39.75 0.200195H36.96V191.23H39.75V0.200195Z" fill="#B9B0AB"/>
</g>
<g style="mix-blend-mode:screen">
<path d="M32.6799 0.200195H31.95V191.23H32.6799V0.200195Z" fill="#B9B0AB"/>
</g>
<path d="M43.5398 89.1396C43.5398 92.9296 40.2098 95.9996 36.0598 95.9996C31.8998 95.9996 28.5598 92.9296 28.5598 89.1396V34.4095C28.5598 30.6195 31.8998 27.5596 36.0598 27.5596C40.2098 27.5596 43.5398 30.6195 43.5398 34.4095V89.1396Z" fill="#797573"/>
<path d="M36.0599 97.0395C31.2699 97.0395 27.3699 93.4895 27.3699 89.1295V34.3995C27.3699 30.0095 31.2699 26.4795 36.0599 26.4795C40.8499 26.4795 44.7499 29.9995 44.7499 34.3995V89.1295C44.7499 93.4795 40.8299 97.0395 36.0599 97.0395ZM36.0599 28.6395C32.5599 28.6395 29.7399 31.2095 29.7399 34.3995V89.1295C29.7399 92.3095 32.5699 94.8995 36.0599 94.8995C39.5499 94.8995 42.3799 92.3095 42.3799 89.1295V34.3995C42.3799 31.2095 39.5199 28.6395 36.0599 28.6395Z" fill="#555451"/>
<path d="M46.5399 89.279C46.5399 90.549 45.7299 91.559 44.7499 91.559H27.3699C26.3899 91.559 25.5798 90.559 25.5798 89.279C25.5798 88.019 26.3899 86.999 27.3699 86.999H44.7499C45.7299 86.999 46.5399 88.019 46.5399 89.279Z" fill="#797573"/>
<path d="M44.7499 92.619H27.3699C25.6899 92.619 24.4199 91.149 24.4199 89.279C24.4199 87.409 25.6899 85.9189 27.3699 85.9189H44.7499C46.3999 85.9189 47.7 87.389 47.7 89.279C47.7 91.169 46.3999 92.619 44.7499 92.619ZM27.3699 88.049C27.1899 88.049 26.7499 88.479 26.7499 89.279C26.7499 90.079 27.1899 90.4789 27.3699 90.4789H44.7499C44.9099 90.4789 45.3699 90.049 45.3699 89.279C45.3699 88.509 44.9099 88.049 44.7499 88.049H27.3699Z" fill="#555451"/>
<path d="M46.5399 81.4289C46.5399 82.6689 45.7299 83.6789 44.7499 83.6789H27.3699C26.3899 83.6789 25.5798 82.6689 25.5798 81.4289C25.5798 80.1689 26.3899 79.1289 27.3699 79.1289H44.7499C45.7299 79.1289 46.5399 80.1689 46.5399 81.4289Z" fill="#797573"/>
<path d="M44.7499 84.7693H27.3699C25.6899 84.7693 24.4199 83.2994 24.4199 81.4294C24.4199 79.5594 25.6899 78.0693 27.3699 78.0693H44.7499C46.3999 78.0693 47.7 79.5394 47.7 81.4294C47.7 83.3194 46.3999 84.7693 44.7499 84.7693ZM27.3699 80.2094C27.1899 80.2094 26.7499 80.6294 26.7499 81.4294C26.7499 82.1694 27.1899 82.6194 27.3699 82.6194H44.7499C44.9299 82.6194 45.3699 82.1694 45.3699 81.4294C45.3699 80.6494 44.9399 80.2094 44.7499 80.2094H27.3699Z" fill="#555451"/>
<path d="M46.5399 73.5488C46.5399 74.8088 45.7299 75.8288 44.7499 75.8288H27.3699C26.3899 75.8288 25.5798 74.8088 25.5798 73.5488C25.5798 72.2888 26.3899 71.2588 27.3699 71.2588H44.7499C45.7299 71.2588 46.5399 72.2888 46.5399 73.5488Z" fill="#797573"/>
<path d="M44.7499 76.909H27.3699C25.6899 76.909 24.4199 75.429 24.4199 73.549C24.4199 71.669 25.6899 70.209 27.3699 70.209H44.7499C46.3999 70.209 47.7 71.659 47.7 73.549C47.7 75.439 46.3999 76.909 44.7499 76.909ZM27.3699 72.359C27.1899 72.359 26.7499 72.809 26.7499 73.549C26.7499 74.289 27.1899 74.769 27.3699 74.769H44.7499C44.9299 74.769 45.3699 74.309 45.3699 73.549C45.3699 72.789 44.9399 72.359 44.7499 72.359H27.3699Z" fill="#555451"/>
<path d="M46.5399 65.7197C46.5399 66.9697 45.7299 67.9697 44.7499 67.9697H27.3699C26.3899 67.9697 25.5798 66.9597 25.5798 65.7197C25.5798 64.4297 26.3899 63.4297 27.3699 63.4297H44.7499C45.7299 63.4297 46.5399 64.4397 46.5399 65.7197Z" fill="#797573"/>
<path d="M44.7499 69.0596H27.3699C25.6899 69.0596 24.4199 67.5696 24.4199 65.7196C24.4199 63.8696 25.6899 62.3496 27.3699 62.3496H44.7499C46.3999 62.3496 47.7 63.8196 47.7 65.7196C47.7 67.6196 46.3999 69.0596 44.7499 69.0596ZM27.3699 64.4896C27.1899 64.4896 26.7499 64.9196 26.7499 65.7196C26.7499 66.4696 27.1899 66.8996 27.3699 66.8996H44.7499C44.9299 66.8996 45.3699 66.4496 45.3699 65.7196C45.3699 64.9196 44.9099 64.4896 44.7499 64.4896H27.3699Z" fill="#555451"/>
<path d="M46.5399 57.8386C46.5399 59.0886 45.7299 60.0886 44.7499 60.0886H27.3699C26.3899 60.0886 25.5798 59.0786 25.5798 57.8386C25.5798 56.5786 26.3899 55.5586 27.3699 55.5586H44.7499C45.7299 55.5586 46.5399 56.5786 46.5399 57.8386Z" fill="#797573"/>
<path d="M44.7499 61.199H27.3699C25.6899 61.199 24.4199 59.709 24.4199 57.839C24.4199 55.969 25.6899 54.499 27.3699 54.499H44.7499C46.3999 54.499 47.7 55.939 47.7 57.839C47.7 59.739 46.3999 61.199 44.7499 61.199ZM27.3699 56.639C27.1899 56.639 26.7499 57.049 26.7499 57.839C26.7499 58.629 27.1899 59.059 27.3699 59.059H44.7499C44.9099 59.059 45.3699 58.609 45.3699 57.839C45.3699 57.069 44.9099 56.639 44.7499 56.639H27.3699Z" fill="#555451"/>
<path d="M46.5399 49.9785C46.5399 51.2385 45.7299 52.2485 44.7499 52.2485H27.3699C26.3899 52.2485 25.5798 51.2385 25.5798 49.9785C25.5798 48.7085 26.3899 47.6885 27.3699 47.6885H44.7499C45.7299 47.6885 46.5399 48.7085 46.5399 49.9785Z" fill="#797573"/>
<path d="M44.7499 53.3488H27.3699C25.6899 53.3488 24.4199 51.8689 24.4199 49.9789C24.4199 48.0889 25.6899 46.5889 27.3699 46.5889H44.7499C46.3999 46.5889 47.7 48.0889 47.7 49.9789C47.7 51.8689 46.3999 53.3488 44.7499 53.3488ZM27.3699 48.7789C27.1899 48.7789 26.7499 49.2089 26.7499 49.9789C26.7499 50.7489 27.1899 51.1789 27.3699 51.1789H44.7499C44.9299 51.1789 45.3699 50.7289 45.3699 49.9789C45.3699 49.2289 44.9399 48.7789 44.7499 48.7789H27.3699Z" fill="#555451"/>
<path d="M46.5399 42.0991C46.5399 43.3791 45.7299 44.3791 44.7499 44.3791H27.3699C26.3899 44.3791 25.5798 43.3691 25.5798 42.0991C25.5798 40.8591 26.3899 39.8291 27.3699 39.8291H44.7499C45.7299 39.8291 46.5399 40.8591 46.5399 42.0991Z" fill="#797573"/>
<path d="M44.7499 45.4788H27.3699C25.6899 45.4788 24.4199 43.9888 24.4199 42.0988C24.4199 40.2088 25.6899 38.7588 27.3699 38.7588H44.7499C46.3999 38.7588 47.7 40.2088 47.7 42.0988C47.7 43.9888 46.3999 45.4788 44.7499 45.4788ZM27.3699 40.8988C27.1899 40.8988 26.7499 41.3388 26.7499 42.0988C26.7499 42.8588 27.1899 43.3288 27.3699 43.3288H44.7499C44.9299 43.3288 45.3699 42.8488 45.3699 42.0988C45.3699 41.3488 44.9099 40.8988 44.7499 40.8988H27.3699Z" fill="#555451"/>
<path d="M46.5399 34.2695C46.5399 35.5195 45.7299 36.5295 44.7499 36.5295H27.3699C26.3899 36.5295 25.5798 35.5095 25.5798 34.2695C25.5798 32.9795 26.3899 31.9795 27.3699 31.9795H44.7499C45.7299 31.9795 46.5399 32.9795 46.5399 34.2695Z" fill="#797573"/>
<path d="M44.7499 37.6092H27.3699C25.6899 37.6092 24.4199 36.1292 24.4199 34.2692C24.4199 32.4092 25.6899 30.9092 27.3699 30.9092H44.7499C46.3999 30.9092 47.7 32.3692 47.7 34.2692C47.7 36.1692 46.3999 37.6092 44.7499 37.6092ZM27.3699 33.0392C27.1899 33.0392 26.7499 33.4692 26.7499 34.2692C26.7499 35.0692 27.1899 35.4592 27.3699 35.4592H44.7499C44.9099 35.4592 45.3699 35.0592 45.3699 34.2692C45.3699 33.4792 44.9099 33.0392 44.7499 33.0392H27.3699Z" fill="#555451"/>
<path d="M71.0399 8.25H0.199951V13.57H71.0399V8.25Z" fill="#797573"/>
<path d="M71.05 13.7698H0.209961C0.0899609 13.7698 0 13.6798 0 13.5698V8.24982C0 8.13982 0.0999609 8.0498 0.209961 8.0498H71.05C71.18 8.0498 71.27 8.13982 71.27 8.24982V13.5698C71.27 13.6798 71.17 13.7698 71.05 13.7698ZM0.419983 13.3698H70.83V8.4498H0.419983V13.3698Z" fill="#555451"/>
<path d="M71.0399 8.25H0.199951V9.50998H71.0399V8.25Z" fill="#B9B0AB"/>
<g style="mix-blend-mode:multiply">
<path d="M71.0399 12.2695H0.199951V13.5695H71.0399V12.2695Z" fill="#797573"/>
</g>
<path d="M35.8099 10.5504C35.8099 10.9104 35.4898 11.2104 35.0898 11.2104C34.6898 11.2104 34.3799 10.9204 34.3799 10.5504C34.3799 10.1804 34.6998 9.90039 35.0898 9.90039C35.4798 9.90039 35.8099 10.1904 35.8099 10.5504Z" fill="#B9B0AB"/>
</svg>
