<svg width="273" height="142" viewBox="0 0 273 142" fill="none" xmlns="http://www.w3.org/2000/svg">
<path d="M189.25 40.5488H82.5801V141.299H189.25V40.5488Z" fill="#C3DBDD"/>
<path d="M84.5599 41.248H3.91992V141.288H84.5599V41.248Z" fill="#C3DBDD"/>
<path d="M5.10004 38.1777C2.28004 38.1777 0 39.1477 0 40.3377V41.9277C0 43.1277 2.28004 44.0977 5.10004 44.0977H175.52V38.1777H5.10004Z" fill="#384C4B"/>
<path d="M73.58 53.5371H14.95V76.4171H73.58V53.5371Z" fill="#6DBFD5"/>
<path d="M264.13 41.248H183.49V141.288H264.13V41.248Z" fill="#C3DBDD"/>
<path d="M265.39 38.1777C266.86 38.1777 268.06 39.1477 268.06 40.3377V41.9277C268.06 43.1277 266.87 44.0977 265.39 44.0977H176.27V38.1777H265.39Z" fill="#384C4B"/>
<path d="M175.52 21.498V44.428V141.298H268.81V44.428V21.498H175.52Z" fill="#DDECEF"/>
<path d="M130.98 89.8984H101.37V141.298H130.98V89.8984Z" fill="#6DBFD5"/>
<path d="M166.75 89.8984H137.35V141.298H166.75V89.8984Z" fill="#6DBFD5"/>
<path d="M272.65 20.9874C272.65 22.4574 271.61 23.6574 270.34 23.6574H174.63C173.35 23.6574 172.32 22.4674 172.32 20.9874V19.0274C172.32 17.5574 173.36 16.3574 174.63 16.3574H270.34C271.62 16.3574 272.65 17.5474 272.65 19.0274V20.9874Z" fill="#384C4B"/>
<path d="M169.83 79.6875H97.9899C97.4211 79.6875 96.96 80.1486 96.96 80.7175V84.5075C96.96 85.0764 97.4211 85.5375 97.9899 85.5375H169.83C170.399 85.5375 170.86 85.0764 170.86 84.5075V80.7175C170.86 80.1486 170.399 79.6875 169.83 79.6875Z" fill="#384C4B"/>
<path d="M73.58 86.9688H50.7V109.849H73.58V86.9688Z" fill="#6DBFD5"/>
<path d="M37.83 86.9688H14.95V109.849H37.83V86.9688Z" fill="#6DBFD5"/>
<path d="M253.77 48.4277H229.91V72.2877H253.77V48.4277Z" fill="#6DBFD5"/>
<path d="M218.75 48.4277H194.89V72.2877H218.75V48.4277Z" fill="#6DBFD5"/>
<path d="M130.98 53.5371H101.37V75.7471H130.98V53.5371Z" fill="#6DBFD5"/>
<path d="M166.86 53.5371H137.25V75.7471H166.86V53.5371Z" fill="#6DBFD5"/>
<path d="M237.035 14.3612C237.339 7.03869 231.65 0.855897 224.327 0.551554C217.005 0.247211 210.822 5.93657 210.518 13.2591C210.214 20.5816 215.903 26.7643 223.225 27.0686C230.548 27.373 236.731 21.6837 237.035 14.3612Z" fill="#C13838"/>
<path d="M224.7 7.33789H223.08C222.539 7.33789 222.1 7.77669 222.1 8.31793V19.0379C222.1 19.5791 222.539 20.0179 223.08 20.0179H224.7C225.241 20.0179 225.68 19.5791 225.68 19.0379V8.31793C225.68 7.77669 225.241 7.33789 224.7 7.33789Z" fill="white"/>
<path d="M229.21 11.918H218.49C217.949 11.918 217.51 12.3567 217.51 12.8979V14.5179C217.51 15.0592 217.949 15.498 218.49 15.498H229.21C229.751 15.498 230.19 15.0592 230.19 14.5179V12.8979C230.19 12.3567 229.751 11.918 229.21 11.918Z" fill="white"/>
<path d="M253.11 77.7988H230.23V100.679H253.11V77.7988Z" fill="#6DBFD5"/>
<path d="M217.35 77.7988H194.47V100.679H217.35V77.7988Z" fill="#6DBFD5"/>
<path d="M253.11 111.238H230.23V134.118H253.11V111.238Z" fill="#6DBFD5"/>
<path d="M217.35 111.238H194.47V134.118H217.35V111.238Z" fill="#6DBFD5"/>
<path d="M46.5501 54.7678H67.7202C68.4502 54.7678 69.0501 55.3678 69.0501 56.0978V68.9078H45.1201V56.1878C45.1201 55.3978 45.7601 54.7578 46.5501 54.7578V54.7678Z" fill="#6E6E6E"/>
<path d="M66.9001 71.0582H47.2601C46.0801 71.0582 45.1101 70.0982 45.1101 68.9082H69.0401C69.0401 70.0882 68.0801 71.0582 66.8901 71.0582H66.9001Z" fill="white"/>
<path d="M59.2401 71.0586H54.9001V74.6686H59.2401V71.0586Z" fill="#E1E1E1"/>
<path d="M59.2401 71.0586H54.9001V72.2086H59.2401V71.0586Z" fill="#BBBBBB"/>
<path d="M53.1901 74.668H60.9501C61.5801 74.668 62.0901 75.178 62.0901 75.808V76.048H52.05V75.808C52.05 75.178 52.5601 74.668 53.1901 74.668Z" fill="white"/>
<path d="M57.6601 69.9085C57.6601 70.2785 57.3601 70.5885 56.9801 70.5885C56.6001 70.5885 56.3 70.2885 56.3 69.9085C56.3 69.5285 56.6001 69.2285 56.9801 69.2285C57.3601 69.2285 57.6601 69.5285 57.6601 69.9085Z" fill="#BBBBBB"/>
<path d="M66.4001 56.0781H47.9702C47.2356 56.0781 46.6401 56.6736 46.6401 57.4081V66.4982C46.6401 67.2327 47.2356 67.8281 47.9702 67.8281H66.4001C67.1347 67.8281 67.7302 67.2327 67.7302 66.4982V57.4081C67.7302 56.6736 67.1347 56.0781 66.4001 56.0781Z" fill="#3A3A3A"/>
<path d="M21.9202 75.6483C21.4902 75.6483 21.1301 75.2883 21.1301 74.8583C21.1301 74.4283 21.4902 74.0684 21.9202 74.0684C22.3502 74.0684 22.7101 74.4283 22.7101 74.8583C22.7101 75.2883 22.3502 75.6483 21.9202 75.6483Z" fill="#F08619"/>
<path d="M22.7802 75.2282H21.0601C20.8301 75.2282 20.6501 75.0382 20.6501 74.8182C20.6501 74.5882 20.8401 74.4082 21.0601 74.4082H22.7802C23.0102 74.4082 23.1901 74.5982 23.1901 74.8182C23.1901 75.0482 23.0002 75.2282 22.7802 75.2282Z" fill="#3A3A3A"/>
<path d="M40.0904 75.6472C39.6604 75.6672 39.2903 75.3172 39.2703 74.8872C39.2503 74.4572 39.6004 74.0872 40.0304 74.0672C40.4604 74.0472 40.8304 74.3972 40.8504 74.8272C40.8704 75.2572 40.5204 75.6272 40.0904 75.6472Z" fill="#F08619"/>
<path d="M40.9103 75.2263H39.1902C38.9602 75.2263 38.7803 75.0363 38.7803 74.8163C38.7803 74.5863 38.9702 74.4062 39.1902 74.4062H40.9103C41.1403 74.4062 41.3203 74.5963 41.3203 74.8163C41.3203 75.0463 41.1303 75.2263 40.9103 75.2263Z" fill="#3A3A3A"/>
<path d="M39.1302 72.0075C38.7602 72.0075 38.4502 71.6975 38.4502 71.3275V60.6175C38.4502 60.2475 38.7602 59.9375 39.1302 59.9375C39.5002 59.9375 39.8102 60.2475 39.8102 60.6175V71.3275C39.8102 71.6975 39.5002 72.0075 39.1302 72.0075Z" fill="white"/>
<path d="M41.9901 68.0879H20.3401C19.4123 68.0879 18.6602 68.84 18.6602 69.7679V73.2079C18.6602 74.1357 19.4123 74.8879 20.3401 74.8879H41.9901C42.918 74.8879 43.6702 74.1357 43.6702 73.2079V69.7679C43.6702 68.84 42.918 68.0879 41.9901 68.0879Z" fill="white"/>
<path d="M42.5601 73.2075V69.7675C42.5601 69.4471 42.3004 69.1875 41.98 69.1875H20.33C20.0097 69.1875 19.7501 69.4471 19.7501 69.7675V73.2075C19.7501 73.5278 20.0097 73.7875 20.33 73.7875H41.98C42.3004 73.7875 42.5601 73.5278 42.5601 73.2075Z" fill="#3A3A3A"/>
<path d="M23.8802 72.1476C24.2613 72.1476 24.5702 71.8387 24.5702 71.4576C24.5702 71.0765 24.2613 70.7676 23.8802 70.7676C23.4991 70.7676 23.1902 71.0765 23.1902 71.4576C23.1902 71.8387 23.4991 72.1476 23.8802 72.1476Z" fill="#F08619"/>
<path d="M28.3401 71.4572C28.3401 71.6472 28.1901 71.7972 28.0001 71.7972C27.8101 71.7972 27.6602 71.6472 27.6602 71.4572C27.6602 71.2672 27.8101 71.1172 28.0001 71.1172C28.1901 71.1172 28.3401 71.2672 28.3401 71.4572Z" fill="#F08619"/>
<path d="M31.8502 71.4572C31.8502 71.6472 31.7001 71.7972 31.5101 71.7972C31.3201 71.7972 31.1702 71.6472 31.1702 71.4572C31.1702 71.2672 31.3201 71.1172 31.5101 71.1172C31.7001 71.1172 31.8502 71.2672 31.8502 71.4572Z" fill="#F08619"/>
<path d="M35.3502 71.4572C35.3502 71.6472 35.2001 71.7972 35.0101 71.7972C34.8201 71.7972 34.6702 71.6472 34.6702 71.4572C34.6702 71.2672 34.8201 71.1172 35.0101 71.1172C35.2001 71.1172 35.3502 71.2672 35.3502 71.4572Z" fill="#F08619"/>
<path d="M38.8502 71.4572C38.8502 71.6472 38.7001 71.7972 38.5101 71.7972C38.3201 71.7972 38.1702 71.6472 38.1702 71.4572C38.1702 71.2672 38.3201 71.1172 38.5101 71.1172C38.7001 71.1172 38.8502 71.2672 38.8502 71.4572Z" fill="#F08619"/>
</svg>
