<svg width="72" height="192" viewBox="0 0 72 192" fill="none" xmlns="http://www.w3.org/2000/svg">
<path d="M35.45 26.4696L15.49 10.3696L17.25 8.55957L35.55 23.3195L54.98 9.24957L56.62 11.1496L35.45 26.4696Z" fill="#797573"/>
<path d="M35.45 26.6697C35.4 26.6697 35.35 26.6497 35.31 26.6197L15.35 10.5097C15.35 10.5097 15.29 10.4297 15.28 10.3797C15.28 10.3197 15.3 10.2697 15.33 10.2297L17.09 8.41973C17.17 8.33973 17.31 8.32972 17.4 8.40972L35.56 23.0597L54.85 9.09972C54.94 9.02972 55.08 9.04972 55.15 9.12972L56.8 11.0197C56.8 11.0197 56.85 11.1197 56.84 11.1597C56.84 11.2197 56.8 11.2597 56.77 11.2897L35.59 26.6197C35.59 26.6197 35.51 26.6597 35.46 26.6597L35.45 26.6697ZM15.8 10.3497L35.46 26.2097L56.32 11.1097L54.95 9.52975L35.68 23.4697C35.59 23.5297 35.48 23.5297 35.4 23.4697L17.27 8.83974L15.8 10.3497Z" fill="#555451"/>
<g style="mix-blend-mode:multiply">
<path d="M49.4399 16.35L56.6199 11.15L54.9799 9.25L45.1699 16.35H49.4399Z" fill="#797573"/>
</g>
<g style="mix-blend-mode:multiply">
<path d="M26.9 16.3495L17.25 8.55957L15.49 10.3696L22.91 16.3495H26.9Z" fill="#797573"/>
</g>
<path d="M8.09009 14.9806C8.09009 15.6706 7.47008 16.2406 6.71008 16.2406C5.95008 16.2406 5.33008 15.6706 5.33008 14.9806V4.90063C5.33008 4.20063 5.95008 3.64062 6.71008 3.64062C7.47008 3.64062 8.09009 4.21063 8.09009 4.90063V14.9806Z" fill="#797573"/>
<path d="M6.71014 16.4304C5.83014 16.4304 5.12012 15.7804 5.12012 14.9804V4.90042C5.12012 4.09042 5.83014 3.44043 6.71014 3.44043C7.59014 3.44043 8.30011 4.09042 8.30011 4.90042V14.9804C8.30011 15.7804 7.58014 16.4304 6.71014 16.4304ZM6.71014 3.84042C6.07014 3.84042 5.55011 4.32042 5.55011 4.90042V14.9804C5.55011 15.5604 6.08014 16.0404 6.71014 16.0404C7.34014 16.0404 7.87012 15.5604 7.87012 14.9804V4.90042C7.87012 4.31042 7.34014 3.84042 6.71014 3.84042Z" fill="#555451"/>
<path d="M8.64001 15.0001C8.64001 15.2301 8.5 15.4101 8.31 15.4101H5.10999C4.91999 15.4101 4.78003 15.2301 4.78003 15.0001C4.78003 14.7701 4.91999 14.5801 5.10999 14.5801H8.31C8.5 14.5801 8.64001 14.7701 8.64001 15.0001Z" fill="#797573"/>
<path d="M8.31006 15.6199H5.11005C4.81005 15.6199 4.56006 15.3499 4.56006 14.9999C4.56006 14.6499 4.81005 14.3799 5.11005 14.3799H8.31006C8.61006 14.3799 8.85004 14.6499 8.85004 14.9999C8.85004 15.3499 8.61006 15.6199 8.31006 15.6199ZM5.11005 14.7799C5.11005 14.7799 5.00006 14.8699 5.00006 15.0099C5.00006 15.1499 5.08005 15.2299 5.11005 15.2299H8.31006C8.31006 15.2299 8.42004 15.1499 8.42004 15.0099C8.42004 14.8699 8.35006 14.7799 8.31006 14.7799H5.11005Z" fill="#555451"/>
<path d="M8.64001 13.5606C8.64001 13.7906 8.5 13.9706 8.31 13.9706H5.10999C4.91999 13.9706 4.78003 13.7806 4.78003 13.5606C4.78003 13.3206 4.91999 13.1406 5.10999 13.1406H8.31C8.5 13.1406 8.64001 13.3306 8.64001 13.5606Z" fill="#797573"/>
<path d="M8.31006 14.1704H5.11005C4.81005 14.1704 4.56006 13.9004 4.56006 13.5604C4.56006 13.2204 4.81005 12.9404 5.11005 12.9404H8.31006C8.61006 12.9404 8.85004 13.2104 8.85004 13.5604C8.85004 13.9104 8.61006 14.1704 8.31006 14.1704ZM5.11005 13.3304C5.11005 13.3304 5.00006 13.4204 5.00006 13.5604C5.00006 13.6904 5.07005 13.7804 5.11005 13.7804H8.31006C8.31006 13.7804 8.42004 13.7004 8.42004 13.5604C8.42004 13.4204 8.35006 13.3304 8.31006 13.3304H5.11005Z" fill="#555451"/>
<path d="M8.64001 12.1104C8.64001 12.3404 8.5 12.5304 8.31 12.5304H5.10999C4.91999 12.5304 4.78003 12.3404 4.78003 12.1104C4.78003 11.8804 4.91999 11.6904 5.10999 11.6904H8.31C8.5 11.6904 8.64001 11.8804 8.64001 12.1104Z" fill="#797573"/>
<path d="M8.31006 12.7302H5.11005C4.81005 12.7302 4.56006 12.4602 4.56006 12.1102C4.56006 11.7602 4.81005 11.4902 5.11005 11.4902H8.31006C8.61006 11.4902 8.85004 11.7602 8.85004 12.1102C8.85004 12.4602 8.61006 12.7302 8.31006 12.7302ZM5.11005 11.8802C5.11005 11.8802 5.00006 11.9602 5.00006 12.1002C5.00006 12.2402 5.08005 12.3202 5.11005 12.3202H8.31006C8.31006 12.3202 8.42004 12.2402 8.42004 12.1002C8.42004 11.9602 8.35006 11.8802 8.31006 11.8802H5.11005Z" fill="#555451"/>
<path d="M8.64001 10.6602C8.64001 10.8902 8.5 11.0802 8.31 11.0802H5.10999C4.91999 11.0802 4.78003 10.8902 4.78003 10.6602C4.78003 10.4302 4.91999 10.2402 5.10999 10.2402H8.31C8.5 10.2402 8.64001 10.4202 8.64001 10.6602Z" fill="#797573"/>
<path d="M8.31006 11.2801H5.11005C4.81005 11.2801 4.56006 11.01 4.56006 10.66C4.56006 10.31 4.81005 10.04 5.11005 10.04H8.31006C8.61006 10.04 8.85004 10.31 8.85004 10.66C8.85004 11.01 8.61006 11.2801 8.31006 11.2801ZM5.11005 10.4401C5.11005 10.4401 5.00006 10.53 5.00006 10.66C5.00006 10.79 5.07005 10.88 5.11005 10.88H8.31006C8.31006 10.88 8.42004 10.8 8.42004 10.66C8.42004 10.52 8.35006 10.4401 8.31006 10.4401H5.11005Z" fill="#555451"/>
<path d="M8.64001 9.21005C8.64001 9.44005 8.5 9.63004 8.31 9.63004H5.10999C4.91999 9.63004 4.78003 9.44005 4.78003 9.21005C4.78003 8.98005 4.91999 8.79004 5.10999 8.79004H8.31C8.5 8.79004 8.64001 8.98005 8.64001 9.21005Z" fill="#797573"/>
<path d="M8.31006 9.82983H5.11005C4.81005 9.82983 4.56006 9.55984 4.56006 9.20984C4.56006 8.85984 4.81005 8.58984 5.11005 8.58984H8.31006C8.61006 8.58984 8.85004 8.85984 8.85004 9.20984C8.85004 9.55984 8.61006 9.82983 8.31006 9.82983ZM5.11005 8.98984C5.11005 8.98984 5.00006 9.06984 5.00006 9.20984C5.00006 9.33984 5.07005 9.42984 5.11005 9.42984H8.31006C8.31006 9.42984 8.42004 9.34984 8.42004 9.20984C8.42004 9.06984 8.35006 8.98984 8.31006 8.98984H5.11005Z" fill="#555451"/>
<path d="M8.64001 7.76962C8.64001 7.99962 8.5 8.18964 8.31 8.18964H5.10999C4.91999 8.18964 4.78003 7.99962 4.78003 7.76962C4.78003 7.53962 4.91999 7.34961 5.10999 7.34961H8.31C8.5 7.34961 8.64001 7.52962 8.64001 7.76962Z" fill="#797573"/>
<path d="M8.31006 8.37964H5.11005C4.81005 8.37964 4.56006 8.10964 4.56006 7.75964C4.56006 7.40964 4.81005 7.13965 5.11005 7.13965H8.31006C8.61006 7.13965 8.85004 7.40964 8.85004 7.75964C8.85004 8.10964 8.61006 8.37964 8.31006 8.37964ZM5.11005 7.53964C5.11005 7.53964 5.00006 7.61965 5.00006 7.76965C5.00006 7.91965 5.08005 7.98965 5.11005 7.98965H8.31006C8.31006 7.98965 8.42004 7.90965 8.42004 7.76965C8.42004 7.62965 8.35006 7.53964 8.31006 7.53964H5.11005Z" fill="#555451"/>
<path d="M8.64001 6.32037C8.64001 6.55037 8.5 6.74039 8.31 6.74039H5.10999C4.91999 6.74039 4.78003 6.55037 4.78003 6.32037C4.78003 6.09037 4.91999 5.90039 5.10999 5.90039H8.31C8.5 5.90039 8.64001 6.09037 8.64001 6.32037Z" fill="#797573"/>
<path d="M8.31006 6.94022H5.11005C4.81005 6.94022 4.56006 6.67019 4.56006 6.32019C4.56006 5.97019 4.81005 5.7002 5.11005 5.7002H8.31006C8.61006 5.7002 8.85004 5.97019 8.85004 6.32019C8.85004 6.67019 8.61006 6.94022 8.31006 6.94022ZM5.11005 6.09021C5.11005 6.09021 5.00006 6.18021 5.00006 6.31021C5.00006 6.44021 5.08005 6.54019 5.11005 6.54019H8.31006C8.31006 6.54019 8.42004 6.46021 8.42004 6.31021C8.42004 6.16021 8.35006 6.09021 8.31006 6.09021H5.11005Z" fill="#555451"/>
<path d="M8.64001 4.87021C8.64001 5.10021 8.5 5.29019 8.31 5.29019H5.10999C4.91999 5.29019 4.78003 5.10021 4.78003 4.87021C4.78003 4.64021 4.91999 4.4502 5.10999 4.4502H8.31C8.5 4.4502 8.64001 4.64021 8.64001 4.87021Z" fill="#797573"/>
<path d="M8.31006 5.48999H5.11005C4.81005 5.48999 4.56006 5.22 4.56006 4.87C4.56006 4.52 4.81005 4.25 5.11005 4.25H8.31006C8.61006 4.25 8.85004 4.53 8.85004 4.87C8.85004 5.21 8.61006 5.48999 8.31006 5.48999ZM5.11005 4.64999C5.11005 4.64999 5.00006 4.73 5.00006 4.87C5.00006 5.01 5.07005 5.09 5.11005 5.09H8.31006C8.31006 5.09 8.42004 5.01 8.42004 4.87C8.42004 4.73 8.35006 4.64999 8.31006 4.64999H5.11005Z" fill="#555451"/>
<path d="M23.4101 14.9806C23.4101 15.6706 22.7902 16.2406 22.0302 16.2406C21.2702 16.2406 20.6501 15.6706 20.6501 14.9806V4.90063C20.6501 4.20063 21.2702 3.64062 22.0302 3.64062C22.8002 3.64062 23.4101 4.21063 23.4101 4.90063V14.9806Z" fill="#797573"/>
<path d="M22.0302 16.4304C21.1502 16.4304 20.4402 15.7804 20.4402 14.9804V4.90042C20.4402 4.09042 21.1602 3.44043 22.0302 3.44043C22.9002 3.44043 23.6302 4.09042 23.6302 4.90042V14.9804C23.6302 15.7804 22.9102 16.4304 22.0302 16.4304ZM22.0302 3.84042C21.3902 3.84042 20.8702 4.32042 20.8702 4.90042V14.9804C20.8702 15.5604 21.3902 16.0404 22.0302 16.0404C22.6702 16.0404 23.1902 15.5604 23.1902 14.9804V4.90042C23.1902 4.31042 22.6702 3.84042 22.0302 3.84042Z" fill="#555451"/>
<path d="M23.9601 15.0001C23.9601 15.2301 23.8101 15.4101 23.6301 15.4101H20.4401C20.2501 15.4101 20.1101 15.2301 20.1101 15.0001C20.1101 14.7701 20.2601 14.5801 20.4401 14.5801H23.6301C23.8101 14.5801 23.9601 14.7701 23.9601 15.0001Z" fill="#797573"/>
<path d="M23.6301 15.6199H20.4401C20.1301 15.6199 19.8901 15.3499 19.8901 14.9999C19.8901 14.6499 20.1301 14.3799 20.4401 14.3799H23.6301C23.9401 14.3799 24.1801 14.6499 24.1801 14.9999C24.1801 15.3499 23.9401 15.6199 23.6301 15.6199ZM20.4401 14.7799C20.4401 14.7799 20.3301 14.8699 20.3301 15.0099C20.3301 15.1499 20.4101 15.2299 20.4401 15.2299H23.6301C23.6301 15.2299 23.7401 15.1499 23.7401 15.0099C23.7401 14.8699 23.6601 14.7799 23.6301 14.7799H20.4401Z" fill="#555451"/>
<path d="M23.9601 13.5606C23.9601 13.7906 23.8101 13.9706 23.6301 13.9706H20.4401C20.2501 13.9706 20.1101 13.7806 20.1101 13.5606C20.1101 13.3206 20.2601 13.1406 20.4401 13.1406H23.6301C23.8101 13.1406 23.9601 13.3306 23.9601 13.5606Z" fill="#797573"/>
<path d="M23.6301 14.1704H20.4401C20.1301 14.1704 19.8901 13.9004 19.8901 13.5604C19.8901 13.2204 20.1301 12.9404 20.4401 12.9404H23.6301C23.9401 12.9404 24.1801 13.2104 24.1801 13.5604C24.1801 13.9104 23.9401 14.1704 23.6301 14.1704ZM20.4401 13.3304C20.4401 13.3304 20.3301 13.4204 20.3301 13.5604C20.3301 13.6904 20.4001 13.7804 20.4401 13.7804H23.6301C23.6301 13.7804 23.7401 13.7004 23.7401 13.5604C23.7401 13.4104 23.6601 13.3304 23.6301 13.3304H20.4401Z" fill="#555451"/>
<path d="M23.9601 12.1104C23.9601 12.3404 23.8101 12.5304 23.6301 12.5304H20.4401C20.2501 12.5304 20.1101 12.3404 20.1101 12.1104C20.1101 11.8804 20.2601 11.6904 20.4401 11.6904H23.6301C23.8101 11.6904 23.9601 11.8804 23.9601 12.1104Z" fill="#797573"/>
<path d="M23.6301 12.7302H20.4401C20.1301 12.7302 19.8901 12.4602 19.8901 12.1102C19.8901 11.7602 20.1301 11.4902 20.4401 11.4902H23.6301C23.9401 11.4902 24.1801 11.7602 24.1801 12.1102C24.1801 12.4602 23.9401 12.7302 23.6301 12.7302ZM20.4401 11.8802C20.4401 11.8802 20.3301 11.9602 20.3301 12.1002C20.3301 12.2402 20.4001 12.3202 20.4401 12.3202H23.6301C23.6301 12.3202 23.7401 12.2402 23.7401 12.1002C23.7401 11.9602 23.6701 11.8802 23.6301 11.8802H20.4401Z" fill="#555451"/>
<path d="M23.9601 10.6602C23.9601 10.8902 23.8101 11.0802 23.6301 11.0802H20.4401C20.2501 11.0802 20.1101 10.8902 20.1101 10.6602C20.1101 10.4302 20.2601 10.2402 20.4401 10.2402H23.6301C23.8101 10.2402 23.9601 10.4202 23.9601 10.6602Z" fill="#797573"/>
<path d="M23.6301 11.2801H20.4401C20.1301 11.2801 19.8901 11.01 19.8901 10.66C19.8901 10.31 20.1301 10.04 20.4401 10.04H23.6301C23.9401 10.04 24.1801 10.31 24.1801 10.66C24.1801 11.01 23.9401 11.2801 23.6301 11.2801ZM20.4401 10.4401C20.4401 10.4401 20.3301 10.53 20.3301 10.66C20.3301 10.79 20.4001 10.88 20.4401 10.88H23.6301C23.6301 10.88 23.7401 10.8 23.7401 10.66C23.7401 10.52 23.6601 10.4401 23.6301 10.4401H20.4401Z" fill="#555451"/>
<path d="M23.9601 9.21005C23.9601 9.44005 23.8101 9.63004 23.6301 9.63004H20.4401C20.2501 9.63004 20.1101 9.44005 20.1101 9.21005C20.1101 8.98005 20.2601 8.79004 20.4401 8.79004H23.6301C23.8101 8.79004 23.9601 8.98005 23.9601 9.21005Z" fill="#797573"/>
<path d="M23.6301 9.82983H20.4401C20.1301 9.82983 19.8901 9.55984 19.8901 9.20984C19.8901 8.85984 20.1301 8.58984 20.4401 8.58984H23.6301C23.9401 8.58984 24.1801 8.85984 24.1801 9.20984C24.1801 9.55984 23.9401 9.82983 23.6301 9.82983ZM20.4401 8.98984C20.4401 8.98984 20.3301 9.07984 20.3301 9.20984C20.3301 9.33984 20.4001 9.42984 20.4401 9.42984H23.6301C23.6301 9.42984 23.7401 9.34984 23.7401 9.20984C23.7401 9.06984 23.6701 8.98984 23.6301 8.98984H20.4401Z" fill="#555451"/>
<path d="M23.9601 7.76962C23.9601 7.99962 23.8101 8.18964 23.6301 8.18964H20.4401C20.2501 8.18964 20.1101 7.99962 20.1101 7.76962C20.1101 7.53962 20.2601 7.34961 20.4401 7.34961H23.6301C23.8101 7.34961 23.9601 7.52962 23.9601 7.76962Z" fill="#797573"/>
<path d="M23.6301 8.37964H20.4401C20.1301 8.37964 19.8901 8.10964 19.8901 7.75964C19.8901 7.40964 20.1301 7.13965 20.4401 7.13965H23.6301C23.9401 7.13965 24.1801 7.40964 24.1801 7.75964C24.1801 8.10964 23.9401 8.37964 23.6301 8.37964ZM20.4401 7.53964C20.4401 7.53964 20.3301 7.62965 20.3301 7.76965C20.3301 7.90965 20.4001 7.98965 20.4401 7.98965H23.6301C23.6301 7.98965 23.7401 7.90965 23.7401 7.76965C23.7401 7.62965 23.6701 7.53964 23.6301 7.53964H20.4401Z" fill="#555451"/>
<path d="M23.9601 6.32037C23.9601 6.55037 23.8101 6.74039 23.6301 6.74039H20.4401C20.2501 6.74039 20.1101 6.55037 20.1101 6.32037C20.1101 6.09037 20.2601 5.90039 20.4401 5.90039H23.6301C23.8101 5.90039 23.9601 6.09037 23.9601 6.32037Z" fill="#797573"/>
<path d="M23.6301 6.94022H20.4401C20.1301 6.94022 19.8901 6.67019 19.8901 6.32019C19.8901 5.97019 20.1301 5.7002 20.4401 5.7002H23.6301C23.9401 5.7002 24.1801 5.97019 24.1801 6.32019C24.1801 6.67019 23.9401 6.94022 23.6301 6.94022ZM20.4401 6.09021C20.4401 6.09021 20.3301 6.18021 20.3301 6.31021C20.3301 6.44021 20.4101 6.54019 20.4401 6.54019H23.6301C23.6301 6.54019 23.7401 6.45021 23.7401 6.31021C23.7401 6.17021 23.6601 6.09021 23.6301 6.09021H20.4401Z" fill="#555451"/>
<path d="M23.9601 4.87021C23.9601 5.10021 23.8101 5.29019 23.6301 5.29019H20.4401C20.2501 5.29019 20.1101 5.10021 20.1101 4.87021C20.1101 4.64021 20.2601 4.4502 20.4401 4.4502H23.6301C23.8101 4.4502 23.9601 4.64021 23.9601 4.87021Z" fill="#797573"/>
<path d="M23.6301 5.48999H20.4401C20.1301 5.48999 19.8901 5.22 19.8901 4.87C19.8901 4.52 20.1301 4.25 20.4401 4.25H23.6301C23.9401 4.25 24.1801 4.53 24.1801 4.87C24.1801 5.21 23.9401 5.48999 23.6301 5.48999ZM20.4401 4.64999C20.4401 4.64999 20.3301 4.73 20.3301 4.87C20.3301 5.01 20.4001 5.09 20.4401 5.09H23.6301C23.6301 5.09 23.7401 5.01 23.7401 4.87C23.7401 4.73 23.6701 4.64999 23.6301 4.64999H20.4401Z" fill="#555451"/>
<path d="M49.7299 14.9806C49.7299 15.6706 49.1099 16.2406 48.3499 16.2406C47.5799 16.2406 46.97 15.6706 46.97 14.9806V4.90063C46.97 4.20063 47.5899 3.64062 48.3499 3.64062C49.1099 3.64062 49.7299 4.21063 49.7299 4.90063V14.9806Z" fill="#797573"/>
<path d="M48.35 16.4304C47.47 16.4304 46.75 15.7804 46.75 14.9804V4.90042C46.75 4.09042 47.47 3.44043 48.35 3.44043C49.23 3.44043 49.94 4.09042 49.94 4.90042V14.9804C49.94 15.7804 49.22 16.4304 48.35 16.4304ZM48.35 3.84042C47.71 3.84042 47.19 4.32042 47.19 4.90042V14.9804C47.19 15.5604 47.71 16.0404 48.35 16.0404C48.99 16.0404 49.51 15.5604 49.51 14.9804V4.90042C49.51 4.31042 48.98 3.84042 48.35 3.84042Z" fill="#555451"/>
<path d="M50.28 15.0001C50.28 15.2301 50.13 15.4101 49.95 15.4101H46.7499C46.5599 15.4101 46.4199 15.2301 46.4199 15.0001C46.4199 14.7701 46.5599 14.5801 46.7499 14.5801H49.95C50.13 14.5801 50.28 14.7701 50.28 15.0001Z" fill="#797573"/>
<path d="M49.95 15.6199H46.7499C46.4499 15.6199 46.2 15.3499 46.2 14.9999C46.2 14.6499 46.4399 14.3799 46.7499 14.3799H49.95C50.25 14.3799 50.4899 14.6499 50.4899 14.9999C50.4899 15.3499 50.25 15.6199 49.95 15.6199ZM46.7499 14.7799C46.7499 14.7799 46.64 14.8699 46.64 15.0099C46.64 15.1499 46.7199 15.2299 46.7499 15.2299H49.95C49.95 15.2299 50.0599 15.1499 50.0599 15.0099C50.0599 14.8699 49.98 14.7799 49.95 14.7799H46.7499Z" fill="#555451"/>
<path d="M50.28 13.5606C50.28 13.7906 50.13 13.9706 49.95 13.9706H46.7499C46.5599 13.9706 46.4199 13.7806 46.4199 13.5606C46.4199 13.3206 46.5599 13.1406 46.7499 13.1406H49.95C50.13 13.1406 50.28 13.3306 50.28 13.5606Z" fill="#797573"/>
<path d="M49.95 14.1704H46.7499C46.4499 14.1704 46.2 13.9004 46.2 13.5604C46.2 13.2204 46.4399 12.9404 46.7499 12.9404H49.95C50.25 12.9404 50.4899 13.2104 50.4899 13.5604C50.4899 13.9104 50.25 14.1704 49.95 14.1704ZM46.7499 13.3304C46.7499 13.3304 46.64 13.4204 46.64 13.5604C46.64 13.6904 46.7099 13.7804 46.7499 13.7804H49.95C49.95 13.7804 50.0599 13.7004 50.0599 13.5604C50.0599 13.4104 49.98 13.3304 49.95 13.3304H46.7499Z" fill="#555451"/>
<path d="M50.28 12.1104C50.28 12.3404 50.13 12.5304 49.95 12.5304H46.7499C46.5599 12.5304 46.4199 12.3404 46.4199 12.1104C46.4199 11.8804 46.5599 11.6904 46.7499 11.6904H49.95C50.13 11.6904 50.28 11.8804 50.28 12.1104Z" fill="#797573"/>
<path d="M49.95 12.7302H46.7499C46.4499 12.7302 46.2 12.4602 46.2 12.1102C46.2 11.7602 46.4399 11.4902 46.7499 11.4902H49.95C50.25 11.4902 50.4899 11.7602 50.4899 12.1102C50.4899 12.4602 50.25 12.7302 49.95 12.7302ZM46.7499 11.8802C46.7499 11.8802 46.64 11.9602 46.64 12.1002C46.64 12.2402 46.7199 12.3202 46.7499 12.3202H49.95C49.95 12.3202 50.0599 12.2402 50.0599 12.1002C50.0599 11.9602 49.98 11.8802 49.95 11.8802H46.7499Z" fill="#555451"/>
<path d="M50.28 10.6602C50.28 10.8902 50.13 11.0802 49.95 11.0802H46.7499C46.5599 11.0802 46.4199 10.8902 46.4199 10.6602C46.4199 10.4302 46.5599 10.2402 46.7499 10.2402H49.95C50.13 10.2402 50.28 10.4202 50.28 10.6602Z" fill="#797573"/>
<path d="M49.95 11.2801H46.7499C46.4499 11.2801 46.2 11.01 46.2 10.66C46.2 10.31 46.4399 10.04 46.7499 10.04H49.95C50.25 10.04 50.4899 10.31 50.4899 10.66C50.4899 11.01 50.25 11.2801 49.95 11.2801ZM46.7499 10.4401C46.7499 10.4401 46.64 10.53 46.64 10.66C46.64 10.79 46.7099 10.88 46.7499 10.88H49.95C49.95 10.88 50.0599 10.8 50.0599 10.66C50.0599 10.52 49.98 10.4401 49.95 10.4401H46.7499Z" fill="#555451"/>
<path d="M50.28 9.21005C50.28 9.44005 50.13 9.63004 49.95 9.63004H46.7499C46.5599 9.63004 46.4199 9.44005 46.4199 9.21005C46.4199 8.98005 46.5599 8.79004 46.7499 8.79004H49.95C50.13 8.79004 50.28 8.98005 50.28 9.21005Z" fill="#797573"/>
<path d="M49.95 9.82983H46.7499C46.4499 9.82983 46.2 9.55984 46.2 9.20984C46.2 8.85984 46.4399 8.58984 46.7499 8.58984H49.95C50.25 8.58984 50.4899 8.85984 50.4899 9.20984C50.4899 9.55984 50.25 9.82983 49.95 9.82983ZM46.7499 8.98984C46.7499 8.98984 46.64 9.06984 46.64 9.20984C46.64 9.33984 46.7099 9.42984 46.7499 9.42984H49.95C49.95 9.42984 50.0599 9.34984 50.0599 9.20984C50.0599 9.06984 49.98 8.98984 49.95 8.98984H46.7499Z" fill="#555451"/>
<path d="M50.28 7.76962C50.28 7.99962 50.13 8.18964 49.95 8.18964H46.7499C46.5599 8.18964 46.4199 7.99962 46.4199 7.76962C46.4199 7.53962 46.5599 7.34961 46.7499 7.34961H49.95C50.13 7.34961 50.28 7.52962 50.28 7.76962Z" fill="#797573"/>
<path d="M49.95 8.37964H46.7499C46.4499 8.37964 46.2 8.10964 46.2 7.75964C46.2 7.40964 46.4399 7.13965 46.7499 7.13965H49.95C50.25 7.13965 50.4899 7.40964 50.4899 7.75964C50.4899 8.10964 50.25 8.37964 49.95 8.37964ZM46.7499 7.53964C46.7499 7.53964 46.64 7.61965 46.64 7.76965C46.64 7.91965 46.7199 7.98965 46.7499 7.98965H49.95C49.95 7.98965 50.0599 7.90965 50.0599 7.76965C50.0599 7.62965 49.98 7.53964 49.95 7.53964H46.7499Z" fill="#555451"/>
<path d="M50.28 6.32037C50.28 6.55037 50.13 6.74039 49.95 6.74039H46.7499C46.5599 6.74039 46.4199 6.55037 46.4199 6.32037C46.4199 6.09037 46.5599 5.90039 46.7499 5.90039H49.95C50.13 5.90039 50.28 6.09037 50.28 6.32037Z" fill="#797573"/>
<path d="M49.95 6.94022H46.7499C46.4499 6.94022 46.2 6.67019 46.2 6.32019C46.2 5.97019 46.4399 5.7002 46.7499 5.7002H49.95C50.25 5.7002 50.4899 5.97019 50.4899 6.32019C50.4899 6.67019 50.25 6.94022 49.95 6.94022ZM46.7499 6.09021C46.7499 6.09021 46.64 6.18021 46.64 6.31021C46.64 6.44021 46.7199 6.54019 46.7499 6.54019H49.95C49.95 6.54019 50.0599 6.45021 50.0599 6.31021C50.0599 6.17021 49.98 6.09021 49.95 6.09021H46.7499Z" fill="#555451"/>
<path d="M50.28 4.87021C50.28 5.10021 50.13 5.29019 49.95 5.29019H46.7499C46.5599 5.29019 46.4199 5.10021 46.4199 4.87021C46.4199 4.64021 46.5599 4.4502 46.7499 4.4502H49.95C50.13 4.4502 50.28 4.64021 50.28 4.87021Z" fill="#797573"/>
<path d="M49.95 5.48999H46.7499C46.4499 5.48999 46.2 5.22 46.2 4.87C46.2 4.52 46.4399 4.25 46.7499 4.25H49.95C50.25 4.25 50.4899 4.53 50.4899 4.87C50.4899 5.21 50.25 5.48999 49.95 5.48999ZM46.7499 4.64999C46.7499 4.64999 46.64 4.73 46.64 4.87C46.64 5.01 46.7099 5.09 46.7499 5.09H49.95C49.95 5.09 50.0599 5.01 50.0599 4.87C50.0599 4.73 49.98 4.64999 49.95 4.64999H46.7499Z" fill="#555451"/>
<path d="M65.05 14.9806C65.05 15.6706 64.43 16.2406 63.67 16.2406C62.91 16.2406 62.29 15.6706 62.29 14.9806V4.90063C62.29 4.20063 62.91 3.64062 63.67 3.64062C64.44 3.64062 65.05 4.21063 65.05 4.90063V14.9806Z" fill="#797573"/>
<path d="M63.67 16.4304C62.79 16.4304 62.0801 15.7804 62.0801 14.9804V4.90042C62.0801 4.09042 62.8 3.44043 63.67 3.44043C64.54 3.44043 65.2701 4.09042 65.2701 4.90042V14.9804C65.2701 15.7804 64.55 16.4304 63.67 16.4304ZM63.67 3.84042C63.03 3.84042 62.5101 4.32042 62.5101 4.90042V14.9804C62.5101 15.5604 63.04 16.0404 63.67 16.0404C64.3 16.0404 64.8301 15.5604 64.8301 14.9804V4.90042C64.8301 4.31042 64.31 3.84042 63.67 3.84042Z" fill="#555451"/>
<path d="M65.6 15.0001C65.6 15.2301 65.46 15.4101 65.28 15.4101H62.08C61.9 15.4101 61.75 15.2301 61.75 15.0001C61.75 14.7701 61.9 14.5801 62.08 14.5801H65.28C65.46 14.5801 65.6 14.7701 65.6 15.0001Z" fill="#797573"/>
<path d="M65.27 15.6199H62.07C61.77 15.6199 61.53 15.3499 61.53 14.9999C61.53 14.6499 61.77 14.3799 62.07 14.3799H65.27C65.57 14.3799 65.81 14.6499 65.81 14.9999C65.81 15.3499 65.57 15.6199 65.27 15.6199ZM62.07 14.7799C62.07 14.7799 61.96 14.8699 61.96 15.0099C61.96 15.1499 62.04 15.2299 62.07 15.2299H65.27C65.27 15.2299 65.38 15.1499 65.38 15.0099C65.38 14.8699 65.29 14.7799 65.27 14.7799H62.07Z" fill="#555451"/>
<path d="M65.6 13.5606C65.6 13.7906 65.46 13.9706 65.28 13.9706H62.08C61.9 13.9706 61.75 13.7806 61.75 13.5606C61.75 13.3206 61.9 13.1406 62.08 13.1406H65.28C65.46 13.1406 65.6 13.3306 65.6 13.5606Z" fill="#797573"/>
<path d="M65.27 14.1704H62.07C61.77 14.1704 61.53 13.9004 61.53 13.5604C61.53 13.2204 61.77 12.9404 62.07 12.9404H65.27C65.57 12.9404 65.81 13.2104 65.81 13.5604C65.81 13.9104 65.57 14.1704 65.27 14.1704ZM62.07 13.3304C62.07 13.3304 61.96 13.4204 61.96 13.5604C61.96 13.6904 62.03 13.7804 62.07 13.7804H65.27C65.27 13.7804 65.38 13.7004 65.38 13.5604C65.38 13.4204 65.29 13.3304 65.27 13.3304H62.07Z" fill="#555451"/>
<path d="M65.6 12.1104C65.6 12.3404 65.46 12.5304 65.28 12.5304H62.08C61.9 12.5304 61.75 12.3404 61.75 12.1104C61.75 11.8804 61.9 11.6904 62.08 11.6904H65.28C65.46 11.6904 65.6 11.8804 65.6 12.1104Z" fill="#797573"/>
<path d="M65.27 12.7302H62.07C61.77 12.7302 61.53 12.4602 61.53 12.1102C61.53 11.7602 61.77 11.4902 62.07 11.4902H65.27C65.57 11.4902 65.81 11.7602 65.81 12.1102C65.81 12.4602 65.57 12.7302 65.27 12.7302ZM62.07 11.8802C62.07 11.8802 61.96 11.9602 61.96 12.1002C61.96 12.2402 62.04 12.3202 62.07 12.3202H65.27C65.27 12.3202 65.38 12.2402 65.38 12.1002C65.38 11.9602 65.3 11.8802 65.27 11.8802H62.07Z" fill="#555451"/>
<path d="M65.6 10.6602C65.6 10.8902 65.46 11.0802 65.28 11.0802H62.08C61.9 11.0802 61.75 10.8902 61.75 10.6602C61.75 10.4302 61.9 10.2402 62.08 10.2402H65.28C65.46 10.2402 65.6 10.4202 65.6 10.6602Z" fill="#797573"/>
<path d="M65.27 11.2801H62.07C61.77 11.2801 61.53 11.01 61.53 10.66C61.53 10.31 61.77 10.04 62.07 10.04H65.27C65.57 10.04 65.81 10.31 65.81 10.66C65.81 11.01 65.57 11.2801 65.27 11.2801ZM62.07 10.4401C62.07 10.4401 61.96 10.53 61.96 10.66C61.96 10.79 62.03 10.88 62.07 10.88H65.27C65.27 10.88 65.38 10.8 65.38 10.66C65.38 10.52 65.29 10.4401 65.27 10.4401H62.07Z" fill="#555451"/>
<path d="M65.6 9.21005C65.6 9.44005 65.46 9.63004 65.28 9.63004H62.08C61.9 9.63004 61.75 9.44005 61.75 9.21005C61.75 8.98005 61.9 8.79004 62.08 8.79004H65.28C65.46 8.79004 65.6 8.98005 65.6 9.21005Z" fill="#797573"/>
<path d="M65.27 9.82983H62.07C61.77 9.82983 61.53 9.55984 61.53 9.20984C61.53 8.85984 61.77 8.58984 62.07 8.58984H65.27C65.57 8.58984 65.81 8.85984 65.81 9.20984C65.81 9.55984 65.57 9.82983 65.27 9.82983ZM62.07 8.98984C62.07 8.98984 61.96 9.06984 61.96 9.20984C61.96 9.33984 62.03 9.42984 62.07 9.42984H65.27C65.27 9.42984 65.38 9.34984 65.38 9.20984C65.38 9.06984 65.29 8.98984 65.27 8.98984H62.07Z" fill="#555451"/>
<path d="M65.6 7.76962C65.6 7.99962 65.46 8.18964 65.28 8.18964H62.08C61.9 8.18964 61.75 7.99962 61.75 7.76962C61.75 7.53962 61.9 7.34961 62.08 7.34961H65.28C65.46 7.34961 65.6 7.52962 65.6 7.76962Z" fill="#797573"/>
<path d="M65.27 8.37964H62.07C61.77 8.37964 61.53 8.10964 61.53 7.75964C61.53 7.40964 61.77 7.13965 62.07 7.13965H65.27C65.57 7.13965 65.81 7.40964 65.81 7.75964C65.81 8.10964 65.57 8.37964 65.27 8.37964ZM62.07 7.53964C62.07 7.53964 61.96 7.61965 61.96 7.76965C61.96 7.91965 62.04 7.98965 62.07 7.98965H65.27C65.27 7.98965 65.38 7.90965 65.38 7.76965C65.38 7.62965 65.29 7.53964 65.27 7.53964H62.07Z" fill="#555451"/>
<path d="M65.6 6.32037C65.6 6.55037 65.46 6.74039 65.28 6.74039H62.08C61.9 6.74039 61.75 6.55037 61.75 6.32037C61.75 6.09037 61.9 5.90039 62.08 5.90039H65.28C65.46 5.90039 65.6 6.09037 65.6 6.32037Z" fill="#797573"/>
<path d="M65.27 6.94022H62.07C61.77 6.94022 61.53 6.67019 61.53 6.32019C61.53 5.97019 61.77 5.7002 62.07 5.7002H65.27C65.57 5.7002 65.81 5.97019 65.81 6.32019C65.81 6.67019 65.57 6.94022 65.27 6.94022ZM62.07 6.09021C62.07 6.09021 61.96 6.18021 61.96 6.31021C61.96 6.44021 62.04 6.54019 62.07 6.54019H65.27C65.27 6.54019 65.38 6.46021 65.38 6.31021C65.38 6.16021 65.29 6.09021 65.27 6.09021H62.07Z" fill="#555451"/>
<path d="M65.6 4.87021C65.6 5.10021 65.46 5.29019 65.28 5.29019H62.08C61.9 5.29019 61.75 5.10021 61.75 4.87021C61.75 4.64021 61.9 4.4502 62.08 4.4502H65.28C65.46 4.4502 65.6 4.64021 65.6 4.87021Z" fill="#797573"/>
<path d="M65.27 5.48999H62.07C61.77 5.48999 61.53 5.22 61.53 4.87C61.53 4.52 61.77 4.25 62.07 4.25H65.27C65.57 4.25 65.81 4.53 65.81 4.87C65.81 5.21 65.57 5.48999 65.27 5.48999ZM62.07 4.64999C62.07 4.64999 61.96 4.73 61.96 4.87C61.96 5.01 62.03 5.09 62.07 5.09H65.27C65.27 5.09 65.38 5.01 65.38 4.87C65.38 4.73 65.29 4.64999 65.27 4.64999H62.07Z" fill="#555451"/>
<path d="M39.75 0.200195H31.51V191.23H39.75V0.200195Z" fill="#B9B0AB"/>
<path d="M39.7501 191.43H31.5101C31.3901 191.43 31.29 191.34 31.29 191.23V0.199982C31.29 0.0899817 31.3901 0 31.5101 0H39.7501C39.8701 0 39.9701 0.0899817 39.9701 0.199982V191.23C39.9701 191.34 39.8701 191.43 39.7501 191.43ZM31.7201 191.03H39.5301V0.389984H31.7201V191.03Z" fill="#7A7674"/>
<g style="mix-blend-mode:multiply" opacity="0.6">
<path d="M39.75 32.6504H31.51V62.2604H39.75V32.6504Z" fill="#797573"/>
</g>
<g style="mix-blend-mode:multiply">
<path d="M39.7499 0.200195H36.96V191.23H39.7499V0.200195Z" fill="#B9B0AB"/>
</g>
<g style="mix-blend-mode:screen">
<path d="M32.6799 0.200195H31.95V191.23H32.6799V0.200195Z" fill="#B9B0AB"/>
</g>
<path d="M71.0399 8.25H0.199951V13.57H71.0399V8.25Z" fill="#797573"/>
<path d="M71.05 13.7698H0.210022C0.090022 13.7698 0 13.6798 0 13.5698V8.24982C0 8.13982 0.100022 8.0498 0.210022 8.0498H71.05C71.18 8.0498 71.27 8.13982 71.27 8.24982V13.5698C71.27 13.6798 71.17 13.7698 71.05 13.7698ZM0.419983 13.3698H70.83V8.4498H0.419983V13.3698Z" fill="#555451"/>
<path d="M71.0399 8.25H0.199951V9.50998H71.0399V8.25Z" fill="#B9B0AB"/>
<g style="mix-blend-mode:multiply">
<path d="M71.0399 12.2695H0.199951V13.5695H71.0399V12.2695Z" fill="#797573"/>
</g>
<path d="M35.8099 10.5504C35.8099 10.9104 35.4899 11.2104 35.0899 11.2104C34.6899 11.2104 34.3799 10.9204 34.3799 10.5504C34.3799 10.1804 34.6999 9.90039 35.0899 9.90039C35.4799 9.90039 35.8099 10.1904 35.8099 10.5504Z" fill="#B9B0AB"/>
<path d="M15.1701 75.2998H11.6201V80.0298H15.1701V75.2998Z" fill="#555451" stroke="#9B9B9A" stroke-width="0.46" stroke-miterlimit="10"/>
<path d="M11.49 80.0703L10.27 82.6703C10.11 83.0003 10.3601 83.3802 10.7201 83.3802H16.21C16.59 83.3802 16.83 82.9803 16.66 82.6503L15.32 80.0503C15.23 79.8803 15.06 79.7803 14.87 79.7803H11.94C11.75 79.7803 11.57 79.8903 11.49 80.0703Z" fill="#555451" stroke="#9B9B9A" stroke-width="0.46" stroke-miterlimit="10"/>
<path d="M19.57 74.7305H16.02V79.4605H19.57V74.7305Z" fill="#555451" stroke="#9B9B9A" stroke-width="0.46" stroke-miterlimit="10"/>
<path d="M15.88 79.5009L14.6599 82.1009C14.4999 82.4309 14.7499 82.8109 15.1099 82.8109H20.5999C20.9799 82.8109 21.2199 82.4109 21.0499 82.0809L19.71 79.4809C19.62 79.3109 19.45 79.2109 19.26 79.2109H16.33C16.14 79.2109 15.96 79.3209 15.88 79.5009Z" fill="#555451" stroke="#9B9B9A" stroke-width="0.46" stroke-miterlimit="10"/>
<path d="M23.8 73.6201H20.25V78.3501H23.8V73.6201Z" fill="#555451" stroke="#9B9B9A" stroke-width="0.46" stroke-miterlimit="10"/>
<path d="M20.1099 78.3906L18.8899 80.9906C18.7299 81.3206 18.9799 81.7006 19.3399 81.7006H24.8299C25.2099 81.7006 25.4499 81.3006 25.2799 80.9706L23.9399 78.3706C23.8499 78.2006 23.6799 78.1006 23.4899 78.1006H20.5599C20.3699 78.1006 20.1899 78.2106 20.1099 78.3906Z" fill="#555451" stroke="#9B9B9A" stroke-width="0.46" stroke-miterlimit="10"/>
<path d="M27.9099 75.2998H24.3599V80.0298H27.9099V75.2998Z" fill="#555451" stroke="#9B9B9A" stroke-width="0.46" stroke-miterlimit="10"/>
<path d="M24.2201 80.0703L23 82.6703C22.84 83.0003 23.09 83.3802 23.45 83.3802H28.94C29.32 83.3802 29.56 82.9803 29.39 82.6503L28.05 80.0503C27.96 79.8803 27.79 79.7803 27.6 79.7803H24.67C24.48 79.7803 24.3001 79.8903 24.2201 80.0703Z" fill="#555451" stroke="#9B9B9A" stroke-width="0.46" stroke-miterlimit="10"/>
<path d="M32.3098 74.7305H28.7598V79.4605H32.3098V74.7305Z" fill="#555451" stroke="#9B9B9A" stroke-width="0.46" stroke-miterlimit="10"/>
<path d="M28.6199 79.5009L27.3999 82.1009C27.2399 82.4309 27.4899 82.8109 27.8499 82.8109H33.3399C33.7199 82.8109 33.9599 82.4109 33.7899 82.0809L32.4499 79.4809C32.3599 79.3109 32.1899 79.2109 31.9999 79.2109H29.0699C28.8799 79.2109 28.6999 79.3209 28.6199 79.5009Z" fill="#555451" stroke="#9B9B9A" stroke-width="0.46" stroke-miterlimit="10"/>
<path d="M36.53 73.6201H32.98V78.3501H36.53V73.6201Z" fill="#555451" stroke="#9B9B9A" stroke-width="0.46" stroke-miterlimit="10"/>
<path d="M32.8499 78.3906L31.6299 80.9906C31.4699 81.3206 31.7199 81.7006 32.0799 81.7006H37.5699C37.9499 81.7006 38.1899 81.3006 38.0199 80.9706L36.6799 78.3706C36.5899 78.2006 36.4199 78.1006 36.2299 78.1006H33.2999C33.1099 78.1006 32.9299 78.2106 32.8499 78.3906Z" fill="#555451" stroke="#9B9B9A" stroke-width="0.46" stroke-miterlimit="10"/>
<path d="M39.7097 75.2998H36.1597V80.0298H39.7097V75.2998Z" fill="#555451" stroke="#9B9B9A" stroke-width="0.46" stroke-miterlimit="10"/>
<path d="M36.0199 80.0703L34.7998 82.6703C34.6398 83.0003 34.8898 83.3802 35.2498 83.3802H40.7398C41.1198 83.3802 41.3598 82.9803 41.1898 82.6503L39.8498 80.0503C39.7598 79.8803 39.5899 79.7803 39.3999 79.7803H36.4699C36.2799 79.7803 36.0999 79.8903 36.0199 80.0703Z" fill="#555451" stroke="#9B9B9A" stroke-width="0.46" stroke-miterlimit="10"/>
<path d="M44.11 74.7305H40.5601V79.4605H44.11V74.7305Z" fill="#555451" stroke="#9B9B9A" stroke-width="0.46" stroke-miterlimit="10"/>
<path d="M40.4199 79.5009L39.2 82.1009C39.04 82.4309 39.29 82.8109 39.65 82.8109H45.14C45.52 82.8109 45.76 82.4109 45.59 82.0809L44.25 79.4809C44.16 79.3109 43.9899 79.2109 43.7999 79.2109H40.87C40.68 79.2109 40.4999 79.3209 40.4199 79.5009Z" fill="#555451" stroke="#9B9B9A" stroke-width="0.46" stroke-miterlimit="10"/>
<path d="M48.33 73.6201H44.78V78.3501H48.33V73.6201Z" fill="#555451" stroke="#9B9B9A" stroke-width="0.46" stroke-miterlimit="10"/>
<path d="M44.65 78.3906L43.43 80.9906C43.27 81.3206 43.52 81.7006 43.88 81.7006H49.37C49.75 81.7006 49.99 81.3006 49.82 80.9706L48.4799 78.3706C48.3899 78.2006 48.22 78.1006 48.03 78.1006H45.0999C44.9099 78.1006 44.73 78.2106 44.65 78.3906Z" fill="#555451" stroke="#9B9B9A" stroke-width="0.46" stroke-miterlimit="10"/>
<path d="M52.4401 75.2998H48.8901V80.0298H52.4401V75.2998Z" fill="#555451" stroke="#9B9B9A" stroke-width="0.46" stroke-miterlimit="10"/>
<path d="M48.7601 80.0703L47.5401 82.6703C47.3801 83.0003 47.6301 83.3802 47.9901 83.3802H53.4801C53.8601 83.3802 54.1001 82.9803 53.9301 82.6503L52.5901 80.0503C52.5001 79.8803 52.3301 79.7803 52.1401 79.7803H49.2101C49.0201 79.7803 48.8401 79.8903 48.7601 80.0703Z" fill="#555451" stroke="#9B9B9A" stroke-width="0.46" stroke-miterlimit="10"/>
<path d="M56.8401 74.7305H53.29V79.4605H56.8401V74.7305Z" fill="#555451" stroke="#9B9B9A" stroke-width="0.46" stroke-miterlimit="10"/>
<path d="M53.15 79.5009L51.93 82.1009C51.77 82.4309 52.02 82.8109 52.38 82.8109H57.87C58.25 82.8109 58.49 82.4109 58.32 82.0809L56.9799 79.4809C56.8899 79.3109 56.72 79.2109 56.53 79.2109H53.5999C53.4099 79.2109 53.23 79.3209 53.15 79.5009Z" fill="#555451" stroke="#9B9B9A" stroke-width="0.46" stroke-miterlimit="10"/>
<path d="M57.1899 76.2902H12.9899C9.06991 76.2902 6.16991 72.6502 7.04991 68.8302L9.99992 62.8802V56.0702L15.1399 33.6802C15.7799 30.9102 18.2399 28.9502 21.0799 28.9502H49.1499C51.9899 28.9502 54.4599 30.9202 55.0899 33.6902L60.1799 55.9602L59.6899 62.0902L63.1199 68.8402C63.9899 72.6602 61.0899 76.2902 57.1799 76.2902H57.1899Z" fill="#8F8986" stroke="#555451" stroke-width="1.75" stroke-miterlimit="10"/>
<path d="M35.09 53.9502L29.9399 62.8802H40.2499L35.09 53.9502Z" fill="#8F8986" stroke="#555451" stroke-width="0.71" stroke-miterlimit="10"/>
<path opacity="0.35" d="M35.09 56.8701L32.25 61.8001H37.94L35.09 56.8701Z" fill="#555451"/>
<path d="M35.7499 71.6201C37.1527 71.6201 38.2899 70.4829 38.2899 69.08C38.2899 67.6772 37.1527 66.54 35.7499 66.54C34.3471 66.54 33.21 67.6772 33.21 69.08C33.21 70.4829 34.3471 71.6201 35.7499 71.6201Z" fill="#555451"/>
</svg>
