<svg width="317" height="87" viewBox="0 0 317 87" fill="none" xmlns="http://www.w3.org/2000/svg">
<path d="M8.10002 20.84C6.85002 20.84 5.77003 20.66 4.87003 20.31C3.96003 19.96 3.22003 19.4699 2.63003 18.8499C2.04003 18.2299 1.60002 17.48 1.32002 16.62C1.04002 15.76 0.900024 14.7999 0.900024 13.7599V2.70996H4.90002V13.43C4.90002 14.15 4.98002 14.7599 5.14002 15.2599C5.30002 15.7599 5.52003 16.18 5.81003 16.49C6.09003 16.81 6.43003 17.03 6.84003 17.17C7.24003 17.31 7.68003 17.3799 8.16003 17.3799C9.13003 17.3799 9.92002 17.08 10.53 16.4799C11.14 15.8799 11.44 14.86 11.44 13.43V2.70996H15.44V13.7599C15.44 14.7999 15.29 15.7599 15 16.6299C14.71 17.4999 14.26 18.25 13.67 18.87C13.07 19.49 12.31 19.9799 11.39 20.3199C10.47 20.6599 9.37002 20.83 8.11002 20.83L8.10002 20.84Z" fill="black"/>
<path d="M30.54 13.7401C30.54 14.8201 30.38 15.7901 30.07 16.6601C29.75 17.5301 29.3 18.2801 28.7 18.8901C28.1 19.5001 27.37 19.9801 26.49 20.3101C25.62 20.6401 24.63 20.8101 23.52 20.8101C23.06 20.8101 22.58 20.7901 22.07 20.7501C21.57 20.7101 21.07 20.6501 20.58 20.5801C20.09 20.5101 19.63 20.4301 19.18 20.3401C18.73 20.2501 18.34 20.1501 18 20.0501V1.20007L21.82 0.580078V7.30008C22.25 7.11008 22.69 6.97008 23.15 6.86008C23.61 6.76008 24.11 6.71008 24.64 6.71008C25.6 6.71008 26.44 6.88008 27.18 7.21008C27.91 7.54008 28.53 8.02008 29.03 8.63008C29.53 9.25008 29.9 9.98007 30.16 10.8501C30.42 11.7101 30.54 12.6801 30.54 13.7301V13.7401ZM26.64 13.6301C26.64 11.1701 25.73 9.94006 23.92 9.94006C23.53 9.94006 23.14 9.99009 22.75 10.0901C22.37 10.1901 22.05 10.3201 21.81 10.4701V17.4201C22 17.4501 22.24 17.4801 22.53 17.5101C22.82 17.5401 23.14 17.5501 23.48 17.5501C24.52 17.5501 25.31 17.1901 25.84 16.4701C26.37 15.7501 26.63 14.8001 26.63 13.6201L26.64 13.6301Z" fill="black"/>
<path d="M36.64 3.09961C36.64 3.79961 36.41 4.3496 35.96 4.7496C35.51 5.1496 34.97 5.34961 34.36 5.34961C33.75 5.34961 33.21 5.1496 32.76 4.7496C32.31 4.3496 32.08 3.79961 32.08 3.09961C32.08 2.39961 32.31 1.8496 32.76 1.4496C33.21 1.0496 33.75 0.849609 34.36 0.849609C34.97 0.849609 35.51 1.0496 35.96 1.4496C36.41 1.8496 36.64 2.39961 36.64 3.09961ZM36.28 20.4796H32.46V6.98961H36.28V20.4796Z" fill="black"/>
<path d="M38.2101 13.7399C38.2101 12.7699 38.3701 11.8499 38.6801 10.9799C38.9901 10.1099 39.4501 9.35988 40.0501 8.71988C40.6501 8.07988 41.3701 7.56988 42.2301 7.18988C43.0801 6.80988 44.0601 6.62988 45.1501 6.62988C45.8701 6.62988 46.5301 6.68989 47.1201 6.81989C47.7201 6.94989 48.3001 7.12987 48.8601 7.36987L48.0701 10.4199C47.7101 10.2799 47.3201 10.1599 46.8901 10.0599C46.4601 9.95989 45.9801 9.90987 45.4501 9.90987C44.3201 9.90987 43.4801 10.2599 42.9201 10.9599C42.3601 11.6599 42.0901 12.5799 42.0901 13.7299C42.0901 14.9399 42.3501 15.8799 42.8701 16.5499C43.3901 17.2199 44.3001 17.5499 45.6001 17.5499C46.0601 17.5499 46.5601 17.5099 47.0901 17.4199C47.6201 17.3299 48.1101 17.1999 48.5501 17.0099L49.0901 20.1399C48.6401 20.3299 48.0901 20.4899 47.4201 20.6299C46.7501 20.7699 46.0201 20.8399 45.2101 20.8399C43.9801 20.8399 42.9201 20.6599 42.0301 20.2899C41.1401 19.9199 40.4101 19.4199 39.8401 18.7899C39.2701 18.1599 38.8501 17.4099 38.5801 16.5499C38.3101 15.6899 38.1801 14.7499 38.1801 13.7399H38.2101Z" fill="black"/>
<path d="M54.85 6.63C55.98 6.63 56.92 6.75999 57.67 7.00999C58.42 7.26999 59.02 7.63 59.48 8.11C59.93 8.59 60.25 9.17001 60.44 9.85001C60.63 10.53 60.72 11.29 60.72 12.13V20.08C60.17 20.2 59.41 20.34 58.44 20.5C57.47 20.66 56.29 20.74 54.9 20.74C54.03 20.74 53.24 20.66 52.53 20.51C51.82 20.36 51.21 20.1 50.7 19.75C50.19 19.4 49.79 18.94 49.52 18.38C49.25 17.82 49.11 17.12 49.11 16.3C49.11 15.48 49.27 14.85 49.58 14.3C49.9 13.75 50.32 13.32 50.85 12.99C51.38 12.67 51.99 12.43 52.67 12.28C53.35 12.13 54.06 12.06 54.8 12.06C55.3 12.06 55.74 12.08 56.12 12.12C56.5 12.16 56.82 12.22 57.06 12.29V11.93C57.06 11.28 56.86 10.76 56.47 10.37C56.08 9.98001 55.39 9.78 54.42 9.78C53.77 9.78 53.13 9.83 52.5 9.92C51.87 10.01 51.32 10.15 50.86 10.32L50.37 7.24001C50.59 7.17001 50.87 7.1 51.2 7.02C51.53 6.94 51.9 6.87 52.29 6.81C52.68 6.75 53.1 6.7 53.53 6.66C53.97 6.62 54.41 6.60001 54.85 6.60001V6.63ZM58.39 2.14999L54.17 5.71001L52.41 4.14999L56.04 0L58.39 2.14999ZM55.15 17.81C55.53 17.81 55.88 17.81 56.23 17.78C56.57 17.76 56.85 17.74 57.05 17.7V14.8C56.9 14.77 56.67 14.73 56.36 14.7C56.05 14.67 55.77 14.65 55.51 14.65C55.15 14.65 54.81 14.67 54.5 14.71C54.19 14.75 53.91 14.83 53.67 14.95C53.43 15.07 53.24 15.23 53.11 15.44C52.98 15.65 52.9 15.9 52.9 16.21C52.9 16.81 53.1 17.22 53.5 17.45C53.9 17.68 54.45 17.8 55.15 17.8V17.81Z" fill="black"/>
<path d="M73.67 20.7403C72.56 20.7203 71.66 20.6003 70.96 20.3803C70.26 20.1603 69.72 19.8503 69.32 19.4403C68.92 19.0403 68.65 18.5503 68.5 17.9803C68.35 17.4103 68.28 16.7603 68.28 16.0403V1.19031L72.1 0.570312V15.2603C72.1 15.6003 72.13 15.9103 72.18 16.1803C72.23 16.4503 72.33 16.6803 72.47 16.8703C72.61 17.0603 72.82 17.2103 73.1 17.3303C73.37 17.4503 73.74 17.5303 74.2 17.5603L73.66 20.7103L73.67 20.7403Z" fill="black"/>
<path d="M87.97 13.7099C87.97 14.7699 87.8199 15.7399 87.5099 16.6199C87.1999 17.4999 86.76 18.2499 86.18 18.8799C85.6 19.5099 84.9 19.9899 84.09 20.3299C83.28 20.6699 82.37 20.8399 81.36 20.8399C80.35 20.8399 79.47 20.6699 78.65 20.3299C77.84 19.9899 77.14 19.5099 76.56 18.8799C75.98 18.2499 75.53 17.4999 75.2 16.6199C74.88 15.7399 74.71 14.7699 74.71 13.7099C74.71 12.6499 74.88 11.6799 75.21 10.8099C75.54 9.93989 76 9.18988 76.59 8.57988C77.18 7.95988 77.88 7.48988 78.69 7.13988C79.5 6.79988 80.39 6.62988 81.34 6.62988C82.29 6.62988 83.21 6.79988 84.02 7.13988C84.83 7.47988 85.53 7.95988 86.11 8.57988C86.69 9.19988 87.14 9.93989 87.47 10.8099C87.8 11.6799 87.96 12.6499 87.96 13.7099H87.97ZM84.08 13.7099C84.08 12.5299 83.8399 11.5999 83.3699 10.9299C82.8999 10.2599 82.23 9.91988 81.36 9.91988C80.49 9.91988 79.81 10.2599 79.33 10.9299C78.85 11.5999 78.61 12.5299 78.61 13.7099C78.61 14.8899 78.85 15.8299 79.33 16.5199C79.81 17.2099 80.48 17.5599 81.36 17.5599C82.24 17.5599 82.8999 17.2099 83.3699 16.5199C83.8399 15.8299 84.08 14.8899 84.08 13.7099Z" fill="black"/>
<path d="M93.77 17.7397C94.47 17.7397 94.97 17.6697 95.26 17.5297C95.55 17.3897 95.7 17.1297 95.7 16.7397C95.7 16.4297 95.51 16.1597 95.14 15.9297C94.76 15.6997 94.19 15.4397 93.42 15.1497C92.82 14.9297 92.28 14.6997 91.79 14.4597C91.3 14.2197 90.89 13.9296 90.55 13.5996C90.21 13.2696 89.94 12.8696 89.76 12.4096C89.57 11.9496 89.48 11.3897 89.48 10.7397C89.48 9.46965 89.95 8.46965 90.89 7.73965C91.83 7.00965 93.12 6.63965 94.76 6.63965C95.58 6.63965 96.37 6.70965 97.12 6.85965C97.87 7.00965 98.47 7.15965 98.91 7.32965L98.24 10.2997C97.8 10.1497 97.31 10.0096 96.79 9.88965C96.27 9.76965 95.68 9.70966 95.03 9.70966C93.83 9.70966 93.24 10.0397 93.24 10.7097C93.24 10.8597 93.27 10.9997 93.32 11.1197C93.37 11.2397 93.47 11.3496 93.63 11.4696C93.78 11.5796 93.99 11.6997 94.26 11.8297C94.52 11.9597 94.86 12.0996 95.27 12.2596C96.11 12.5696 96.8 12.8797 97.35 13.1797C97.9 13.4797 98.33 13.8096 98.64 14.1596C98.96 14.5096 99.18 14.8996 99.31 15.3196C99.44 15.7396 99.5 16.2397 99.5 16.7997C99.5 18.1297 99 19.1396 98 19.8196C97 20.4996 95.58 20.8397 93.76 20.8397C92.56 20.8397 91.57 20.7397 90.77 20.5297C89.97 20.3197 89.42 20.1497 89.12 20.0197L89.76 16.9196C90.41 17.1796 91.08 17.3797 91.76 17.5197C92.44 17.6697 93.12 17.7397 93.79 17.7397H93.77Z" fill="black"/>
<path d="M105.8 13.8397C105.8 12.6397 105.98 11.5996 106.35 10.6996C106.72 9.79965 107.2 9.04966 107.8 8.45966C108.4 7.85966 109.09 7.40966 109.86 7.09966C110.64 6.78966 111.44 6.63965 112.26 6.63965C114.18 6.63965 115.69 7.22964 116.8 8.39964C117.91 9.56964 118.47 11.2896 118.47 13.5696C118.47 13.7896 118.47 14.0397 118.44 14.2997C118.42 14.5697 118.41 14.7996 118.39 15.0096H109.72C109.8 15.7996 110.17 16.4196 110.82 16.8796C111.47 17.3396 112.34 17.5696 113.44 17.5696C114.14 17.5696 114.83 17.5096 115.5 17.3796C116.17 17.2496 116.73 17.0896 117.15 16.9096L117.66 20.0096C117.45 20.1096 117.18 20.2196 116.84 20.3196C116.5 20.4196 116.12 20.5097 115.7 20.5897C115.28 20.6697 114.83 20.7297 114.35 20.7797C113.87 20.8297 113.39 20.8596 112.91 20.8596C111.7 20.8596 110.64 20.6796 109.74 20.3196C108.84 19.9596 108.1 19.4696 107.51 18.8496C106.92 18.2296 106.48 17.4896 106.2 16.6296C105.92 15.7796 105.78 14.8496 105.78 13.8596L105.8 13.8397ZM114.77 12.3796C114.75 12.0596 114.7 11.7397 114.6 11.4297C114.51 11.1197 114.36 10.8496 114.16 10.6096C113.96 10.3696 113.72 10.1697 113.42 10.0197C113.12 9.86965 112.75 9.78964 112.3 9.78964C111.85 9.78964 111.51 9.85964 111.2 10.0096C110.89 10.1596 110.64 10.3497 110.43 10.5897C110.22 10.8297 110.07 11.1096 109.96 11.4196C109.85 11.7396 109.77 12.0596 109.72 12.3796H114.77Z" fill="black"/>
<path d="M125.77 20.7403C124.66 20.7203 123.76 20.6003 123.06 20.3803C122.36 20.1603 121.82 19.8503 121.42 19.4403C121.02 19.0403 120.75 18.5503 120.6 17.9803C120.45 17.4103 120.38 16.7603 120.38 16.0403V1.19031L124.2 0.570312V15.2603C124.2 15.6003 124.23 15.9103 124.28 16.1803C124.33 16.4503 124.43 16.6803 124.57 16.8703C124.71 17.0603 124.92 17.2103 125.2 17.3303C125.47 17.4503 125.84 17.5303 126.3 17.5603L125.76 20.7103L125.77 20.7403Z" fill="black"/>
<path d="M126.82 13.8397C126.82 12.6397 127 11.5996 127.37 10.6996C127.74 9.79965 128.22 9.04966 128.82 8.45966C129.42 7.85966 130.11 7.40966 130.88 7.09966C131.66 6.78966 132.46 6.63965 133.28 6.63965C135.2 6.63965 136.71 7.22964 137.82 8.39964C138.93 9.56964 139.49 11.2896 139.49 13.5696C139.49 13.7896 139.49 14.0397 139.46 14.2997C139.44 14.5697 139.43 14.7996 139.41 15.0096H130.74C130.82 15.7996 131.19 16.4196 131.84 16.8796C132.49 17.3396 133.36 17.5696 134.46 17.5696C135.16 17.5696 135.85 17.5096 136.52 17.3796C137.19 17.2496 137.75 17.0896 138.17 16.9096L138.68 20.0096C138.47 20.1096 138.2 20.2196 137.86 20.3196C137.52 20.4196 137.14 20.5097 136.72 20.5897C136.3 20.6697 135.85 20.7297 135.37 20.7797C134.89 20.8297 134.41 20.8596 133.93 20.8596C132.72 20.8596 131.66 20.6796 130.76 20.3196C129.86 19.9596 129.12 19.4696 128.53 18.8496C127.94 18.2296 127.5 17.4896 127.22 16.6296C126.94 15.7796 126.8 14.8496 126.8 13.8596L126.82 13.8397ZM135.79 12.3796C135.77 12.0596 135.72 11.7397 135.62 11.4297C135.53 11.1197 135.38 10.8496 135.18 10.6096C134.98 10.3696 134.74 10.1697 134.44 10.0197C134.14 9.86965 133.77 9.78964 133.32 9.78964C132.87 9.78964 132.53 9.85964 132.22 10.0096C131.91 10.1596 131.66 10.3497 131.45 10.5897C131.24 10.8297 131.09 11.1096 130.98 11.4196C130.87 11.7396 130.79 12.0596 130.74 12.3796H135.79Z" fill="black"/>
<path d="M148.82 13.3297C148.82 12.0997 148.66 11.2297 148.35 10.7097C148.03 10.1997 147.49 9.93967 146.72 9.93967C146.48 9.93967 146.23 9.94968 145.98 9.97968C145.72 10.0097 145.48 10.0397 145.24 10.0697V20.4797H141.42V7.44968C141.74 7.35968 142.13 7.27969 142.56 7.17969C143 7.08969 143.46 6.99968 143.94 6.91968C144.43 6.83968 144.93 6.77969 145.44 6.73969C145.95 6.69969 146.46 6.67969 146.95 6.67969C147.92 6.67969 148.72 6.79968 149.32 7.04968C149.93 7.29968 150.43 7.58969 150.82 7.92969C151.37 7.53969 152 7.22967 152.7 7.00967C153.41 6.78967 154.06 6.67969 154.66 6.67969C155.74 6.67969 156.62 6.82968 157.31 7.12968C158 7.42968 158.55 7.84967 158.96 8.39967C159.37 8.94967 159.65 9.59967 159.81 10.3497C159.96 11.0997 160.04 11.9397 160.04 12.8597V20.4797H156.22V13.3297C156.22 12.0997 156.06 11.2297 155.75 10.7097C155.43 10.1997 154.89 9.93967 154.12 9.93967C153.91 9.93967 153.63 9.98969 153.26 10.0897C152.89 10.1897 152.59 10.3197 152.35 10.4697C152.47 10.8597 152.55 11.2797 152.58 11.7097C152.61 12.1497 152.63 12.6097 152.63 13.1097V20.4697H148.81V13.3197L148.82 13.3297Z" fill="black"/>
<path d="M161.85 13.8397C161.85 12.6397 162.03 11.5996 162.4 10.6996C162.77 9.79965 163.25 9.04966 163.85 8.45966C164.45 7.85966 165.14 7.40966 165.91 7.09966C166.69 6.78966 167.49 6.63965 168.31 6.63965C170.23 6.63965 171.74 7.22964 172.85 8.39964C173.96 9.56964 174.52 11.2896 174.52 13.5696C174.52 13.7896 174.52 14.0397 174.49 14.2997C174.47 14.5697 174.46 14.7996 174.44 15.0096H165.77C165.85 15.7996 166.22 16.4196 166.87 16.8796C167.52 17.3396 168.39 17.5696 169.49 17.5696C170.19 17.5696 170.88 17.5096 171.55 17.3796C172.22 17.2496 172.78 17.0896 173.2 16.9096L173.71 20.0096C173.5 20.1096 173.23 20.2196 172.89 20.3196C172.55 20.4196 172.17 20.5097 171.75 20.5897C171.33 20.6697 170.88 20.7297 170.4 20.7797C169.92 20.8297 169.44 20.8596 168.96 20.8596C167.75 20.8596 166.69 20.6796 165.79 20.3196C164.89 19.9596 164.15 19.4696 163.56 18.8496C162.97 18.2296 162.53 17.4896 162.25 16.6296C161.97 15.7796 161.83 14.8496 161.83 13.8596L161.85 13.8397ZM170.82 12.3796C170.8 12.0596 170.75 11.7397 170.65 11.4297C170.56 11.1197 170.41 10.8496 170.21 10.6096C170.01 10.3696 169.77 10.1697 169.47 10.0197C169.17 9.86965 168.8 9.78964 168.35 9.78964C167.9 9.78964 167.56 9.85964 167.25 10.0096C166.94 10.1596 166.69 10.3497 166.48 10.5897C166.27 10.8297 166.12 11.1096 166.01 11.4196C165.9 11.7396 165.82 12.0596 165.77 12.3796H170.82Z" fill="black"/>
<path d="M176.44 7.44968C177.09 7.25968 177.93 7.08968 178.95 6.91968C179.97 6.74968 181.05 6.67969 182.18 6.67969C183.31 6.67969 184.28 6.82968 185.04 7.12968C185.8 7.42968 186.4 7.84967 186.85 8.39967C187.29 8.94967 187.61 9.59967 187.8 10.3497C187.99 11.0997 188.08 11.9397 188.08 12.8597V20.4797H184.26V13.3297C184.26 12.0997 184.1 11.2297 183.77 10.7097C183.45 10.1997 182.84 9.93967 181.95 9.93967C181.68 9.93967 181.39 9.94968 181.08 9.97968C180.77 10.0097 180.5 10.0397 180.26 10.0697V20.4797H176.44V7.44968Z" fill="black"/>
<path d="M190.39 3.62978L194.21 3.00977V6.97977H198.8V10.1598H194.21V14.8998C194.21 15.6998 194.35 16.3398 194.63 16.8198C194.91 17.2998 195.48 17.5398 196.34 17.5398C196.75 17.5398 197.17 17.4998 197.61 17.4198C198.05 17.3398 198.44 17.2398 198.8 17.0998L199.34 20.0698C198.88 20.2598 198.37 20.4198 197.8 20.5598C197.23 20.6998 196.54 20.7698 195.72 20.7698C194.68 20.7698 193.81 20.6298 193.13 20.3498C192.45 20.0698 191.9 19.6698 191.49 19.1698C191.08 18.6698 190.79 18.0498 190.63 17.3398C190.47 16.6198 190.39 15.8298 190.39 14.9598V3.62978Z" fill="black"/>
<path d="M212.98 13.7099C212.98 14.7699 212.83 15.7399 212.52 16.6199C212.21 17.4999 211.77 18.2499 211.19 18.8799C210.61 19.5099 209.91 19.9899 209.1 20.3299C208.29 20.6699 207.38 20.8399 206.37 20.8399C205.36 20.8399 204.48 20.6699 203.66 20.3299C202.85 19.9899 202.15 19.5099 201.57 18.8799C200.99 18.2499 200.54 17.4999 200.21 16.6199C199.89 15.7399 199.72 14.7699 199.72 13.7099C199.72 12.6499 199.89 11.6799 200.22 10.8099C200.55 9.93989 201.01 9.18988 201.6 8.57988C202.19 7.95988 202.89 7.48988 203.7 7.13988C204.51 6.79988 205.4 6.62988 206.35 6.62988C207.3 6.62988 208.22 6.79988 209.03 7.13988C209.84 7.47988 210.54 7.95988 211.12 8.57988C211.7 9.19988 212.15 9.93989 212.48 10.8099C212.81 11.6799 212.97 12.6499 212.97 13.7099H212.98ZM209.08 13.7099C209.08 12.5299 208.84 11.5999 208.37 10.9299C207.9 10.2599 207.23 9.91988 206.36 9.91988C205.49 9.91988 204.81 10.2599 204.33 10.9299C203.85 11.5999 203.61 12.5299 203.61 13.7099C203.61 14.8899 203.85 15.8299 204.33 16.5199C204.81 17.2099 205.48 17.5599 206.36 17.5599C207.24 17.5599 207.9 17.2099 208.37 16.5199C208.84 15.8299 209.08 14.8899 209.08 13.7099Z" fill="black"/>
<path d="M218.77 17.7397C219.47 17.7397 219.97 17.6697 220.26 17.5297C220.55 17.3897 220.7 17.1297 220.7 16.7397C220.7 16.4297 220.51 16.1597 220.14 15.9297C219.76 15.6997 219.19 15.4397 218.42 15.1497C217.82 14.9297 217.28 14.6997 216.79 14.4597C216.3 14.2197 215.89 13.9296 215.55 13.5996C215.21 13.2696 214.94 12.8696 214.76 12.4096C214.57 11.9496 214.48 11.3897 214.48 10.7397C214.48 9.46965 214.95 8.46965 215.89 7.73965C216.83 7.00965 218.12 6.63965 219.76 6.63965C220.58 6.63965 221.37 6.70965 222.12 6.85965C222.87 7.00965 223.47 7.15965 223.91 7.32965L223.24 10.2997C222.8 10.1497 222.31 10.0096 221.79 9.88965C221.27 9.76965 220.68 9.70966 220.03 9.70966C218.83 9.70966 218.24 10.0397 218.24 10.7097C218.24 10.8597 218.27 10.9997 218.32 11.1197C218.37 11.2397 218.47 11.3496 218.63 11.4696C218.78 11.5796 218.99 11.6997 219.26 11.8297C219.52 11.9597 219.86 12.0996 220.27 12.2596C221.11 12.5696 221.8 12.8797 222.35 13.1797C222.9 13.4797 223.33 13.8096 223.64 14.1596C223.96 14.5096 224.18 14.8996 224.31 15.3196C224.44 15.7396 224.5 16.2397 224.5 16.7997C224.5 18.1297 224 19.1396 223 19.8196C222 20.4996 220.58 20.8397 218.76 20.8397C217.56 20.8397 216.57 20.7397 215.77 20.5297C214.97 20.3197 214.42 20.1497 214.12 20.0197L214.76 16.9196C215.41 17.1796 216.08 17.3797 216.76 17.5197C217.44 17.6697 218.12 17.7397 218.79 17.7397H218.77Z" fill="black"/>
<path d="M5.74001 37.4001C6.87001 37.4001 7.81001 37.5301 8.56001 37.7801C9.31001 38.0401 9.91 38.4001 10.37 38.8801C10.82 39.3601 11.14 39.9401 11.33 40.6201C11.52 41.3001 11.61 42.0601 11.61 42.9001V50.8501C11.06 50.9701 10.3 51.1101 9.33 51.2701C8.36 51.4301 7.18 51.5101 5.79 51.5101C4.92 51.5101 4.13 51.4301 3.42 51.2801C2.71 51.1301 2.1 50.8701 1.59 50.5201C1.08 50.1701 0.680004 49.7101 0.410004 49.1501C0.140004 48.5901 0 47.8901 0 47.0701C0 46.2501 0.160001 45.6201 0.470001 45.0701C0.790001 44.5201 1.21001 44.0901 1.74001 43.7601C2.27001 43.4401 2.88001 43.2001 3.56001 43.0501C4.24001 42.9001 4.95 42.8301 5.69 42.8301C6.19 42.8301 6.63 42.8501 7.01 42.8901C7.39 42.9301 7.71 42.9901 7.95 43.0601V42.7001C7.95 42.0501 7.75 41.5301 7.36 41.1401C6.97 40.7501 6.28001 40.5501 5.31001 40.5501C4.66001 40.5501 4.02 40.6001 3.39 40.6901C2.76 40.7801 2.21 40.9201 1.75 41.0901L1.26 38.0101C1.48 37.9401 1.76 37.8701 2.09 37.7901C2.42 37.7101 2.79 37.6401 3.18 37.5801C3.57 37.5201 3.99 37.4701 4.42 37.4301C4.86 37.3901 5.30001 37.3701 5.74001 37.3701V37.4001ZM6.05 48.5801C6.43 48.5801 6.78 48.5801 7.13 48.5501C7.47001 48.5301 7.75 48.5101 7.95 48.4701V45.5701C7.8 45.5401 7.57 45.5001 7.26 45.4701C6.95 45.4401 6.67 45.4201 6.41 45.4201C6.05 45.4201 5.71 45.4401 5.4 45.4801C5.09 45.5201 4.81 45.6001 4.57 45.7201C4.33 45.8401 4.14 46.0001 4.01 46.2101C3.88 46.4201 3.8 46.6701 3.8 46.9801C3.8 47.5801 4 47.9901 4.4 48.2201C4.8 48.4501 5.35 48.5701 6.05 48.5701V48.5801Z" fill="black"/>
<path d="M22.18 41.1505C21.84 41.0605 21.44 40.9705 20.97 40.8805C20.51 40.7905 20.01 40.7405 19.48 40.7405C19.24 40.7405 18.95 40.7605 18.62 40.8005C18.29 40.8405 18.03 40.8905 17.86 40.9405V51.2505H14.04V38.4805C14.72 38.2405 15.53 38.0105 16.46 37.8005C17.39 37.5905 18.43 37.4805 19.58 37.4805C19.79 37.4805 20.03 37.4905 20.32 37.5205C20.61 37.5505 20.9 37.5805 21.19 37.6205C21.48 37.6605 21.77 37.7105 22.06 37.7705C22.35 37.8305 22.6 37.9005 22.8 37.9905L22.16 41.1405L22.18 41.1505Z" fill="black"/>
<path d="M31.98 41.1505C31.64 41.0605 31.24 40.9705 30.77 40.8805C30.31 40.7905 29.81 40.7405 29.28 40.7405C29.04 40.7405 28.75 40.7605 28.42 40.8005C28.09 40.8405 27.83 40.8905 27.66 40.9405V51.2505H23.84V38.4805C24.52 38.2405 25.33 38.0105 26.26 37.8005C27.19 37.5905 28.23 37.4805 29.38 37.4805C29.59 37.4805 29.83 37.4905 30.12 37.5205C30.41 37.5505 30.7 37.5805 30.99 37.6205C31.28 37.6605 31.57 37.7105 31.86 37.7705C32.15 37.8305 32.4 37.9005 32.6 37.9905L31.96 41.1405L31.98 41.1505Z" fill="black"/>
<path d="M38.23 37.4001C39.36 37.4001 40.3 37.5301 41.05 37.7801C41.8 38.0401 42.4 38.4001 42.86 38.8801C43.31 39.3601 43.63 39.9401 43.82 40.6201C44.01 41.3001 44.1 42.0601 44.1 42.9001V50.8501C43.55 50.9701 42.79 51.1101 41.82 51.2701C40.85 51.4301 39.67 51.5101 38.28 51.5101C37.41 51.5101 36.62 51.4301 35.91 51.2801C35.2 51.1301 34.59 50.8701 34.08 50.5201C33.57 50.1701 33.17 49.7101 32.9 49.1501C32.63 48.5901 32.49 47.8901 32.49 47.0701C32.49 46.2501 32.65 45.6201 32.96 45.0701C33.28 44.5201 33.7 44.0901 34.23 43.7601C34.76 43.4401 35.37 43.2001 36.05 43.0501C36.73 42.9001 37.44 42.8301 38.18 42.8301C38.68 42.8301 39.12 42.8501 39.5 42.8901C39.88 42.9301 40.2 42.9901 40.44 43.0601V42.7001C40.44 42.0501 40.24 41.5301 39.85 41.1401C39.46 40.7501 38.77 40.5501 37.8 40.5501C37.15 40.5501 36.51 40.6001 35.88 40.6901C35.25 40.7801 34.7 40.9201 34.24 41.0901L33.75 38.0101C33.97 37.9401 34.25 37.8701 34.58 37.7901C34.91 37.7101 35.28 37.6401 35.67 37.5801C36.06 37.5201 36.48 37.4701 36.91 37.4301C37.35 37.3901 37.79 37.3701 38.23 37.3701V37.4001ZM38.54 48.5801C38.92 48.5801 39.27 48.5801 39.62 48.5501C39.96 48.5301 40.24 48.5101 40.44 48.4701V45.5701C40.29 45.5401 40.06 45.5001 39.75 45.4701C39.44 45.4401 39.16 45.4201 38.9 45.4201C38.54 45.4201 38.2 45.4401 37.89 45.4801C37.58 45.5201 37.3 45.6001 37.06 45.7201C36.82 45.8401 36.63 46.0001 36.5 46.2101C36.37 46.4201 36.29 46.6701 36.29 46.9801C36.29 47.5801 36.49 47.9901 36.89 48.2201C37.29 48.4501 37.84 48.5701 38.54 48.5701V48.5801Z" fill="black"/>
<path d="M50.41 48.5102C51.11 48.5102 51.61 48.4402 51.9 48.3002C52.19 48.1602 52.34 47.9002 52.34 47.5102C52.34 47.2002 52.15 46.9302 51.78 46.7002C51.4 46.4702 50.83 46.2102 50.06 45.9202C49.46 45.7002 48.92 45.4702 48.43 45.2302C47.94 44.9902 47.53 44.7002 47.19 44.3702C46.85 44.0402 46.58 43.6402 46.4 43.1802C46.21 42.7202 46.12 42.1602 46.12 41.5102C46.12 40.2402 46.59 39.2402 47.53 38.5102C48.47 37.7802 49.76 37.4102 51.4 37.4102C52.22 37.4102 53.01 37.4802 53.76 37.6302C54.51 37.7802 55.11 37.9302 55.55 38.1002L54.88 41.0702C54.44 40.9202 53.95 40.7802 53.43 40.6602C52.91 40.5402 52.32 40.4802 51.67 40.4802C50.47 40.4802 49.88 40.8102 49.88 41.4802C49.88 41.6302 49.91 41.7702 49.96 41.8902C50.01 42.0102 50.11 42.1202 50.27 42.2402C50.42 42.3502 50.63 42.4702 50.9 42.6002C51.16 42.7302 51.5 42.8702 51.91 43.0302C52.75 43.3402 53.44 43.6502 53.99 43.9502C54.54 44.2502 54.97 44.5802 55.28 44.9302C55.6 45.2802 55.82 45.6702 55.95 46.0902C56.08 46.5102 56.14 47.0102 56.14 47.5702C56.14 48.9002 55.64 49.9102 54.64 50.5902C53.64 51.2702 52.22 51.6102 50.4 51.6102C49.2 51.6102 48.21 51.5102 47.41 51.3002C46.61 51.0902 46.06 50.9202 45.76 50.7902L46.4 47.6902C47.05 47.9502 47.72 48.1502 48.4 48.2902C49.08 48.4402 49.76 48.5102 50.43 48.5102H50.41Z" fill="black"/>
<path d="M57.8199 34.4003L61.6399 33.7803V37.7503H66.2299V40.9303H61.6399V45.6703C61.6399 46.4703 61.78 47.1103 62.06 47.5903C62.34 48.0703 62.91 48.3103 63.77 48.3103C64.18 48.3103 64.6 48.2702 65.04 48.1902C65.48 48.1102 65.8699 48.0103 66.2299 47.8703L66.77 50.8403C66.31 51.0303 65.7999 51.1903 65.2299 51.3303C64.6599 51.4703 63.97 51.5403 63.15 51.5403C62.11 51.5403 61.24 51.4003 60.56 51.1203C59.88 50.8403 59.3299 50.4402 58.9199 49.9402C58.5099 49.4402 58.22 48.8203 58.06 48.1103C57.9 47.3903 57.8199 46.6003 57.8199 45.7303V34.4003Z" fill="black"/>
<path d="M76.44 41.1505C76.1 41.0605 75.7 40.9705 75.23 40.8805C74.77 40.7905 74.2701 40.7405 73.7401 40.7405C73.5001 40.7405 73.2101 40.7605 72.8801 40.8005C72.5501 40.8405 72.29 40.8905 72.12 40.9405V51.2505H68.3V38.4805C68.98 38.2405 69.79 38.0105 70.72 37.8005C71.65 37.5905 72.69 37.4805 73.84 37.4805C74.05 37.4805 74.29 37.4905 74.58 37.5205C74.87 37.5505 75.16 37.5805 75.45 37.6205C75.74 37.6605 76.0301 37.7105 76.3201 37.7705C76.6101 37.8305 76.86 37.9005 77.06 37.9905L76.42 41.1405L76.44 41.1505Z" fill="black"/>
<path d="M82.6901 37.3995C83.8201 37.3995 84.7601 37.5295 85.5101 37.7795C86.2601 38.0395 86.8601 38.3995 87.3201 38.8795C87.7701 39.3595 88.0901 39.9395 88.2801 40.6195C88.4701 41.2995 88.5601 42.0595 88.5601 42.8995V50.8495C88.0101 50.9695 87.2501 51.1095 86.2801 51.2695C85.3101 51.4295 84.1301 51.5095 82.7401 51.5095C81.8701 51.5095 81.0801 51.4295 80.3701 51.2795C79.6601 51.1295 79.0501 50.8695 78.5401 50.5195C78.0301 50.1695 77.6301 49.7095 77.3601 49.1495C77.0901 48.5895 76.9501 47.8895 76.9501 47.0695C76.9501 46.2495 77.1101 45.6195 77.4201 45.0695C77.7401 44.5195 78.1601 44.0895 78.6901 43.7595C79.2201 43.4395 79.8301 43.1995 80.5101 43.0495C81.1901 42.8995 81.9001 42.8295 82.6401 42.8295C83.1401 42.8295 83.5801 42.8495 83.9601 42.8895C84.3401 42.9295 84.6601 42.9895 84.9001 43.0595V42.6995C84.9001 42.0495 84.7001 41.5295 84.3101 41.1395C83.9201 40.7495 83.2301 40.5495 82.2601 40.5495C81.6101 40.5495 80.9701 40.5995 80.3401 40.6895C79.7101 40.7795 79.1601 40.9195 78.7001 41.0895L78.2101 38.0095C78.4301 37.9395 78.7101 37.8695 79.0401 37.7895C79.3701 37.7095 79.7401 37.6395 80.1301 37.5795C80.5201 37.5195 80.9401 37.4695 81.3701 37.4295C81.8101 37.3895 82.2501 37.3695 82.6901 37.3695V37.3995ZM86.2301 32.9195L82.0101 36.4795L80.2501 34.9195L83.8801 30.7695L86.2301 32.9195ZM83.0001 48.5795C83.3801 48.5795 83.7301 48.5795 84.0801 48.5495C84.4201 48.5295 84.7001 48.5095 84.9001 48.4695V45.5695C84.7501 45.5395 84.5201 45.4995 84.2101 45.4695C83.9001 45.4395 83.6201 45.4195 83.3601 45.4195C83.0001 45.4195 82.6601 45.4395 82.3501 45.4795C82.0401 45.5195 81.7601 45.5995 81.5201 45.7195C81.2801 45.8395 81.0901 45.9995 80.9601 46.2095C80.8301 46.4195 80.7501 46.6695 80.7501 46.9795C80.7501 47.5795 80.9501 47.9895 81.3501 48.2195C81.7501 48.4495 82.3001 48.5695 83.0001 48.5695V48.5795Z" fill="black"/>
<path d="M90.9999 38.2202C91.6499 38.0302 92.4899 37.8602 93.5099 37.6902C94.5299 37.5202 95.6099 37.4502 96.7399 37.4502C97.8699 37.4502 98.8399 37.6002 99.5999 37.9002C100.36 38.2002 100.96 38.6202 101.41 39.1702C101.85 39.7202 102.17 40.3702 102.36 41.1202C102.55 41.8702 102.64 42.7102 102.64 43.6302V51.2502H98.8199V44.1002C98.8199 42.8702 98.6599 42.0002 98.3299 41.4802C98.0099 40.9702 97.3999 40.7102 96.5099 40.7102C96.2399 40.7102 95.9499 40.7202 95.6399 40.7502C95.3299 40.7802 95.0599 40.8102 94.8199 40.8402V51.2502H90.9999V38.2202Z" fill="black"/>
<path d="M116.98 50.8101C116.64 50.9101 116.24 51.0101 115.8 51.1001C115.36 51.1901 114.89 51.2801 114.4 51.3401C113.91 51.4001 113.42 51.4601 112.91 51.5101C112.41 51.5501 111.92 51.5701 111.46 51.5701C110.35 51.5701 109.36 51.4101 108.49 51.0801C107.62 50.7501 106.88 50.2901 106.28 49.6801C105.68 49.0701 105.22 48.3401 104.91 47.4701C104.6 46.6001 104.44 45.6401 104.44 44.5601C104.44 43.4801 104.58 42.4801 104.85 41.6001C105.12 40.7201 105.52 39.9701 106.03 39.3601C106.54 38.7401 107.17 38.2701 107.91 37.9501C108.65 37.6301 109.5 37.4601 110.46 37.4601C110.99 37.4601 111.46 37.5101 111.88 37.6101C112.3 37.7101 112.72 37.8601 113.15 38.0501V31.9501L116.97 31.3301V50.7901L116.98 50.8101ZM108.33 44.4001C108.33 45.5801 108.59 46.5301 109.12 47.2501C109.65 47.9701 110.44 48.3301 111.48 48.3301C111.82 48.3301 112.14 48.3201 112.43 48.2901C112.72 48.2601 112.96 48.2301 113.15 48.2001V41.2501C112.91 41.1001 112.6 40.9701 112.21 40.8701C111.83 40.7701 111.44 40.7201 111.04 40.7201C109.23 40.7201 108.32 41.9501 108.32 44.4101L108.33 44.4001Z" fill="black"/>
<path d="M132.15 44.4804C132.15 45.5404 132 46.5104 131.69 47.3904C131.38 48.2704 130.94 49.0204 130.36 49.6504C129.78 50.2804 129.08 50.7604 128.27 51.1004C127.46 51.4404 126.55 51.6104 125.54 51.6104C124.53 51.6104 123.65 51.4404 122.83 51.1004C122.02 50.7604 121.32 50.2804 120.74 49.6504C120.16 49.0204 119.71 48.2704 119.38 47.3904C119.06 46.5104 118.89 45.5404 118.89 44.4804C118.89 43.4204 119.06 42.4504 119.39 41.5804C119.72 40.7104 120.18 39.9604 120.77 39.3504C121.36 38.7304 122.06 38.2604 122.87 37.9104C123.68 37.5704 124.57 37.4004 125.52 37.4004C126.47 37.4004 127.39 37.5704 128.2 37.9104C129.01 38.2504 129.71 38.7304 130.29 39.3504C130.87 39.9704 131.32 40.7104 131.65 41.5804C131.98 42.4504 132.14 43.4204 132.14 44.4804H132.15ZM128.26 44.4804C128.26 43.3004 128.02 42.3704 127.55 41.7004C127.08 41.0304 126.41 40.6904 125.54 40.6904C124.67 40.6904 123.99 41.0304 123.51 41.7004C123.03 42.3704 122.79 43.3004 122.79 44.4804C122.79 45.6604 123.03 46.6004 123.51 47.2904C123.99 47.9804 124.66 48.3304 125.54 48.3304C126.42 48.3304 127.08 47.9804 127.55 47.2904C128.02 46.6004 128.26 45.6604 128.26 44.4804Z" fill="black"/>
<path d="M139.46 51.5098C138.35 51.4898 137.45 51.3698 136.75 51.1498C136.05 50.9298 135.51 50.6198 135.11 50.2098C134.71 49.8098 134.44 49.3198 134.29 48.7498C134.14 48.1798 134.07 47.5298 134.07 46.8098V31.9598L137.89 31.3398V46.0298C137.89 46.3698 137.92 46.6798 137.97 46.9498C138.02 47.2198 138.12 47.4498 138.26 47.6398C138.4 47.8298 138.61 47.9798 138.89 48.0998C139.16 48.2198 139.53 48.2998 139.99 48.3298L139.45 51.4798L139.46 51.5098Z" fill="black"/>
<path d="M153.77 44.4804C153.77 45.5404 153.62 46.5104 153.31 47.3904C153 48.2704 152.56 49.0204 151.98 49.6504C151.4 50.2804 150.7 50.7604 149.89 51.1004C149.08 51.4404 148.17 51.6104 147.16 51.6104C146.15 51.6104 145.27 51.4404 144.45 51.1004C143.64 50.7604 142.94 50.2804 142.36 49.6504C141.78 49.0204 141.33 48.2704 141 47.3904C140.68 46.5104 140.51 45.5404 140.51 44.4804C140.51 43.4204 140.68 42.4504 141.01 41.5804C141.34 40.7104 141.8 39.9604 142.39 39.3504C142.98 38.7304 143.68 38.2604 144.49 37.9104C145.3 37.5704 146.19 37.4004 147.14 37.4004C148.09 37.4004 149.01 37.5704 149.82 37.9104C150.63 38.2504 151.33 38.7304 151.91 39.3504C152.49 39.9704 152.94 40.7104 153.27 41.5804C153.6 42.4504 153.76 43.4204 153.76 44.4804H153.77ZM149.87 44.4804C149.87 43.3004 149.63 42.3704 149.16 41.7004C148.69 41.0304 148.02 40.6904 147.15 40.6904C146.28 40.6904 145.6 41.0304 145.12 41.7004C144.64 42.3704 144.4 43.3004 144.4 44.4804C144.4 45.6604 144.64 46.6004 145.12 47.2904C145.6 47.9804 146.27 48.3304 147.15 48.3304C148.03 48.3304 148.69 47.9804 149.16 47.2904C149.63 46.6004 149.87 45.6604 149.87 44.4804Z" fill="black"/>
<path d="M159.56 48.5102C160.26 48.5102 160.76 48.4402 161.05 48.3002C161.34 48.1602 161.49 47.9002 161.49 47.5102C161.49 47.2002 161.3 46.9302 160.93 46.7002C160.55 46.4702 159.98 46.2102 159.21 45.9202C158.61 45.7002 158.07 45.4702 157.58 45.2302C157.09 44.9902 156.68 44.7002 156.34 44.3702C156 44.0402 155.73 43.6402 155.55 43.1802C155.36 42.7202 155.27 42.1602 155.27 41.5102C155.27 40.2402 155.74 39.2402 156.68 38.5102C157.62 37.7802 158.91 37.4102 160.55 37.4102C161.37 37.4102 162.16 37.4802 162.91 37.6302C163.66 37.7802 164.26 37.9302 164.7 38.1002L164.03 41.0702C163.59 40.9202 163.1 40.7802 162.58 40.6602C162.06 40.5402 161.47 40.4802 160.82 40.4802C159.62 40.4802 159.03 40.8102 159.03 41.4802C159.03 41.6302 159.06 41.7702 159.11 41.8902C159.16 42.0102 159.26 42.1202 159.42 42.2402C159.57 42.3502 159.78 42.4702 160.05 42.6002C160.31 42.7302 160.65 42.8702 161.06 43.0302C161.9 43.3402 162.59 43.6502 163.14 43.9502C163.69 44.2502 164.12 44.5802 164.43 44.9302C164.75 45.2802 164.97 45.6702 165.1 46.0902C165.23 46.5102 165.29 47.0102 165.29 47.5702C165.29 48.9002 164.79 49.9102 163.79 50.5902C162.79 51.2702 161.37 51.6102 159.55 51.6102C158.35 51.6102 157.36 51.5102 156.56 51.3002C155.76 51.0902 155.21 50.9202 154.91 50.7902L155.55 47.6902C156.2 47.9502 156.87 48.1502 157.55 48.2902C158.23 48.4402 158.91 48.5102 159.58 48.5102H159.56Z" fill="black"/>
<path d="M177.08 37.4001C178.21 37.4001 179.15 37.5301 179.9 37.7801C180.65 38.0401 181.25 38.4001 181.71 38.8801C182.16 39.3601 182.48 39.9401 182.67 40.6201C182.86 41.3001 182.95 42.0601 182.95 42.9001V50.8501C182.4 50.9701 181.64 51.1101 180.67 51.2701C179.7 51.4301 178.52 51.5101 177.13 51.5101C176.26 51.5101 175.47 51.4301 174.76 51.2801C174.05 51.1301 173.44 50.8701 172.93 50.5201C172.42 50.1701 172.02 49.7101 171.75 49.1501C171.48 48.5901 171.34 47.8901 171.34 47.0701C171.34 46.2501 171.5 45.6201 171.81 45.0701C172.13 44.5201 172.55 44.0901 173.08 43.7601C173.61 43.4401 174.22 43.2001 174.9 43.0501C175.58 42.9001 176.29 42.8301 177.03 42.8301C177.53 42.8301 177.97 42.8501 178.35 42.8901C178.73 42.9301 179.05 42.9901 179.29 43.0601V42.7001C179.29 42.0501 179.09 41.5301 178.7 41.1401C178.31 40.7501 177.62 40.5501 176.65 40.5501C176 40.5501 175.36 40.6001 174.73 40.6901C174.1 40.7801 173.55 40.9201 173.09 41.0901L172.6 38.0101C172.82 37.9401 173.1 37.8701 173.43 37.7901C173.76 37.7101 174.13 37.6401 174.52 37.5801C174.91 37.5201 175.33 37.4701 175.76 37.4301C176.2 37.3901 176.64 37.3701 177.08 37.3701V37.4001ZM177.39 48.5801C177.77 48.5801 178.12 48.5801 178.47 48.5501C178.81 48.5301 179.09 48.5101 179.29 48.4701V45.5701C179.14 45.5401 178.91 45.5001 178.6 45.4701C178.29 45.4401 178.01 45.4201 177.75 45.4201C177.39 45.4201 177.05 45.4401 176.74 45.4801C176.43 45.5201 176.15 45.6001 175.91 45.7201C175.67 45.8401 175.48 46.0001 175.35 46.2101C175.22 46.4201 175.14 46.6701 175.14 46.9801C175.14 47.5801 175.34 47.9901 175.74 48.2201C176.14 48.4501 176.69 48.5701 177.39 48.5701V48.5801Z" fill="black"/>
<path d="M194.39 48.5102C195.09 48.5102 195.59 48.4402 195.88 48.3002C196.17 48.1602 196.32 47.9002 196.32 47.5102C196.32 47.2002 196.13 46.9302 195.76 46.7002C195.38 46.4702 194.81 46.2102 194.04 45.9202C193.44 45.7002 192.9 45.4702 192.41 45.2302C191.92 44.9902 191.51 44.7002 191.17 44.3702C190.83 44.0402 190.56 43.6402 190.38 43.1802C190.19 42.7202 190.1 42.1602 190.1 41.5102C190.1 40.2402 190.57 39.2402 191.51 38.5102C192.45 37.7802 193.74 37.4102 195.38 37.4102C196.2 37.4102 196.99 37.4802 197.74 37.6302C198.49 37.7802 199.09 37.9302 199.53 38.1002L198.86 41.0702C198.42 40.9202 197.93 40.7802 197.41 40.6602C196.89 40.5402 196.3 40.4802 195.65 40.4802C194.45 40.4802 193.86 40.8102 193.86 41.4802C193.86 41.6302 193.89 41.7702 193.94 41.8902C193.99 42.0102 194.09 42.1202 194.25 42.2402C194.4 42.3502 194.61 42.4702 194.88 42.6002C195.14 42.7302 195.48 42.8702 195.89 43.0302C196.73 43.3402 197.42 43.6502 197.97 43.9502C198.52 44.2502 198.95 44.5802 199.26 44.9302C199.58 45.2802 199.8 45.6702 199.93 46.0902C200.06 46.5102 200.12 47.0102 200.12 47.5702C200.12 48.9002 199.62 49.9102 198.62 50.5902C197.62 51.2702 196.2 51.6102 194.38 51.6102C193.18 51.6102 192.19 51.5102 191.39 51.3002C190.59 51.0902 190.04 50.9202 189.74 50.7902L190.38 47.6902C191.03 47.9502 191.7 48.1502 192.38 48.2902C193.06 48.4402 193.74 48.5102 194.41 48.5102H194.39Z" fill="black"/>
<path d="M213.44 50.7895C212.79 50.9795 211.95 51.1495 210.93 51.3195C209.9 51.4795 208.83 51.5595 207.7 51.5595C206.57 51.5595 205.6 51.4095 204.84 51.0995C204.08 50.7895 203.48 50.3595 203.03 49.8095C202.59 49.2495 202.27 48.5895 202.08 47.8195C201.89 47.0495 201.8 46.1995 201.8 45.2795V37.7695H205.62V44.8195C205.62 46.0495 205.78 46.9395 206.11 47.4895C206.43 48.0395 207.04 48.3095 207.93 48.3095C208.2 48.3095 208.49 48.2995 208.8 48.2695C209.11 48.2395 209.38 48.2095 209.62 48.1795V37.7695H213.44V50.7995V50.7895Z" fill="black"/>
<path d="M226.51 51.5098C225.4 51.4898 224.5 51.3698 223.8 51.1498C223.1 50.9298 222.56 50.6198 222.16 50.2098C221.76 49.8098 221.49 49.3198 221.34 48.7498C221.19 48.1798 221.12 47.5298 221.12 46.8098V31.9598L224.94 31.3398V46.0298C224.94 46.3698 224.97 46.6798 225.02 46.9498C225.07 47.2198 225.17 47.4498 225.31 47.6398C225.45 47.8298 225.66 47.9798 225.94 48.0998C226.21 48.2198 226.58 48.2998 227.04 48.3298L226.5 51.4798L226.51 51.5098Z" fill="black"/>
<path d="M239.72 50.7895C239.07 50.9795 238.23 51.1495 237.21 51.3195C236.18 51.4795 235.11 51.5595 233.98 51.5595C232.85 51.5595 231.88 51.4095 231.12 51.0995C230.36 50.7895 229.76 50.3595 229.31 49.8095C228.87 49.2495 228.55 48.5895 228.36 47.8195C228.17 47.0495 228.08 46.1995 228.08 45.2795V37.7695H231.9V44.8195C231.9 46.0495 232.06 46.9395 232.39 47.4895C232.71 48.0395 233.32 48.3095 234.21 48.3095C234.48 48.3095 234.77 48.2995 235.08 48.2695C235.39 48.2395 235.66 48.2095 235.9 48.1795V37.7695H239.72V50.7995V50.7895Z" fill="black"/>
<path d="M253.92 49.5597C253.92 51.7697 253.36 53.3997 252.24 54.4697C251.12 55.5397 249.39 56.0697 247.05 56.0697C246.23 56.0697 245.41 55.9997 244.59 55.8497C243.77 55.6997 243.01 55.5097 242.31 55.2697L242.98 52.0597C243.58 52.2997 244.21 52.4897 244.86 52.6197C245.52 52.7597 246.27 52.8297 247.1 52.8297C248.19 52.8297 248.97 52.5897 249.42 52.1097C249.87 51.6297 250.1 51.0197 250.1 50.2597V49.7697C249.69 49.9597 249.27 50.0997 248.83 50.1897C248.39 50.2797 247.92 50.3297 247.41 50.3297C245.55 50.3297 244.12 49.7797 243.13 48.6797C242.14 47.5797 241.64 46.0297 241.64 44.0497C241.64 43.0597 241.79 42.1597 242.1 41.3397C242.41 40.5297 242.86 39.8297 243.45 39.2497C244.04 38.6697 244.76 38.2197 245.62 37.8997C246.47 37.5797 247.44 37.4297 248.52 37.4297C248.98 37.4297 249.46 37.4497 249.94 37.4897C250.43 37.5297 250.91 37.5897 251.39 37.6597C251.87 37.7297 252.33 37.8097 252.76 37.8997C253.2 37.9897 253.58 38.0897 253.93 38.1897V49.5197L253.92 49.5597ZM245.54 44.0697C245.54 46.2097 246.4 47.2797 248.13 47.2797C248.52 47.2797 248.89 47.2297 249.23 47.1297C249.57 47.0297 249.86 46.9097 250.1 46.7697V40.6697C249.91 40.6397 249.69 40.6097 249.43 40.5797C249.17 40.5497 248.87 40.5397 248.53 40.5397C247.52 40.5397 246.77 40.8697 246.27 41.5397C245.77 42.2097 245.53 43.0497 245.53 44.0797L245.54 44.0697Z" fill="black"/>
<path d="M261.33 37.4001C262.46 37.4001 263.4 37.5301 264.15 37.7801C264.9 38.0401 265.5 38.4001 265.96 38.8801C266.41 39.3601 266.73 39.9401 266.92 40.6201C267.11 41.3001 267.2 42.0601 267.2 42.9001V50.8501C266.65 50.9701 265.89 51.1101 264.92 51.2701C263.95 51.4301 262.77 51.5101 261.38 51.5101C260.51 51.5101 259.72 51.4301 259.01 51.2801C258.3 51.1301 257.69 50.8701 257.18 50.5201C256.67 50.1701 256.27 49.7101 256 49.1501C255.73 48.5901 255.59 47.8901 255.59 47.0701C255.59 46.2501 255.75 45.6201 256.06 45.0701C256.38 44.5201 256.8 44.0901 257.33 43.7601C257.86 43.4401 258.47 43.2001 259.15 43.0501C259.83 42.9001 260.54 42.8301 261.28 42.8301C261.78 42.8301 262.22 42.8501 262.6 42.8901C262.98 42.9301 263.3 42.9901 263.54 43.0601V42.7001C263.54 42.0501 263.34 41.5301 262.95 41.1401C262.56 40.7501 261.87 40.5501 260.9 40.5501C260.25 40.5501 259.61 40.6001 258.98 40.6901C258.35 40.7801 257.8 40.9201 257.34 41.0901L256.85 38.0101C257.07 37.9401 257.35 37.8701 257.68 37.7901C258.01 37.7101 258.38 37.6401 258.77 37.5801C259.16 37.5201 259.58 37.4701 260.01 37.4301C260.45 37.3901 260.89 37.3701 261.33 37.3701V37.4001ZM261.64 48.5801C262.02 48.5801 262.37 48.5801 262.72 48.5501C263.06 48.5301 263.34 48.5101 263.54 48.4701V45.5701C263.39 45.5401 263.16 45.5001 262.85 45.4701C262.54 45.4401 262.26 45.4201 262 45.4201C261.64 45.4201 261.3 45.4401 260.99 45.4801C260.68 45.5201 260.4 45.6001 260.16 45.7201C259.92 45.8401 259.73 46.0001 259.6 46.2101C259.47 46.4201 259.39 46.6701 259.39 46.9801C259.39 47.5801 259.59 47.9901 259.99 48.2201C260.39 48.4501 260.94 48.5701 261.64 48.5701V48.5801Z" fill="black"/>
<path d="M277.77 41.1505C277.43 41.0605 277.03 40.9705 276.56 40.8805C276.1 40.7905 275.6 40.7405 275.07 40.7405C274.83 40.7405 274.54 40.7605 274.21 40.8005C273.88 40.8405 273.62 40.8905 273.45 40.9405V51.2505H269.63V38.4805C270.31 38.2405 271.12 38.0105 272.05 37.8005C272.98 37.5905 274.02 37.4805 275.17 37.4805C275.38 37.4805 275.62 37.4905 275.91 37.5205C276.2 37.5505 276.49 37.5805 276.78 37.6205C277.07 37.6605 277.36 37.7105 277.65 37.7705C277.94 37.8305 278.19 37.9005 278.39 37.9905L277.75 41.1405L277.77 41.1505Z" fill="black"/>
<path d="M6.28001 82.2804C5.17001 82.2604 4.27002 82.1403 3.57001 81.9203C2.87001 81.7003 2.33002 81.3903 1.93002 80.9803C1.53002 80.5803 1.26002 80.0904 1.11002 79.5204C0.960016 78.9504 0.890015 78.3004 0.890015 77.5804V62.7303L4.71001 62.1104V76.8004C4.71001 77.1404 4.74002 77.4503 4.79002 77.7203C4.84002 77.9903 4.94002 78.2203 5.08002 78.4103C5.22002 78.6003 5.43001 78.7504 5.71001 78.8704C5.98001 78.9904 6.35002 79.0703 6.81002 79.1003L6.27002 82.2504L6.28001 82.2804Z" fill="black"/>
<path d="M19.49 81.5601C18.84 81.7501 18 81.9201 16.98 82.0901C15.95 82.2501 14.88 82.33 13.75 82.33C12.62 82.33 11.65 82.1801 10.89 81.8701C10.13 81.5601 9.52998 81.13 9.07998 80.58C8.63998 80.02 8.31998 79.3601 8.12998 78.5901C7.93998 77.8201 7.84998 76.97 7.84998 76.05V68.54H11.67V75.5901C11.67 76.8201 11.83 77.71 12.16 78.26C12.48 78.81 13.09 79.08 13.98 79.08C14.25 79.08 14.54 79.07 14.85 79.04C15.16 79.01 15.43 78.98 15.67 78.95V68.54H19.49V81.57V81.5601Z" fill="black"/>
<path d="M21.41 75.3797C21.41 74.1797 21.59 73.1397 21.96 72.2397C22.33 71.3397 22.81 70.5897 23.41 69.9997C24.01 69.3997 24.7 68.9497 25.47 68.6397C26.25 68.3297 27.05 68.1797 27.87 68.1797C29.79 68.1797 31.3 68.7697 32.41 69.9397C33.52 71.1097 34.08 72.8297 34.08 75.1097C34.08 75.3297 34.08 75.5797 34.05 75.8397C34.03 76.1097 34.02 76.3397 34 76.5497H25.33C25.41 77.3397 25.78 77.9597 26.43 78.4197C27.08 78.8797 27.95 79.1097 29.05 79.1097C29.75 79.1097 30.44 79.0497 31.11 78.9197C31.78 78.7897 32.34 78.6297 32.76 78.4497L33.27 81.5497C33.06 81.6497 32.79 81.7597 32.45 81.8597C32.11 81.9597 31.73 82.0497 31.31 82.1297C30.89 82.2097 30.44 82.2697 29.96 82.3197C29.48 82.3697 29 82.3997 28.52 82.3997C27.31 82.3997 26.25 82.2197 25.35 81.8597C24.45 81.4997 23.71 81.0097 23.12 80.3897C22.53 79.7697 22.09 79.0297 21.81 78.1697C21.53 77.3197 21.39 76.3897 21.39 75.3997L21.41 75.3797ZM30.38 73.9197C30.36 73.5997 30.31 73.2797 30.21 72.9697C30.12 72.6597 29.97 72.3897 29.77 72.1497C29.57 71.9097 29.33 71.7097 29.03 71.5597C28.73 71.4097 28.36 71.3297 27.91 71.3297C27.46 71.3297 27.12 71.3997 26.81 71.5497C26.5 71.6997 26.25 71.8897 26.04 72.1297C25.83 72.3697 25.68 72.6497 25.57 72.9597C25.46 73.2797 25.38 73.5997 25.33 73.9197H30.38Z" fill="black"/>
<path d="M47.64 80.3302C47.64 82.5402 47.08 84.1702 45.96 85.2402C44.84 86.3102 43.11 86.8402 40.77 86.8402C39.95 86.8402 39.13 86.7702 38.31 86.6202C37.49 86.4702 36.73 86.2802 36.03 86.0402L36.7 82.8302C37.3 83.0702 37.93 83.2602 38.58 83.3902C39.24 83.5302 39.99 83.6002 40.82 83.6002C41.91 83.6002 42.69 83.3602 43.14 82.8802C43.59 82.4002 43.82 81.7902 43.82 81.0302V80.5402C43.41 80.7302 42.99 80.8702 42.55 80.9602C42.11 81.0502 41.64 81.1002 41.13 81.1002C39.27 81.1002 37.84 80.5502 36.85 79.4502C35.86 78.3502 35.36 76.8002 35.36 74.8202C35.36 73.8302 35.51 72.9302 35.82 72.1102C36.13 71.3002 36.58 70.6002 37.17 70.0202C37.76 69.4402 38.48 68.9902 39.34 68.6702C40.19 68.3502 41.16 68.2002 42.24 68.2002C42.7 68.2002 43.18 68.2202 43.66 68.2602C44.15 68.3002 44.63 68.3602 45.11 68.4302C45.59 68.5002 46.05 68.5802 46.48 68.6702C46.92 68.7602 47.3 68.8602 47.65 68.9602V80.2902L47.64 80.3302ZM39.26 74.8402C39.26 76.9802 40.12 78.0502 41.85 78.0502C42.24 78.0502 42.61 78.0002 42.95 77.9002C43.29 77.8002 43.58 77.6802 43.82 77.5402V71.4402C43.63 71.4102 43.41 71.3802 43.15 71.3502C42.89 71.3202 42.59 71.3102 42.25 71.3102C41.24 71.3102 40.49 71.6402 39.99 72.3102C39.49 72.9802 39.25 73.8202 39.25 74.8502L39.26 74.8402Z" fill="black"/>
<path d="M62.8201 75.2499C62.8201 76.3099 62.6701 77.2799 62.3601 78.1599C62.0501 79.0399 61.6101 79.7899 61.0301 80.4199C60.4501 81.0499 59.7501 81.5299 58.9401 81.8699C58.1301 82.2099 57.2201 82.3799 56.2101 82.3799C55.2001 82.3799 54.3201 82.2099 53.5001 81.8699C52.6901 81.5299 51.9901 81.0499 51.4101 80.4199C50.8301 79.7899 50.3801 79.0399 50.0501 78.1599C49.7301 77.2799 49.5601 76.3099 49.5601 75.2499C49.5601 74.1899 49.7301 73.2199 50.0601 72.3499C50.3901 71.4799 50.8501 70.7299 51.4401 70.1199C52.0301 69.4999 52.7301 69.0299 53.5401 68.6799C54.3501 68.3399 55.2401 68.1699 56.1901 68.1699C57.1401 68.1699 58.0601 68.3399 58.8701 68.6799C59.6801 69.0199 60.3801 69.4999 60.9601 70.1199C61.5401 70.7399 61.9901 71.4799 62.3201 72.3499C62.6501 73.2199 62.8101 74.1899 62.8101 75.2499H62.8201ZM58.9201 75.2499C58.9201 74.0699 58.6801 73.1399 58.2101 72.4699C57.7401 71.7999 57.0701 71.4599 56.2001 71.4599C55.3301 71.4599 54.6501 71.7999 54.1701 72.4699C53.6901 73.1399 53.4501 74.0699 53.4501 75.2499C53.4501 76.4299 53.6901 77.3699 54.1701 78.0599C54.6501 78.7499 55.3201 79.0999 56.2001 79.0999C57.0801 79.0999 57.7401 78.7499 58.2101 78.0599C58.6801 77.3699 58.9201 76.4299 58.9201 75.2499Z" fill="black"/>
<path d="M69.2299 75.2799C69.2299 74.3099 69.39 73.3899 69.7 72.5199C70.01 71.6499 70.47 70.8999 71.07 70.2599C71.67 69.6199 72.39 69.1099 73.25 68.7299C74.1 68.3499 75.08 68.1699 76.17 68.1699C76.89 68.1699 77.55 68.2299 78.14 68.3599C78.74 68.4899 79.32 68.6699 79.88 68.9099L79.09 71.9599C78.73 71.8199 78.34 71.6999 77.91 71.5999C77.48 71.4999 77 71.4499 76.47 71.4499C75.34 71.4499 74.5 71.7999 73.94 72.4999C73.38 73.1999 73.11 74.1199 73.11 75.2699C73.11 76.4799 73.37 77.4199 73.89 78.0899C74.41 78.7599 75.3199 79.0899 76.6199 79.0899C77.0799 79.0899 77.58 79.0499 78.11 78.9599C78.64 78.8699 79.13 78.7399 79.57 78.5499L80.11 81.6799C79.66 81.8699 79.11 82.0299 78.44 82.1699C77.77 82.3099 77.0399 82.3799 76.2299 82.3799C74.9999 82.3799 73.94 82.1999 73.05 81.8299C72.16 81.4599 71.43 80.9599 70.86 80.3299C70.29 79.6999 69.87 78.9499 69.6 78.0899C69.33 77.2299 69.2 76.2899 69.2 75.2799H69.2299Z" fill="black"/>
<path d="M93.64 75.2499C93.64 76.3099 93.49 77.2799 93.18 78.1599C92.87 79.0399 92.43 79.7899 91.85 80.4199C91.27 81.0499 90.57 81.5299 89.76 81.8699C88.95 82.2099 88.04 82.3799 87.03 82.3799C86.02 82.3799 85.14 82.2099 84.32 81.8699C83.51 81.5299 82.81 81.0499 82.23 80.4199C81.65 79.7899 81.2 79.0399 80.87 78.1599C80.55 77.2799 80.38 76.3099 80.38 75.2499C80.38 74.1899 80.55 73.2199 80.88 72.3499C81.21 71.4799 81.67 70.7299 82.26 70.1199C82.85 69.4999 83.55 69.0299 84.36 68.6799C85.17 68.3399 86.06 68.1699 87.01 68.1699C87.96 68.1699 88.88 68.3399 89.69 68.6799C90.5 69.0199 91.2 69.4999 91.78 70.1199C92.36 70.7399 92.81 71.4799 93.14 72.3499C93.47 73.2199 93.63 74.1899 93.63 75.2499H93.64ZM89.74 75.2499C89.74 74.0699 89.5 73.1399 89.03 72.4699C88.56 71.7999 87.89 71.4599 87.02 71.4599C86.15 71.4599 85.47 71.7999 84.99 72.4699C84.51 73.1399 84.27 74.0699 84.27 75.2499C84.27 76.4299 84.51 77.3699 84.99 78.0599C85.47 78.7499 86.14 79.0999 87.02 79.0999C87.9 79.0999 88.56 78.7499 89.03 78.0599C89.5 77.3699 89.74 76.4299 89.74 75.2499Z" fill="black"/>
<path d="M95.5599 68.9897C96.2099 68.7997 97.0499 68.6297 98.0699 68.4597C99.0899 68.2897 100.17 68.2197 101.3 68.2197C102.43 68.2197 103.4 68.3697 104.16 68.6697C104.92 68.9697 105.52 69.3897 105.97 69.9397C106.41 70.4897 106.73 71.1397 106.92 71.8897C107.11 72.6397 107.2 73.4797 107.2 74.3997V82.0197H103.38V74.8698C103.38 73.6398 103.22 72.7698 102.89 72.2498C102.57 71.7398 101.96 71.4797 101.07 71.4797C100.8 71.4797 100.51 71.4897 100.2 71.5197C99.8899 71.5497 99.6199 71.5797 99.3799 71.6097V82.0197H95.5599V68.9897Z" fill="black"/>
<path d="M109 75.3797C109 74.1797 109.18 73.1397 109.55 72.2397C109.92 71.3397 110.4 70.5897 111 69.9997C111.6 69.3997 112.29 68.9497 113.06 68.6397C113.84 68.3297 114.64 68.1797 115.46 68.1797C117.38 68.1797 118.89 68.7697 120 69.9397C121.11 71.1097 121.67 72.8297 121.67 75.1097C121.67 75.3297 121.67 75.5797 121.64 75.8397C121.62 76.1097 121.61 76.3397 121.59 76.5497H112.92C113 77.3397 113.37 77.9597 114.02 78.4197C114.67 78.8797 115.54 79.1097 116.64 79.1097C117.34 79.1097 118.03 79.0497 118.7 78.9197C119.37 78.7897 119.93 78.6297 120.35 78.4497L120.86 81.5497C120.65 81.6497 120.38 81.7597 120.04 81.8597C119.7 81.9597 119.32 82.0497 118.9 82.1297C118.48 82.2097 118.03 82.2697 117.55 82.3197C117.07 82.3697 116.59 82.3997 116.11 82.3997C114.9 82.3997 113.84 82.2197 112.94 81.8597C112.04 81.4997 111.3 81.0097 110.71 80.3897C110.12 79.7697 109.68 79.0297 109.4 78.1697C109.12 77.3197 108.98 76.3897 108.98 75.3997L109 75.3797ZM117.98 73.9197C117.96 73.5997 117.91 73.2797 117.81 72.9697C117.72 72.6597 117.57 72.3897 117.37 72.1497C117.17 71.9097 116.93 71.7097 116.63 71.5597C116.33 71.4097 115.96 71.3297 115.51 71.3297C115.06 71.3297 114.72 71.3997 114.41 71.5497C114.1 71.6997 113.85 71.8897 113.64 72.1297C113.43 72.3697 113.28 72.6497 113.17 72.9597C113.06 73.2797 112.98 73.5997 112.93 73.9197H117.98Z" fill="black"/>
<path d="M122.95 75.2799C122.95 74.3099 123.11 73.3899 123.42 72.5199C123.73 71.6499 124.19 70.8999 124.79 70.2599C125.39 69.6199 126.11 69.1099 126.97 68.7299C127.82 68.3499 128.8 68.1699 129.89 68.1699C130.61 68.1699 131.27 68.2299 131.86 68.3599C132.46 68.4899 133.04 68.6699 133.6 68.9099L132.81 71.9599C132.45 71.8199 132.06 71.6999 131.63 71.5999C131.2 71.4999 130.72 71.4499 130.19 71.4499C129.06 71.4499 128.22 71.7999 127.66 72.4999C127.1 73.1999 126.83 74.1199 126.83 75.2699C126.83 76.4799 127.09 77.4199 127.61 78.0899C128.13 78.7599 129.04 79.0899 130.34 79.0899C130.8 79.0899 131.3 79.0499 131.83 78.9599C132.36 78.8699 132.85 78.7399 133.29 78.5499L133.83 81.6799C133.38 81.8699 132.83 82.0299 132.16 82.1699C131.49 82.3099 130.76 82.3799 129.95 82.3799C128.72 82.3799 127.66 82.1999 126.77 81.8299C125.88 81.4599 125.15 80.9599 124.58 80.3299C124.01 79.6999 123.59 78.9499 123.32 78.0899C123.05 77.2299 122.92 76.2899 122.92 75.2799H122.95Z" fill="black"/>
<path d="M135.26 65.1698L139.08 64.5498V68.5198H143.67V71.6998H139.08V76.4398C139.08 77.2398 139.22 77.8798 139.5 78.3598C139.78 78.8398 140.35 79.0798 141.21 79.0798C141.62 79.0798 142.04 79.0398 142.48 78.9598C142.92 78.8798 143.31 78.7798 143.67 78.6398L144.21 81.6098C143.75 81.7998 143.24 81.9598 142.67 82.0998C142.1 82.2398 141.41 82.3098 140.59 82.3098C139.55 82.3098 138.68 82.1698 138 81.8898C137.32 81.6098 136.77 81.2098 136.36 80.7098C135.95 80.2098 135.66 79.5898 135.5 78.8798C135.34 78.1598 135.26 77.3698 135.26 76.4998V65.1698Z" fill="black"/>
<path d="M150.08 68.17C151.21 68.17 152.15 68.3 152.9 68.55C153.65 68.81 154.25 69.1701 154.71 69.6501C155.16 70.1301 155.48 70.71 155.67 71.39C155.86 72.07 155.95 72.83 155.95 73.67V81.6201C155.4 81.7401 154.64 81.88 153.67 82.04C152.7 82.2 151.52 82.2801 150.13 82.2801C149.26 82.2801 148.47 82.2 147.76 82.05C147.05 81.9 146.44 81.64 145.93 81.29C145.42 80.94 145.02 80.48 144.75 79.92C144.48 79.36 144.34 78.6601 144.34 77.8401C144.34 77.0201 144.5 76.3901 144.81 75.8401C145.13 75.2901 145.55 74.8601 146.08 74.5301C146.61 74.2101 147.22 73.97 147.9 73.82C148.58 73.67 149.29 73.6 150.03 73.6C150.53 73.6 150.97 73.62 151.35 73.66C151.73 73.7 152.05 73.76 152.29 73.83V73.47C152.29 72.82 152.09 72.3 151.7 71.91C151.31 71.52 150.62 71.32 149.65 71.32C149 71.32 148.36 71.3701 147.73 71.4601C147.1 71.5501 146.55 71.69 146.09 71.86L145.6 68.7801C145.82 68.7101 146.1 68.6401 146.43 68.5601C146.76 68.4801 147.13 68.41 147.52 68.35C147.91 68.29 148.33 68.24 148.76 68.2C149.2 68.16 149.64 68.14 150.08 68.14V68.17ZM153.62 63.69L149.4 67.2501L147.64 65.69L151.27 61.54L153.62 63.69ZM150.39 79.35C150.77 79.35 151.12 79.35 151.47 79.32C151.81 79.3 152.09 79.2801 152.29 79.2401V76.3401C152.14 76.3101 151.91 76.2701 151.6 76.2401C151.29 76.2101 151.01 76.19 150.75 76.19C150.39 76.19 150.05 76.2101 149.74 76.2501C149.43 76.2901 149.15 76.3701 148.91 76.4901C148.67 76.6101 148.48 76.77 148.35 76.98C148.22 77.19 148.14 77.4401 148.14 77.7501C148.14 78.3501 148.34 78.7601 148.74 78.9901C149.14 79.2201 149.69 79.3401 150.39 79.3401V79.35Z" fill="black"/>
<path d="M168.9 82.2804C167.79 82.2604 166.89 82.1403 166.19 81.9203C165.49 81.7003 164.95 81.3903 164.55 80.9803C164.15 80.5803 163.88 80.0904 163.73 79.5204C163.58 78.9504 163.51 78.3004 163.51 77.5804V62.7303L167.33 62.1104V76.8004C167.33 77.1404 167.36 77.4503 167.41 77.7203C167.46 77.9903 167.56 78.2203 167.7 78.4103C167.84 78.6003 168.05 78.7504 168.33 78.8704C168.6 78.9904 168.97 79.0703 169.43 79.1003L168.89 82.2504L168.9 82.2804Z" fill="black"/>
<path d="M175.82 68.1696C176.95 68.1696 177.89 68.2997 178.64 68.5497C179.39 68.8097 179.99 69.1697 180.45 69.6497C180.9 70.1297 181.22 70.7096 181.41 71.3896C181.6 72.0696 181.69 72.8296 181.69 73.6696V81.6197C181.14 81.7397 180.38 81.8796 179.41 82.0396C178.44 82.1996 177.26 82.2797 175.87 82.2797C175 82.2797 174.21 82.1997 173.5 82.0497C172.79 81.8997 172.18 81.6396 171.67 81.2896C171.16 80.9396 170.76 80.4796 170.49 79.9196C170.22 79.3596 170.08 78.6597 170.08 77.8397C170.08 77.0197 170.24 76.3897 170.55 75.8397C170.87 75.2897 171.29 74.8597 171.82 74.5297C172.35 74.2097 172.96 73.9696 173.64 73.8196C174.32 73.6696 175.03 73.5996 175.77 73.5996C176.27 73.5996 176.71 73.6196 177.09 73.6596C177.47 73.6996 177.79 73.7597 178.03 73.8297V73.4696C178.03 72.8196 177.83 72.2996 177.44 71.9096C177.05 71.5196 176.36 71.3196 175.39 71.3196C174.74 71.3196 174.1 71.3697 173.47 71.4597C172.84 71.5497 172.29 71.6896 171.83 71.8596L171.34 68.7797C171.56 68.7097 171.84 68.6397 172.17 68.5597C172.5 68.4797 172.87 68.4096 173.26 68.3496C173.65 68.2896 174.07 68.2396 174.5 68.1996C174.94 68.1596 175.38 68.1396 175.82 68.1396V68.1696ZM176.13 79.3496C176.51 79.3496 176.86 79.3496 177.21 79.3196C177.55 79.2996 177.83 79.2797 178.03 79.2397V76.3397C177.88 76.3097 177.65 76.2697 177.34 76.2397C177.03 76.2097 176.75 76.1896 176.49 76.1896C176.13 76.1896 175.79 76.2097 175.48 76.2497C175.17 76.2897 174.89 76.3697 174.65 76.4897C174.41 76.6097 174.22 76.7696 174.09 76.9796C173.96 77.1896 173.88 77.4397 173.88 77.7497C173.88 78.3497 174.08 78.7597 174.48 78.9897C174.88 79.2197 175.43 79.3397 176.13 79.3397V79.3496Z" fill="black"/>
<path d="M195.1 62.1204C195.82 62.1204 196.41 62.1804 196.88 62.3004C197.35 62.4204 197.75 62.5504 198.07 62.6804L197.4 65.6804C197.13 65.5604 196.82 65.4703 196.49 65.4203C196.16 65.3703 195.82 65.3404 195.48 65.3404C195.02 65.3404 194.63 65.4004 194.31 65.5304C193.99 65.6604 193.75 65.8304 193.57 66.0604C193.39 66.2904 193.26 66.5503 193.19 66.8503C193.11 67.1603 193.07 67.4903 193.07 67.8503V68.5204H197.79V71.7003H193.07V82.0103H189.25V67.8004C189.25 66.0604 189.74 64.6704 190.72 63.6504C191.7 62.6204 193.16 62.1104 195.09 62.1104L195.1 62.1204ZM204.18 64.6404C204.18 65.3404 203.95 65.8903 203.5 66.2903C203.05 66.6903 202.51 66.8904 201.9 66.8904C201.29 66.8904 200.75 66.6903 200.3 66.2903C199.85 65.8903 199.62 65.3404 199.62 64.6404C199.62 63.9404 199.85 63.3904 200.3 62.9904C200.75 62.5904 201.29 62.3904 201.9 62.3904C202.51 62.3904 203.05 62.5904 203.5 62.9904C203.95 63.3904 204.18 63.9404 204.18 64.6404ZM203.82 82.0204H200V68.5304H203.82V82.0204Z" fill="black"/>
<path d="M218.92 75.2801C218.92 76.3601 218.76 77.3301 218.45 78.2001C218.13 79.0701 217.68 79.8201 217.08 80.4301C216.48 81.0401 215.75 81.5201 214.87 81.8501C214 82.1801 213.01 82.3501 211.9 82.3501C211.44 82.3501 210.96 82.3301 210.45 82.2901C209.95 82.2501 209.45 82.1901 208.96 82.1201C208.47 82.0501 208.01 81.9701 207.56 81.8801C207.11 81.7901 206.72 81.6901 206.38 81.5901V62.7401L210.2 62.1201V68.8401C210.63 68.6501 211.07 68.5101 211.53 68.4001C211.99 68.3001 212.49 68.2501 213.02 68.2501C213.98 68.2501 214.82 68.4201 215.56 68.7501C216.29 69.0801 216.91 69.5601 217.41 70.1701C217.91 70.7901 218.28 71.5201 218.54 72.3901C218.8 73.2501 218.92 74.2201 218.92 75.2701V75.2801ZM215.03 75.1701C215.03 72.7101 214.12 71.4801 212.31 71.4801C211.92 71.4801 211.53 71.5301 211.14 71.6301C210.76 71.7301 210.44 71.8601 210.2 72.0101V78.9601C210.39 78.9901 210.63 79.0201 210.92 79.0501C211.21 79.0801 211.53 79.0901 211.87 79.0901C212.91 79.0901 213.7 78.7301 214.23 78.0101C214.76 77.2901 215.02 76.3401 215.02 75.1601L215.03 75.1701Z" fill="black"/>
<path d="M228.98 71.92C228.64 71.83 228.24 71.74 227.77 71.65C227.31 71.56 226.81 71.51 226.28 71.51C226.04 71.51 225.75 71.53 225.42 71.57C225.09 71.61 224.83 71.66 224.66 71.71V82.02H220.84V69.25C221.52 69.01 222.33 68.78 223.26 68.57C224.19 68.36 225.23 68.25 226.38 68.25C226.59 68.25 226.83 68.26 227.12 68.29C227.41 68.32 227.7 68.35 227.99 68.39C228.28 68.43 228.57 68.48 228.86 68.54C229.15 68.6 229.4 68.67 229.6 68.76L228.96 71.91L228.98 71.92Z" fill="black"/>
<path d="M235.23 68.1696C236.36 68.1696 237.3 68.2997 238.05 68.5497C238.8 68.8097 239.4 69.1697 239.86 69.6497C240.31 70.1297 240.63 70.7096 240.82 71.3896C241.01 72.0696 241.1 72.8296 241.1 73.6696V81.6197C240.55 81.7397 239.79 81.8796 238.82 82.0396C237.85 82.1996 236.67 82.2797 235.28 82.2797C234.41 82.2797 233.62 82.1997 232.91 82.0497C232.2 81.8997 231.59 81.6396 231.08 81.2896C230.57 80.9396 230.17 80.4796 229.9 79.9196C229.63 79.3596 229.49 78.6597 229.49 77.8397C229.49 77.0197 229.65 76.3897 229.96 75.8397C230.28 75.2897 230.7 74.8597 231.23 74.5297C231.76 74.2097 232.37 73.9696 233.05 73.8196C233.73 73.6696 234.44 73.5996 235.18 73.5996C235.68 73.5996 236.12 73.6196 236.5 73.6596C236.88 73.6996 237.2 73.7597 237.44 73.8297V73.4696C237.44 72.8196 237.24 72.2996 236.85 71.9096C236.46 71.5196 235.77 71.3196 234.8 71.3196C234.15 71.3196 233.51 71.3697 232.88 71.4597C232.25 71.5497 231.7 71.6896 231.24 71.8596L230.75 68.7797C230.97 68.7097 231.25 68.6397 231.58 68.5597C231.91 68.4797 232.28 68.4096 232.67 68.3496C233.06 68.2896 233.48 68.2396 233.91 68.1996C234.35 68.1596 234.79 68.1396 235.23 68.1396V68.1696ZM235.54 79.3496C235.92 79.3496 236.27 79.3496 236.62 79.3196C236.96 79.2996 237.24 79.2797 237.44 79.2397V76.3397C237.29 76.3097 237.06 76.2697 236.75 76.2397C236.44 76.2097 236.16 76.1896 235.9 76.1896C235.54 76.1896 235.2 76.2097 234.89 76.2497C234.58 76.2897 234.3 76.3697 234.06 76.4897C233.82 76.6097 233.63 76.7696 233.5 76.9796C233.37 77.1896 233.29 77.4397 233.29 77.7497C233.29 78.3497 233.49 78.7597 233.89 78.9897C234.29 79.2197 234.84 79.3397 235.54 79.3397V79.3496Z" fill="black"/>
<path d="M261.28 75.2501C261.28 76.3101 261.13 77.28 260.82 78.16C260.51 79.04 260.07 79.79 259.49 80.42C258.91 81.05 258.21 81.5301 257.4 81.8701C256.59 82.2101 255.68 82.38 254.67 82.38C253.66 82.38 252.78 82.2101 251.96 81.8701C251.15 81.5301 250.45 81.05 249.87 80.42C249.29 79.79 248.84 79.04 248.51 78.16C248.19 77.28 248.02 76.3101 248.02 75.2501C248.02 74.1901 248.19 73.22 248.52 72.35C248.85 71.48 249.31 70.7301 249.9 70.1201C250.49 69.5001 251.19 69.0301 252 68.6801C252.81 68.3401 253.7 68.17 254.65 68.17C255.6 68.17 256.52 68.3401 257.33 68.6801C258.14 69.0201 258.84 69.5001 259.42 70.1201C260 70.7401 260.45 71.48 260.78 72.35C261.11 73.22 261.27 74.1901 261.27 75.2501H261.28ZM257.82 63.69L253.6 67.2501L251.84 65.69L255.47 61.54L257.82 63.69ZM257.39 75.2501C257.39 74.0701 257.15 73.14 256.68 72.47C256.21 71.8 255.54 71.4601 254.67 71.4601C253.8 71.4601 253.12 71.8 252.64 72.47C252.16 73.14 251.92 74.0701 251.92 75.2501C251.92 76.4301 252.16 77.3701 252.64 78.0601C253.12 78.7501 253.79 79.1 254.67 79.1C255.55 79.1 256.21 78.7501 256.68 78.0601C257.15 77.3701 257.39 76.4301 257.39 75.2501Z" fill="black"/>
<path d="M275.75 75.28C275.75 76.32 275.62 77.27 275.37 78.13C275.11 78.98 274.74 79.72 274.24 80.34C273.74 80.96 273.13 81.43 272.39 81.78C271.65 82.12 270.81 82.29 269.85 82.29C269.32 82.29 268.82 82.24 268.36 82.14C267.9 82.04 267.45 81.89 267.03 81.7V86.78H263.21V69.01C263.55 68.91 263.94 68.81 264.39 68.72C264.83 68.63 265.3 68.55 265.79 68.48C266.28 68.41 266.77 68.36 267.28 68.31C267.78 68.27 268.27 68.25 268.73 68.25C269.84 68.25 270.83 68.42 271.7 68.75C272.57 69.08 273.31 69.55 273.91 70.16C274.51 70.77 274.97 71.51 275.28 72.38C275.6 73.25 275.75 74.23 275.75 75.3V75.28ZM271.85 75.38C271.85 74.2 271.58 73.26 271.06 72.55C270.53 71.84 269.74 71.49 268.7 71.49C268.36 71.49 268.04 71.5 267.75 71.53C267.46 71.56 267.22 71.59 267.03 71.62V78.52C267.27 78.67 267.58 78.8 267.97 78.9C268.35 79 268.74 79.05 269.14 79.05C270.95 79.05 271.86 77.83 271.86 75.38H271.85Z" fill="black"/>
<path d="M277.54 65.1698L281.36 64.5498V68.5198H285.95V71.6998H281.36V76.4398C281.36 77.2398 281.5 77.8798 281.78 78.3598C282.06 78.8398 282.63 79.0798 283.49 79.0798C283.9 79.0798 284.32 79.0398 284.76 78.9598C285.2 78.8798 285.59 78.7798 285.95 78.6398L286.49 81.6098C286.03 81.7998 285.52 81.9598 284.95 82.0998C284.38 82.2398 283.69 82.3098 282.87 82.3098C281.83 82.3098 280.96 82.1698 280.28 81.8898C279.6 81.6098 279.05 81.2098 278.64 80.7098C278.23 80.2098 277.94 79.5898 277.78 78.8798C277.62 78.1598 277.54 77.3698 277.54 76.4998V65.1698Z" fill="black"/>
<path d="M292.21 64.6396C292.21 65.3396 291.98 65.8896 291.53 66.2896C291.08 66.6896 290.54 66.8896 289.93 66.8896C289.32 66.8896 288.78 66.6896 288.33 66.2896C287.88 65.8896 287.65 65.3396 287.65 64.6396C287.65 63.9396 287.88 63.3897 288.33 62.9897C288.78 62.5897 289.32 62.3896 289.93 62.3896C290.54 62.3896 291.08 62.5897 291.53 62.9897C291.98 63.3897 292.21 63.9396 292.21 64.6396ZM291.85 82.0197H288.03V68.5297H291.85V82.0197Z" fill="black"/>
<path d="M293.77 75.2799C293.77 74.3099 293.93 73.3899 294.24 72.5199C294.55 71.6499 295.01 70.8999 295.61 70.2599C296.21 69.6199 296.93 69.1099 297.79 68.7299C298.64 68.3499 299.62 68.1699 300.71 68.1699C301.43 68.1699 302.09 68.2299 302.68 68.3599C303.28 68.4899 303.86 68.6699 304.42 68.9099L303.63 71.9599C303.27 71.8199 302.88 71.6999 302.45 71.5999C302.02 71.4999 301.54 71.4499 301.01 71.4499C299.88 71.4499 299.04 71.7999 298.48 72.4999C297.92 73.1999 297.65 74.1199 297.65 75.2699C297.65 76.4799 297.91 77.4199 298.43 78.0899C298.95 78.7599 299.86 79.0899 301.16 79.0899C301.62 79.0899 302.12 79.0499 302.65 78.9599C303.18 78.8699 303.67 78.7399 304.11 78.5499L304.65 81.6799C304.2 81.8699 303.65 82.0299 302.98 82.1699C302.31 82.3099 301.58 82.3799 300.77 82.3799C299.54 82.3799 298.48 82.1999 297.59 81.8299C296.7 81.4599 295.97 80.9599 295.4 80.3299C294.83 79.6999 294.41 78.9499 294.14 78.0899C293.87 77.2299 293.74 76.2899 293.74 75.2799H293.77Z" fill="black"/>
<path d="M310.41 68.1696C311.54 68.1696 312.48 68.2997 313.23 68.5497C313.98 68.8097 314.58 69.1697 315.04 69.6497C315.49 70.1297 315.81 70.7096 316 71.3896C316.19 72.0696 316.28 72.8296 316.28 73.6696V81.6197C315.73 81.7397 314.97 81.8796 314 82.0396C313.03 82.1996 311.85 82.2797 310.46 82.2797C309.59 82.2797 308.8 82.1997 308.09 82.0497C307.38 81.8997 306.77 81.6396 306.26 81.2896C305.75 80.9396 305.35 80.4796 305.08 79.9196C304.81 79.3596 304.67 78.6597 304.67 77.8397C304.67 77.0197 304.83 76.3897 305.14 75.8397C305.46 75.2897 305.88 74.8597 306.41 74.5297C306.94 74.2097 307.55 73.9696 308.23 73.8196C308.91 73.6696 309.62 73.5996 310.36 73.5996C310.86 73.5996 311.3 73.6196 311.68 73.6596C312.06 73.6996 312.38 73.7597 312.62 73.8297V73.4696C312.62 72.8196 312.42 72.2996 312.03 71.9096C311.64 71.5196 310.95 71.3196 309.98 71.3196C309.33 71.3196 308.69 71.3697 308.06 71.4597C307.43 71.5497 306.88 71.6896 306.42 71.8596L305.93 68.7797C306.15 68.7097 306.43 68.6397 306.76 68.5597C307.09 68.4797 307.46 68.4096 307.85 68.3496C308.24 68.2896 308.66 68.2396 309.09 68.1996C309.53 68.1596 309.97 68.1396 310.41 68.1396V68.1696ZM310.72 79.3496C311.1 79.3496 311.45 79.3496 311.8 79.3196C312.14 79.2996 312.42 79.2797 312.62 79.2397V76.3397C312.47 76.3097 312.24 76.2697 311.93 76.2397C311.62 76.2097 311.34 76.1896 311.08 76.1896C310.72 76.1896 310.38 76.2097 310.07 76.2497C309.76 76.2897 309.48 76.3697 309.24 76.4897C309 76.6097 308.81 76.7696 308.68 76.9796C308.55 77.1896 308.47 77.4397 308.47 77.7497C308.47 78.3497 308.67 78.7597 309.07 78.9897C309.47 79.2197 310.02 79.3397 310.72 79.3397V79.3496Z" fill="black"/>
</svg>
