<svg width="192" height="187" viewBox="0 0 192 187" fill="none" xmlns="http://www.w3.org/2000/svg">
<path d="M41.2299 14.8701L69.97 14.8701V9.28012L41.2299 9.28012V14.8701Z" fill="#0E2D47"/>
<path d="M41.2299 170.25H69.97V164.66H41.2299V170.25Z" fill="#001A18"/>
<path d="M176.9 0H103.73V186.82H176.9V0Z" fill="#C3DBDD"/>
<path d="M156.55 186.82H191.88L191.88 0.000274658H156.55L156.55 186.82Z" fill="#384C4B"/>
<path d="M79.89 186.82H103.73L103.73 0.000274658H79.89L79.89 186.82Z" fill="#384C4B"/>
<path d="M63.5901 186.82H79.8901L79.8901 0.000274658H63.5901L63.5901 186.82Z" fill="#384C4B"/>
<path d="M57.48 0H0V186.82H57.48V0Z" fill="#C3DBDD"/>
<path d="M175.28 51.73L184.36 74.52C184.77 75.55 184.2 76.77 183.31 76.77H165.15C164.26 76.77 163.69 75.54 164.1 74.52L173.18 51.73C173.62 50.62 174.85 50.62 175.29 51.73H175.28Z" fill="url(#paint0_linear_695_5348)"/>
<path d="M171.3 63.2199H175.64L173.49 55.8999L174.46 55.4199L177.14 64.5699H172.73L174.51 71.6899L175.34 70.7499L175.01 75.8699L172.42 71.9899L173.52 72.1099L171.3 63.2199Z" fill="#001A18"/>
<path d="M156.56 0H154.43V186.82H156.56V0Z" fill="#001A18"/>
<path d="M155.69 16.0195H157.42V10.4295H155.69V16.0195Z" fill="#0E2D47"/>
<path d="M155.69 170.25H157.42V164.66H155.69V170.25Z" fill="#001A18"/>
<path d="M103.72 186.841H154.22V74.9008H103.72L103.72 186.841Z" fill="#6A6A6A"/>
<path d="M110.31 180.62H147.64V80.5501H110.31L110.31 180.62Z" fill="#191919"/>
<path d="M147.64 172.7H110.31V180.67H147.64V172.7Z" fill="#565656"/>
<path d="M144.56 84.5908H113.4C112.483 84.5908 111.74 85.334 111.74 86.2508V86.6308C111.74 87.5476 112.483 88.2908 113.4 88.2908H144.56C145.477 88.2908 146.22 87.5476 146.22 86.6308V86.2508C146.22 85.334 145.477 84.5908 144.56 84.5908Z" fill="#778FA5"/>
<path d="M122.68 85.4307H113.11V87.4607H122.68V85.4307Z" fill="#191919"/>
<path d="M117.76 85.9609H113.63V86.9709H117.76V85.9609Z" fill="url(#paint1_linear_695_5348)"/>
<path d="M130.8 85.4404C130.8 85.6004 130.67 85.7304 130.51 85.7304C130.35 85.7304 130.22 85.6004 130.22 85.4404C130.22 85.2804 130.35 85.1504 130.51 85.1504C130.67 85.1504 130.8 85.2804 130.8 85.4404Z" fill="#565656"/>
<path d="M132.08 85.4404C132.08 85.6004 131.95 85.7304 131.79 85.7304C131.63 85.7304 131.5 85.6004 131.5 85.4404C131.5 85.2804 131.63 85.1504 131.79 85.1504C131.95 85.1504 132.08 85.2804 132.08 85.4404Z" fill="#565656"/>
<path d="M133.37 85.4404C133.37 85.6004 133.24 85.7304 133.08 85.7304C132.92 85.7304 132.79 85.6004 132.79 85.4404C132.79 85.2804 132.92 85.1504 133.08 85.1504C133.24 85.1504 133.37 85.2804 133.37 85.4404Z" fill="#565656"/>
<path d="M134.65 85.4404C134.65 85.6004 134.52 85.7304 134.36 85.7304C134.2 85.7304 134.07 85.6004 134.07 85.4404C134.07 85.2804 134.2 85.1504 134.36 85.1504C134.52 85.1504 134.65 85.2804 134.65 85.4404Z" fill="#565656"/>
<path d="M135.93 85.4404C135.93 85.6004 135.8 85.7304 135.64 85.7304C135.48 85.7304 135.35 85.6004 135.35 85.4404C135.35 85.2804 135.48 85.1504 135.64 85.1504C135.8 85.1504 135.93 85.2804 135.93 85.4404Z" fill="#565656"/>
<path d="M137.22 85.4404C137.22 85.6004 137.09 85.7304 136.93 85.7304C136.77 85.7304 136.64 85.6004 136.64 85.4404C136.64 85.2804 136.77 85.1504 136.93 85.1504C137.09 85.1504 137.22 85.2804 137.22 85.4404Z" fill="#565656"/>
<path d="M138.5 85.4404C138.5 85.6004 138.37 85.7304 138.21 85.7304C138.05 85.7304 137.92 85.6004 137.92 85.4404C137.92 85.2804 138.05 85.1504 138.21 85.1504C138.37 85.1504 138.5 85.2804 138.5 85.4404Z" fill="#565656"/>
<path d="M139.78 85.4404C139.78 85.6004 139.65 85.7304 139.49 85.7304C139.33 85.7304 139.2 85.6004 139.2 85.4404C139.2 85.2804 139.33 85.1504 139.49 85.1504C139.65 85.1504 139.78 85.2804 139.78 85.4404Z" fill="#565656"/>
<path d="M141.07 85.4404C141.07 85.6004 140.94 85.7304 140.78 85.7304C140.62 85.7304 140.49 85.6004 140.49 85.4404C140.49 85.2804 140.62 85.1504 140.78 85.1504C140.94 85.1504 141.07 85.2804 141.07 85.4404Z" fill="#565656"/>
<path d="M142.35 85.4404C142.35 85.6004 142.22 85.7304 142.06 85.7304C141.9 85.7304 141.77 85.6004 141.77 85.4404C141.77 85.2804 141.9 85.1504 142.06 85.1504C142.22 85.1504 142.35 85.2804 142.35 85.4404Z" fill="#565656"/>
<path d="M130.8 86.5009C130.8 86.6609 130.67 86.7909 130.51 86.7909C130.35 86.7909 130.22 86.6609 130.22 86.5009C130.22 86.3409 130.35 86.2109 130.51 86.2109C130.67 86.2109 130.8 86.3409 130.8 86.5009Z" fill="#565656"/>
<path d="M132.08 86.5009C132.08 86.6609 131.95 86.7909 131.79 86.7909C131.63 86.7909 131.5 86.6609 131.5 86.5009C131.5 86.3409 131.63 86.2109 131.79 86.2109C131.95 86.2109 132.08 86.3409 132.08 86.5009Z" fill="#565656"/>
<path d="M133.37 86.5009C133.37 86.6609 133.24 86.7909 133.08 86.7909C132.92 86.7909 132.79 86.6609 132.79 86.5009C132.79 86.3409 132.92 86.2109 133.08 86.2109C133.24 86.2109 133.37 86.3409 133.37 86.5009Z" fill="#565656"/>
<path d="M134.65 86.5009C134.65 86.6609 134.52 86.7909 134.36 86.7909C134.2 86.7909 134.07 86.6609 134.07 86.5009C134.07 86.3409 134.2 86.2109 134.36 86.2109C134.52 86.2109 134.65 86.3409 134.65 86.5009Z" fill="#565656"/>
<path d="M135.93 86.5009C135.93 86.6609 135.8 86.7909 135.64 86.7909C135.48 86.7909 135.35 86.6609 135.35 86.5009C135.35 86.3409 135.48 86.2109 135.64 86.2109C135.8 86.2109 135.93 86.3409 135.93 86.5009Z" fill="#565656"/>
<path d="M137.22 86.5009C137.22 86.6609 137.09 86.7909 136.93 86.7909C136.77 86.7909 136.64 86.6609 136.64 86.5009C136.64 86.3409 136.77 86.2109 136.93 86.2109C137.09 86.2109 137.22 86.3409 137.22 86.5009Z" fill="#565656"/>
<path d="M138.5 86.5009C138.5 86.6609 138.37 86.7909 138.21 86.7909C138.05 86.7909 137.92 86.6609 137.92 86.5009C137.92 86.3409 138.05 86.2109 138.21 86.2109C138.37 86.2109 138.5 86.3409 138.5 86.5009Z" fill="#565656"/>
<path d="M139.78 86.5009C139.78 86.6609 139.65 86.7909 139.49 86.7909C139.33 86.7909 139.2 86.6609 139.2 86.5009C139.2 86.3409 139.33 86.2109 139.49 86.2109C139.65 86.2109 139.78 86.3409 139.78 86.5009Z" fill="#565656"/>
<path d="M141.07 86.5009C141.07 86.6609 140.94 86.7909 140.78 86.7909C140.62 86.7909 140.49 86.6609 140.49 86.5009C140.49 86.3409 140.62 86.2109 140.78 86.2109C140.94 86.2109 141.07 86.3409 141.07 86.5009Z" fill="#565656"/>
<path d="M142.35 86.5009C142.35 86.6609 142.22 86.7909 142.06 86.7909C141.9 86.7909 141.77 86.6609 141.77 86.5009C141.77 86.3409 141.9 86.2109 142.06 86.2109C142.22 86.2109 142.35 86.3409 142.35 86.5009Z" fill="#565656"/>
<path d="M130.8 87.5605C130.8 87.7205 130.67 87.8505 130.51 87.8505C130.35 87.8505 130.22 87.7205 130.22 87.5605C130.22 87.4005 130.35 87.2705 130.51 87.2705C130.67 87.2705 130.8 87.4005 130.8 87.5605Z" fill="#565656"/>
<path d="M132.08 87.5605C132.08 87.7205 131.95 87.8505 131.79 87.8505C131.63 87.8505 131.5 87.7205 131.5 87.5605C131.5 87.4005 131.63 87.2705 131.79 87.2705C131.95 87.2705 132.08 87.4005 132.08 87.5605Z" fill="#565656"/>
<path d="M133.37 87.5605C133.37 87.7205 133.24 87.8505 133.08 87.8505C132.92 87.8505 132.79 87.7205 132.79 87.5605C132.79 87.4005 132.92 87.2705 133.08 87.2705C133.24 87.2705 133.37 87.4005 133.37 87.5605Z" fill="#565656"/>
<path d="M134.65 87.5605C134.65 87.7205 134.52 87.8505 134.36 87.8505C134.2 87.8505 134.07 87.7205 134.07 87.5605C134.07 87.4005 134.2 87.2705 134.36 87.2705C134.52 87.2705 134.65 87.4005 134.65 87.5605Z" fill="#565656"/>
<path d="M135.93 87.5605C135.93 87.7205 135.8 87.8505 135.64 87.8505C135.48 87.8505 135.35 87.7205 135.35 87.5605C135.35 87.4005 135.48 87.2705 135.64 87.2705C135.8 87.2705 135.93 87.4005 135.93 87.5605Z" fill="#565656"/>
<path d="M137.22 87.5605C137.22 87.7205 137.09 87.8505 136.93 87.8505C136.77 87.8505 136.64 87.7205 136.64 87.5605C136.64 87.4005 136.77 87.2705 136.93 87.2705C137.09 87.2705 137.22 87.4005 137.22 87.5605Z" fill="#565656"/>
<path d="M138.5 87.5605C138.5 87.7205 138.37 87.8505 138.21 87.8505C138.05 87.8505 137.92 87.7205 137.92 87.5605C137.92 87.4005 138.05 87.2705 138.21 87.2705C138.37 87.2705 138.5 87.4005 138.5 87.5605Z" fill="#565656"/>
<path d="M139.78 87.5605C139.78 87.7205 139.65 87.8505 139.49 87.8505C139.33 87.8505 139.2 87.7205 139.2 87.5605C139.2 87.4005 139.33 87.2705 139.49 87.2705C139.65 87.2705 139.78 87.4005 139.78 87.5605Z" fill="#565656"/>
<path d="M141.07 87.5605C141.07 87.7205 140.94 87.8505 140.78 87.8505C140.62 87.8505 140.49 87.7205 140.49 87.5605C140.49 87.4005 140.62 87.2705 140.78 87.2705C140.94 87.2705 141.07 87.4005 141.07 87.5605Z" fill="#565656"/>
<path d="M142.35 87.5605C142.35 87.7205 142.22 87.8505 142.06 87.8505C141.9 87.8505 141.77 87.7205 141.77 87.5605C141.77 87.4005 141.9 87.2705 142.06 87.2705C142.22 87.2705 142.35 87.4005 142.35 87.5605Z" fill="#565656"/>
<path d="M144.56 89.1104H113.4C112.483 89.1104 111.74 89.8536 111.74 90.7704V91.1504C111.74 92.0672 112.483 92.8104 113.4 92.8104H144.56C145.477 92.8104 146.22 92.0672 146.22 91.1504V90.7704C146.22 89.8536 145.477 89.1104 144.56 89.1104Z" fill="#778FA5"/>
<path d="M122.75 89.9502H113.11V91.9802H122.75V89.9502Z" fill="#191919"/>
<path d="M117.67 90.4805H113.63V91.4905H117.67V90.4805Z" fill="url(#paint2_linear_695_5348)"/>
<path d="M130.8 89.9502C130.8 90.1102 130.67 90.2402 130.51 90.2402C130.35 90.2402 130.22 90.1102 130.22 89.9502C130.22 89.7902 130.35 89.6602 130.51 89.6602C130.67 89.6602 130.8 89.7902 130.8 89.9502Z" fill="#565656"/>
<path d="M132.08 89.9502C132.08 90.1102 131.95 90.2402 131.79 90.2402C131.63 90.2402 131.5 90.1102 131.5 89.9502C131.5 89.7902 131.63 89.6602 131.79 89.6602C131.95 89.6602 132.08 89.7902 132.08 89.9502Z" fill="#565656"/>
<path d="M133.37 89.9502C133.37 90.1102 133.24 90.2402 133.08 90.2402C132.92 90.2402 132.79 90.1102 132.79 89.9502C132.79 89.7902 132.92 89.6602 133.08 89.6602C133.24 89.6602 133.37 89.7902 133.37 89.9502Z" fill="#565656"/>
<path d="M134.65 89.9502C134.65 90.1102 134.52 90.2402 134.36 90.2402C134.2 90.2402 134.07 90.1102 134.07 89.9502C134.07 89.7902 134.2 89.6602 134.36 89.6602C134.52 89.6602 134.65 89.7902 134.65 89.9502Z" fill="#565656"/>
<path d="M135.93 89.9502C135.93 90.1102 135.8 90.2402 135.64 90.2402C135.48 90.2402 135.35 90.1102 135.35 89.9502C135.35 89.7902 135.48 89.6602 135.64 89.6602C135.8 89.6602 135.93 89.7902 135.93 89.9502Z" fill="#565656"/>
<path d="M137.22 89.9502C137.22 90.1102 137.09 90.2402 136.93 90.2402C136.77 90.2402 136.64 90.1102 136.64 89.9502C136.64 89.7902 136.77 89.6602 136.93 89.6602C137.09 89.6602 137.22 89.7902 137.22 89.9502Z" fill="#565656"/>
<path d="M138.5 89.9502C138.5 90.1102 138.37 90.2402 138.21 90.2402C138.05 90.2402 137.92 90.1102 137.92 89.9502C137.92 89.7902 138.05 89.6602 138.21 89.6602C138.37 89.6602 138.5 89.7902 138.5 89.9502Z" fill="#565656"/>
<path d="M139.78 89.9502C139.78 90.1102 139.65 90.2402 139.49 90.2402C139.33 90.2402 139.2 90.1102 139.2 89.9502C139.2 89.7902 139.33 89.6602 139.49 89.6602C139.65 89.6602 139.78 89.7902 139.78 89.9502Z" fill="#565656"/>
<path d="M141.07 89.9502C141.07 90.1102 140.94 90.2402 140.78 90.2402C140.62 90.2402 140.49 90.1102 140.49 89.9502C140.49 89.7902 140.62 89.6602 140.78 89.6602C140.94 89.6602 141.07 89.7902 141.07 89.9502Z" fill="#565656"/>
<path d="M142.35 89.9502C142.35 90.1102 142.22 90.2402 142.06 90.2402C141.9 90.2402 141.77 90.1102 141.77 89.9502C141.77 89.7902 141.9 89.6602 142.06 89.6602C142.22 89.6602 142.35 89.7902 142.35 89.9502Z" fill="#565656"/>
<path d="M130.8 91.0205C130.8 91.1805 130.67 91.3105 130.51 91.3105C130.35 91.3105 130.22 91.1805 130.22 91.0205C130.22 90.8605 130.35 90.7305 130.51 90.7305C130.67 90.7305 130.8 90.8605 130.8 91.0205Z" fill="#565656"/>
<path d="M132.08 91.0205C132.08 91.1805 131.95 91.3105 131.79 91.3105C131.63 91.3105 131.5 91.1805 131.5 91.0205C131.5 90.8605 131.63 90.7305 131.79 90.7305C131.95 90.7305 132.08 90.8605 132.08 91.0205Z" fill="#565656"/>
<path d="M133.37 91.0205C133.37 91.1805 133.24 91.3105 133.08 91.3105C132.92 91.3105 132.79 91.1805 132.79 91.0205C132.79 90.8605 132.92 90.7305 133.08 90.7305C133.24 90.7305 133.37 90.8605 133.37 91.0205Z" fill="#565656"/>
<path d="M134.65 91.0205C134.65 91.1805 134.52 91.3105 134.36 91.3105C134.2 91.3105 134.07 91.1805 134.07 91.0205C134.07 90.8605 134.2 90.7305 134.36 90.7305C134.52 90.7305 134.65 90.8605 134.65 91.0205Z" fill="#565656"/>
<path d="M135.93 91.0205C135.93 91.1805 135.8 91.3105 135.64 91.3105C135.48 91.3105 135.35 91.1805 135.35 91.0205C135.35 90.8605 135.48 90.7305 135.64 90.7305C135.8 90.7305 135.93 90.8605 135.93 91.0205Z" fill="#565656"/>
<path d="M137.22 91.0205C137.22 91.1805 137.09 91.3105 136.93 91.3105C136.77 91.3105 136.64 91.1805 136.64 91.0205C136.64 90.8605 136.77 90.7305 136.93 90.7305C137.09 90.7305 137.22 90.8605 137.22 91.0205Z" fill="#565656"/>
<path d="M138.5 91.0205C138.5 91.1805 138.37 91.3105 138.21 91.3105C138.05 91.3105 137.92 91.1805 137.92 91.0205C137.92 90.8605 138.05 90.7305 138.21 90.7305C138.37 90.7305 138.5 90.8605 138.5 91.0205Z" fill="#565656"/>
<path d="M139.78 91.0205C139.78 91.1805 139.65 91.3105 139.49 91.3105C139.33 91.3105 139.2 91.1805 139.2 91.0205C139.2 90.8605 139.33 90.7305 139.49 90.7305C139.65 90.7305 139.78 90.8605 139.78 91.0205Z" fill="#565656"/>
<path d="M141.07 91.0205C141.07 91.1805 140.94 91.3105 140.78 91.3105C140.62 91.3105 140.49 91.1805 140.49 91.0205C140.49 90.8605 140.62 90.7305 140.78 90.7305C140.94 90.7305 141.07 90.8605 141.07 91.0205Z" fill="#565656"/>
<path d="M142.35 91.0205C142.35 91.1805 142.22 91.3105 142.06 91.3105C141.9 91.3105 141.77 91.1805 141.77 91.0205C141.77 90.8605 141.9 90.7305 142.06 90.7305C142.22 90.7305 142.35 90.8605 142.35 91.0205Z" fill="#565656"/>
<path d="M130.8 92.08C130.8 92.24 130.67 92.3701 130.51 92.3701C130.35 92.3701 130.22 92.24 130.22 92.08C130.22 91.92 130.35 91.79 130.51 91.79C130.67 91.79 130.8 91.92 130.8 92.08Z" fill="#565656"/>
<path d="M132.08 92.08C132.08 92.24 131.95 92.3701 131.79 92.3701C131.63 92.3701 131.5 92.24 131.5 92.08C131.5 91.92 131.63 91.79 131.79 91.79C131.95 91.79 132.08 91.92 132.08 92.08Z" fill="#565656"/>
<path d="M133.37 92.08C133.37 92.24 133.24 92.3701 133.08 92.3701C132.92 92.3701 132.79 92.24 132.79 92.08C132.79 91.92 132.92 91.79 133.08 91.79C133.24 91.79 133.37 91.92 133.37 92.08Z" fill="#565656"/>
<path d="M134.65 92.08C134.65 92.24 134.52 92.3701 134.36 92.3701C134.2 92.3701 134.07 92.24 134.07 92.08C134.07 91.92 134.2 91.79 134.36 91.79C134.52 91.79 134.65 91.92 134.65 92.08Z" fill="#565656"/>
<path d="M135.93 92.08C135.93 92.24 135.8 92.3701 135.64 92.3701C135.48 92.3701 135.35 92.24 135.35 92.08C135.35 91.92 135.48 91.79 135.64 91.79C135.8 91.79 135.93 91.92 135.93 92.08Z" fill="#565656"/>
<path d="M137.22 92.08C137.22 92.24 137.09 92.3701 136.93 92.3701C136.77 92.3701 136.64 92.24 136.64 92.08C136.64 91.92 136.77 91.79 136.93 91.79C137.09 91.79 137.22 91.92 137.22 92.08Z" fill="#565656"/>
<path d="M138.5 92.08C138.5 92.24 138.37 92.3701 138.21 92.3701C138.05 92.3701 137.92 92.24 137.92 92.08C137.92 91.92 138.05 91.79 138.21 91.79C138.37 91.79 138.5 91.92 138.5 92.08Z" fill="#565656"/>
<path d="M139.78 92.08C139.78 92.24 139.65 92.3701 139.49 92.3701C139.33 92.3701 139.2 92.24 139.2 92.08C139.2 91.92 139.33 91.79 139.49 91.79C139.65 91.79 139.78 91.92 139.78 92.08Z" fill="#565656"/>
<path d="M141.07 92.08C141.07 92.24 140.94 92.3701 140.78 92.3701C140.62 92.3701 140.49 92.24 140.49 92.08C140.49 91.92 140.62 91.79 140.78 91.79C140.94 91.79 141.07 91.92 141.07 92.08Z" fill="#565656"/>
<path d="M142.35 92.08C142.35 92.24 142.22 92.3701 142.06 92.3701C141.9 92.3701 141.77 92.24 141.77 92.08C141.77 91.92 141.9 91.79 142.06 91.79C142.22 91.79 142.35 91.92 142.35 92.08Z" fill="#565656"/>
<path d="M144.56 97.4609H113.4C112.483 97.4609 111.74 98.2041 111.74 99.1209V99.5009C111.74 100.418 112.483 101.161 113.4 101.161H144.56C145.477 101.161 146.22 100.418 146.22 99.5009V99.1209C146.22 98.2041 145.477 97.4609 144.56 97.4609Z" fill="#778FA5"/>
<path d="M122.68 98.291H113.11V100.321H122.68V98.291Z" fill="#191919"/>
<path d="M117.76 98.8213H113.63V99.8313H117.76V98.8213Z" fill="url(#paint3_linear_695_5348)"/>
<path d="M130.8 98.3008C130.8 98.4608 130.67 98.5908 130.51 98.5908C130.35 98.5908 130.22 98.4608 130.22 98.3008C130.22 98.1408 130.35 98.0107 130.51 98.0107C130.67 98.0107 130.8 98.1408 130.8 98.3008Z" fill="#565656"/>
<path d="M132.08 98.3008C132.08 98.4608 131.95 98.5908 131.79 98.5908C131.63 98.5908 131.5 98.4608 131.5 98.3008C131.5 98.1408 131.63 98.0107 131.79 98.0107C131.95 98.0107 132.08 98.1408 132.08 98.3008Z" fill="#565656"/>
<path d="M133.37 98.3008C133.37 98.4608 133.24 98.5908 133.08 98.5908C132.92 98.5908 132.79 98.4608 132.79 98.3008C132.79 98.1408 132.92 98.0107 133.08 98.0107C133.24 98.0107 133.37 98.1408 133.37 98.3008Z" fill="#565656"/>
<path d="M134.65 98.3008C134.65 98.4608 134.52 98.5908 134.36 98.5908C134.2 98.5908 134.07 98.4608 134.07 98.3008C134.07 98.1408 134.2 98.0107 134.36 98.0107C134.52 98.0107 134.65 98.1408 134.65 98.3008Z" fill="#565656"/>
<path d="M135.93 98.3008C135.93 98.4608 135.8 98.5908 135.64 98.5908C135.48 98.5908 135.35 98.4608 135.35 98.3008C135.35 98.1408 135.48 98.0107 135.64 98.0107C135.8 98.0107 135.93 98.1408 135.93 98.3008Z" fill="#565656"/>
<path d="M137.22 98.3008C137.22 98.4608 137.09 98.5908 136.93 98.5908C136.77 98.5908 136.64 98.4608 136.64 98.3008C136.64 98.1408 136.77 98.0107 136.93 98.0107C137.09 98.0107 137.22 98.1408 137.22 98.3008Z" fill="#565656"/>
<path d="M138.5 98.3008C138.5 98.4608 138.37 98.5908 138.21 98.5908C138.05 98.5908 137.92 98.4608 137.92 98.3008C137.92 98.1408 138.05 98.0107 138.21 98.0107C138.37 98.0107 138.5 98.1408 138.5 98.3008Z" fill="#565656"/>
<path d="M139.78 98.3008C139.78 98.4608 139.65 98.5908 139.49 98.5908C139.33 98.5908 139.2 98.4608 139.2 98.3008C139.2 98.1408 139.33 98.0107 139.49 98.0107C139.65 98.0107 139.78 98.1408 139.78 98.3008Z" fill="#565656"/>
<path d="M141.07 98.3008C141.07 98.4608 140.94 98.5908 140.78 98.5908C140.62 98.5908 140.49 98.4608 140.49 98.3008C140.49 98.1408 140.62 98.0107 140.78 98.0107C140.94 98.0107 141.07 98.1408 141.07 98.3008Z" fill="#565656"/>
<path d="M142.35 98.3008C142.35 98.4608 142.22 98.5908 142.06 98.5908C141.9 98.5908 141.77 98.4608 141.77 98.3008C141.77 98.1408 141.9 98.0107 142.06 98.0107C142.22 98.0107 142.35 98.1408 142.35 98.3008Z" fill="#565656"/>
<path d="M130.8 99.3613C130.8 99.5213 130.67 99.6513 130.51 99.6513C130.35 99.6513 130.22 99.5213 130.22 99.3613C130.22 99.2013 130.35 99.0713 130.51 99.0713C130.67 99.0713 130.8 99.2013 130.8 99.3613Z" fill="#565656"/>
<path d="M132.08 99.3613C132.08 99.5213 131.95 99.6513 131.79 99.6513C131.63 99.6513 131.5 99.5213 131.5 99.3613C131.5 99.2013 131.63 99.0713 131.79 99.0713C131.95 99.0713 132.08 99.2013 132.08 99.3613Z" fill="#565656"/>
<path d="M133.37 99.3613C133.37 99.5213 133.24 99.6513 133.08 99.6513C132.92 99.6513 132.79 99.5213 132.79 99.3613C132.79 99.2013 132.92 99.0713 133.08 99.0713C133.24 99.0713 133.37 99.2013 133.37 99.3613Z" fill="#565656"/>
<path d="M134.65 99.3613C134.65 99.5213 134.52 99.6513 134.36 99.6513C134.2 99.6513 134.07 99.5213 134.07 99.3613C134.07 99.2013 134.2 99.0713 134.36 99.0713C134.52 99.0713 134.65 99.2013 134.65 99.3613Z" fill="#565656"/>
<path d="M135.93 99.3613C135.93 99.5213 135.8 99.6513 135.64 99.6513C135.48 99.6513 135.35 99.5213 135.35 99.3613C135.35 99.2013 135.48 99.0713 135.64 99.0713C135.8 99.0713 135.93 99.2013 135.93 99.3613Z" fill="#565656"/>
<path d="M137.22 99.3613C137.22 99.5213 137.09 99.6513 136.93 99.6513C136.77 99.6513 136.64 99.5213 136.64 99.3613C136.64 99.2013 136.77 99.0713 136.93 99.0713C137.09 99.0713 137.22 99.2013 137.22 99.3613Z" fill="#565656"/>
<path d="M138.5 99.3613C138.5 99.5213 138.37 99.6513 138.21 99.6513C138.05 99.6513 137.92 99.5213 137.92 99.3613C137.92 99.2013 138.05 99.0713 138.21 99.0713C138.37 99.0713 138.5 99.2013 138.5 99.3613Z" fill="#565656"/>
<path d="M139.78 99.3613C139.78 99.5213 139.65 99.6513 139.49 99.6513C139.33 99.6513 139.2 99.5213 139.2 99.3613C139.2 99.2013 139.33 99.0713 139.49 99.0713C139.65 99.0713 139.78 99.2013 139.78 99.3613Z" fill="#565656"/>
<path d="M141.07 99.3613C141.07 99.5213 140.94 99.6513 140.78 99.6513C140.62 99.6513 140.49 99.5213 140.49 99.3613C140.49 99.2013 140.62 99.0713 140.78 99.0713C140.94 99.0713 141.07 99.2013 141.07 99.3613Z" fill="#565656"/>
<path d="M142.35 99.3613C142.35 99.5213 142.22 99.6513 142.06 99.6513C141.9 99.6513 141.77 99.5213 141.77 99.3613C141.77 99.2013 141.9 99.0713 142.06 99.0713C142.22 99.0713 142.35 99.2013 142.35 99.3613Z" fill="#565656"/>
<path d="M130.8 100.421C130.8 100.581 130.67 100.711 130.51 100.711C130.35 100.711 130.22 100.581 130.22 100.421C130.22 100.261 130.35 100.131 130.51 100.131C130.67 100.131 130.8 100.261 130.8 100.421Z" fill="#565656"/>
<path d="M132.08 100.421C132.08 100.581 131.95 100.711 131.79 100.711C131.63 100.711 131.5 100.581 131.5 100.421C131.5 100.261 131.63 100.131 131.79 100.131C131.95 100.131 132.08 100.261 132.08 100.421Z" fill="#565656"/>
<path d="M133.37 100.421C133.37 100.581 133.24 100.711 133.08 100.711C132.92 100.711 132.79 100.581 132.79 100.421C132.79 100.261 132.92 100.131 133.08 100.131C133.24 100.131 133.37 100.261 133.37 100.421Z" fill="#565656"/>
<path d="M134.65 100.421C134.65 100.581 134.52 100.711 134.36 100.711C134.2 100.711 134.07 100.581 134.07 100.421C134.07 100.261 134.2 100.131 134.36 100.131C134.52 100.131 134.65 100.261 134.65 100.421Z" fill="#565656"/>
<path d="M135.93 100.421C135.93 100.581 135.8 100.711 135.64 100.711C135.48 100.711 135.35 100.581 135.35 100.421C135.35 100.261 135.48 100.131 135.64 100.131C135.8 100.131 135.93 100.261 135.93 100.421Z" fill="#565656"/>
<path d="M137.22 100.421C137.22 100.581 137.09 100.711 136.93 100.711C136.77 100.711 136.64 100.581 136.64 100.421C136.64 100.261 136.77 100.131 136.93 100.131C137.09 100.131 137.22 100.261 137.22 100.421Z" fill="#565656"/>
<path d="M138.5 100.421C138.5 100.581 138.37 100.711 138.21 100.711C138.05 100.711 137.92 100.581 137.92 100.421C137.92 100.261 138.05 100.131 138.21 100.131C138.37 100.131 138.5 100.261 138.5 100.421Z" fill="#565656"/>
<path d="M139.78 100.421C139.78 100.581 139.65 100.711 139.49 100.711C139.33 100.711 139.2 100.581 139.2 100.421C139.2 100.261 139.33 100.131 139.49 100.131C139.65 100.131 139.78 100.261 139.78 100.421Z" fill="#565656"/>
<path d="M141.07 100.421C141.07 100.581 140.94 100.711 140.78 100.711C140.62 100.711 140.49 100.581 140.49 100.421C140.49 100.261 140.62 100.131 140.78 100.131C140.94 100.131 141.07 100.261 141.07 100.421Z" fill="#565656"/>
<path d="M142.35 100.421C142.35 100.581 142.22 100.711 142.06 100.711C141.9 100.711 141.77 100.581 141.77 100.421C141.77 100.261 141.9 100.131 142.06 100.131C142.22 100.131 142.35 100.261 142.35 100.421Z" fill="#565656"/>
<path d="M144.56 101.971H113.4C112.483 101.971 111.74 102.714 111.74 103.631V104.011C111.74 104.928 112.483 105.671 113.4 105.671H144.56C145.477 105.671 146.22 104.928 146.22 104.011V103.631C146.22 102.714 145.477 101.971 144.56 101.971Z" fill="#778FA5"/>
<path d="M122.75 102.811H113.11V104.841H122.75V102.811Z" fill="#191919"/>
<path d="M117.67 103.341H113.63V104.351H117.67V103.341Z" fill="url(#paint4_linear_695_5348)"/>
<path d="M130.8 102.82C130.8 102.98 130.67 103.11 130.51 103.11C130.35 103.11 130.22 102.98 130.22 102.82C130.22 102.66 130.35 102.53 130.51 102.53C130.67 102.53 130.8 102.66 130.8 102.82Z" fill="#565656"/>
<path d="M132.08 102.82C132.08 102.98 131.95 103.11 131.79 103.11C131.63 103.11 131.5 102.98 131.5 102.82C131.5 102.66 131.63 102.53 131.79 102.53C131.95 102.53 132.08 102.66 132.08 102.82Z" fill="#565656"/>
<path d="M133.37 102.82C133.37 102.98 133.24 103.11 133.08 103.11C132.92 103.11 132.79 102.98 132.79 102.82C132.79 102.66 132.92 102.53 133.08 102.53C133.24 102.53 133.37 102.66 133.37 102.82Z" fill="#565656"/>
<path d="M134.65 102.82C134.65 102.98 134.52 103.11 134.36 103.11C134.2 103.11 134.07 102.98 134.07 102.82C134.07 102.66 134.2 102.53 134.36 102.53C134.52 102.53 134.65 102.66 134.65 102.82Z" fill="#565656"/>
<path d="M135.93 102.82C135.93 102.98 135.8 103.11 135.64 103.11C135.48 103.11 135.35 102.98 135.35 102.82C135.35 102.66 135.48 102.53 135.64 102.53C135.8 102.53 135.93 102.66 135.93 102.82Z" fill="#565656"/>
<path d="M137.22 102.82C137.22 102.98 137.09 103.11 136.93 103.11C136.77 103.11 136.64 102.98 136.64 102.82C136.64 102.66 136.77 102.53 136.93 102.53C137.09 102.53 137.22 102.66 137.22 102.82Z" fill="#565656"/>
<path d="M138.5 102.82C138.5 102.98 138.37 103.11 138.21 103.11C138.05 103.11 137.92 102.98 137.92 102.82C137.92 102.66 138.05 102.53 138.21 102.53C138.37 102.53 138.5 102.66 138.5 102.82Z" fill="#565656"/>
<path d="M139.78 102.82C139.78 102.98 139.65 103.11 139.49 103.11C139.33 103.11 139.2 102.98 139.2 102.82C139.2 102.66 139.33 102.53 139.49 102.53C139.65 102.53 139.78 102.66 139.78 102.82Z" fill="#565656"/>
<path d="M141.07 102.82C141.07 102.98 140.94 103.11 140.78 103.11C140.62 103.11 140.49 102.98 140.49 102.82C140.49 102.66 140.62 102.53 140.78 102.53C140.94 102.53 141.07 102.66 141.07 102.82Z" fill="#565656"/>
<path d="M142.35 102.82C142.35 102.98 142.22 103.11 142.06 103.11C141.9 103.11 141.77 102.98 141.77 102.82C141.77 102.66 141.9 102.53 142.06 102.53C142.22 102.53 142.35 102.66 142.35 102.82Z" fill="#565656"/>
<path d="M130.8 103.881C130.8 104.041 130.67 104.171 130.51 104.171C130.35 104.171 130.22 104.041 130.22 103.881C130.22 103.721 130.35 103.591 130.51 103.591C130.67 103.591 130.8 103.721 130.8 103.881Z" fill="#565656"/>
<path d="M132.08 103.881C132.08 104.041 131.95 104.171 131.79 104.171C131.63 104.171 131.5 104.041 131.5 103.881C131.5 103.721 131.63 103.591 131.79 103.591C131.95 103.591 132.08 103.721 132.08 103.881Z" fill="#565656"/>
<path d="M133.37 103.881C133.37 104.041 133.24 104.171 133.08 104.171C132.92 104.171 132.79 104.041 132.79 103.881C132.79 103.721 132.92 103.591 133.08 103.591C133.24 103.591 133.37 103.721 133.37 103.881Z" fill="#565656"/>
<path d="M134.65 103.881C134.65 104.041 134.52 104.171 134.36 104.171C134.2 104.171 134.07 104.041 134.07 103.881C134.07 103.721 134.2 103.591 134.36 103.591C134.52 103.591 134.65 103.721 134.65 103.881Z" fill="#565656"/>
<path d="M135.93 103.881C135.93 104.041 135.8 104.171 135.64 104.171C135.48 104.171 135.35 104.041 135.35 103.881C135.35 103.721 135.48 103.591 135.64 103.591C135.8 103.591 135.93 103.721 135.93 103.881Z" fill="#565656"/>
<path d="M137.22 103.881C137.22 104.041 137.09 104.171 136.93 104.171C136.77 104.171 136.64 104.041 136.64 103.881C136.64 103.721 136.77 103.591 136.93 103.591C137.09 103.591 137.22 103.721 137.22 103.881Z" fill="#565656"/>
<path d="M138.5 103.881C138.5 104.041 138.37 104.171 138.21 104.171C138.05 104.171 137.92 104.041 137.92 103.881C137.92 103.721 138.05 103.591 138.21 103.591C138.37 103.591 138.5 103.721 138.5 103.881Z" fill="#565656"/>
<path d="M139.78 103.881C139.78 104.041 139.65 104.171 139.49 104.171C139.33 104.171 139.2 104.041 139.2 103.881C139.2 103.721 139.33 103.591 139.49 103.591C139.65 103.591 139.78 103.721 139.78 103.881Z" fill="#565656"/>
<path d="M141.07 103.881C141.07 104.041 140.94 104.171 140.78 104.171C140.62 104.171 140.49 104.041 140.49 103.881C140.49 103.721 140.62 103.591 140.78 103.591C140.94 103.591 141.07 103.721 141.07 103.881Z" fill="#565656"/>
<path d="M142.35 103.881C142.35 104.041 142.22 104.171 142.06 104.171C141.9 104.171 141.77 104.041 141.77 103.881C141.77 103.721 141.9 103.591 142.06 103.591C142.22 103.591 142.35 103.721 142.35 103.881Z" fill="#565656"/>
<path d="M130.8 104.94C130.8 105.1 130.67 105.23 130.51 105.23C130.35 105.23 130.22 105.1 130.22 104.94C130.22 104.78 130.35 104.65 130.51 104.65C130.67 104.65 130.8 104.78 130.8 104.94Z" fill="#565656"/>
<path d="M132.08 104.94C132.08 105.1 131.95 105.23 131.79 105.23C131.63 105.23 131.5 105.1 131.5 104.94C131.5 104.78 131.63 104.65 131.79 104.65C131.95 104.65 132.08 104.78 132.08 104.94Z" fill="#565656"/>
<path d="M133.37 104.94C133.37 105.1 133.24 105.23 133.08 105.23C132.92 105.23 132.79 105.1 132.79 104.94C132.79 104.78 132.92 104.65 133.08 104.65C133.24 104.65 133.37 104.78 133.37 104.94Z" fill="#565656"/>
<path d="M134.65 104.94C134.65 105.1 134.52 105.23 134.36 105.23C134.2 105.23 134.07 105.1 134.07 104.94C134.07 104.78 134.2 104.65 134.36 104.65C134.52 104.65 134.65 104.78 134.65 104.94Z" fill="#565656"/>
<path d="M135.93 104.94C135.93 105.1 135.8 105.23 135.64 105.23C135.48 105.23 135.35 105.1 135.35 104.94C135.35 104.78 135.48 104.65 135.64 104.65C135.8 104.65 135.93 104.78 135.93 104.94Z" fill="#565656"/>
<path d="M137.22 104.94C137.22 105.1 137.09 105.23 136.93 105.23C136.77 105.23 136.64 105.1 136.64 104.94C136.64 104.78 136.77 104.65 136.93 104.65C137.09 104.65 137.22 104.78 137.22 104.94Z" fill="#565656"/>
<path d="M138.5 104.94C138.5 105.1 138.37 105.23 138.21 105.23C138.05 105.23 137.92 105.1 137.92 104.94C137.92 104.78 138.05 104.65 138.21 104.65C138.37 104.65 138.5 104.78 138.5 104.94Z" fill="#565656"/>
<path d="M139.78 104.94C139.78 105.1 139.65 105.23 139.49 105.23C139.33 105.23 139.2 105.1 139.2 104.94C139.2 104.78 139.33 104.65 139.49 104.65C139.65 104.65 139.78 104.78 139.78 104.94Z" fill="#565656"/>
<path d="M141.07 104.94C141.07 105.1 140.94 105.23 140.78 105.23C140.62 105.23 140.49 105.1 140.49 104.94C140.49 104.78 140.62 104.65 140.78 104.65C140.94 104.65 141.07 104.78 141.07 104.94Z" fill="#565656"/>
<path d="M142.35 104.94C142.35 105.1 142.22 105.23 142.06 105.23C141.9 105.23 141.77 105.1 141.77 104.94C141.77 104.78 141.9 104.65 142.06 104.65C142.22 104.65 142.35 104.78 142.35 104.94Z" fill="#565656"/>
<path d="M144.56 111.591H113.4C112.483 111.591 111.74 112.334 111.74 113.251V113.631C111.74 114.548 112.483 115.291 113.4 115.291H144.56C145.477 115.291 146.22 114.548 146.22 113.631V113.251C146.22 112.334 145.477 111.591 144.56 111.591Z" fill="#778FA5"/>
<path d="M122.68 112.431H113.11V114.461H122.68V112.431Z" fill="#191919"/>
<path d="M117.76 112.961H113.63V113.971H117.76V112.961Z" fill="url(#paint5_linear_695_5348)"/>
<path d="M130.8 112.44C130.8 112.6 130.67 112.73 130.51 112.73C130.35 112.73 130.22 112.6 130.22 112.44C130.22 112.28 130.35 112.15 130.51 112.15C130.67 112.15 130.8 112.28 130.8 112.44Z" fill="#565656"/>
<path d="M132.08 112.44C132.08 112.6 131.95 112.73 131.79 112.73C131.63 112.73 131.5 112.6 131.5 112.44C131.5 112.28 131.63 112.15 131.79 112.15C131.95 112.15 132.08 112.28 132.08 112.44Z" fill="#565656"/>
<path d="M133.37 112.44C133.37 112.6 133.24 112.73 133.08 112.73C132.92 112.73 132.79 112.6 132.79 112.44C132.79 112.28 132.92 112.15 133.08 112.15C133.24 112.15 133.37 112.28 133.37 112.44Z" fill="#565656"/>
<path d="M134.65 112.44C134.65 112.6 134.52 112.73 134.36 112.73C134.2 112.73 134.07 112.6 134.07 112.44C134.07 112.28 134.2 112.15 134.36 112.15C134.52 112.15 134.65 112.28 134.65 112.44Z" fill="#565656"/>
<path d="M135.93 112.44C135.93 112.6 135.8 112.73 135.64 112.73C135.48 112.73 135.35 112.6 135.35 112.44C135.35 112.28 135.48 112.15 135.64 112.15C135.8 112.15 135.93 112.28 135.93 112.44Z" fill="#565656"/>
<path d="M137.22 112.44C137.22 112.6 137.09 112.73 136.93 112.73C136.77 112.73 136.64 112.6 136.64 112.44C136.64 112.28 136.77 112.15 136.93 112.15C137.09 112.15 137.22 112.28 137.22 112.44Z" fill="#565656"/>
<path d="M138.5 112.44C138.5 112.6 138.37 112.73 138.21 112.73C138.05 112.73 137.92 112.6 137.92 112.44C137.92 112.28 138.05 112.15 138.21 112.15C138.37 112.15 138.5 112.28 138.5 112.44Z" fill="#565656"/>
<path d="M139.78 112.44C139.78 112.6 139.65 112.73 139.49 112.73C139.33 112.73 139.2 112.6 139.2 112.44C139.2 112.28 139.33 112.15 139.49 112.15C139.65 112.15 139.78 112.28 139.78 112.44Z" fill="#565656"/>
<path d="M141.07 112.44C141.07 112.6 140.94 112.73 140.78 112.73C140.62 112.73 140.49 112.6 140.49 112.44C140.49 112.28 140.62 112.15 140.78 112.15C140.94 112.15 141.07 112.28 141.07 112.44Z" fill="#565656"/>
<path d="M142.35 112.44C142.35 112.6 142.22 112.73 142.06 112.73C141.9 112.73 141.77 112.6 141.77 112.44C141.77 112.28 141.9 112.15 142.06 112.15C142.22 112.15 142.35 112.28 142.35 112.44Z" fill="#565656"/>
<path d="M130.8 113.501C130.8 113.661 130.67 113.791 130.51 113.791C130.35 113.791 130.22 113.661 130.22 113.501C130.22 113.341 130.35 113.211 130.51 113.211C130.67 113.211 130.8 113.341 130.8 113.501Z" fill="#565656"/>
<path d="M132.08 113.501C132.08 113.661 131.95 113.791 131.79 113.791C131.63 113.791 131.5 113.661 131.5 113.501C131.5 113.341 131.63 113.211 131.79 113.211C131.95 113.211 132.08 113.341 132.08 113.501Z" fill="#565656"/>
<path d="M133.37 113.501C133.37 113.661 133.24 113.791 133.08 113.791C132.92 113.791 132.79 113.661 132.79 113.501C132.79 113.341 132.92 113.211 133.08 113.211C133.24 113.211 133.37 113.341 133.37 113.501Z" fill="#565656"/>
<path d="M134.65 113.501C134.65 113.661 134.52 113.791 134.36 113.791C134.2 113.791 134.07 113.661 134.07 113.501C134.07 113.341 134.2 113.211 134.36 113.211C134.52 113.211 134.65 113.341 134.65 113.501Z" fill="#565656"/>
<path d="M135.93 113.501C135.93 113.661 135.8 113.791 135.64 113.791C135.48 113.791 135.35 113.661 135.35 113.501C135.35 113.341 135.48 113.211 135.64 113.211C135.8 113.211 135.93 113.341 135.93 113.501Z" fill="#565656"/>
<path d="M137.22 113.501C137.22 113.661 137.09 113.791 136.93 113.791C136.77 113.791 136.64 113.661 136.64 113.501C136.64 113.341 136.77 113.211 136.93 113.211C137.09 113.211 137.22 113.341 137.22 113.501Z" fill="#565656"/>
<path d="M138.5 113.501C138.5 113.661 138.37 113.791 138.21 113.791C138.05 113.791 137.92 113.661 137.92 113.501C137.92 113.341 138.05 113.211 138.21 113.211C138.37 113.211 138.5 113.341 138.5 113.501Z" fill="#565656"/>
<path d="M139.78 113.501C139.78 113.661 139.65 113.791 139.49 113.791C139.33 113.791 139.2 113.661 139.2 113.501C139.2 113.341 139.33 113.211 139.49 113.211C139.65 113.211 139.78 113.341 139.78 113.501Z" fill="#565656"/>
<path d="M141.07 113.501C141.07 113.661 140.94 113.791 140.78 113.791C140.62 113.791 140.49 113.661 140.49 113.501C140.49 113.341 140.62 113.211 140.78 113.211C140.94 113.211 141.07 113.341 141.07 113.501Z" fill="#565656"/>
<path d="M142.35 113.501C142.35 113.661 142.22 113.791 142.06 113.791C141.9 113.791 141.77 113.661 141.77 113.501C141.77 113.341 141.9 113.211 142.06 113.211C142.22 113.211 142.35 113.341 142.35 113.501Z" fill="#565656"/>
<path d="M130.8 114.561C130.8 114.721 130.67 114.851 130.51 114.851C130.35 114.851 130.22 114.721 130.22 114.561C130.22 114.401 130.35 114.271 130.51 114.271C130.67 114.271 130.8 114.401 130.8 114.561Z" fill="#565656"/>
<path d="M132.08 114.561C132.08 114.721 131.95 114.851 131.79 114.851C131.63 114.851 131.5 114.721 131.5 114.561C131.5 114.401 131.63 114.271 131.79 114.271C131.95 114.271 132.08 114.401 132.08 114.561Z" fill="#565656"/>
<path d="M133.37 114.561C133.37 114.721 133.24 114.851 133.08 114.851C132.92 114.851 132.79 114.721 132.79 114.561C132.79 114.401 132.92 114.271 133.08 114.271C133.24 114.271 133.37 114.401 133.37 114.561Z" fill="#565656"/>
<path d="M134.65 114.561C134.65 114.721 134.52 114.851 134.36 114.851C134.2 114.851 134.07 114.721 134.07 114.561C134.07 114.401 134.2 114.271 134.36 114.271C134.52 114.271 134.65 114.401 134.65 114.561Z" fill="#565656"/>
<path d="M135.93 114.561C135.93 114.721 135.8 114.851 135.64 114.851C135.48 114.851 135.35 114.721 135.35 114.561C135.35 114.401 135.48 114.271 135.64 114.271C135.8 114.271 135.93 114.401 135.93 114.561Z" fill="#565656"/>
<path d="M137.22 114.561C137.22 114.721 137.09 114.851 136.93 114.851C136.77 114.851 136.64 114.721 136.64 114.561C136.64 114.401 136.77 114.271 136.93 114.271C137.09 114.271 137.22 114.401 137.22 114.561Z" fill="#565656"/>
<path d="M138.5 114.561C138.5 114.721 138.37 114.851 138.21 114.851C138.05 114.851 137.92 114.721 137.92 114.561C137.92 114.401 138.05 114.271 138.21 114.271C138.37 114.271 138.5 114.401 138.5 114.561Z" fill="#565656"/>
<path d="M139.78 114.561C139.78 114.721 139.65 114.851 139.49 114.851C139.33 114.851 139.2 114.721 139.2 114.561C139.2 114.401 139.33 114.271 139.49 114.271C139.65 114.271 139.78 114.401 139.78 114.561Z" fill="#565656"/>
<path d="M141.07 114.561C141.07 114.721 140.94 114.851 140.78 114.851C140.62 114.851 140.49 114.721 140.49 114.561C140.49 114.401 140.62 114.271 140.78 114.271C140.94 114.271 141.07 114.401 141.07 114.561Z" fill="#565656"/>
<path d="M142.35 114.561C142.35 114.721 142.22 114.851 142.06 114.851C141.9 114.851 141.77 114.721 141.77 114.561C141.77 114.401 141.9 114.271 142.06 114.271C142.22 114.271 142.35 114.401 142.35 114.561Z" fill="#565656"/>
<path d="M144.56 116.11H113.4C112.483 116.11 111.74 116.854 111.74 117.77V118.15C111.74 119.067 112.483 119.81 113.4 119.81H144.56C145.477 119.81 146.22 119.067 146.22 118.15V117.77C146.22 116.854 145.477 116.11 144.56 116.11Z" fill="#778FA5"/>
<path d="M122.75 116.95H113.11V118.98H122.75V116.95Z" fill="#191919"/>
<path d="M117.67 117.48H113.63V118.49H117.67V117.48Z" fill="url(#paint6_linear_695_5348)"/>
<path d="M130.8 116.95C130.8 117.11 130.67 117.24 130.51 117.24C130.35 117.24 130.22 117.11 130.22 116.95C130.22 116.79 130.35 116.66 130.51 116.66C130.67 116.66 130.8 116.79 130.8 116.95Z" fill="#565656"/>
<path d="M132.08 116.95C132.08 117.11 131.95 117.24 131.79 117.24C131.63 117.24 131.5 117.11 131.5 116.95C131.5 116.79 131.63 116.66 131.79 116.66C131.95 116.66 132.08 116.79 132.08 116.95Z" fill="#565656"/>
<path d="M133.37 116.95C133.37 117.11 133.24 117.24 133.08 117.24C132.92 117.24 132.79 117.11 132.79 116.95C132.79 116.79 132.92 116.66 133.08 116.66C133.24 116.66 133.37 116.79 133.37 116.95Z" fill="#565656"/>
<path d="M134.65 116.95C134.65 117.11 134.52 117.24 134.36 117.24C134.2 117.24 134.07 117.11 134.07 116.95C134.07 116.79 134.2 116.66 134.36 116.66C134.52 116.66 134.65 116.79 134.65 116.95Z" fill="#565656"/>
<path d="M135.93 116.95C135.93 117.11 135.8 117.24 135.64 117.24C135.48 117.24 135.35 117.11 135.35 116.95C135.35 116.79 135.48 116.66 135.64 116.66C135.8 116.66 135.93 116.79 135.93 116.95Z" fill="#565656"/>
<path d="M137.22 116.95C137.22 117.11 137.09 117.24 136.93 117.24C136.77 117.24 136.64 117.11 136.64 116.95C136.64 116.79 136.77 116.66 136.93 116.66C137.09 116.66 137.22 116.79 137.22 116.95Z" fill="#565656"/>
<path d="M138.5 116.95C138.5 117.11 138.37 117.24 138.21 117.24C138.05 117.24 137.92 117.11 137.92 116.95C137.92 116.79 138.05 116.66 138.21 116.66C138.37 116.66 138.5 116.79 138.5 116.95Z" fill="#565656"/>
<path d="M139.78 116.95C139.78 117.11 139.65 117.24 139.49 117.24C139.33 117.24 139.2 117.11 139.2 116.95C139.2 116.79 139.33 116.66 139.49 116.66C139.65 116.66 139.78 116.79 139.78 116.95Z" fill="#565656"/>
<path d="M141.07 116.95C141.07 117.11 140.94 117.24 140.78 117.24C140.62 117.24 140.49 117.11 140.49 116.95C140.49 116.79 140.62 116.66 140.78 116.66C140.94 116.66 141.07 116.79 141.07 116.95Z" fill="#565656"/>
<path d="M142.35 116.95C142.35 117.11 142.22 117.24 142.06 117.24C141.9 117.24 141.77 117.11 141.77 116.95C141.77 116.79 141.9 116.66 142.06 116.66C142.22 116.66 142.35 116.79 142.35 116.95Z" fill="#565656"/>
<path d="M130.8 118.011C130.8 118.171 130.67 118.301 130.51 118.301C130.35 118.301 130.22 118.171 130.22 118.011C130.22 117.851 130.35 117.721 130.51 117.721C130.67 117.721 130.8 117.851 130.8 118.011Z" fill="#565656"/>
<path d="M132.08 118.011C132.08 118.171 131.95 118.301 131.79 118.301C131.63 118.301 131.5 118.171 131.5 118.011C131.5 117.851 131.63 117.721 131.79 117.721C131.95 117.721 132.08 117.851 132.08 118.011Z" fill="#565656"/>
<path d="M133.37 118.011C133.37 118.171 133.24 118.301 133.08 118.301C132.92 118.301 132.79 118.171 132.79 118.011C132.79 117.851 132.92 117.721 133.08 117.721C133.24 117.721 133.37 117.851 133.37 118.011Z" fill="#565656"/>
<path d="M134.65 118.011C134.65 118.171 134.52 118.301 134.36 118.301C134.2 118.301 134.07 118.171 134.07 118.011C134.07 117.851 134.2 117.721 134.36 117.721C134.52 117.721 134.65 117.851 134.65 118.011Z" fill="#565656"/>
<path d="M135.93 118.011C135.93 118.171 135.8 118.301 135.64 118.301C135.48 118.301 135.35 118.171 135.35 118.011C135.35 117.851 135.48 117.721 135.64 117.721C135.8 117.721 135.93 117.851 135.93 118.011Z" fill="#565656"/>
<path d="M137.22 118.011C137.22 118.171 137.09 118.301 136.93 118.301C136.77 118.301 136.64 118.171 136.64 118.011C136.64 117.851 136.77 117.721 136.93 117.721C137.09 117.721 137.22 117.851 137.22 118.011Z" fill="#565656"/>
<path d="M138.5 118.011C138.5 118.171 138.37 118.301 138.21 118.301C138.05 118.301 137.92 118.171 137.92 118.011C137.92 117.851 138.05 117.721 138.21 117.721C138.37 117.721 138.5 117.851 138.5 118.011Z" fill="#565656"/>
<path d="M139.78 118.011C139.78 118.171 139.65 118.301 139.49 118.301C139.33 118.301 139.2 118.171 139.2 118.011C139.2 117.851 139.33 117.721 139.49 117.721C139.65 117.721 139.78 117.851 139.78 118.011Z" fill="#565656"/>
<path d="M141.07 118.011C141.07 118.171 140.94 118.301 140.78 118.301C140.62 118.301 140.49 118.171 140.49 118.011C140.49 117.851 140.62 117.721 140.78 117.721C140.94 117.721 141.07 117.851 141.07 118.011Z" fill="#565656"/>
<path d="M142.35 118.011C142.35 118.171 142.22 118.301 142.06 118.301C141.9 118.301 141.77 118.171 141.77 118.011C141.77 117.851 141.9 117.721 142.06 117.721C142.22 117.721 142.35 117.851 142.35 118.011Z" fill="#565656"/>
<path d="M130.8 119.07C130.8 119.23 130.67 119.36 130.51 119.36C130.35 119.36 130.22 119.23 130.22 119.07C130.22 118.91 130.35 118.78 130.51 118.78C130.67 118.78 130.8 118.91 130.8 119.07Z" fill="#565656"/>
<path d="M132.08 119.07C132.08 119.23 131.95 119.36 131.79 119.36C131.63 119.36 131.5 119.23 131.5 119.07C131.5 118.91 131.63 118.78 131.79 118.78C131.95 118.78 132.08 118.91 132.08 119.07Z" fill="#565656"/>
<path d="M133.37 119.07C133.37 119.23 133.24 119.36 133.08 119.36C132.92 119.36 132.79 119.23 132.79 119.07C132.79 118.91 132.92 118.78 133.08 118.78C133.24 118.78 133.37 118.91 133.37 119.07Z" fill="#565656"/>
<path d="M134.65 119.07C134.65 119.23 134.52 119.36 134.36 119.36C134.2 119.36 134.07 119.23 134.07 119.07C134.07 118.91 134.2 118.78 134.36 118.78C134.52 118.78 134.65 118.91 134.65 119.07Z" fill="#565656"/>
<path d="M135.93 119.07C135.93 119.23 135.8 119.36 135.64 119.36C135.48 119.36 135.35 119.23 135.35 119.07C135.35 118.91 135.48 118.78 135.64 118.78C135.8 118.78 135.93 118.91 135.93 119.07Z" fill="#565656"/>
<path d="M137.22 119.07C137.22 119.23 137.09 119.36 136.93 119.36C136.77 119.36 136.64 119.23 136.64 119.07C136.64 118.91 136.77 118.78 136.93 118.78C137.09 118.78 137.22 118.91 137.22 119.07Z" fill="#565656"/>
<path d="M138.5 119.07C138.5 119.23 138.37 119.36 138.21 119.36C138.05 119.36 137.92 119.23 137.92 119.07C137.92 118.91 138.05 118.78 138.21 118.78C138.37 118.78 138.5 118.91 138.5 119.07Z" fill="#565656"/>
<path d="M139.78 119.07C139.78 119.23 139.65 119.36 139.49 119.36C139.33 119.36 139.2 119.23 139.2 119.07C139.2 118.91 139.33 118.78 139.49 118.78C139.65 118.78 139.78 118.91 139.78 119.07Z" fill="#565656"/>
<path d="M141.07 119.07C141.07 119.23 140.94 119.36 140.78 119.36C140.62 119.36 140.49 119.23 140.49 119.07C140.49 118.91 140.62 118.78 140.78 118.78C140.94 118.78 141.07 118.91 141.07 119.07Z" fill="#565656"/>
<path d="M142.35 119.07C142.35 119.23 142.22 119.36 142.06 119.36C141.9 119.36 141.77 119.23 141.77 119.07C141.77 118.91 141.9 118.78 142.06 118.78C142.22 118.78 142.35 118.91 142.35 119.07Z" fill="#565656"/>
<path d="M144.56 126.011H113.4C112.483 126.011 111.74 126.754 111.74 127.671V128.051C111.74 128.968 112.483 129.711 113.4 129.711H144.56C145.477 129.711 146.22 128.968 146.22 128.051V127.671C146.22 126.754 145.477 126.011 144.56 126.011Z" fill="#778FA5"/>
<path d="M122.68 126.851H113.11V128.881H122.68V126.851Z" fill="#191919"/>
<path d="M117.76 127.381H113.63V128.391H117.76V127.381Z" fill="url(#paint7_linear_695_5348)"/>
<path d="M130.8 126.851C130.8 127.011 130.67 127.141 130.51 127.141C130.35 127.141 130.22 127.011 130.22 126.851C130.22 126.691 130.35 126.561 130.51 126.561C130.67 126.561 130.8 126.691 130.8 126.851Z" fill="#565656"/>
<path d="M132.08 126.851C132.08 127.011 131.95 127.141 131.79 127.141C131.63 127.141 131.5 127.011 131.5 126.851C131.5 126.691 131.63 126.561 131.79 126.561C131.95 126.561 132.08 126.691 132.08 126.851Z" fill="#565656"/>
<path d="M133.37 126.851C133.37 127.011 133.24 127.141 133.08 127.141C132.92 127.141 132.79 127.011 132.79 126.851C132.79 126.691 132.92 126.561 133.08 126.561C133.24 126.561 133.37 126.691 133.37 126.851Z" fill="#565656"/>
<path d="M134.65 126.851C134.65 127.011 134.52 127.141 134.36 127.141C134.2 127.141 134.07 127.011 134.07 126.851C134.07 126.691 134.2 126.561 134.36 126.561C134.52 126.561 134.65 126.691 134.65 126.851Z" fill="#565656"/>
<path d="M135.93 126.851C135.93 127.011 135.8 127.141 135.64 127.141C135.48 127.141 135.35 127.011 135.35 126.851C135.35 126.691 135.48 126.561 135.64 126.561C135.8 126.561 135.93 126.691 135.93 126.851Z" fill="#565656"/>
<path d="M137.22 126.851C137.22 127.011 137.09 127.141 136.93 127.141C136.77 127.141 136.64 127.011 136.64 126.851C136.64 126.691 136.77 126.561 136.93 126.561C137.09 126.561 137.22 126.691 137.22 126.851Z" fill="#565656"/>
<path d="M138.5 126.851C138.5 127.011 138.37 127.141 138.21 127.141C138.05 127.141 137.92 127.011 137.92 126.851C137.92 126.691 138.05 126.561 138.21 126.561C138.37 126.561 138.5 126.691 138.5 126.851Z" fill="#565656"/>
<path d="M139.78 126.851C139.78 127.011 139.65 127.141 139.49 127.141C139.33 127.141 139.2 127.011 139.2 126.851C139.2 126.691 139.33 126.561 139.49 126.561C139.65 126.561 139.78 126.691 139.78 126.851Z" fill="#565656"/>
<path d="M141.07 126.851C141.07 127.011 140.94 127.141 140.78 127.141C140.62 127.141 140.49 127.011 140.49 126.851C140.49 126.691 140.62 126.561 140.78 126.561C140.94 126.561 141.07 126.691 141.07 126.851Z" fill="#565656"/>
<path d="M142.35 126.851C142.35 127.011 142.22 127.141 142.06 127.141C141.9 127.141 141.77 127.011 141.77 126.851C141.77 126.691 141.9 126.561 142.06 126.561C142.22 126.561 142.35 126.691 142.35 126.851Z" fill="#565656"/>
<path d="M130.8 127.921C130.8 128.081 130.67 128.211 130.51 128.211C130.35 128.211 130.22 128.081 130.22 127.921C130.22 127.761 130.35 127.631 130.51 127.631C130.67 127.631 130.8 127.761 130.8 127.921Z" fill="#565656"/>
<path d="M132.08 127.921C132.08 128.081 131.95 128.211 131.79 128.211C131.63 128.211 131.5 128.081 131.5 127.921C131.5 127.761 131.63 127.631 131.79 127.631C131.95 127.631 132.08 127.761 132.08 127.921Z" fill="#565656"/>
<path d="M133.37 127.921C133.37 128.081 133.24 128.211 133.08 128.211C132.92 128.211 132.79 128.081 132.79 127.921C132.79 127.761 132.92 127.631 133.08 127.631C133.24 127.631 133.37 127.761 133.37 127.921Z" fill="#565656"/>
<path d="M134.65 127.921C134.65 128.081 134.52 128.211 134.36 128.211C134.2 128.211 134.07 128.081 134.07 127.921C134.07 127.761 134.2 127.631 134.36 127.631C134.52 127.631 134.65 127.761 134.65 127.921Z" fill="#565656"/>
<path d="M135.93 127.921C135.93 128.081 135.8 128.211 135.64 128.211C135.48 128.211 135.35 128.081 135.35 127.921C135.35 127.761 135.48 127.631 135.64 127.631C135.8 127.631 135.93 127.761 135.93 127.921Z" fill="#565656"/>
<path d="M137.22 127.921C137.22 128.081 137.09 128.211 136.93 128.211C136.77 128.211 136.64 128.081 136.64 127.921C136.64 127.761 136.77 127.631 136.93 127.631C137.09 127.631 137.22 127.761 137.22 127.921Z" fill="#565656"/>
<path d="M138.5 127.921C138.5 128.081 138.37 128.211 138.21 128.211C138.05 128.211 137.92 128.081 137.92 127.921C137.92 127.761 138.05 127.631 138.21 127.631C138.37 127.631 138.5 127.761 138.5 127.921Z" fill="#565656"/>
<path d="M139.78 127.921C139.78 128.081 139.65 128.211 139.49 128.211C139.33 128.211 139.2 128.081 139.2 127.921C139.2 127.761 139.33 127.631 139.49 127.631C139.65 127.631 139.78 127.761 139.78 127.921Z" fill="#565656"/>
<path d="M141.07 127.921C141.07 128.081 140.94 128.211 140.78 128.211C140.62 128.211 140.49 128.081 140.49 127.921C140.49 127.761 140.62 127.631 140.78 127.631C140.94 127.631 141.07 127.761 141.07 127.921Z" fill="#565656"/>
<path d="M142.35 127.921C142.35 128.081 142.22 128.211 142.06 128.211C141.9 128.211 141.77 128.081 141.77 127.921C141.77 127.761 141.9 127.631 142.06 127.631C142.22 127.631 142.35 127.761 142.35 127.921Z" fill="#565656"/>
<path d="M130.8 128.98C130.8 129.14 130.67 129.27 130.51 129.27C130.35 129.27 130.22 129.14 130.22 128.98C130.22 128.82 130.35 128.69 130.51 128.69C130.67 128.69 130.8 128.82 130.8 128.98Z" fill="#565656"/>
<path d="M132.08 128.98C132.08 129.14 131.95 129.27 131.79 129.27C131.63 129.27 131.5 129.14 131.5 128.98C131.5 128.82 131.63 128.69 131.79 128.69C131.95 128.69 132.08 128.82 132.08 128.98Z" fill="#565656"/>
<path d="M133.37 128.98C133.37 129.14 133.24 129.27 133.08 129.27C132.92 129.27 132.79 129.14 132.79 128.98C132.79 128.82 132.92 128.69 133.08 128.69C133.24 128.69 133.37 128.82 133.37 128.98Z" fill="#565656"/>
<path d="M134.65 128.98C134.65 129.14 134.52 129.27 134.36 129.27C134.2 129.27 134.07 129.14 134.07 128.98C134.07 128.82 134.2 128.69 134.36 128.69C134.52 128.69 134.65 128.82 134.65 128.98Z" fill="#565656"/>
<path d="M135.93 128.98C135.93 129.14 135.8 129.27 135.64 129.27C135.48 129.27 135.35 129.14 135.35 128.98C135.35 128.82 135.48 128.69 135.64 128.69C135.8 128.69 135.93 128.82 135.93 128.98Z" fill="#565656"/>
<path d="M137.22 128.98C137.22 129.14 137.09 129.27 136.93 129.27C136.77 129.27 136.64 129.14 136.64 128.98C136.64 128.82 136.77 128.69 136.93 128.69C137.09 128.69 137.22 128.82 137.22 128.98Z" fill="#565656"/>
<path d="M138.5 128.98C138.5 129.14 138.37 129.27 138.21 129.27C138.05 129.27 137.92 129.14 137.92 128.98C137.92 128.82 138.05 128.69 138.21 128.69C138.37 128.69 138.5 128.82 138.5 128.98Z" fill="#565656"/>
<path d="M139.78 128.98C139.78 129.14 139.65 129.27 139.49 129.27C139.33 129.27 139.2 129.14 139.2 128.98C139.2 128.82 139.33 128.69 139.49 128.69C139.65 128.69 139.78 128.82 139.78 128.98Z" fill="#565656"/>
<path d="M141.07 128.98C141.07 129.14 140.94 129.27 140.78 129.27C140.62 129.27 140.49 129.14 140.49 128.98C140.49 128.82 140.62 128.69 140.78 128.69C140.94 128.69 141.07 128.82 141.07 128.98Z" fill="#565656"/>
<path d="M142.35 128.98C142.35 129.14 142.22 129.27 142.06 129.27C141.9 129.27 141.77 129.14 141.77 128.98C141.77 128.82 141.9 128.69 142.06 128.69C142.22 128.69 142.35 128.82 142.35 128.98Z" fill="#565656"/>
<path d="M144.56 130.53H113.4C112.483 130.53 111.74 131.274 111.74 132.19V132.57C111.74 133.487 112.483 134.23 113.4 134.23H144.56C145.477 134.23 146.22 133.487 146.22 132.57V132.19C146.22 131.274 145.477 130.53 144.56 130.53Z" fill="#778FA5"/>
<path d="M122.75 131.37H113.11V133.4H122.75V131.37Z" fill="#191919"/>
<path d="M117.67 131.9H113.63V132.91H117.67V131.9Z" fill="url(#paint8_linear_695_5348)"/>
<path d="M130.8 131.37C130.8 131.53 130.67 131.66 130.51 131.66C130.35 131.66 130.22 131.53 130.22 131.37C130.22 131.21 130.35 131.08 130.51 131.08C130.67 131.08 130.8 131.21 130.8 131.37Z" fill="#565656"/>
<path d="M132.08 131.37C132.08 131.53 131.95 131.66 131.79 131.66C131.63 131.66 131.5 131.53 131.5 131.37C131.5 131.21 131.63 131.08 131.79 131.08C131.95 131.08 132.08 131.21 132.08 131.37Z" fill="#565656"/>
<path d="M133.37 131.37C133.37 131.53 133.24 131.66 133.08 131.66C132.92 131.66 132.79 131.53 132.79 131.37C132.79 131.21 132.92 131.08 133.08 131.08C133.24 131.08 133.37 131.21 133.37 131.37Z" fill="#565656"/>
<path d="M134.65 131.37C134.65 131.53 134.52 131.66 134.36 131.66C134.2 131.66 134.07 131.53 134.07 131.37C134.07 131.21 134.2 131.08 134.36 131.08C134.52 131.08 134.65 131.21 134.65 131.37Z" fill="#565656"/>
<path d="M135.93 131.37C135.93 131.53 135.8 131.66 135.64 131.66C135.48 131.66 135.35 131.53 135.35 131.37C135.35 131.21 135.48 131.08 135.64 131.08C135.8 131.08 135.93 131.21 135.93 131.37Z" fill="#565656"/>
<path d="M137.22 131.37C137.22 131.53 137.09 131.66 136.93 131.66C136.77 131.66 136.64 131.53 136.64 131.37C136.64 131.21 136.77 131.08 136.93 131.08C137.09 131.08 137.22 131.21 137.22 131.37Z" fill="#565656"/>
<path d="M138.5 131.37C138.5 131.53 138.37 131.66 138.21 131.66C138.05 131.66 137.92 131.53 137.92 131.37C137.92 131.21 138.05 131.08 138.21 131.08C138.37 131.08 138.5 131.21 138.5 131.37Z" fill="#565656"/>
<path d="M139.78 131.37C139.78 131.53 139.65 131.66 139.49 131.66C139.33 131.66 139.2 131.53 139.2 131.37C139.2 131.21 139.33 131.08 139.49 131.08C139.65 131.08 139.78 131.21 139.78 131.37Z" fill="#565656"/>
<path d="M141.07 131.37C141.07 131.53 140.94 131.66 140.78 131.66C140.62 131.66 140.49 131.53 140.49 131.37C140.49 131.21 140.62 131.08 140.78 131.08C140.94 131.08 141.07 131.21 141.07 131.37Z" fill="#565656"/>
<path d="M142.35 131.37C142.35 131.53 142.22 131.66 142.06 131.66C141.9 131.66 141.77 131.53 141.77 131.37C141.77 131.21 141.9 131.08 142.06 131.08C142.22 131.08 142.35 131.21 142.35 131.37Z" fill="#565656"/>
<path d="M130.8 132.431C130.8 132.591 130.67 132.721 130.51 132.721C130.35 132.721 130.22 132.591 130.22 132.431C130.22 132.271 130.35 132.141 130.51 132.141C130.67 132.141 130.8 132.271 130.8 132.431Z" fill="#565656"/>
<path d="M132.08 132.431C132.08 132.591 131.95 132.721 131.79 132.721C131.63 132.721 131.5 132.591 131.5 132.431C131.5 132.271 131.63 132.141 131.79 132.141C131.95 132.141 132.08 132.271 132.08 132.431Z" fill="#565656"/>
<path d="M133.37 132.431C133.37 132.591 133.24 132.721 133.08 132.721C132.92 132.721 132.79 132.591 132.79 132.431C132.79 132.271 132.92 132.141 133.08 132.141C133.24 132.141 133.37 132.271 133.37 132.431Z" fill="#565656"/>
<path d="M134.65 132.431C134.65 132.591 134.52 132.721 134.36 132.721C134.2 132.721 134.07 132.591 134.07 132.431C134.07 132.271 134.2 132.141 134.36 132.141C134.52 132.141 134.65 132.271 134.65 132.431Z" fill="#565656"/>
<path d="M135.93 132.431C135.93 132.591 135.8 132.721 135.64 132.721C135.48 132.721 135.35 132.591 135.35 132.431C135.35 132.271 135.48 132.141 135.64 132.141C135.8 132.141 135.93 132.271 135.93 132.431Z" fill="#565656"/>
<path d="M137.22 132.431C137.22 132.591 137.09 132.721 136.93 132.721C136.77 132.721 136.64 132.591 136.64 132.431C136.64 132.271 136.77 132.141 136.93 132.141C137.09 132.141 137.22 132.271 137.22 132.431Z" fill="#565656"/>
<path d="M138.5 132.431C138.5 132.591 138.37 132.721 138.21 132.721C138.05 132.721 137.92 132.591 137.92 132.431C137.92 132.271 138.05 132.141 138.21 132.141C138.37 132.141 138.5 132.271 138.5 132.431Z" fill="#565656"/>
<path d="M139.78 132.431C139.78 132.591 139.65 132.721 139.49 132.721C139.33 132.721 139.2 132.591 139.2 132.431C139.2 132.271 139.33 132.141 139.49 132.141C139.65 132.141 139.78 132.271 139.78 132.431Z" fill="#565656"/>
<path d="M141.07 132.431C141.07 132.591 140.94 132.721 140.78 132.721C140.62 132.721 140.49 132.591 140.49 132.431C140.49 132.271 140.62 132.141 140.78 132.141C140.94 132.141 141.07 132.271 141.07 132.431Z" fill="#565656"/>
<path d="M142.35 132.431C142.35 132.591 142.22 132.721 142.06 132.721C141.9 132.721 141.77 132.591 141.77 132.431C141.77 132.271 141.9 132.141 142.06 132.141C142.22 132.141 142.35 132.271 142.35 132.431Z" fill="#565656"/>
<path d="M130.8 133.49C130.8 133.65 130.67 133.78 130.51 133.78C130.35 133.78 130.22 133.65 130.22 133.49C130.22 133.33 130.35 133.2 130.51 133.2C130.67 133.2 130.8 133.33 130.8 133.49Z" fill="#565656"/>
<path d="M132.08 133.49C132.08 133.65 131.95 133.78 131.79 133.78C131.63 133.78 131.5 133.65 131.5 133.49C131.5 133.33 131.63 133.2 131.79 133.2C131.95 133.2 132.08 133.33 132.08 133.49Z" fill="#565656"/>
<path d="M133.37 133.49C133.37 133.65 133.24 133.78 133.08 133.78C132.92 133.78 132.79 133.65 132.79 133.49C132.79 133.33 132.92 133.2 133.08 133.2C133.24 133.2 133.37 133.33 133.37 133.49Z" fill="#565656"/>
<path d="M134.65 133.49C134.65 133.65 134.52 133.78 134.36 133.78C134.2 133.78 134.07 133.65 134.07 133.49C134.07 133.33 134.2 133.2 134.36 133.2C134.52 133.2 134.65 133.33 134.65 133.49Z" fill="#565656"/>
<path d="M135.93 133.49C135.93 133.65 135.8 133.78 135.64 133.78C135.48 133.78 135.35 133.65 135.35 133.49C135.35 133.33 135.48 133.2 135.64 133.2C135.8 133.2 135.93 133.33 135.93 133.49Z" fill="#565656"/>
<path d="M137.22 133.49C137.22 133.65 137.09 133.78 136.93 133.78C136.77 133.78 136.64 133.65 136.64 133.49C136.64 133.33 136.77 133.2 136.93 133.2C137.09 133.2 137.22 133.33 137.22 133.49Z" fill="#565656"/>
<path d="M138.5 133.49C138.5 133.65 138.37 133.78 138.21 133.78C138.05 133.78 137.92 133.65 137.92 133.49C137.92 133.33 138.05 133.2 138.21 133.2C138.37 133.2 138.5 133.33 138.5 133.49Z" fill="#565656"/>
<path d="M139.78 133.49C139.78 133.65 139.65 133.78 139.49 133.78C139.33 133.78 139.2 133.65 139.2 133.49C139.2 133.33 139.33 133.2 139.49 133.2C139.65 133.2 139.78 133.33 139.78 133.49Z" fill="#565656"/>
<path d="M141.07 133.49C141.07 133.65 140.94 133.78 140.78 133.78C140.62 133.78 140.49 133.65 140.49 133.49C140.49 133.33 140.62 133.2 140.78 133.2C140.94 133.2 141.07 133.33 141.07 133.49Z" fill="#565656"/>
<path d="M142.35 133.49C142.35 133.65 142.22 133.78 142.06 133.78C141.9 133.78 141.77 133.65 141.77 133.49C141.77 133.33 141.9 133.2 142.06 133.2C142.22 133.2 142.35 133.33 142.35 133.49Z" fill="#565656"/>
<path d="M144.56 140.431H113.4C112.483 140.431 111.74 141.174 111.74 142.091V142.471C111.74 143.387 112.483 144.131 113.4 144.131H144.56C145.477 144.131 146.22 143.387 146.22 142.471V142.091C146.22 141.174 145.477 140.431 144.56 140.431Z" fill="#778FA5"/>
<path d="M122.68 141.271H113.11V143.301H122.68V141.271Z" fill="#191919"/>
<path d="M117.76 141.801H113.63V142.811H117.76V141.801Z" fill="url(#paint9_linear_695_5348)"/>
<path d="M130.8 141.27C130.8 141.43 130.67 141.56 130.51 141.56C130.35 141.56 130.22 141.43 130.22 141.27C130.22 141.11 130.35 140.98 130.51 140.98C130.67 140.98 130.8 141.11 130.8 141.27Z" fill="#565656"/>
<path d="M132.08 141.27C132.08 141.43 131.95 141.56 131.79 141.56C131.63 141.56 131.5 141.43 131.5 141.27C131.5 141.11 131.63 140.98 131.79 140.98C131.95 140.98 132.08 141.11 132.08 141.27Z" fill="#565656"/>
<path d="M133.37 141.27C133.37 141.43 133.24 141.56 133.08 141.56C132.92 141.56 132.79 141.43 132.79 141.27C132.79 141.11 132.92 140.98 133.08 140.98C133.24 140.98 133.37 141.11 133.37 141.27Z" fill="#565656"/>
<path d="M134.65 141.27C134.65 141.43 134.52 141.56 134.36 141.56C134.2 141.56 134.07 141.43 134.07 141.27C134.07 141.11 134.2 140.98 134.36 140.98C134.52 140.98 134.65 141.11 134.65 141.27Z" fill="#565656"/>
<path d="M135.93 141.27C135.93 141.43 135.8 141.56 135.64 141.56C135.48 141.56 135.35 141.43 135.35 141.27C135.35 141.11 135.48 140.98 135.64 140.98C135.8 140.98 135.93 141.11 135.93 141.27Z" fill="#565656"/>
<path d="M137.22 141.27C137.22 141.43 137.09 141.56 136.93 141.56C136.77 141.56 136.64 141.43 136.64 141.27C136.64 141.11 136.77 140.98 136.93 140.98C137.09 140.98 137.22 141.11 137.22 141.27Z" fill="#565656"/>
<path d="M138.5 141.27C138.5 141.43 138.37 141.56 138.21 141.56C138.05 141.56 137.92 141.43 137.92 141.27C137.92 141.11 138.05 140.98 138.21 140.98C138.37 140.98 138.5 141.11 138.5 141.27Z" fill="#565656"/>
<path d="M139.78 141.27C139.78 141.43 139.65 141.56 139.49 141.56C139.33 141.56 139.2 141.43 139.2 141.27C139.2 141.11 139.33 140.98 139.49 140.98C139.65 140.98 139.78 141.11 139.78 141.27Z" fill="#565656"/>
<path d="M141.07 141.27C141.07 141.43 140.94 141.56 140.78 141.56C140.62 141.56 140.49 141.43 140.49 141.27C140.49 141.11 140.62 140.98 140.78 140.98C140.94 140.98 141.07 141.11 141.07 141.27Z" fill="#565656"/>
<path d="M142.35 141.27C142.35 141.43 142.22 141.56 142.06 141.56C141.9 141.56 141.77 141.43 141.77 141.27C141.77 141.11 141.9 140.98 142.06 140.98C142.22 140.98 142.35 141.11 142.35 141.27Z" fill="#565656"/>
<path d="M130.8 142.331C130.8 142.491 130.67 142.621 130.51 142.621C130.35 142.621 130.22 142.491 130.22 142.331C130.22 142.171 130.35 142.041 130.51 142.041C130.67 142.041 130.8 142.171 130.8 142.331Z" fill="#565656"/>
<path d="M132.08 142.331C132.08 142.491 131.95 142.621 131.79 142.621C131.63 142.621 131.5 142.491 131.5 142.331C131.5 142.171 131.63 142.041 131.79 142.041C131.95 142.041 132.08 142.171 132.08 142.331Z" fill="#565656"/>
<path d="M133.37 142.331C133.37 142.491 133.24 142.621 133.08 142.621C132.92 142.621 132.79 142.491 132.79 142.331C132.79 142.171 132.92 142.041 133.08 142.041C133.24 142.041 133.37 142.171 133.37 142.331Z" fill="#565656"/>
<path d="M134.65 142.331C134.65 142.491 134.52 142.621 134.36 142.621C134.2 142.621 134.07 142.491 134.07 142.331C134.07 142.171 134.2 142.041 134.36 142.041C134.52 142.041 134.65 142.171 134.65 142.331Z" fill="#565656"/>
<path d="M135.93 142.331C135.93 142.491 135.8 142.621 135.64 142.621C135.48 142.621 135.35 142.491 135.35 142.331C135.35 142.171 135.48 142.041 135.64 142.041C135.8 142.041 135.93 142.171 135.93 142.331Z" fill="#565656"/>
<path d="M137.22 142.331C137.22 142.491 137.09 142.621 136.93 142.621C136.77 142.621 136.64 142.491 136.64 142.331C136.64 142.171 136.77 142.041 136.93 142.041C137.09 142.041 137.22 142.171 137.22 142.331Z" fill="#565656"/>
<path d="M138.5 142.331C138.5 142.491 138.37 142.621 138.21 142.621C138.05 142.621 137.92 142.491 137.92 142.331C137.92 142.171 138.05 142.041 138.21 142.041C138.37 142.041 138.5 142.171 138.5 142.331Z" fill="#565656"/>
<path d="M139.78 142.331C139.78 142.491 139.65 142.621 139.49 142.621C139.33 142.621 139.2 142.491 139.2 142.331C139.2 142.171 139.33 142.041 139.49 142.041C139.65 142.041 139.78 142.171 139.78 142.331Z" fill="#565656"/>
<path d="M141.07 142.331C141.07 142.491 140.94 142.621 140.78 142.621C140.62 142.621 140.49 142.491 140.49 142.331C140.49 142.171 140.62 142.041 140.78 142.041C140.94 142.041 141.07 142.171 141.07 142.331Z" fill="#565656"/>
<path d="M142.35 142.331C142.35 142.491 142.22 142.621 142.06 142.621C141.9 142.621 141.77 142.491 141.77 142.331C141.77 142.171 141.9 142.041 142.06 142.041C142.22 142.041 142.35 142.171 142.35 142.331Z" fill="#565656"/>
<path d="M130.8 143.391C130.8 143.551 130.67 143.681 130.51 143.681C130.35 143.681 130.22 143.551 130.22 143.391C130.22 143.231 130.35 143.101 130.51 143.101C130.67 143.101 130.8 143.231 130.8 143.391Z" fill="#565656"/>
<path d="M132.08 143.391C132.08 143.551 131.95 143.681 131.79 143.681C131.63 143.681 131.5 143.551 131.5 143.391C131.5 143.231 131.63 143.101 131.79 143.101C131.95 143.101 132.08 143.231 132.08 143.391Z" fill="#565656"/>
<path d="M133.37 143.391C133.37 143.551 133.24 143.681 133.08 143.681C132.92 143.681 132.79 143.551 132.79 143.391C132.79 143.231 132.92 143.101 133.08 143.101C133.24 143.101 133.37 143.231 133.37 143.391Z" fill="#565656"/>
<path d="M134.65 143.391C134.65 143.551 134.52 143.681 134.36 143.681C134.2 143.681 134.07 143.551 134.07 143.391C134.07 143.231 134.2 143.101 134.36 143.101C134.52 143.101 134.65 143.231 134.65 143.391Z" fill="#565656"/>
<path d="M135.93 143.391C135.93 143.551 135.8 143.681 135.64 143.681C135.48 143.681 135.35 143.551 135.35 143.391C135.35 143.231 135.48 143.101 135.64 143.101C135.8 143.101 135.93 143.231 135.93 143.391Z" fill="#565656"/>
<path d="M137.22 143.391C137.22 143.551 137.09 143.681 136.93 143.681C136.77 143.681 136.64 143.551 136.64 143.391C136.64 143.231 136.77 143.101 136.93 143.101C137.09 143.101 137.22 143.231 137.22 143.391Z" fill="#565656"/>
<path d="M138.5 143.391C138.5 143.551 138.37 143.681 138.21 143.681C138.05 143.681 137.92 143.551 137.92 143.391C137.92 143.231 138.05 143.101 138.21 143.101C138.37 143.101 138.5 143.231 138.5 143.391Z" fill="#565656"/>
<path d="M139.78 143.391C139.78 143.551 139.65 143.681 139.49 143.681C139.33 143.681 139.2 143.551 139.2 143.391C139.2 143.231 139.33 143.101 139.49 143.101C139.65 143.101 139.78 143.231 139.78 143.391Z" fill="#565656"/>
<path d="M141.07 143.391C141.07 143.551 140.94 143.681 140.78 143.681C140.62 143.681 140.49 143.551 140.49 143.391C140.49 143.231 140.62 143.101 140.78 143.101C140.94 143.101 141.07 143.231 141.07 143.391Z" fill="#565656"/>
<path d="M142.35 143.391C142.35 143.551 142.22 143.681 142.06 143.681C141.9 143.681 141.77 143.551 141.77 143.391C141.77 143.231 141.9 143.101 142.06 143.101C142.22 143.101 142.35 143.231 142.35 143.391Z" fill="#565656"/>
<path d="M144.56 144.951H113.4C112.483 144.951 111.74 145.694 111.74 146.611V146.991C111.74 147.908 112.483 148.651 113.4 148.651H144.56C145.477 148.651 146.22 147.908 146.22 146.991V146.611C146.22 145.694 145.477 144.951 144.56 144.951Z" fill="#778FA5"/>
<path d="M122.75 145.781H113.11V147.811H122.75V145.781Z" fill="#191919"/>
<path d="M117.67 146.321H113.63V147.331H117.67V146.321Z" fill="url(#paint10_linear_695_5348)"/>
<path d="M130.8 145.791C130.8 145.951 130.67 146.081 130.51 146.081C130.35 146.081 130.22 145.951 130.22 145.791C130.22 145.631 130.35 145.501 130.51 145.501C130.67 145.501 130.8 145.631 130.8 145.791Z" fill="#565656"/>
<path d="M132.08 145.791C132.08 145.951 131.95 146.081 131.79 146.081C131.63 146.081 131.5 145.951 131.5 145.791C131.5 145.631 131.63 145.501 131.79 145.501C131.95 145.501 132.08 145.631 132.08 145.791Z" fill="#565656"/>
<path d="M133.37 145.791C133.37 145.951 133.24 146.081 133.08 146.081C132.92 146.081 132.79 145.951 132.79 145.791C132.79 145.631 132.92 145.501 133.08 145.501C133.24 145.501 133.37 145.631 133.37 145.791Z" fill="#565656"/>
<path d="M134.65 145.791C134.65 145.951 134.52 146.081 134.36 146.081C134.2 146.081 134.07 145.951 134.07 145.791C134.07 145.631 134.2 145.501 134.36 145.501C134.52 145.501 134.65 145.631 134.65 145.791Z" fill="#565656"/>
<path d="M135.93 145.791C135.93 145.951 135.8 146.081 135.64 146.081C135.48 146.081 135.35 145.951 135.35 145.791C135.35 145.631 135.48 145.501 135.64 145.501C135.8 145.501 135.93 145.631 135.93 145.791Z" fill="#565656"/>
<path d="M137.22 145.791C137.22 145.951 137.09 146.081 136.93 146.081C136.77 146.081 136.64 145.951 136.64 145.791C136.64 145.631 136.77 145.501 136.93 145.501C137.09 145.501 137.22 145.631 137.22 145.791Z" fill="#565656"/>
<path d="M138.5 145.791C138.5 145.951 138.37 146.081 138.21 146.081C138.05 146.081 137.92 145.951 137.92 145.791C137.92 145.631 138.05 145.501 138.21 145.501C138.37 145.501 138.5 145.631 138.5 145.791Z" fill="#565656"/>
<path d="M139.78 145.791C139.78 145.951 139.65 146.081 139.49 146.081C139.33 146.081 139.2 145.951 139.2 145.791C139.2 145.631 139.33 145.501 139.49 145.501C139.65 145.501 139.78 145.631 139.78 145.791Z" fill="#565656"/>
<path d="M141.07 145.791C141.07 145.951 140.94 146.081 140.78 146.081C140.62 146.081 140.49 145.951 140.49 145.791C140.49 145.631 140.62 145.501 140.78 145.501C140.94 145.501 141.07 145.631 141.07 145.791Z" fill="#565656"/>
<path d="M142.35 145.791C142.35 145.951 142.22 146.081 142.06 146.081C141.9 146.081 141.77 145.951 141.77 145.791C141.77 145.631 141.9 145.501 142.06 145.501C142.22 145.501 142.35 145.631 142.35 145.791Z" fill="#565656"/>
<path d="M130.8 146.852C130.8 147.012 130.67 147.141 130.51 147.141C130.35 147.141 130.22 147.012 130.22 146.852C130.22 146.692 130.35 146.562 130.51 146.562C130.67 146.562 130.8 146.692 130.8 146.852Z" fill="#565656"/>
<path d="M132.08 146.852C132.08 147.012 131.95 147.141 131.79 147.141C131.63 147.141 131.5 147.012 131.5 146.852C131.5 146.692 131.63 146.562 131.79 146.562C131.95 146.562 132.08 146.692 132.08 146.852Z" fill="#565656"/>
<path d="M133.37 146.852C133.37 147.012 133.24 147.141 133.08 147.141C132.92 147.141 132.79 147.012 132.79 146.852C132.79 146.692 132.92 146.562 133.08 146.562C133.24 146.562 133.37 146.692 133.37 146.852Z" fill="#565656"/>
<path d="M134.65 146.852C134.65 147.012 134.52 147.141 134.36 147.141C134.2 147.141 134.07 147.012 134.07 146.852C134.07 146.692 134.2 146.562 134.36 146.562C134.52 146.562 134.65 146.692 134.65 146.852Z" fill="#565656"/>
<path d="M135.93 146.852C135.93 147.012 135.8 147.141 135.64 147.141C135.48 147.141 135.35 147.012 135.35 146.852C135.35 146.692 135.48 146.562 135.64 146.562C135.8 146.562 135.93 146.692 135.93 146.852Z" fill="#565656"/>
<path d="M137.22 146.852C137.22 147.012 137.09 147.141 136.93 147.141C136.77 147.141 136.64 147.012 136.64 146.852C136.64 146.692 136.77 146.562 136.93 146.562C137.09 146.562 137.22 146.692 137.22 146.852Z" fill="#565656"/>
<path d="M138.5 146.852C138.5 147.012 138.37 147.141 138.21 147.141C138.05 147.141 137.92 147.012 137.92 146.852C137.92 146.692 138.05 146.562 138.21 146.562C138.37 146.562 138.5 146.692 138.5 146.852Z" fill="#565656"/>
<path d="M139.78 146.852C139.78 147.012 139.65 147.141 139.49 147.141C139.33 147.141 139.2 147.012 139.2 146.852C139.2 146.692 139.33 146.562 139.49 146.562C139.65 146.562 139.78 146.692 139.78 146.852Z" fill="#565656"/>
<path d="M141.07 146.852C141.07 147.012 140.94 147.141 140.78 147.141C140.62 147.141 140.49 147.012 140.49 146.852C140.49 146.692 140.62 146.562 140.78 146.562C140.94 146.562 141.07 146.692 141.07 146.852Z" fill="#565656"/>
<path d="M142.35 146.852C142.35 147.012 142.22 147.141 142.06 147.141C141.9 147.141 141.77 147.012 141.77 146.852C141.77 146.692 141.9 146.562 142.06 146.562C142.22 146.562 142.35 146.692 142.35 146.852Z" fill="#565656"/>
<path d="M130.8 147.911C130.8 148.071 130.67 148.201 130.51 148.201C130.35 148.201 130.22 148.071 130.22 147.911C130.22 147.751 130.35 147.621 130.51 147.621C130.67 147.621 130.8 147.751 130.8 147.911Z" fill="#565656"/>
<path d="M132.08 147.911C132.08 148.071 131.95 148.201 131.79 148.201C131.63 148.201 131.5 148.071 131.5 147.911C131.5 147.751 131.63 147.621 131.79 147.621C131.95 147.621 132.08 147.751 132.08 147.911Z" fill="#565656"/>
<path d="M133.37 147.911C133.37 148.071 133.24 148.201 133.08 148.201C132.92 148.201 132.79 148.071 132.79 147.911C132.79 147.751 132.92 147.621 133.08 147.621C133.24 147.621 133.37 147.751 133.37 147.911Z" fill="#565656"/>
<path d="M134.65 147.911C134.65 148.071 134.52 148.201 134.36 148.201C134.2 148.201 134.07 148.071 134.07 147.911C134.07 147.751 134.2 147.621 134.36 147.621C134.52 147.621 134.65 147.751 134.65 147.911Z" fill="#565656"/>
<path d="M135.93 147.911C135.93 148.071 135.8 148.201 135.64 148.201C135.48 148.201 135.35 148.071 135.35 147.911C135.35 147.751 135.48 147.621 135.64 147.621C135.8 147.621 135.93 147.751 135.93 147.911Z" fill="#565656"/>
<path d="M137.22 147.911C137.22 148.071 137.09 148.201 136.93 148.201C136.77 148.201 136.64 148.071 136.64 147.911C136.64 147.751 136.77 147.621 136.93 147.621C137.09 147.621 137.22 147.751 137.22 147.911Z" fill="#565656"/>
<path d="M138.5 147.911C138.5 148.071 138.37 148.201 138.21 148.201C138.05 148.201 137.92 148.071 137.92 147.911C137.92 147.751 138.05 147.621 138.21 147.621C138.37 147.621 138.5 147.751 138.5 147.911Z" fill="#565656"/>
<path d="M139.78 147.911C139.78 148.071 139.65 148.201 139.49 148.201C139.33 148.201 139.2 148.071 139.2 147.911C139.2 147.751 139.33 147.621 139.49 147.621C139.65 147.621 139.78 147.751 139.78 147.911Z" fill="#565656"/>
<path d="M141.07 147.911C141.07 148.071 140.94 148.201 140.78 148.201C140.62 148.201 140.49 148.071 140.49 147.911C140.49 147.751 140.62 147.621 140.78 147.621C140.94 147.621 141.07 147.751 141.07 147.911Z" fill="#565656"/>
<path d="M142.35 147.911C142.35 148.071 142.22 148.201 142.06 148.201C141.9 148.201 141.77 148.071 141.77 147.911C141.77 147.751 141.9 147.621 142.06 147.621C142.22 147.621 142.35 147.751 142.35 147.911Z" fill="#565656"/>
<path d="M144.56 154.851H113.4C112.483 154.851 111.74 155.594 111.74 156.511V156.891C111.74 157.807 112.483 158.551 113.4 158.551H144.56C145.477 158.551 146.22 157.807 146.22 156.891V156.511C146.22 155.594 145.477 154.851 144.56 154.851Z" fill="#778FA5"/>
<path d="M122.68 155.69H113.11V157.72H122.68V155.69Z" fill="#191919"/>
<path d="M117.76 156.221H113.63V157.231H117.76V156.221Z" fill="url(#paint11_linear_695_5348)"/>
<path d="M130.8 155.69C130.8 155.85 130.67 155.98 130.51 155.98C130.35 155.98 130.22 155.85 130.22 155.69C130.22 155.53 130.35 155.4 130.51 155.4C130.67 155.4 130.8 155.53 130.8 155.69Z" fill="#565656"/>
<path d="M132.08 155.69C132.08 155.85 131.95 155.98 131.79 155.98C131.63 155.98 131.5 155.85 131.5 155.69C131.5 155.53 131.63 155.4 131.79 155.4C131.95 155.4 132.08 155.53 132.08 155.69Z" fill="#565656"/>
<path d="M133.37 155.69C133.37 155.85 133.24 155.98 133.08 155.98C132.92 155.98 132.79 155.85 132.79 155.69C132.79 155.53 132.92 155.4 133.08 155.4C133.24 155.4 133.37 155.53 133.37 155.69Z" fill="#565656"/>
<path d="M134.65 155.69C134.65 155.85 134.52 155.98 134.36 155.98C134.2 155.98 134.07 155.85 134.07 155.69C134.07 155.53 134.2 155.4 134.36 155.4C134.52 155.4 134.65 155.53 134.65 155.69Z" fill="#565656"/>
<path d="M135.93 155.69C135.93 155.85 135.8 155.98 135.64 155.98C135.48 155.98 135.35 155.85 135.35 155.69C135.35 155.53 135.48 155.4 135.64 155.4C135.8 155.4 135.93 155.53 135.93 155.69Z" fill="#565656"/>
<path d="M137.22 155.69C137.22 155.85 137.09 155.98 136.93 155.98C136.77 155.98 136.64 155.85 136.64 155.69C136.64 155.53 136.77 155.4 136.93 155.4C137.09 155.4 137.22 155.53 137.22 155.69Z" fill="#565656"/>
<path d="M138.5 155.69C138.5 155.85 138.37 155.98 138.21 155.98C138.05 155.98 137.92 155.85 137.92 155.69C137.92 155.53 138.05 155.4 138.21 155.4C138.37 155.4 138.5 155.53 138.5 155.69Z" fill="#565656"/>
<path d="M139.78 155.69C139.78 155.85 139.65 155.98 139.49 155.98C139.33 155.98 139.2 155.85 139.2 155.69C139.2 155.53 139.33 155.4 139.49 155.4C139.65 155.4 139.78 155.53 139.78 155.69Z" fill="#565656"/>
<path d="M141.07 155.69C141.07 155.85 140.94 155.98 140.78 155.98C140.62 155.98 140.49 155.85 140.49 155.69C140.49 155.53 140.62 155.4 140.78 155.4C140.94 155.4 141.07 155.53 141.07 155.69Z" fill="#565656"/>
<path d="M142.35 155.69C142.35 155.85 142.22 155.98 142.06 155.98C141.9 155.98 141.77 155.85 141.77 155.69C141.77 155.53 141.9 155.4 142.06 155.4C142.22 155.4 142.35 155.53 142.35 155.69Z" fill="#565656"/>
<path d="M130.8 156.751C130.8 156.911 130.67 157.041 130.51 157.041C130.35 157.041 130.22 156.911 130.22 156.751C130.22 156.591 130.35 156.461 130.51 156.461C130.67 156.461 130.8 156.591 130.8 156.751Z" fill="#565656"/>
<path d="M132.08 156.751C132.08 156.911 131.95 157.041 131.79 157.041C131.63 157.041 131.5 156.911 131.5 156.751C131.5 156.591 131.63 156.461 131.79 156.461C131.95 156.461 132.08 156.591 132.08 156.751Z" fill="#565656"/>
<path d="M133.37 156.751C133.37 156.911 133.24 157.041 133.08 157.041C132.92 157.041 132.79 156.911 132.79 156.751C132.79 156.591 132.92 156.461 133.08 156.461C133.24 156.461 133.37 156.591 133.37 156.751Z" fill="#565656"/>
<path d="M134.65 156.751C134.65 156.911 134.52 157.041 134.36 157.041C134.2 157.041 134.07 156.911 134.07 156.751C134.07 156.591 134.2 156.461 134.36 156.461C134.52 156.461 134.65 156.591 134.65 156.751Z" fill="#565656"/>
<path d="M135.93 156.751C135.93 156.911 135.8 157.041 135.64 157.041C135.48 157.041 135.35 156.911 135.35 156.751C135.35 156.591 135.48 156.461 135.64 156.461C135.8 156.461 135.93 156.591 135.93 156.751Z" fill="#565656"/>
<path d="M137.22 156.751C137.22 156.911 137.09 157.041 136.93 157.041C136.77 157.041 136.64 156.911 136.64 156.751C136.64 156.591 136.77 156.461 136.93 156.461C137.09 156.461 137.22 156.591 137.22 156.751Z" fill="#565656"/>
<path d="M138.5 156.751C138.5 156.911 138.37 157.041 138.21 157.041C138.05 157.041 137.92 156.911 137.92 156.751C137.92 156.591 138.05 156.461 138.21 156.461C138.37 156.461 138.5 156.591 138.5 156.751Z" fill="#565656"/>
<path d="M139.78 156.751C139.78 156.911 139.65 157.041 139.49 157.041C139.33 157.041 139.2 156.911 139.2 156.751C139.2 156.591 139.33 156.461 139.49 156.461C139.65 156.461 139.78 156.591 139.78 156.751Z" fill="#565656"/>
<path d="M141.07 156.751C141.07 156.911 140.94 157.041 140.78 157.041C140.62 157.041 140.49 156.911 140.49 156.751C140.49 156.591 140.62 156.461 140.78 156.461C140.94 156.461 141.07 156.591 141.07 156.751Z" fill="#565656"/>
<path d="M142.35 156.751C142.35 156.911 142.22 157.041 142.06 157.041C141.9 157.041 141.77 156.911 141.77 156.751C141.77 156.591 141.9 156.461 142.06 156.461C142.22 156.461 142.35 156.591 142.35 156.751Z" fill="#565656"/>
<path d="M130.8 157.811C130.8 157.971 130.67 158.101 130.51 158.101C130.35 158.101 130.22 157.971 130.22 157.811C130.22 157.651 130.35 157.521 130.51 157.521C130.67 157.521 130.8 157.651 130.8 157.811Z" fill="#565656"/>
<path d="M132.08 157.811C132.08 157.971 131.95 158.101 131.79 158.101C131.63 158.101 131.5 157.971 131.5 157.811C131.5 157.651 131.63 157.521 131.79 157.521C131.95 157.521 132.08 157.651 132.08 157.811Z" fill="#565656"/>
<path d="M133.37 157.811C133.37 157.971 133.24 158.101 133.08 158.101C132.92 158.101 132.79 157.971 132.79 157.811C132.79 157.651 132.92 157.521 133.08 157.521C133.24 157.521 133.37 157.651 133.37 157.811Z" fill="#565656"/>
<path d="M134.65 157.811C134.65 157.971 134.52 158.101 134.36 158.101C134.2 158.101 134.07 157.971 134.07 157.811C134.07 157.651 134.2 157.521 134.36 157.521C134.52 157.521 134.65 157.651 134.65 157.811Z" fill="#565656"/>
<path d="M135.93 157.811C135.93 157.971 135.8 158.101 135.64 158.101C135.48 158.101 135.35 157.971 135.35 157.811C135.35 157.651 135.48 157.521 135.64 157.521C135.8 157.521 135.93 157.651 135.93 157.811Z" fill="#565656"/>
<path d="M137.22 157.811C137.22 157.971 137.09 158.101 136.93 158.101C136.77 158.101 136.64 157.971 136.64 157.811C136.64 157.651 136.77 157.521 136.93 157.521C137.09 157.521 137.22 157.651 137.22 157.811Z" fill="#565656"/>
<path d="M138.5 157.811C138.5 157.971 138.37 158.101 138.21 158.101C138.05 158.101 137.92 157.971 137.92 157.811C137.92 157.651 138.05 157.521 138.21 157.521C138.37 157.521 138.5 157.651 138.5 157.811Z" fill="#565656"/>
<path d="M139.78 157.811C139.78 157.971 139.65 158.101 139.49 158.101C139.33 158.101 139.2 157.971 139.2 157.811C139.2 157.651 139.33 157.521 139.49 157.521C139.65 157.521 139.78 157.651 139.78 157.811Z" fill="#565656"/>
<path d="M141.07 157.811C141.07 157.971 140.94 158.101 140.78 158.101C140.62 158.101 140.49 157.971 140.49 157.811C140.49 157.651 140.62 157.521 140.78 157.521C140.94 157.521 141.07 157.651 141.07 157.811Z" fill="#565656"/>
<path d="M142.35 157.811C142.35 157.971 142.22 158.101 142.06 158.101C141.9 158.101 141.77 157.971 141.77 157.811C141.77 157.651 141.9 157.521 142.06 157.521C142.22 157.521 142.35 157.651 142.35 157.811Z" fill="#565656"/>
<path d="M144.56 159.371H113.4C112.483 159.371 111.74 160.114 111.74 161.031V161.411C111.74 162.328 112.483 163.071 113.4 163.071H144.56C145.477 163.071 146.22 162.328 146.22 161.411V161.031C146.22 160.114 145.477 159.371 144.56 159.371Z" fill="#778FA5"/>
<path d="M122.75 160.201H113.11V162.231H122.75V160.201Z" fill="#191919"/>
<path d="M117.67 160.741H113.63V161.751H117.67V160.741Z" fill="url(#paint12_linear_695_5348)"/>
<path d="M130.8 160.211C130.8 160.371 130.67 160.501 130.51 160.501C130.35 160.501 130.22 160.371 130.22 160.211C130.22 160.051 130.35 159.921 130.51 159.921C130.67 159.921 130.8 160.051 130.8 160.211Z" fill="#565656"/>
<path d="M132.08 160.211C132.08 160.371 131.95 160.501 131.79 160.501C131.63 160.501 131.5 160.371 131.5 160.211C131.5 160.051 131.63 159.921 131.79 159.921C131.95 159.921 132.08 160.051 132.08 160.211Z" fill="#565656"/>
<path d="M133.37 160.211C133.37 160.371 133.24 160.501 133.08 160.501C132.92 160.501 132.79 160.371 132.79 160.211C132.79 160.051 132.92 159.921 133.08 159.921C133.24 159.921 133.37 160.051 133.37 160.211Z" fill="#565656"/>
<path d="M134.65 160.211C134.65 160.371 134.52 160.501 134.36 160.501C134.2 160.501 134.07 160.371 134.07 160.211C134.07 160.051 134.2 159.921 134.36 159.921C134.52 159.921 134.65 160.051 134.65 160.211Z" fill="#565656"/>
<path d="M135.93 160.211C135.93 160.371 135.8 160.501 135.64 160.501C135.48 160.501 135.35 160.371 135.35 160.211C135.35 160.051 135.48 159.921 135.64 159.921C135.8 159.921 135.93 160.051 135.93 160.211Z" fill="#565656"/>
<path d="M137.22 160.211C137.22 160.371 137.09 160.501 136.93 160.501C136.77 160.501 136.64 160.371 136.64 160.211C136.64 160.051 136.77 159.921 136.93 159.921C137.09 159.921 137.22 160.051 137.22 160.211Z" fill="#565656"/>
<path d="M138.5 160.211C138.5 160.371 138.37 160.501 138.21 160.501C138.05 160.501 137.92 160.371 137.92 160.211C137.92 160.051 138.05 159.921 138.21 159.921C138.37 159.921 138.5 160.051 138.5 160.211Z" fill="#565656"/>
<path d="M139.78 160.211C139.78 160.371 139.65 160.501 139.49 160.501C139.33 160.501 139.2 160.371 139.2 160.211C139.2 160.051 139.33 159.921 139.49 159.921C139.65 159.921 139.78 160.051 139.78 160.211Z" fill="#565656"/>
<path d="M141.07 160.211C141.07 160.371 140.94 160.501 140.78 160.501C140.62 160.501 140.49 160.371 140.49 160.211C140.49 160.051 140.62 159.921 140.78 159.921C140.94 159.921 141.07 160.051 141.07 160.211Z" fill="#565656"/>
<path d="M142.35 160.211C142.35 160.371 142.22 160.501 142.06 160.501C141.9 160.501 141.77 160.371 141.77 160.211C141.77 160.051 141.9 159.921 142.06 159.921C142.22 159.921 142.35 160.051 142.35 160.211Z" fill="#565656"/>
<path d="M130.8 161.271C130.8 161.431 130.67 161.561 130.51 161.561C130.35 161.561 130.22 161.431 130.22 161.271C130.22 161.111 130.35 160.981 130.51 160.981C130.67 160.981 130.8 161.111 130.8 161.271Z" fill="#565656"/>
<path d="M132.08 161.271C132.08 161.431 131.95 161.561 131.79 161.561C131.63 161.561 131.5 161.431 131.5 161.271C131.5 161.111 131.63 160.981 131.79 160.981C131.95 160.981 132.08 161.111 132.08 161.271Z" fill="#565656"/>
<path d="M133.37 161.271C133.37 161.431 133.24 161.561 133.08 161.561C132.92 161.561 132.79 161.431 132.79 161.271C132.79 161.111 132.92 160.981 133.08 160.981C133.24 160.981 133.37 161.111 133.37 161.271Z" fill="#565656"/>
<path d="M134.65 161.271C134.65 161.431 134.52 161.561 134.36 161.561C134.2 161.561 134.07 161.431 134.07 161.271C134.07 161.111 134.2 160.981 134.36 160.981C134.52 160.981 134.65 161.111 134.65 161.271Z" fill="#565656"/>
<path d="M135.93 161.271C135.93 161.431 135.8 161.561 135.64 161.561C135.48 161.561 135.35 161.431 135.35 161.271C135.35 161.111 135.48 160.981 135.64 160.981C135.8 160.981 135.93 161.111 135.93 161.271Z" fill="#565656"/>
<path d="M137.22 161.271C137.22 161.431 137.09 161.561 136.93 161.561C136.77 161.561 136.64 161.431 136.64 161.271C136.64 161.111 136.77 160.981 136.93 160.981C137.09 160.981 137.22 161.111 137.22 161.271Z" fill="#565656"/>
<path d="M138.5 161.271C138.5 161.431 138.37 161.561 138.21 161.561C138.05 161.561 137.92 161.431 137.92 161.271C137.92 161.111 138.05 160.981 138.21 160.981C138.37 160.981 138.5 161.111 138.5 161.271Z" fill="#565656"/>
<path d="M139.78 161.271C139.78 161.431 139.65 161.561 139.49 161.561C139.33 161.561 139.2 161.431 139.2 161.271C139.2 161.111 139.33 160.981 139.49 160.981C139.65 160.981 139.78 161.111 139.78 161.271Z" fill="#565656"/>
<path d="M141.07 161.271C141.07 161.431 140.94 161.561 140.78 161.561C140.62 161.561 140.49 161.431 140.49 161.271C140.49 161.111 140.62 160.981 140.78 160.981C140.94 160.981 141.07 161.111 141.07 161.271Z" fill="#565656"/>
<path d="M142.35 161.271C142.35 161.431 142.22 161.561 142.06 161.561C141.9 161.561 141.77 161.431 141.77 161.271C141.77 161.111 141.9 160.981 142.06 160.981C142.22 160.981 142.35 161.111 142.35 161.271Z" fill="#565656"/>
<path d="M130.8 162.331C130.8 162.491 130.67 162.621 130.51 162.621C130.35 162.621 130.22 162.491 130.22 162.331C130.22 162.171 130.35 162.041 130.51 162.041C130.67 162.041 130.8 162.171 130.8 162.331Z" fill="#565656"/>
<path d="M132.08 162.331C132.08 162.491 131.95 162.621 131.79 162.621C131.63 162.621 131.5 162.491 131.5 162.331C131.5 162.171 131.63 162.041 131.79 162.041C131.95 162.041 132.08 162.171 132.08 162.331Z" fill="#565656"/>
<path d="M133.37 162.331C133.37 162.491 133.24 162.621 133.08 162.621C132.92 162.621 132.79 162.491 132.79 162.331C132.79 162.171 132.92 162.041 133.08 162.041C133.24 162.041 133.37 162.171 133.37 162.331Z" fill="#565656"/>
<path d="M134.65 162.331C134.65 162.491 134.52 162.621 134.36 162.621C134.2 162.621 134.07 162.491 134.07 162.331C134.07 162.171 134.2 162.041 134.36 162.041C134.52 162.041 134.65 162.171 134.65 162.331Z" fill="#565656"/>
<path d="M135.93 162.331C135.93 162.491 135.8 162.621 135.64 162.621C135.48 162.621 135.35 162.491 135.35 162.331C135.35 162.171 135.48 162.041 135.64 162.041C135.8 162.041 135.93 162.171 135.93 162.331Z" fill="#565656"/>
<path d="M137.22 162.331C137.22 162.491 137.09 162.621 136.93 162.621C136.77 162.621 136.64 162.491 136.64 162.331C136.64 162.171 136.77 162.041 136.93 162.041C137.09 162.041 137.22 162.171 137.22 162.331Z" fill="#565656"/>
<path d="M138.5 162.331C138.5 162.491 138.37 162.621 138.21 162.621C138.05 162.621 137.92 162.491 137.92 162.331C137.92 162.171 138.05 162.041 138.21 162.041C138.37 162.041 138.5 162.171 138.5 162.331Z" fill="#565656"/>
<path d="M139.78 162.331C139.78 162.491 139.65 162.621 139.49 162.621C139.33 162.621 139.2 162.491 139.2 162.331C139.2 162.171 139.33 162.041 139.49 162.041C139.65 162.041 139.78 162.171 139.78 162.331Z" fill="#565656"/>
<path d="M141.07 162.331C141.07 162.491 140.94 162.621 140.78 162.621C140.62 162.621 140.49 162.491 140.49 162.331C140.49 162.171 140.62 162.041 140.78 162.041C140.94 162.041 141.07 162.171 141.07 162.331Z" fill="#565656"/>
<path d="M142.35 162.331C142.35 162.491 142.22 162.621 142.06 162.621C141.9 162.621 141.77 162.491 141.77 162.331C141.77 162.171 141.9 162.041 142.06 162.041C142.22 162.041 142.35 162.171 142.35 162.331Z" fill="#565656"/>
<path d="M114.86 175.431C114.86 175.981 114.41 176.431 113.86 176.431C113.31 176.431 112.86 175.981 112.86 175.431C112.86 174.881 113.31 174.431 113.86 174.431C114.41 174.431 114.86 174.881 114.86 175.431Z" fill="#3B3B3B"/>
<path d="M118.21 175.431C118.21 175.981 117.76 176.431 117.21 176.431C116.66 176.431 116.21 175.981 116.21 175.431C116.21 174.881 116.66 174.431 117.21 174.431C117.76 174.431 118.21 174.881 118.21 175.431Z" fill="#3B3B3B"/>
<path d="M121.57 175.431C121.57 175.981 121.12 176.431 120.57 176.431C120.02 176.431 119.57 175.981 119.57 175.431C119.57 174.881 120.02 174.431 120.57 174.431C121.12 174.431 121.57 174.881 121.57 175.431Z" fill="#3B3B3B"/>
<path d="M124.92 175.431C124.92 175.981 124.47 176.431 123.92 176.431C123.37 176.431 122.92 175.981 122.92 175.431C122.92 174.881 123.37 174.431 123.92 174.431C124.47 174.431 124.92 174.881 124.92 175.431Z" fill="#3B3B3B"/>
<path d="M128.28 175.431C128.28 175.981 127.83 176.431 127.28 176.431C126.73 176.431 126.28 175.981 126.28 175.431C126.28 174.881 126.73 174.431 127.28 174.431C127.83 174.431 128.28 174.881 128.28 175.431Z" fill="#3B3B3B"/>
<path d="M131.63 175.431C131.63 175.981 131.18 176.431 130.63 176.431C130.08 176.431 129.63 175.981 129.63 175.431C129.63 174.881 130.08 174.431 130.63 174.431C131.18 174.431 131.63 174.881 131.63 175.431Z" fill="#3B3B3B"/>
<path d="M134.98 175.431C134.98 175.981 134.53 176.431 133.98 176.431C133.43 176.431 132.98 175.981 132.98 175.431C132.98 174.881 133.43 174.431 133.98 174.431C134.53 174.431 134.98 174.881 134.98 175.431Z" fill="#3B3B3B"/>
<path d="M138.34 175.431C138.34 175.981 137.89 176.431 137.34 176.431C136.79 176.431 136.34 175.981 136.34 175.431C136.34 174.881 136.79 174.431 137.34 174.431C137.89 174.431 138.34 174.881 138.34 175.431Z" fill="#3B3B3B"/>
<path d="M141.69 175.431C141.69 175.981 141.24 176.431 140.69 176.431C140.14 176.431 139.69 175.981 139.69 175.431C139.69 174.881 140.14 174.431 140.69 174.431C141.24 174.431 141.69 174.881 141.69 175.431Z" fill="#3B3B3B"/>
<path d="M145.04 175.431C145.04 175.981 144.59 176.431 144.04 176.431C143.49 176.431 143.04 175.981 143.04 175.431C143.04 174.881 143.49 174.431 144.04 174.431C144.59 174.431 145.04 174.881 145.04 175.431Z" fill="#3B3B3B"/>
<path d="M113.88 179.36C114.432 179.36 114.88 178.913 114.88 178.36C114.88 177.808 114.432 177.36 113.88 177.36C113.328 177.36 112.88 177.808 112.88 178.36C112.88 178.913 113.328 179.36 113.88 179.36Z" fill="#3B3B3B"/>
<path d="M117.24 179.36C117.792 179.36 118.24 178.913 118.24 178.36C118.24 177.808 117.792 177.36 117.24 177.36C116.687 177.36 116.24 177.808 116.24 178.36C116.24 178.913 116.687 179.36 117.24 179.36Z" fill="#3B3B3B"/>
<path d="M120.59 179.36C121.142 179.36 121.59 178.913 121.59 178.36C121.59 177.808 121.142 177.36 120.59 177.36C120.038 177.36 119.59 177.808 119.59 178.36C119.59 178.913 120.038 179.36 120.59 179.36Z" fill="#3B3B3B"/>
<path d="M124.94 178.36C124.94 178.91 124.49 179.36 123.94 179.36C123.39 179.36 122.94 178.91 122.94 178.36C122.94 177.81 123.39 177.36 123.94 177.36C124.49 177.36 124.94 177.81 124.94 178.36Z" fill="#3B3B3B"/>
<path d="M127.3 179.36C127.852 179.36 128.3 178.913 128.3 178.36C128.3 177.808 127.852 177.36 127.3 177.36C126.748 177.36 126.3 177.808 126.3 178.36C126.3 178.913 126.748 179.36 127.3 179.36Z" fill="#3B3B3B"/>
<path d="M130.65 179.36C131.202 179.36 131.65 178.913 131.65 178.36C131.65 177.808 131.202 177.36 130.65 177.36C130.098 177.36 129.65 177.808 129.65 178.36C129.65 178.913 130.098 179.36 130.65 179.36Z" fill="#3B3B3B"/>
<path d="M135.01 178.36C135.01 178.91 134.56 179.36 134.01 179.36C133.46 179.36 133.01 178.91 133.01 178.36C133.01 177.81 133.46 177.36 134.01 177.36C134.56 177.36 135.01 177.81 135.01 178.36Z" fill="#3B3B3B"/>
<path d="M138.36 178.36C138.36 178.91 137.91 179.36 137.36 179.36C136.81 179.36 136.36 178.91 136.36 178.36C136.36 177.81 136.81 177.36 137.36 177.36C137.91 177.36 138.36 177.81 138.36 178.36Z" fill="#3B3B3B"/>
<path d="M140.71 179.36C141.262 179.36 141.71 178.913 141.71 178.36C141.71 177.808 141.262 177.36 140.71 177.36C140.158 177.36 139.71 177.808 139.71 178.36C139.71 178.913 140.158 179.36 140.71 179.36Z" fill="#3B3B3B"/>
<path d="M144.07 179.36C144.622 179.36 145.07 178.913 145.07 178.36C145.07 177.808 144.622 177.36 144.07 177.36C143.518 177.36 143.07 177.808 143.07 178.36C143.07 178.913 143.518 179.36 144.07 179.36Z" fill="#3B3B3B"/>
<path d="M116.77 93.1904H110.31V94.9504H116.77V93.1904Z" fill="#565656"/>
<path d="M147.66 93.1904H141.2V94.9504H147.66V93.1904Z" fill="#565656"/>
<path d="M116.76 107.61H110.3V109.37H116.76V107.61Z" fill="#565656"/>
<path d="M147.65 107.61H141.19V109.37H147.65V107.61Z" fill="#565656"/>
<path d="M116.75 122.03H110.29V123.79H116.75V122.03Z" fill="#565656"/>
<path d="M147.64 122.03H141.18V123.79H147.64V122.03Z" fill="#565656"/>
<path d="M116.74 136.45H110.28V138.21H116.74V136.45Z" fill="#565656"/>
<path d="M147.63 136.45H141.17V138.21H147.63V136.45Z" fill="#565656"/>
<path d="M116.74 150.87H110.28V152.63H116.74V150.87Z" fill="#565656"/>
<path d="M147.63 150.87H141.17V152.63H147.63V150.87Z" fill="#565656"/>
<path d="M116.73 165.29H110.27V167.05H116.73V165.29Z" fill="#565656"/>
<path d="M147.62 165.29H141.16V167.05H147.62V165.29Z" fill="#565656"/>
<path d="M107.83 136.19C107.26 136.19 106.8 135.73 106.8 135.16V116.52C106.8 115.95 107.26 115.49 107.83 115.49C108.4 115.49 108.86 115.95 108.86 116.52V135.16C108.86 135.73 108.4 136.19 107.83 136.19Z" fill="#191919"/>
<path d="M15.72 34.3599C19.4314 34.3599 22.44 31.3513 22.44 27.6399C22.44 23.9286 19.4314 20.9199 15.72 20.9199C12.0086 20.9199 9 23.9286 9 27.6399C9 31.3513 12.0086 34.3599 15.72 34.3599Z" fill="#D12F17"/>
<path d="M22.33 37.6602H9.10001C9.04478 37.6602 9 37.7049 9 37.7602V84.7702C9 84.8254 9.04478 84.8702 9.10001 84.8702H22.33C22.3852 84.8702 22.43 84.8254 22.43 84.7702V37.7602C22.43 37.7049 22.3852 37.6602 22.33 37.6602Z" fill="#D12F17"/>
<path d="M45.4801 43.5498V83.9198C45.4801 84.1498 45.4001 84.3598 45.2601 84.5298L32.05 56.1098V43.5598C32.05 39.8498 35.0601 36.8398 38.7701 36.8398C40.6201 36.8398 42.3 37.5898 43.5201 38.8098C44.7401 40.0298 45.4901 41.6998 45.4901 43.5598L45.4801 43.5498Z" fill="#EF8019"/>
<path d="M43.8499 84.8702H31.76C31.28 84.8702 30.8499 84.5902 30.6499 84.1602C30.6499 84.1602 12.4399 45.0402 9.42993 38.5602C9.22993 38.1402 9.53995 37.6602 10.01 37.6602H21.6899C22.1499 37.6602 22.57 37.9302 22.7599 38.3402L44.1799 84.3602C44.2899 84.6002 44.12 84.8702 43.86 84.8702H43.8499Z" fill="url(#paint13_linear_695_5348)"/>
<path d="M49.0699 27.5999C48.5699 28.1399 47.7099 28.1499 47.2199 27.5999C45.0899 25.2199 41.9699 23.7099 38.4899 23.7099C35.0099 23.7099 31.9399 25.1899 29.8199 27.5299C29.3299 28.0699 28.4699 28.0699 27.9699 27.5299C27.5499 27.0699 27.5299 26.3899 27.8999 25.8999C30.2099 22.8899 34.0899 20.9199 38.4899 20.9199C42.8899 20.9199 46.8599 22.9399 49.1599 26.0099C49.5199 26.4899 49.4799 27.1599 49.0699 27.5999Z" fill="#EF8019"/>
<path d="M46.14 30.7999C45.64 31.3499 44.7899 31.3399 44.2799 30.7999C42.7199 29.1399 40.6999 28.1399 38.4999 28.1399C36.2999 28.1399 34.3299 29.1099 32.7699 30.7399C32.2599 31.2699 31.41 31.2699 30.92 30.7399C30.49 30.2599 30.47 29.5499 30.89 29.0599C32.79 26.8199 35.5 25.4199 38.51 25.4199C41.52 25.4199 44.29 26.8499 46.19 29.1299C46.6 29.6199 46.5799 30.3299 46.1499 30.7999H46.14Z" fill="#EF8019"/>
<path d="M43.37 33.8098L43.34 33.8398C42.88 34.3398 42.1 34.3798 41.58 33.9298C40.68 33.1498 39.66 32.7198 38.58 32.7198C37.5 32.7198 36.46 33.1598 35.56 33.9498C35.04 34.3998 34.26 34.3698 33.8 33.8598L33.77 33.8298C33.31 33.3298 33.33 32.5498 33.82 32.0798C35.17 30.7698 36.81 30.0098 38.59 30.0098C40.37 30.0098 41.99 30.7698 43.33 32.0598C43.82 32.5298 43.84 33.3198 43.38 33.8198L43.37 33.8098Z" fill="#EF8019"/>
<defs>
<linearGradient id="paint0_linear_695_5348" x1="163.95" y1="63.84" x2="184.49" y2="63.84" gradientUnits="userSpaceOnUse">
<stop stop-color="#D12F17"/>
<stop offset="0.14" stop-color="#D63E17"/>
<stop offset="0.51" stop-color="#E36218"/>
<stop offset="0.81" stop-color="#EC7818"/>
<stop offset="1" stop-color="#EF8019"/>
</linearGradient>
<linearGradient id="paint1_linear_695_5348" x1="113.63" y1="86.4709" x2="117.76" y2="86.4709" gradientUnits="userSpaceOnUse">
<stop stop-color="#D12F17"/>
<stop offset="0.14" stop-color="#D63E17"/>
<stop offset="0.51" stop-color="#E36218"/>
<stop offset="0.81" stop-color="#EC7818"/>
<stop offset="1" stop-color="#EF8019"/>
</linearGradient>
<linearGradient id="paint2_linear_695_5348" x1="113.63" y1="90.9805" x2="117.67" y2="90.9805" gradientUnits="userSpaceOnUse">
<stop stop-color="#D12F17"/>
<stop offset="0.14" stop-color="#D63E17"/>
<stop offset="0.51" stop-color="#E36218"/>
<stop offset="0.81" stop-color="#EC7818"/>
<stop offset="1" stop-color="#EF8019"/>
</linearGradient>
<linearGradient id="paint3_linear_695_5348" x1="113.63" y1="99.3313" x2="117.76" y2="99.3313" gradientUnits="userSpaceOnUse">
<stop stop-color="#D12F17"/>
<stop offset="0.14" stop-color="#D63E17"/>
<stop offset="0.51" stop-color="#E36218"/>
<stop offset="0.81" stop-color="#EC7818"/>
<stop offset="1" stop-color="#EF8019"/>
</linearGradient>
<linearGradient id="paint4_linear_695_5348" x1="113.63" y1="103.841" x2="117.67" y2="103.841" gradientUnits="userSpaceOnUse">
<stop stop-color="#D12F17"/>
<stop offset="0.14" stop-color="#D63E17"/>
<stop offset="0.51" stop-color="#E36218"/>
<stop offset="0.81" stop-color="#EC7818"/>
<stop offset="1" stop-color="#EF8019"/>
</linearGradient>
<linearGradient id="paint5_linear_695_5348" x1="113.63" y1="113.471" x2="117.76" y2="113.471" gradientUnits="userSpaceOnUse">
<stop stop-color="#D12F17"/>
<stop offset="0.14" stop-color="#D63E17"/>
<stop offset="0.51" stop-color="#E36218"/>
<stop offset="0.81" stop-color="#EC7818"/>
<stop offset="1" stop-color="#EF8019"/>
</linearGradient>
<linearGradient id="paint6_linear_695_5348" x1="113.63" y1="117.98" x2="117.67" y2="117.98" gradientUnits="userSpaceOnUse">
<stop stop-color="#D12F17"/>
<stop offset="0.14" stop-color="#D63E17"/>
<stop offset="0.51" stop-color="#E36218"/>
<stop offset="0.81" stop-color="#EC7818"/>
<stop offset="1" stop-color="#EF8019"/>
</linearGradient>
<linearGradient id="paint7_linear_695_5348" x1="113.63" y1="127.881" x2="117.76" y2="127.881" gradientUnits="userSpaceOnUse">
<stop stop-color="#D12F17"/>
<stop offset="0.14" stop-color="#D63E17"/>
<stop offset="0.51" stop-color="#E36218"/>
<stop offset="0.81" stop-color="#EC7818"/>
<stop offset="1" stop-color="#EF8019"/>
</linearGradient>
<linearGradient id="paint8_linear_695_5348" x1="113.63" y1="132.4" x2="117.67" y2="132.4" gradientUnits="userSpaceOnUse">
<stop stop-color="#D12F17"/>
<stop offset="0.14" stop-color="#D63E17"/>
<stop offset="0.51" stop-color="#E36218"/>
<stop offset="0.81" stop-color="#EC7818"/>
<stop offset="1" stop-color="#EF8019"/>
</linearGradient>
<linearGradient id="paint9_linear_695_5348" x1="113.63" y1="142.301" x2="117.76" y2="142.301" gradientUnits="userSpaceOnUse">
<stop stop-color="#D12F17"/>
<stop offset="0.14" stop-color="#D63E17"/>
<stop offset="0.51" stop-color="#E36218"/>
<stop offset="0.81" stop-color="#EC7818"/>
<stop offset="1" stop-color="#EF8019"/>
</linearGradient>
<linearGradient id="paint10_linear_695_5348" x1="113.63" y1="146.821" x2="117.67" y2="146.821" gradientUnits="userSpaceOnUse">
<stop stop-color="#D12F17"/>
<stop offset="0.14" stop-color="#D63E17"/>
<stop offset="0.51" stop-color="#E36218"/>
<stop offset="0.81" stop-color="#EC7818"/>
<stop offset="1" stop-color="#EF8019"/>
</linearGradient>
<linearGradient id="paint11_linear_695_5348" x1="113.63" y1="156.721" x2="117.76" y2="156.721" gradientUnits="userSpaceOnUse">
<stop stop-color="#D12F17"/>
<stop offset="0.14" stop-color="#D63E17"/>
<stop offset="0.51" stop-color="#E36218"/>
<stop offset="0.81" stop-color="#EC7818"/>
<stop offset="1" stop-color="#EF8019"/>
</linearGradient>
<linearGradient id="paint12_linear_695_5348" x1="113.63" y1="161.241" x2="117.67" y2="161.241" gradientUnits="userSpaceOnUse">
<stop stop-color="#D12F17"/>
<stop offset="0.14" stop-color="#D63E17"/>
<stop offset="0.51" stop-color="#E36218"/>
<stop offset="0.81" stop-color="#EC7818"/>
<stop offset="1" stop-color="#EF8019"/>
</linearGradient>
<linearGradient id="paint13_linear_695_5348" x1="9.35994" y1="61.2602" x2="44.1999" y2="61.2602" gradientUnits="userSpaceOnUse">
<stop stop-color="#D12F17"/>
<stop offset="0.14" stop-color="#D63E17"/>
<stop offset="0.51" stop-color="#E36218"/>
<stop offset="0.81" stop-color="#EC7818"/>
<stop offset="1" stop-color="#EF8019"/>
</linearGradient>
</defs>
</svg>
