<svg width="192" height="187" viewBox="0 0 192 187" fill="none" xmlns="http://www.w3.org/2000/svg">
<path d="M41.2299 14.8701L69.97 14.8701V9.28012L41.2299 9.28012V14.8701Z" fill="#0E2D47"/>
<path d="M41.2299 170.25H69.97V164.66H41.2299V170.25Z" fill="#001A18"/>
<path d="M176.9 0H103.73V186.82H176.9V0Z" fill="#C3DBDD"/>
<path d="M156.55 186.82H191.88L191.88 0.000274658H156.55L156.55 186.82Z" fill="#384C4B"/>
<path d="M79.89 186.82H103.73L103.73 0.000274658H79.89L79.89 186.82Z" fill="#384C4B"/>
<path d="M63.5901 186.82H79.8901L79.8901 0.000274658H63.5901L63.5901 186.82Z" fill="#384C4B"/>
<path d="M57.48 0H0V186.82H57.48V0Z" fill="#C3DBDD"/>
<path d="M175.28 51.73L184.36 74.52C184.77 75.55 184.2 76.77 183.31 76.77H165.15C164.26 76.77 163.69 75.54 164.1 74.52L173.18 51.73C173.62 50.62 174.85 50.62 175.29 51.73H175.28Z" fill="url(#paint0_linear_695_5349)"/>
<path d="M171.3 63.2199H175.64L173.49 55.8999L174.46 55.4199L177.14 64.5699H172.73L174.51 71.6899L175.34 70.7499L175.01 75.8699L172.42 71.9899L173.52 72.1099L171.3 63.2199Z" fill="#001A18"/>
<path d="M156.56 0H154.43V186.82H156.56V0Z" fill="#001A18"/>
<path d="M155.69 16.0195H157.42V10.4295H155.69V16.0195Z" fill="#0E2D47"/>
<path d="M155.69 170.25H157.42V164.66H155.69V170.25Z" fill="#001A18"/>
<path d="M103.72 186.84H154.22V74.8999H103.72L103.72 186.84Z" fill="#6A6A6A"/>
<path d="M110.31 180.62H147.64V80.5501H110.31L110.31 180.62Z" fill="#191919"/>
<path d="M147.64 172.7H110.31V180.67H147.64V172.7Z" fill="#565656"/>
<path d="M144.56 84.5898H113.4C112.483 84.5898 111.74 85.333 111.74 86.2498V86.6298C111.74 87.5466 112.483 88.2898 113.4 88.2898H144.56C145.477 88.2898 146.22 87.5466 146.22 86.6298V86.2498C146.22 85.333 145.477 84.5898 144.56 84.5898Z" fill="#778FA5"/>
<path d="M122.68 85.4297H113.11V87.4597H122.68V85.4297Z" fill="#191919"/>
<path d="M117.76 85.96H113.63V86.9699H117.76V85.96Z" fill="url(#paint1_linear_695_5349)"/>
<path d="M130.8 85.4394C130.8 85.5994 130.67 85.7294 130.51 85.7294C130.35 85.7294 130.22 85.5994 130.22 85.4394C130.22 85.2794 130.35 85.1494 130.51 85.1494C130.67 85.1494 130.8 85.2794 130.8 85.4394Z" fill="#565656"/>
<path d="M132.08 85.4394C132.08 85.5994 131.95 85.7294 131.79 85.7294C131.63 85.7294 131.5 85.5994 131.5 85.4394C131.5 85.2794 131.63 85.1494 131.79 85.1494C131.95 85.1494 132.08 85.2794 132.08 85.4394Z" fill="#565656"/>
<path d="M133.37 85.4394C133.37 85.5994 133.24 85.7294 133.08 85.7294C132.92 85.7294 132.79 85.5994 132.79 85.4394C132.79 85.2794 132.92 85.1494 133.08 85.1494C133.24 85.1494 133.37 85.2794 133.37 85.4394Z" fill="#565656"/>
<path d="M134.65 85.4394C134.65 85.5994 134.52 85.7294 134.36 85.7294C134.2 85.7294 134.07 85.5994 134.07 85.4394C134.07 85.2794 134.2 85.1494 134.36 85.1494C134.52 85.1494 134.65 85.2794 134.65 85.4394Z" fill="#565656"/>
<path d="M135.93 85.4394C135.93 85.5994 135.8 85.7294 135.64 85.7294C135.48 85.7294 135.35 85.5994 135.35 85.4394C135.35 85.2794 135.48 85.1494 135.64 85.1494C135.8 85.1494 135.93 85.2794 135.93 85.4394Z" fill="#565656"/>
<path d="M137.22 85.4394C137.22 85.5994 137.09 85.7294 136.93 85.7294C136.77 85.7294 136.64 85.5994 136.64 85.4394C136.64 85.2794 136.77 85.1494 136.93 85.1494C137.09 85.1494 137.22 85.2794 137.22 85.4394Z" fill="#565656"/>
<path d="M138.5 85.4394C138.5 85.5994 138.37 85.7294 138.21 85.7294C138.05 85.7294 137.92 85.5994 137.92 85.4394C137.92 85.2794 138.05 85.1494 138.21 85.1494C138.37 85.1494 138.5 85.2794 138.5 85.4394Z" fill="#565656"/>
<path d="M139.78 85.4394C139.78 85.5994 139.65 85.7294 139.49 85.7294C139.33 85.7294 139.2 85.5994 139.2 85.4394C139.2 85.2794 139.33 85.1494 139.49 85.1494C139.65 85.1494 139.78 85.2794 139.78 85.4394Z" fill="#565656"/>
<path d="M141.07 85.4394C141.07 85.5994 140.94 85.7294 140.78 85.7294C140.62 85.7294 140.49 85.5994 140.49 85.4394C140.49 85.2794 140.62 85.1494 140.78 85.1494C140.94 85.1494 141.07 85.2794 141.07 85.4394Z" fill="#565656"/>
<path d="M142.35 85.4394C142.35 85.5994 142.22 85.7294 142.06 85.7294C141.9 85.7294 141.77 85.5994 141.77 85.4394C141.77 85.2794 141.9 85.1494 142.06 85.1494C142.22 85.1494 142.35 85.2794 142.35 85.4394Z" fill="#565656"/>
<path d="M130.8 86.4999C130.8 86.6599 130.67 86.7899 130.51 86.7899C130.35 86.7899 130.22 86.6599 130.22 86.4999C130.22 86.3399 130.35 86.21 130.51 86.21C130.67 86.21 130.8 86.3399 130.8 86.4999Z" fill="#565656"/>
<path d="M132.08 86.4999C132.08 86.6599 131.95 86.7899 131.79 86.7899C131.63 86.7899 131.5 86.6599 131.5 86.4999C131.5 86.3399 131.63 86.21 131.79 86.21C131.95 86.21 132.08 86.3399 132.08 86.4999Z" fill="#565656"/>
<path d="M133.37 86.4999C133.37 86.6599 133.24 86.7899 133.08 86.7899C132.92 86.7899 132.79 86.6599 132.79 86.4999C132.79 86.3399 132.92 86.21 133.08 86.21C133.24 86.21 133.37 86.3399 133.37 86.4999Z" fill="#565656"/>
<path d="M134.65 86.4999C134.65 86.6599 134.52 86.7899 134.36 86.7899C134.2 86.7899 134.07 86.6599 134.07 86.4999C134.07 86.3399 134.2 86.21 134.36 86.21C134.52 86.21 134.65 86.3399 134.65 86.4999Z" fill="#565656"/>
<path d="M135.93 86.4999C135.93 86.6599 135.8 86.7899 135.64 86.7899C135.48 86.7899 135.35 86.6599 135.35 86.4999C135.35 86.3399 135.48 86.21 135.64 86.21C135.8 86.21 135.93 86.3399 135.93 86.4999Z" fill="#565656"/>
<path d="M137.22 86.4999C137.22 86.6599 137.09 86.7899 136.93 86.7899C136.77 86.7899 136.64 86.6599 136.64 86.4999C136.64 86.3399 136.77 86.21 136.93 86.21C137.09 86.21 137.22 86.3399 137.22 86.4999Z" fill="#565656"/>
<path d="M138.5 86.4999C138.5 86.6599 138.37 86.7899 138.21 86.7899C138.05 86.7899 137.92 86.6599 137.92 86.4999C137.92 86.3399 138.05 86.21 138.21 86.21C138.37 86.21 138.5 86.3399 138.5 86.4999Z" fill="#565656"/>
<path d="M139.78 86.4999C139.78 86.6599 139.65 86.7899 139.49 86.7899C139.33 86.7899 139.2 86.6599 139.2 86.4999C139.2 86.3399 139.33 86.21 139.49 86.21C139.65 86.21 139.78 86.3399 139.78 86.4999Z" fill="#565656"/>
<path d="M141.07 86.4999C141.07 86.6599 140.94 86.7899 140.78 86.7899C140.62 86.7899 140.49 86.6599 140.49 86.4999C140.49 86.3399 140.62 86.21 140.78 86.21C140.94 86.21 141.07 86.3399 141.07 86.4999Z" fill="#565656"/>
<path d="M142.35 86.4999C142.35 86.6599 142.22 86.7899 142.06 86.7899C141.9 86.7899 141.77 86.6599 141.77 86.4999C141.77 86.3399 141.9 86.21 142.06 86.21C142.22 86.21 142.35 86.3399 142.35 86.4999Z" fill="#565656"/>
<path d="M130.8 87.5595C130.8 87.7195 130.67 87.8495 130.51 87.8495C130.35 87.8495 130.22 87.7195 130.22 87.5595C130.22 87.3995 130.35 87.2695 130.51 87.2695C130.67 87.2695 130.8 87.3995 130.8 87.5595Z" fill="#565656"/>
<path d="M132.08 87.5595C132.08 87.7195 131.95 87.8495 131.79 87.8495C131.63 87.8495 131.5 87.7195 131.5 87.5595C131.5 87.3995 131.63 87.2695 131.79 87.2695C131.95 87.2695 132.08 87.3995 132.08 87.5595Z" fill="#565656"/>
<path d="M133.37 87.5595C133.37 87.7195 133.24 87.8495 133.08 87.8495C132.92 87.8495 132.79 87.7195 132.79 87.5595C132.79 87.3995 132.92 87.2695 133.08 87.2695C133.24 87.2695 133.37 87.3995 133.37 87.5595Z" fill="#565656"/>
<path d="M134.65 87.5595C134.65 87.7195 134.52 87.8495 134.36 87.8495C134.2 87.8495 134.07 87.7195 134.07 87.5595C134.07 87.3995 134.2 87.2695 134.36 87.2695C134.52 87.2695 134.65 87.3995 134.65 87.5595Z" fill="#565656"/>
<path d="M135.93 87.5595C135.93 87.7195 135.8 87.8495 135.64 87.8495C135.48 87.8495 135.35 87.7195 135.35 87.5595C135.35 87.3995 135.48 87.2695 135.64 87.2695C135.8 87.2695 135.93 87.3995 135.93 87.5595Z" fill="#565656"/>
<path d="M137.22 87.5595C137.22 87.7195 137.09 87.8495 136.93 87.8495C136.77 87.8495 136.64 87.7195 136.64 87.5595C136.64 87.3995 136.77 87.2695 136.93 87.2695C137.09 87.2695 137.22 87.3995 137.22 87.5595Z" fill="#565656"/>
<path d="M138.5 87.5595C138.5 87.7195 138.37 87.8495 138.21 87.8495C138.05 87.8495 137.92 87.7195 137.92 87.5595C137.92 87.3995 138.05 87.2695 138.21 87.2695C138.37 87.2695 138.5 87.3995 138.5 87.5595Z" fill="#565656"/>
<path d="M139.78 87.5595C139.78 87.7195 139.65 87.8495 139.49 87.8495C139.33 87.8495 139.2 87.7195 139.2 87.5595C139.2 87.3995 139.33 87.2695 139.49 87.2695C139.65 87.2695 139.78 87.3995 139.78 87.5595Z" fill="#565656"/>
<path d="M141.07 87.5595C141.07 87.7195 140.94 87.8495 140.78 87.8495C140.62 87.8495 140.49 87.7195 140.49 87.5595C140.49 87.3995 140.62 87.2695 140.78 87.2695C140.94 87.2695 141.07 87.3995 141.07 87.5595Z" fill="#565656"/>
<path d="M142.35 87.5595C142.35 87.7195 142.22 87.8495 142.06 87.8495C141.9 87.8495 141.77 87.7195 141.77 87.5595C141.77 87.3995 141.9 87.2695 142.06 87.2695C142.22 87.2695 142.35 87.3995 142.35 87.5595Z" fill="#565656"/>
<path d="M144.56 89.1094H113.4C112.483 89.1094 111.74 89.8526 111.74 90.7694V91.1494C111.74 92.0662 112.483 92.8094 113.4 92.8094H144.56C145.477 92.8094 146.22 92.0662 146.22 91.1494V90.7694C146.22 89.8526 145.477 89.1094 144.56 89.1094Z" fill="#778FA5"/>
<path d="M122.75 89.9492H113.11V91.9792H122.75V89.9492Z" fill="#191919"/>
<path d="M117.67 90.4795H113.63V91.4895H117.67V90.4795Z" fill="url(#paint2_linear_695_5349)"/>
<path d="M130.8 89.9492C130.8 90.1092 130.67 90.2392 130.51 90.2392C130.35 90.2392 130.22 90.1092 130.22 89.9492C130.22 89.7892 130.35 89.6592 130.51 89.6592C130.67 89.6592 130.8 89.7892 130.8 89.9492Z" fill="#565656"/>
<path d="M132.08 89.9492C132.08 90.1092 131.95 90.2392 131.79 90.2392C131.63 90.2392 131.5 90.1092 131.5 89.9492C131.5 89.7892 131.63 89.6592 131.79 89.6592C131.95 89.6592 132.08 89.7892 132.08 89.9492Z" fill="#565656"/>
<path d="M133.37 89.9492C133.37 90.1092 133.24 90.2392 133.08 90.2392C132.92 90.2392 132.79 90.1092 132.79 89.9492C132.79 89.7892 132.92 89.6592 133.08 89.6592C133.24 89.6592 133.37 89.7892 133.37 89.9492Z" fill="#565656"/>
<path d="M134.65 89.9492C134.65 90.1092 134.52 90.2392 134.36 90.2392C134.2 90.2392 134.07 90.1092 134.07 89.9492C134.07 89.7892 134.2 89.6592 134.36 89.6592C134.52 89.6592 134.65 89.7892 134.65 89.9492Z" fill="#565656"/>
<path d="M135.93 89.9492C135.93 90.1092 135.8 90.2392 135.64 90.2392C135.48 90.2392 135.35 90.1092 135.35 89.9492C135.35 89.7892 135.48 89.6592 135.64 89.6592C135.8 89.6592 135.93 89.7892 135.93 89.9492Z" fill="#565656"/>
<path d="M137.22 89.9492C137.22 90.1092 137.09 90.2392 136.93 90.2392C136.77 90.2392 136.64 90.1092 136.64 89.9492C136.64 89.7892 136.77 89.6592 136.93 89.6592C137.09 89.6592 137.22 89.7892 137.22 89.9492Z" fill="#565656"/>
<path d="M138.5 89.9492C138.5 90.1092 138.37 90.2392 138.21 90.2392C138.05 90.2392 137.92 90.1092 137.92 89.9492C137.92 89.7892 138.05 89.6592 138.21 89.6592C138.37 89.6592 138.5 89.7892 138.5 89.9492Z" fill="#565656"/>
<path d="M139.78 89.9492C139.78 90.1092 139.65 90.2392 139.49 90.2392C139.33 90.2392 139.2 90.1092 139.2 89.9492C139.2 89.7892 139.33 89.6592 139.49 89.6592C139.65 89.6592 139.78 89.7892 139.78 89.9492Z" fill="#565656"/>
<path d="M141.07 89.9492C141.07 90.1092 140.94 90.2392 140.78 90.2392C140.62 90.2392 140.49 90.1092 140.49 89.9492C140.49 89.7892 140.62 89.6592 140.78 89.6592C140.94 89.6592 141.07 89.7892 141.07 89.9492Z" fill="#565656"/>
<path d="M142.35 89.9492C142.35 90.1092 142.22 90.2392 142.06 90.2392C141.9 90.2392 141.77 90.1092 141.77 89.9492C141.77 89.7892 141.9 89.6592 142.06 89.6592C142.22 89.6592 142.35 89.7892 142.35 89.9492Z" fill="#565656"/>
<path d="M130.8 91.0195C130.8 91.1795 130.67 91.3095 130.51 91.3095C130.35 91.3095 130.22 91.1795 130.22 91.0195C130.22 90.8595 130.35 90.7295 130.51 90.7295C130.67 90.7295 130.8 90.8595 130.8 91.0195Z" fill="#565656"/>
<path d="M132.08 91.0195C132.08 91.1795 131.95 91.3095 131.79 91.3095C131.63 91.3095 131.5 91.1795 131.5 91.0195C131.5 90.8595 131.63 90.7295 131.79 90.7295C131.95 90.7295 132.08 90.8595 132.08 91.0195Z" fill="#565656"/>
<path d="M133.37 91.0195C133.37 91.1795 133.24 91.3095 133.08 91.3095C132.92 91.3095 132.79 91.1795 132.79 91.0195C132.79 90.8595 132.92 90.7295 133.08 90.7295C133.24 90.7295 133.37 90.8595 133.37 91.0195Z" fill="#565656"/>
<path d="M134.65 91.0195C134.65 91.1795 134.52 91.3095 134.36 91.3095C134.2 91.3095 134.07 91.1795 134.07 91.0195C134.07 90.8595 134.2 90.7295 134.36 90.7295C134.52 90.7295 134.65 90.8595 134.65 91.0195Z" fill="#565656"/>
<path d="M135.93 91.0195C135.93 91.1795 135.8 91.3095 135.64 91.3095C135.48 91.3095 135.35 91.1795 135.35 91.0195C135.35 90.8595 135.48 90.7295 135.64 90.7295C135.8 90.7295 135.93 90.8595 135.93 91.0195Z" fill="#565656"/>
<path d="M137.22 91.0195C137.22 91.1795 137.09 91.3095 136.93 91.3095C136.77 91.3095 136.64 91.1795 136.64 91.0195C136.64 90.8595 136.77 90.7295 136.93 90.7295C137.09 90.7295 137.22 90.8595 137.22 91.0195Z" fill="#565656"/>
<path d="M138.5 91.0195C138.5 91.1795 138.37 91.3095 138.21 91.3095C138.05 91.3095 137.92 91.1795 137.92 91.0195C137.92 90.8595 138.05 90.7295 138.21 90.7295C138.37 90.7295 138.5 90.8595 138.5 91.0195Z" fill="#565656"/>
<path d="M139.78 91.0195C139.78 91.1795 139.65 91.3095 139.49 91.3095C139.33 91.3095 139.2 91.1795 139.2 91.0195C139.2 90.8595 139.33 90.7295 139.49 90.7295C139.65 90.7295 139.78 90.8595 139.78 91.0195Z" fill="#565656"/>
<path d="M141.07 91.0195C141.07 91.1795 140.94 91.3095 140.78 91.3095C140.62 91.3095 140.49 91.1795 140.49 91.0195C140.49 90.8595 140.62 90.7295 140.78 90.7295C140.94 90.7295 141.07 90.8595 141.07 91.0195Z" fill="#565656"/>
<path d="M142.35 91.0195C142.35 91.1795 142.22 91.3095 142.06 91.3095C141.9 91.3095 141.77 91.1795 141.77 91.0195C141.77 90.8595 141.9 90.7295 142.06 90.7295C142.22 90.7295 142.35 90.8595 142.35 91.0195Z" fill="#565656"/>
<path d="M130.8 92.0791C130.8 92.2391 130.67 92.3691 130.51 92.3691C130.35 92.3691 130.22 92.2391 130.22 92.0791C130.22 91.9191 130.35 91.7891 130.51 91.7891C130.67 91.7891 130.8 91.9191 130.8 92.0791Z" fill="#565656"/>
<path d="M132.08 92.0791C132.08 92.2391 131.95 92.3691 131.79 92.3691C131.63 92.3691 131.5 92.2391 131.5 92.0791C131.5 91.9191 131.63 91.7891 131.79 91.7891C131.95 91.7891 132.08 91.9191 132.08 92.0791Z" fill="#565656"/>
<path d="M133.37 92.0791C133.37 92.2391 133.24 92.3691 133.08 92.3691C132.92 92.3691 132.79 92.2391 132.79 92.0791C132.79 91.9191 132.92 91.7891 133.08 91.7891C133.24 91.7891 133.37 91.9191 133.37 92.0791Z" fill="#565656"/>
<path d="M134.65 92.0791C134.65 92.2391 134.52 92.3691 134.36 92.3691C134.2 92.3691 134.07 92.2391 134.07 92.0791C134.07 91.9191 134.2 91.7891 134.36 91.7891C134.52 91.7891 134.65 91.9191 134.65 92.0791Z" fill="#565656"/>
<path d="M135.93 92.0791C135.93 92.2391 135.8 92.3691 135.64 92.3691C135.48 92.3691 135.35 92.2391 135.35 92.0791C135.35 91.9191 135.48 91.7891 135.64 91.7891C135.8 91.7891 135.93 91.9191 135.93 92.0791Z" fill="#565656"/>
<path d="M137.22 92.0791C137.22 92.2391 137.09 92.3691 136.93 92.3691C136.77 92.3691 136.64 92.2391 136.64 92.0791C136.64 91.9191 136.77 91.7891 136.93 91.7891C137.09 91.7891 137.22 91.9191 137.22 92.0791Z" fill="#565656"/>
<path d="M138.5 92.0791C138.5 92.2391 138.37 92.3691 138.21 92.3691C138.05 92.3691 137.92 92.2391 137.92 92.0791C137.92 91.9191 138.05 91.7891 138.21 91.7891C138.37 91.7891 138.5 91.9191 138.5 92.0791Z" fill="#565656"/>
<path d="M139.78 92.0791C139.78 92.2391 139.65 92.3691 139.49 92.3691C139.33 92.3691 139.2 92.2391 139.2 92.0791C139.2 91.9191 139.33 91.7891 139.49 91.7891C139.65 91.7891 139.78 91.9191 139.78 92.0791Z" fill="#565656"/>
<path d="M141.07 92.0791C141.07 92.2391 140.94 92.3691 140.78 92.3691C140.62 92.3691 140.49 92.2391 140.49 92.0791C140.49 91.9191 140.62 91.7891 140.78 91.7891C140.94 91.7891 141.07 91.9191 141.07 92.0791Z" fill="#565656"/>
<path d="M142.35 92.0791C142.35 92.2391 142.22 92.3691 142.06 92.3691C141.9 92.3691 141.77 92.2391 141.77 92.0791C141.77 91.9191 141.9 91.7891 142.06 91.7891C142.22 91.7891 142.35 91.9191 142.35 92.0791Z" fill="#565656"/>
<path d="M144.56 97.46H113.4C112.483 97.46 111.74 98.2032 111.74 99.12V99.4999C111.74 100.417 112.483 101.16 113.4 101.16H144.56C145.477 101.16 146.22 100.417 146.22 99.4999V99.12C146.22 98.2032 145.477 97.46 144.56 97.46Z" fill="#778FA5"/>
<path d="M122.68 98.29H113.11V100.32H122.68V98.29Z" fill="#191919"/>
<path d="M117.76 98.8203H113.63V99.8303H117.76V98.8203Z" fill="url(#paint3_linear_695_5349)"/>
<path d="M130.8 98.2998C130.8 98.4598 130.67 98.5898 130.51 98.5898C130.35 98.5898 130.22 98.4598 130.22 98.2998C130.22 98.1398 130.35 98.0098 130.51 98.0098C130.67 98.0098 130.8 98.1398 130.8 98.2998Z" fill="#565656"/>
<path d="M132.08 98.2998C132.08 98.4598 131.95 98.5898 131.79 98.5898C131.63 98.5898 131.5 98.4598 131.5 98.2998C131.5 98.1398 131.63 98.0098 131.79 98.0098C131.95 98.0098 132.08 98.1398 132.08 98.2998Z" fill="#565656"/>
<path d="M133.37 98.2998C133.37 98.4598 133.24 98.5898 133.08 98.5898C132.92 98.5898 132.79 98.4598 132.79 98.2998C132.79 98.1398 132.92 98.0098 133.08 98.0098C133.24 98.0098 133.37 98.1398 133.37 98.2998Z" fill="#565656"/>
<path d="M134.65 98.2998C134.65 98.4598 134.52 98.5898 134.36 98.5898C134.2 98.5898 134.07 98.4598 134.07 98.2998C134.07 98.1398 134.2 98.0098 134.36 98.0098C134.52 98.0098 134.65 98.1398 134.65 98.2998Z" fill="#565656"/>
<path d="M135.93 98.2998C135.93 98.4598 135.8 98.5898 135.64 98.5898C135.48 98.5898 135.35 98.4598 135.35 98.2998C135.35 98.1398 135.48 98.0098 135.64 98.0098C135.8 98.0098 135.93 98.1398 135.93 98.2998Z" fill="#565656"/>
<path d="M137.22 98.2998C137.22 98.4598 137.09 98.5898 136.93 98.5898C136.77 98.5898 136.64 98.4598 136.64 98.2998C136.64 98.1398 136.77 98.0098 136.93 98.0098C137.09 98.0098 137.22 98.1398 137.22 98.2998Z" fill="#565656"/>
<path d="M138.5 98.2998C138.5 98.4598 138.37 98.5898 138.21 98.5898C138.05 98.5898 137.92 98.4598 137.92 98.2998C137.92 98.1398 138.05 98.0098 138.21 98.0098C138.37 98.0098 138.5 98.1398 138.5 98.2998Z" fill="#565656"/>
<path d="M139.78 98.2998C139.78 98.4598 139.65 98.5898 139.49 98.5898C139.33 98.5898 139.2 98.4598 139.2 98.2998C139.2 98.1398 139.33 98.0098 139.49 98.0098C139.65 98.0098 139.78 98.1398 139.78 98.2998Z" fill="#565656"/>
<path d="M141.07 98.2998C141.07 98.4598 140.94 98.5898 140.78 98.5898C140.62 98.5898 140.49 98.4598 140.49 98.2998C140.49 98.1398 140.62 98.0098 140.78 98.0098C140.94 98.0098 141.07 98.1398 141.07 98.2998Z" fill="#565656"/>
<path d="M142.35 98.2998C142.35 98.4598 142.22 98.5898 142.06 98.5898C141.9 98.5898 141.77 98.4598 141.77 98.2998C141.77 98.1398 141.9 98.0098 142.06 98.0098C142.22 98.0098 142.35 98.1398 142.35 98.2998Z" fill="#565656"/>
<path d="M130.8 99.3603C130.8 99.5203 130.67 99.6503 130.51 99.6503C130.35 99.6503 130.22 99.5203 130.22 99.3603C130.22 99.2003 130.35 99.0703 130.51 99.0703C130.67 99.0703 130.8 99.2003 130.8 99.3603Z" fill="#565656"/>
<path d="M132.08 99.3603C132.08 99.5203 131.95 99.6503 131.79 99.6503C131.63 99.6503 131.5 99.5203 131.5 99.3603C131.5 99.2003 131.63 99.0703 131.79 99.0703C131.95 99.0703 132.08 99.2003 132.08 99.3603Z" fill="#565656"/>
<path d="M133.37 99.3603C133.37 99.5203 133.24 99.6503 133.08 99.6503C132.92 99.6503 132.79 99.5203 132.79 99.3603C132.79 99.2003 132.92 99.0703 133.08 99.0703C133.24 99.0703 133.37 99.2003 133.37 99.3603Z" fill="#565656"/>
<path d="M134.65 99.3603C134.65 99.5203 134.52 99.6503 134.36 99.6503C134.2 99.6503 134.07 99.5203 134.07 99.3603C134.07 99.2003 134.2 99.0703 134.36 99.0703C134.52 99.0703 134.65 99.2003 134.65 99.3603Z" fill="#565656"/>
<path d="M135.93 99.3603C135.93 99.5203 135.8 99.6503 135.64 99.6503C135.48 99.6503 135.35 99.5203 135.35 99.3603C135.35 99.2003 135.48 99.0703 135.64 99.0703C135.8 99.0703 135.93 99.2003 135.93 99.3603Z" fill="#565656"/>
<path d="M137.22 99.3603C137.22 99.5203 137.09 99.6503 136.93 99.6503C136.77 99.6503 136.64 99.5203 136.64 99.3603C136.64 99.2003 136.77 99.0703 136.93 99.0703C137.09 99.0703 137.22 99.2003 137.22 99.3603Z" fill="#565656"/>
<path d="M138.5 99.3603C138.5 99.5203 138.37 99.6503 138.21 99.6503C138.05 99.6503 137.92 99.5203 137.92 99.3603C137.92 99.2003 138.05 99.0703 138.21 99.0703C138.37 99.0703 138.5 99.2003 138.5 99.3603Z" fill="#565656"/>
<path d="M139.78 99.3603C139.78 99.5203 139.65 99.6503 139.49 99.6503C139.33 99.6503 139.2 99.5203 139.2 99.3603C139.2 99.2003 139.33 99.0703 139.49 99.0703C139.65 99.0703 139.78 99.2003 139.78 99.3603Z" fill="#565656"/>
<path d="M141.07 99.3603C141.07 99.5203 140.94 99.6503 140.78 99.6503C140.62 99.6503 140.49 99.5203 140.49 99.3603C140.49 99.2003 140.62 99.0703 140.78 99.0703C140.94 99.0703 141.07 99.2003 141.07 99.3603Z" fill="#565656"/>
<path d="M142.35 99.3603C142.35 99.5203 142.22 99.6503 142.06 99.6503C141.9 99.6503 141.77 99.5203 141.77 99.3603C141.77 99.2003 141.9 99.0703 142.06 99.0703C142.22 99.0703 142.35 99.2003 142.35 99.3603Z" fill="#565656"/>
<path d="M130.8 100.42C130.8 100.58 130.67 100.71 130.51 100.71C130.35 100.71 130.22 100.58 130.22 100.42C130.22 100.26 130.35 100.13 130.51 100.13C130.67 100.13 130.8 100.26 130.8 100.42Z" fill="#565656"/>
<path d="M132.08 100.42C132.08 100.58 131.95 100.71 131.79 100.71C131.63 100.71 131.5 100.58 131.5 100.42C131.5 100.26 131.63 100.13 131.79 100.13C131.95 100.13 132.08 100.26 132.08 100.42Z" fill="#565656"/>
<path d="M133.37 100.42C133.37 100.58 133.24 100.71 133.08 100.71C132.92 100.71 132.79 100.58 132.79 100.42C132.79 100.26 132.92 100.13 133.08 100.13C133.24 100.13 133.37 100.26 133.37 100.42Z" fill="#565656"/>
<path d="M134.65 100.42C134.65 100.58 134.52 100.71 134.36 100.71C134.2 100.71 134.07 100.58 134.07 100.42C134.07 100.26 134.2 100.13 134.36 100.13C134.52 100.13 134.65 100.26 134.65 100.42Z" fill="#565656"/>
<path d="M135.93 100.42C135.93 100.58 135.8 100.71 135.64 100.71C135.48 100.71 135.35 100.58 135.35 100.42C135.35 100.26 135.48 100.13 135.64 100.13C135.8 100.13 135.93 100.26 135.93 100.42Z" fill="#565656"/>
<path d="M137.22 100.42C137.22 100.58 137.09 100.71 136.93 100.71C136.77 100.71 136.64 100.58 136.64 100.42C136.64 100.26 136.77 100.13 136.93 100.13C137.09 100.13 137.22 100.26 137.22 100.42Z" fill="#565656"/>
<path d="M138.5 100.42C138.5 100.58 138.37 100.71 138.21 100.71C138.05 100.71 137.92 100.58 137.92 100.42C137.92 100.26 138.05 100.13 138.21 100.13C138.37 100.13 138.5 100.26 138.5 100.42Z" fill="#565656"/>
<path d="M139.78 100.42C139.78 100.58 139.65 100.71 139.49 100.71C139.33 100.71 139.2 100.58 139.2 100.42C139.2 100.26 139.33 100.13 139.49 100.13C139.65 100.13 139.78 100.26 139.78 100.42Z" fill="#565656"/>
<path d="M141.07 100.42C141.07 100.58 140.94 100.71 140.78 100.71C140.62 100.71 140.49 100.58 140.49 100.42C140.49 100.26 140.62 100.13 140.78 100.13C140.94 100.13 141.07 100.26 141.07 100.42Z" fill="#565656"/>
<path d="M142.35 100.42C142.35 100.58 142.22 100.71 142.06 100.71C141.9 100.71 141.77 100.58 141.77 100.42C141.77 100.26 141.9 100.13 142.06 100.13C142.22 100.13 142.35 100.26 142.35 100.42Z" fill="#565656"/>
<path d="M144.56 101.97H113.4C112.483 101.97 111.74 102.713 111.74 103.63V104.01C111.74 104.927 112.483 105.67 113.4 105.67H144.56C145.477 105.67 146.22 104.927 146.22 104.01V103.63C146.22 102.713 145.477 101.97 144.56 101.97Z" fill="#778FA5"/>
<path d="M122.75 102.81H113.11V104.84H122.75V102.81Z" fill="#191919"/>
<path d="M117.67 103.34H113.63V104.35H117.67V103.34Z" fill="url(#paint4_linear_695_5349)"/>
<path d="M130.8 102.819C130.8 102.979 130.67 103.109 130.51 103.109C130.35 103.109 130.22 102.979 130.22 102.819C130.22 102.659 130.35 102.529 130.51 102.529C130.67 102.529 130.8 102.659 130.8 102.819Z" fill="#565656"/>
<path d="M132.08 102.819C132.08 102.979 131.95 103.109 131.79 103.109C131.63 103.109 131.5 102.979 131.5 102.819C131.5 102.659 131.63 102.529 131.79 102.529C131.95 102.529 132.08 102.659 132.08 102.819Z" fill="#565656"/>
<path d="M133.37 102.819C133.37 102.979 133.24 103.109 133.08 103.109C132.92 103.109 132.79 102.979 132.79 102.819C132.79 102.659 132.92 102.529 133.08 102.529C133.24 102.529 133.37 102.659 133.37 102.819Z" fill="#565656"/>
<path d="M134.65 102.819C134.65 102.979 134.52 103.109 134.36 103.109C134.2 103.109 134.07 102.979 134.07 102.819C134.07 102.659 134.2 102.529 134.36 102.529C134.52 102.529 134.65 102.659 134.65 102.819Z" fill="#565656"/>
<path d="M135.93 102.819C135.93 102.979 135.8 103.109 135.64 103.109C135.48 103.109 135.35 102.979 135.35 102.819C135.35 102.659 135.48 102.529 135.64 102.529C135.8 102.529 135.93 102.659 135.93 102.819Z" fill="#565656"/>
<path d="M137.22 102.819C137.22 102.979 137.09 103.109 136.93 103.109C136.77 103.109 136.64 102.979 136.64 102.819C136.64 102.659 136.77 102.529 136.93 102.529C137.09 102.529 137.22 102.659 137.22 102.819Z" fill="#565656"/>
<path d="M138.5 102.819C138.5 102.979 138.37 103.109 138.21 103.109C138.05 103.109 137.92 102.979 137.92 102.819C137.92 102.659 138.05 102.529 138.21 102.529C138.37 102.529 138.5 102.659 138.5 102.819Z" fill="#565656"/>
<path d="M139.78 102.819C139.78 102.979 139.65 103.109 139.49 103.109C139.33 103.109 139.2 102.979 139.2 102.819C139.2 102.659 139.33 102.529 139.49 102.529C139.65 102.529 139.78 102.659 139.78 102.819Z" fill="#565656"/>
<path d="M141.07 102.819C141.07 102.979 140.94 103.109 140.78 103.109C140.62 103.109 140.49 102.979 140.49 102.819C140.49 102.659 140.62 102.529 140.78 102.529C140.94 102.529 141.07 102.659 141.07 102.819Z" fill="#565656"/>
<path d="M142.35 102.819C142.35 102.979 142.22 103.109 142.06 103.109C141.9 103.109 141.77 102.979 141.77 102.819C141.77 102.659 141.9 102.529 142.06 102.529C142.22 102.529 142.35 102.659 142.35 102.819Z" fill="#565656"/>
<path d="M130.8 103.88C130.8 104.04 130.67 104.17 130.51 104.17C130.35 104.17 130.22 104.04 130.22 103.88C130.22 103.72 130.35 103.59 130.51 103.59C130.67 103.59 130.8 103.72 130.8 103.88Z" fill="#565656"/>
<path d="M132.08 103.88C132.08 104.04 131.95 104.17 131.79 104.17C131.63 104.17 131.5 104.04 131.5 103.88C131.5 103.72 131.63 103.59 131.79 103.59C131.95 103.59 132.08 103.72 132.08 103.88Z" fill="#565656"/>
<path d="M133.37 103.88C133.37 104.04 133.24 104.17 133.08 104.17C132.92 104.17 132.79 104.04 132.79 103.88C132.79 103.72 132.92 103.59 133.08 103.59C133.24 103.59 133.37 103.72 133.37 103.88Z" fill="#565656"/>
<path d="M134.65 103.88C134.65 104.04 134.52 104.17 134.36 104.17C134.2 104.17 134.07 104.04 134.07 103.88C134.07 103.72 134.2 103.59 134.36 103.59C134.52 103.59 134.65 103.72 134.65 103.88Z" fill="#565656"/>
<path d="M135.93 103.88C135.93 104.04 135.8 104.17 135.64 104.17C135.48 104.17 135.35 104.04 135.35 103.88C135.35 103.72 135.48 103.59 135.64 103.59C135.8 103.59 135.93 103.72 135.93 103.88Z" fill="#565656"/>
<path d="M137.22 103.88C137.22 104.04 137.09 104.17 136.93 104.17C136.77 104.17 136.64 104.04 136.64 103.88C136.64 103.72 136.77 103.59 136.93 103.59C137.09 103.59 137.22 103.72 137.22 103.88Z" fill="#565656"/>
<path d="M138.5 103.88C138.5 104.04 138.37 104.17 138.21 104.17C138.05 104.17 137.92 104.04 137.92 103.88C137.92 103.72 138.05 103.59 138.21 103.59C138.37 103.59 138.5 103.72 138.5 103.88Z" fill="#565656"/>
<path d="M139.78 103.88C139.78 104.04 139.65 104.17 139.49 104.17C139.33 104.17 139.2 104.04 139.2 103.88C139.2 103.72 139.33 103.59 139.49 103.59C139.65 103.59 139.78 103.72 139.78 103.88Z" fill="#565656"/>
<path d="M141.07 103.88C141.07 104.04 140.94 104.17 140.78 104.17C140.62 104.17 140.49 104.04 140.49 103.88C140.49 103.72 140.62 103.59 140.78 103.59C140.94 103.59 141.07 103.72 141.07 103.88Z" fill="#565656"/>
<path d="M142.35 103.88C142.35 104.04 142.22 104.17 142.06 104.17C141.9 104.17 141.77 104.04 141.77 103.88C141.77 103.72 141.9 103.59 142.06 103.59C142.22 103.59 142.35 103.72 142.35 103.88Z" fill="#565656"/>
<path d="M130.8 104.939C130.8 105.099 130.67 105.229 130.51 105.229C130.35 105.229 130.22 105.099 130.22 104.939C130.22 104.779 130.35 104.649 130.51 104.649C130.67 104.649 130.8 104.779 130.8 104.939Z" fill="#565656"/>
<path d="M132.08 104.939C132.08 105.099 131.95 105.229 131.79 105.229C131.63 105.229 131.5 105.099 131.5 104.939C131.5 104.779 131.63 104.649 131.79 104.649C131.95 104.649 132.08 104.779 132.08 104.939Z" fill="#565656"/>
<path d="M133.37 104.939C133.37 105.099 133.24 105.229 133.08 105.229C132.92 105.229 132.79 105.099 132.79 104.939C132.79 104.779 132.92 104.649 133.08 104.649C133.24 104.649 133.37 104.779 133.37 104.939Z" fill="#565656"/>
<path d="M134.65 104.939C134.65 105.099 134.52 105.229 134.36 105.229C134.2 105.229 134.07 105.099 134.07 104.939C134.07 104.779 134.2 104.649 134.36 104.649C134.52 104.649 134.65 104.779 134.65 104.939Z" fill="#565656"/>
<path d="M135.93 104.939C135.93 105.099 135.8 105.229 135.64 105.229C135.48 105.229 135.35 105.099 135.35 104.939C135.35 104.779 135.48 104.649 135.64 104.649C135.8 104.649 135.93 104.779 135.93 104.939Z" fill="#565656"/>
<path d="M137.22 104.939C137.22 105.099 137.09 105.229 136.93 105.229C136.77 105.229 136.64 105.099 136.64 104.939C136.64 104.779 136.77 104.649 136.93 104.649C137.09 104.649 137.22 104.779 137.22 104.939Z" fill="#565656"/>
<path d="M138.5 104.939C138.5 105.099 138.37 105.229 138.21 105.229C138.05 105.229 137.92 105.099 137.92 104.939C137.92 104.779 138.05 104.649 138.21 104.649C138.37 104.649 138.5 104.779 138.5 104.939Z" fill="#565656"/>
<path d="M139.78 104.939C139.78 105.099 139.65 105.229 139.49 105.229C139.33 105.229 139.2 105.099 139.2 104.939C139.2 104.779 139.33 104.649 139.49 104.649C139.65 104.649 139.78 104.779 139.78 104.939Z" fill="#565656"/>
<path d="M141.07 104.939C141.07 105.099 140.94 105.229 140.78 105.229C140.62 105.229 140.49 105.099 140.49 104.939C140.49 104.779 140.62 104.649 140.78 104.649C140.94 104.649 141.07 104.779 141.07 104.939Z" fill="#565656"/>
<path d="M142.35 104.939C142.35 105.099 142.22 105.229 142.06 105.229C141.9 105.229 141.77 105.099 141.77 104.939C141.77 104.779 141.9 104.649 142.06 104.649C142.22 104.649 142.35 104.779 142.35 104.939Z" fill="#565656"/>
<path d="M144.56 111.59H113.4C112.483 111.59 111.74 112.333 111.74 113.25V113.63C111.74 114.547 112.483 115.29 113.4 115.29H144.56C145.477 115.29 146.22 114.547 146.22 113.63V113.25C146.22 112.333 145.477 111.59 144.56 111.59Z" fill="#778FA5"/>
<path d="M122.68 112.43H113.11V114.46H122.68V112.43Z" fill="#191919"/>
<path d="M117.76 112.96H113.63V113.97H117.76V112.96Z" fill="url(#paint5_linear_695_5349)"/>
<path d="M130.8 112.439C130.8 112.599 130.67 112.729 130.51 112.729C130.35 112.729 130.22 112.599 130.22 112.439C130.22 112.279 130.35 112.149 130.51 112.149C130.67 112.149 130.8 112.279 130.8 112.439Z" fill="#565656"/>
<path d="M132.08 112.439C132.08 112.599 131.95 112.729 131.79 112.729C131.63 112.729 131.5 112.599 131.5 112.439C131.5 112.279 131.63 112.149 131.79 112.149C131.95 112.149 132.08 112.279 132.08 112.439Z" fill="#565656"/>
<path d="M133.37 112.439C133.37 112.599 133.24 112.729 133.08 112.729C132.92 112.729 132.79 112.599 132.79 112.439C132.79 112.279 132.92 112.149 133.08 112.149C133.24 112.149 133.37 112.279 133.37 112.439Z" fill="#565656"/>
<path d="M134.65 112.439C134.65 112.599 134.52 112.729 134.36 112.729C134.2 112.729 134.07 112.599 134.07 112.439C134.07 112.279 134.2 112.149 134.36 112.149C134.52 112.149 134.65 112.279 134.65 112.439Z" fill="#565656"/>
<path d="M135.93 112.439C135.93 112.599 135.8 112.729 135.64 112.729C135.48 112.729 135.35 112.599 135.35 112.439C135.35 112.279 135.48 112.149 135.64 112.149C135.8 112.149 135.93 112.279 135.93 112.439Z" fill="#565656"/>
<path d="M137.22 112.439C137.22 112.599 137.09 112.729 136.93 112.729C136.77 112.729 136.64 112.599 136.64 112.439C136.64 112.279 136.77 112.149 136.93 112.149C137.09 112.149 137.22 112.279 137.22 112.439Z" fill="#565656"/>
<path d="M138.5 112.439C138.5 112.599 138.37 112.729 138.21 112.729C138.05 112.729 137.92 112.599 137.92 112.439C137.92 112.279 138.05 112.149 138.21 112.149C138.37 112.149 138.5 112.279 138.5 112.439Z" fill="#565656"/>
<path d="M139.78 112.439C139.78 112.599 139.65 112.729 139.49 112.729C139.33 112.729 139.2 112.599 139.2 112.439C139.2 112.279 139.33 112.149 139.49 112.149C139.65 112.149 139.78 112.279 139.78 112.439Z" fill="#565656"/>
<path d="M141.07 112.439C141.07 112.599 140.94 112.729 140.78 112.729C140.62 112.729 140.49 112.599 140.49 112.439C140.49 112.279 140.62 112.149 140.78 112.149C140.94 112.149 141.07 112.279 141.07 112.439Z" fill="#565656"/>
<path d="M142.35 112.439C142.35 112.599 142.22 112.729 142.06 112.729C141.9 112.729 141.77 112.599 141.77 112.439C141.77 112.279 141.9 112.149 142.06 112.149C142.22 112.149 142.35 112.279 142.35 112.439Z" fill="#565656"/>
<path d="M130.8 113.5C130.8 113.66 130.67 113.79 130.51 113.79C130.35 113.79 130.22 113.66 130.22 113.5C130.22 113.34 130.35 113.21 130.51 113.21C130.67 113.21 130.8 113.34 130.8 113.5Z" fill="#565656"/>
<path d="M132.08 113.5C132.08 113.66 131.95 113.79 131.79 113.79C131.63 113.79 131.5 113.66 131.5 113.5C131.5 113.34 131.63 113.21 131.79 113.21C131.95 113.21 132.08 113.34 132.08 113.5Z" fill="#565656"/>
<path d="M133.37 113.5C133.37 113.66 133.24 113.79 133.08 113.79C132.92 113.79 132.79 113.66 132.79 113.5C132.79 113.34 132.92 113.21 133.08 113.21C133.24 113.21 133.37 113.34 133.37 113.5Z" fill="#565656"/>
<path d="M134.65 113.5C134.65 113.66 134.52 113.79 134.36 113.79C134.2 113.79 134.07 113.66 134.07 113.5C134.07 113.34 134.2 113.21 134.36 113.21C134.52 113.21 134.65 113.34 134.65 113.5Z" fill="#565656"/>
<path d="M135.93 113.5C135.93 113.66 135.8 113.79 135.64 113.79C135.48 113.79 135.35 113.66 135.35 113.5C135.35 113.34 135.48 113.21 135.64 113.21C135.8 113.21 135.93 113.34 135.93 113.5Z" fill="#565656"/>
<path d="M137.22 113.5C137.22 113.66 137.09 113.79 136.93 113.79C136.77 113.79 136.64 113.66 136.64 113.5C136.64 113.34 136.77 113.21 136.93 113.21C137.09 113.21 137.22 113.34 137.22 113.5Z" fill="#565656"/>
<path d="M138.5 113.5C138.5 113.66 138.37 113.79 138.21 113.79C138.05 113.79 137.92 113.66 137.92 113.5C137.92 113.34 138.05 113.21 138.21 113.21C138.37 113.21 138.5 113.34 138.5 113.5Z" fill="#565656"/>
<path d="M139.78 113.5C139.78 113.66 139.65 113.79 139.49 113.79C139.33 113.79 139.2 113.66 139.2 113.5C139.2 113.34 139.33 113.21 139.49 113.21C139.65 113.21 139.78 113.34 139.78 113.5Z" fill="#565656"/>
<path d="M141.07 113.5C141.07 113.66 140.94 113.79 140.78 113.79C140.62 113.79 140.49 113.66 140.49 113.5C140.49 113.34 140.62 113.21 140.78 113.21C140.94 113.21 141.07 113.34 141.07 113.5Z" fill="#565656"/>
<path d="M142.35 113.5C142.35 113.66 142.22 113.79 142.06 113.79C141.9 113.79 141.77 113.66 141.77 113.5C141.77 113.34 141.9 113.21 142.06 113.21C142.22 113.21 142.35 113.34 142.35 113.5Z" fill="#565656"/>
<path d="M130.8 114.56C130.8 114.72 130.67 114.85 130.51 114.85C130.35 114.85 130.22 114.72 130.22 114.56C130.22 114.4 130.35 114.27 130.51 114.27C130.67 114.27 130.8 114.4 130.8 114.56Z" fill="#565656"/>
<path d="M132.08 114.56C132.08 114.72 131.95 114.85 131.79 114.85C131.63 114.85 131.5 114.72 131.5 114.56C131.5 114.4 131.63 114.27 131.79 114.27C131.95 114.27 132.08 114.4 132.08 114.56Z" fill="#565656"/>
<path d="M133.37 114.56C133.37 114.72 133.24 114.85 133.08 114.85C132.92 114.85 132.79 114.72 132.79 114.56C132.79 114.4 132.92 114.27 133.08 114.27C133.24 114.27 133.37 114.4 133.37 114.56Z" fill="#565656"/>
<path d="M134.65 114.56C134.65 114.72 134.52 114.85 134.36 114.85C134.2 114.85 134.07 114.72 134.07 114.56C134.07 114.4 134.2 114.27 134.36 114.27C134.52 114.27 134.65 114.4 134.65 114.56Z" fill="#565656"/>
<path d="M135.93 114.56C135.93 114.72 135.8 114.85 135.64 114.85C135.48 114.85 135.35 114.72 135.35 114.56C135.35 114.4 135.48 114.27 135.64 114.27C135.8 114.27 135.93 114.4 135.93 114.56Z" fill="#565656"/>
<path d="M137.22 114.56C137.22 114.72 137.09 114.85 136.93 114.85C136.77 114.85 136.64 114.72 136.64 114.56C136.64 114.4 136.77 114.27 136.93 114.27C137.09 114.27 137.22 114.4 137.22 114.56Z" fill="#565656"/>
<path d="M138.5 114.56C138.5 114.72 138.37 114.85 138.21 114.85C138.05 114.85 137.92 114.72 137.92 114.56C137.92 114.4 138.05 114.27 138.21 114.27C138.37 114.27 138.5 114.4 138.5 114.56Z" fill="#565656"/>
<path d="M139.78 114.56C139.78 114.72 139.65 114.85 139.49 114.85C139.33 114.85 139.2 114.72 139.2 114.56C139.2 114.4 139.33 114.27 139.49 114.27C139.65 114.27 139.78 114.4 139.78 114.56Z" fill="#565656"/>
<path d="M141.07 114.56C141.07 114.72 140.94 114.85 140.78 114.85C140.62 114.85 140.49 114.72 140.49 114.56C140.49 114.4 140.62 114.27 140.78 114.27C140.94 114.27 141.07 114.4 141.07 114.56Z" fill="#565656"/>
<path d="M142.35 114.56C142.35 114.72 142.22 114.85 142.06 114.85C141.9 114.85 141.77 114.72 141.77 114.56C141.77 114.4 141.9 114.27 142.06 114.27C142.22 114.27 142.35 114.4 142.35 114.56Z" fill="#565656"/>
<path d="M144.56 116.109H113.4C112.483 116.109 111.74 116.853 111.74 117.769V118.149C111.74 119.066 112.483 119.809 113.4 119.809H144.56C145.477 119.809 146.22 119.066 146.22 118.149V117.769C146.22 116.853 145.477 116.109 144.56 116.109Z" fill="#778FA5"/>
<path d="M122.75 116.949H113.11V118.979H122.75V116.949Z" fill="#191919"/>
<path d="M117.67 117.479H113.63V118.49H117.67V117.479Z" fill="url(#paint6_linear_695_5349)"/>
<path d="M130.8 116.949C130.8 117.109 130.67 117.239 130.51 117.239C130.35 117.239 130.22 117.109 130.22 116.949C130.22 116.789 130.35 116.659 130.51 116.659C130.67 116.659 130.8 116.789 130.8 116.949Z" fill="#565656"/>
<path d="M132.08 116.949C132.08 117.109 131.95 117.239 131.79 117.239C131.63 117.239 131.5 117.109 131.5 116.949C131.5 116.789 131.63 116.659 131.79 116.659C131.95 116.659 132.08 116.789 132.08 116.949Z" fill="#565656"/>
<path d="M133.37 116.949C133.37 117.109 133.24 117.239 133.08 117.239C132.92 117.239 132.79 117.109 132.79 116.949C132.79 116.789 132.92 116.659 133.08 116.659C133.24 116.659 133.37 116.789 133.37 116.949Z" fill="#565656"/>
<path d="M134.65 116.949C134.65 117.109 134.52 117.239 134.36 117.239C134.2 117.239 134.07 117.109 134.07 116.949C134.07 116.789 134.2 116.659 134.36 116.659C134.52 116.659 134.65 116.789 134.65 116.949Z" fill="#565656"/>
<path d="M135.93 116.949C135.93 117.109 135.8 117.239 135.64 117.239C135.48 117.239 135.35 117.109 135.35 116.949C135.35 116.789 135.48 116.659 135.64 116.659C135.8 116.659 135.93 116.789 135.93 116.949Z" fill="#565656"/>
<path d="M137.22 116.949C137.22 117.109 137.09 117.239 136.93 117.239C136.77 117.239 136.64 117.109 136.64 116.949C136.64 116.789 136.77 116.659 136.93 116.659C137.09 116.659 137.22 116.789 137.22 116.949Z" fill="#565656"/>
<path d="M138.5 116.949C138.5 117.109 138.37 117.239 138.21 117.239C138.05 117.239 137.92 117.109 137.92 116.949C137.92 116.789 138.05 116.659 138.21 116.659C138.37 116.659 138.5 116.789 138.5 116.949Z" fill="#565656"/>
<path d="M139.78 116.949C139.78 117.109 139.65 117.239 139.49 117.239C139.33 117.239 139.2 117.109 139.2 116.949C139.2 116.789 139.33 116.659 139.49 116.659C139.65 116.659 139.78 116.789 139.78 116.949Z" fill="#565656"/>
<path d="M141.07 116.949C141.07 117.109 140.94 117.239 140.78 117.239C140.62 117.239 140.49 117.109 140.49 116.949C140.49 116.789 140.62 116.659 140.78 116.659C140.94 116.659 141.07 116.789 141.07 116.949Z" fill="#565656"/>
<path d="M142.35 116.949C142.35 117.109 142.22 117.239 142.06 117.239C141.9 117.239 141.77 117.109 141.77 116.949C141.77 116.789 141.9 116.659 142.06 116.659C142.22 116.659 142.35 116.789 142.35 116.949Z" fill="#565656"/>
<path d="M130.8 118.01C130.8 118.17 130.67 118.3 130.51 118.3C130.35 118.3 130.22 118.17 130.22 118.01C130.22 117.85 130.35 117.72 130.51 117.72C130.67 117.72 130.8 117.85 130.8 118.01Z" fill="#565656"/>
<path d="M132.08 118.01C132.08 118.17 131.95 118.3 131.79 118.3C131.63 118.3 131.5 118.17 131.5 118.01C131.5 117.85 131.63 117.72 131.79 117.72C131.95 117.72 132.08 117.85 132.08 118.01Z" fill="#565656"/>
<path d="M133.37 118.01C133.37 118.17 133.24 118.3 133.08 118.3C132.92 118.3 132.79 118.17 132.79 118.01C132.79 117.85 132.92 117.72 133.08 117.72C133.24 117.72 133.37 117.85 133.37 118.01Z" fill="#565656"/>
<path d="M134.65 118.01C134.65 118.17 134.52 118.3 134.36 118.3C134.2 118.3 134.07 118.17 134.07 118.01C134.07 117.85 134.2 117.72 134.36 117.72C134.52 117.72 134.65 117.85 134.65 118.01Z" fill="#565656"/>
<path d="M135.93 118.01C135.93 118.17 135.8 118.3 135.64 118.3C135.48 118.3 135.35 118.17 135.35 118.01C135.35 117.85 135.48 117.72 135.64 117.72C135.8 117.72 135.93 117.85 135.93 118.01Z" fill="#565656"/>
<path d="M137.22 118.01C137.22 118.17 137.09 118.3 136.93 118.3C136.77 118.3 136.64 118.17 136.64 118.01C136.64 117.85 136.77 117.72 136.93 117.72C137.09 117.72 137.22 117.85 137.22 118.01Z" fill="#565656"/>
<path d="M138.5 118.01C138.5 118.17 138.37 118.3 138.21 118.3C138.05 118.3 137.92 118.17 137.92 118.01C137.92 117.85 138.05 117.72 138.21 117.72C138.37 117.72 138.5 117.85 138.5 118.01Z" fill="#565656"/>
<path d="M139.78 118.01C139.78 118.17 139.65 118.3 139.49 118.3C139.33 118.3 139.2 118.17 139.2 118.01C139.2 117.85 139.33 117.72 139.49 117.72C139.65 117.72 139.78 117.85 139.78 118.01Z" fill="#565656"/>
<path d="M141.07 118.01C141.07 118.17 140.94 118.3 140.78 118.3C140.62 118.3 140.49 118.17 140.49 118.01C140.49 117.85 140.62 117.72 140.78 117.72C140.94 117.72 141.07 117.85 141.07 118.01Z" fill="#565656"/>
<path d="M142.35 118.01C142.35 118.17 142.22 118.3 142.06 118.3C141.9 118.3 141.77 118.17 141.77 118.01C141.77 117.85 141.9 117.72 142.06 117.72C142.22 117.72 142.35 117.85 142.35 118.01Z" fill="#565656"/>
<path d="M130.8 119.069C130.8 119.229 130.67 119.359 130.51 119.359C130.35 119.359 130.22 119.229 130.22 119.069C130.22 118.909 130.35 118.779 130.51 118.779C130.67 118.779 130.8 118.909 130.8 119.069Z" fill="#565656"/>
<path d="M132.08 119.069C132.08 119.229 131.95 119.359 131.79 119.359C131.63 119.359 131.5 119.229 131.5 119.069C131.5 118.909 131.63 118.779 131.79 118.779C131.95 118.779 132.08 118.909 132.08 119.069Z" fill="#565656"/>
<path d="M133.37 119.069C133.37 119.229 133.24 119.359 133.08 119.359C132.92 119.359 132.79 119.229 132.79 119.069C132.79 118.909 132.92 118.779 133.08 118.779C133.24 118.779 133.37 118.909 133.37 119.069Z" fill="#565656"/>
<path d="M134.65 119.069C134.65 119.229 134.52 119.359 134.36 119.359C134.2 119.359 134.07 119.229 134.07 119.069C134.07 118.909 134.2 118.779 134.36 118.779C134.52 118.779 134.65 118.909 134.65 119.069Z" fill="#565656"/>
<path d="M135.93 119.069C135.93 119.229 135.8 119.359 135.64 119.359C135.48 119.359 135.35 119.229 135.35 119.069C135.35 118.909 135.48 118.779 135.64 118.779C135.8 118.779 135.93 118.909 135.93 119.069Z" fill="#565656"/>
<path d="M137.22 119.069C137.22 119.229 137.09 119.359 136.93 119.359C136.77 119.359 136.64 119.229 136.64 119.069C136.64 118.909 136.77 118.779 136.93 118.779C137.09 118.779 137.22 118.909 137.22 119.069Z" fill="#565656"/>
<path d="M138.5 119.069C138.5 119.229 138.37 119.359 138.21 119.359C138.05 119.359 137.92 119.229 137.92 119.069C137.92 118.909 138.05 118.779 138.21 118.779C138.37 118.779 138.5 118.909 138.5 119.069Z" fill="#565656"/>
<path d="M139.78 119.069C139.78 119.229 139.65 119.359 139.49 119.359C139.33 119.359 139.2 119.229 139.2 119.069C139.2 118.909 139.33 118.779 139.49 118.779C139.65 118.779 139.78 118.909 139.78 119.069Z" fill="#565656"/>
<path d="M141.07 119.069C141.07 119.229 140.94 119.359 140.78 119.359C140.62 119.359 140.49 119.229 140.49 119.069C140.49 118.909 140.62 118.779 140.78 118.779C140.94 118.779 141.07 118.909 141.07 119.069Z" fill="#565656"/>
<path d="M142.35 119.069C142.35 119.229 142.22 119.359 142.06 119.359C141.9 119.359 141.77 119.229 141.77 119.069C141.77 118.909 141.9 118.779 142.06 118.779C142.22 118.779 142.35 118.909 142.35 119.069Z" fill="#565656"/>
<path d="M144.56 126.01H113.4C112.483 126.01 111.74 126.753 111.74 127.67V128.05C111.74 128.967 112.483 129.71 113.4 129.71H144.56C145.477 129.71 146.22 128.967 146.22 128.05V127.67C146.22 126.753 145.477 126.01 144.56 126.01Z" fill="#778FA5"/>
<path d="M122.68 126.85H113.11V128.88H122.68V126.85Z" fill="#191919"/>
<path d="M117.76 127.38H113.63V128.39H117.76V127.38Z" fill="url(#paint7_linear_695_5349)"/>
<path d="M130.8 126.85C130.8 127.01 130.67 127.14 130.51 127.14C130.35 127.14 130.22 127.01 130.22 126.85C130.22 126.69 130.35 126.56 130.51 126.56C130.67 126.56 130.8 126.69 130.8 126.85Z" fill="#565656"/>
<path d="M132.08 126.85C132.08 127.01 131.95 127.14 131.79 127.14C131.63 127.14 131.5 127.01 131.5 126.85C131.5 126.69 131.63 126.56 131.79 126.56C131.95 126.56 132.08 126.69 132.08 126.85Z" fill="#565656"/>
<path d="M133.37 126.85C133.37 127.01 133.24 127.14 133.08 127.14C132.92 127.14 132.79 127.01 132.79 126.85C132.79 126.69 132.92 126.56 133.08 126.56C133.24 126.56 133.37 126.69 133.37 126.85Z" fill="#565656"/>
<path d="M134.65 126.85C134.65 127.01 134.52 127.14 134.36 127.14C134.2 127.14 134.07 127.01 134.07 126.85C134.07 126.69 134.2 126.56 134.36 126.56C134.52 126.56 134.65 126.69 134.65 126.85Z" fill="#565656"/>
<path d="M135.93 126.85C135.93 127.01 135.8 127.14 135.64 127.14C135.48 127.14 135.35 127.01 135.35 126.85C135.35 126.69 135.48 126.56 135.64 126.56C135.8 126.56 135.93 126.69 135.93 126.85Z" fill="#565656"/>
<path d="M137.22 126.85C137.22 127.01 137.09 127.14 136.93 127.14C136.77 127.14 136.64 127.01 136.64 126.85C136.64 126.69 136.77 126.56 136.93 126.56C137.09 126.56 137.22 126.69 137.22 126.85Z" fill="#565656"/>
<path d="M138.5 126.85C138.5 127.01 138.37 127.14 138.21 127.14C138.05 127.14 137.92 127.01 137.92 126.85C137.92 126.69 138.05 126.56 138.21 126.56C138.37 126.56 138.5 126.69 138.5 126.85Z" fill="#565656"/>
<path d="M139.78 126.85C139.78 127.01 139.65 127.14 139.49 127.14C139.33 127.14 139.2 127.01 139.2 126.85C139.2 126.69 139.33 126.56 139.49 126.56C139.65 126.56 139.78 126.69 139.78 126.85Z" fill="#565656"/>
<path d="M141.07 126.85C141.07 127.01 140.94 127.14 140.78 127.14C140.62 127.14 140.49 127.01 140.49 126.85C140.49 126.69 140.62 126.56 140.78 126.56C140.94 126.56 141.07 126.69 141.07 126.85Z" fill="#565656"/>
<path d="M142.35 126.85C142.35 127.01 142.22 127.14 142.06 127.14C141.9 127.14 141.77 127.01 141.77 126.85C141.77 126.69 141.9 126.56 142.06 126.56C142.22 126.56 142.35 126.69 142.35 126.85Z" fill="#565656"/>
<path d="M130.8 127.92C130.8 128.08 130.67 128.21 130.51 128.21C130.35 128.21 130.22 128.08 130.22 127.92C130.22 127.76 130.35 127.63 130.51 127.63C130.67 127.63 130.8 127.76 130.8 127.92Z" fill="#565656"/>
<path d="M132.08 127.92C132.08 128.08 131.95 128.21 131.79 128.21C131.63 128.21 131.5 128.08 131.5 127.92C131.5 127.76 131.63 127.63 131.79 127.63C131.95 127.63 132.08 127.76 132.08 127.92Z" fill="#565656"/>
<path d="M133.37 127.92C133.37 128.08 133.24 128.21 133.08 128.21C132.92 128.21 132.79 128.08 132.79 127.92C132.79 127.76 132.92 127.63 133.08 127.63C133.24 127.63 133.37 127.76 133.37 127.92Z" fill="#565656"/>
<path d="M134.65 127.92C134.65 128.08 134.52 128.21 134.36 128.21C134.2 128.21 134.07 128.08 134.07 127.92C134.07 127.76 134.2 127.63 134.36 127.63C134.52 127.63 134.65 127.76 134.65 127.92Z" fill="#565656"/>
<path d="M135.93 127.92C135.93 128.08 135.8 128.21 135.64 128.21C135.48 128.21 135.35 128.08 135.35 127.92C135.35 127.76 135.48 127.63 135.64 127.63C135.8 127.63 135.93 127.76 135.93 127.92Z" fill="#565656"/>
<path d="M137.22 127.92C137.22 128.08 137.09 128.21 136.93 128.21C136.77 128.21 136.64 128.08 136.64 127.92C136.64 127.76 136.77 127.63 136.93 127.63C137.09 127.63 137.22 127.76 137.22 127.92Z" fill="#565656"/>
<path d="M138.5 127.92C138.5 128.08 138.37 128.21 138.21 128.21C138.05 128.21 137.92 128.08 137.92 127.92C137.92 127.76 138.05 127.63 138.21 127.63C138.37 127.63 138.5 127.76 138.5 127.92Z" fill="#565656"/>
<path d="M139.78 127.92C139.78 128.08 139.65 128.21 139.49 128.21C139.33 128.21 139.2 128.08 139.2 127.92C139.2 127.76 139.33 127.63 139.49 127.63C139.65 127.63 139.78 127.76 139.78 127.92Z" fill="#565656"/>
<path d="M141.07 127.92C141.07 128.08 140.94 128.21 140.78 128.21C140.62 128.21 140.49 128.08 140.49 127.92C140.49 127.76 140.62 127.63 140.78 127.63C140.94 127.63 141.07 127.76 141.07 127.92Z" fill="#565656"/>
<path d="M142.35 127.92C142.35 128.08 142.22 128.21 142.06 128.21C141.9 128.21 141.77 128.08 141.77 127.92C141.77 127.76 141.9 127.63 142.06 127.63C142.22 127.63 142.35 127.76 142.35 127.92Z" fill="#565656"/>
<path d="M130.8 128.979C130.8 129.139 130.67 129.269 130.51 129.269C130.35 129.269 130.22 129.139 130.22 128.979C130.22 128.819 130.35 128.689 130.51 128.689C130.67 128.689 130.8 128.819 130.8 128.979Z" fill="#565656"/>
<path d="M132.08 128.979C132.08 129.139 131.95 129.269 131.79 129.269C131.63 129.269 131.5 129.139 131.5 128.979C131.5 128.819 131.63 128.689 131.79 128.689C131.95 128.689 132.08 128.819 132.08 128.979Z" fill="#565656"/>
<path d="M133.37 128.979C133.37 129.139 133.24 129.269 133.08 129.269C132.92 129.269 132.79 129.139 132.79 128.979C132.79 128.819 132.92 128.689 133.08 128.689C133.24 128.689 133.37 128.819 133.37 128.979Z" fill="#565656"/>
<path d="M134.65 128.979C134.65 129.139 134.52 129.269 134.36 129.269C134.2 129.269 134.07 129.139 134.07 128.979C134.07 128.819 134.2 128.689 134.36 128.689C134.52 128.689 134.65 128.819 134.65 128.979Z" fill="#565656"/>
<path d="M135.93 128.979C135.93 129.139 135.8 129.269 135.64 129.269C135.48 129.269 135.35 129.139 135.35 128.979C135.35 128.819 135.48 128.689 135.64 128.689C135.8 128.689 135.93 128.819 135.93 128.979Z" fill="#565656"/>
<path d="M137.22 128.979C137.22 129.139 137.09 129.269 136.93 129.269C136.77 129.269 136.64 129.139 136.64 128.979C136.64 128.819 136.77 128.689 136.93 128.689C137.09 128.689 137.22 128.819 137.22 128.979Z" fill="#565656"/>
<path d="M138.5 128.979C138.5 129.139 138.37 129.269 138.21 129.269C138.05 129.269 137.92 129.139 137.92 128.979C137.92 128.819 138.05 128.689 138.21 128.689C138.37 128.689 138.5 128.819 138.5 128.979Z" fill="#565656"/>
<path d="M139.78 128.979C139.78 129.139 139.65 129.269 139.49 129.269C139.33 129.269 139.2 129.139 139.2 128.979C139.2 128.819 139.33 128.689 139.49 128.689C139.65 128.689 139.78 128.819 139.78 128.979Z" fill="#565656"/>
<path d="M141.07 128.979C141.07 129.139 140.94 129.269 140.78 129.269C140.62 129.269 140.49 129.139 140.49 128.979C140.49 128.819 140.62 128.689 140.78 128.689C140.94 128.689 141.07 128.819 141.07 128.979Z" fill="#565656"/>
<path d="M142.35 128.979C142.35 129.139 142.22 129.269 142.06 129.269C141.9 129.269 141.77 129.139 141.77 128.979C141.77 128.819 141.9 128.689 142.06 128.689C142.22 128.689 142.35 128.819 142.35 128.979Z" fill="#565656"/>
<path d="M144.56 130.529H113.4C112.483 130.529 111.74 131.273 111.74 132.189V132.569C111.74 133.486 112.483 134.229 113.4 134.229H144.56C145.477 134.229 146.22 133.486 146.22 132.569V132.189C146.22 131.273 145.477 130.529 144.56 130.529Z" fill="#778FA5"/>
<path d="M122.75 131.369H113.11V133.399H122.75V131.369Z" fill="#191919"/>
<path d="M117.67 131.899H113.63V132.909H117.67V131.899Z" fill="url(#paint8_linear_695_5349)"/>
<path d="M130.8 131.369C130.8 131.529 130.67 131.659 130.51 131.659C130.35 131.659 130.22 131.529 130.22 131.369C130.22 131.209 130.35 131.079 130.51 131.079C130.67 131.079 130.8 131.209 130.8 131.369Z" fill="#565656"/>
<path d="M132.08 131.369C132.08 131.529 131.95 131.659 131.79 131.659C131.63 131.659 131.5 131.529 131.5 131.369C131.5 131.209 131.63 131.079 131.79 131.079C131.95 131.079 132.08 131.209 132.08 131.369Z" fill="#565656"/>
<path d="M133.37 131.369C133.37 131.529 133.24 131.659 133.08 131.659C132.92 131.659 132.79 131.529 132.79 131.369C132.79 131.209 132.92 131.079 133.08 131.079C133.24 131.079 133.37 131.209 133.37 131.369Z" fill="#565656"/>
<path d="M134.65 131.369C134.65 131.529 134.52 131.659 134.36 131.659C134.2 131.659 134.07 131.529 134.07 131.369C134.07 131.209 134.2 131.079 134.36 131.079C134.52 131.079 134.65 131.209 134.65 131.369Z" fill="#565656"/>
<path d="M135.93 131.369C135.93 131.529 135.8 131.659 135.64 131.659C135.48 131.659 135.35 131.529 135.35 131.369C135.35 131.209 135.48 131.079 135.64 131.079C135.8 131.079 135.93 131.209 135.93 131.369Z" fill="#565656"/>
<path d="M137.22 131.369C137.22 131.529 137.09 131.659 136.93 131.659C136.77 131.659 136.64 131.529 136.64 131.369C136.64 131.209 136.77 131.079 136.93 131.079C137.09 131.079 137.22 131.209 137.22 131.369Z" fill="#565656"/>
<path d="M138.5 131.369C138.5 131.529 138.37 131.659 138.21 131.659C138.05 131.659 137.92 131.529 137.92 131.369C137.92 131.209 138.05 131.079 138.21 131.079C138.37 131.079 138.5 131.209 138.5 131.369Z" fill="#565656"/>
<path d="M139.78 131.369C139.78 131.529 139.65 131.659 139.49 131.659C139.33 131.659 139.2 131.529 139.2 131.369C139.2 131.209 139.33 131.079 139.49 131.079C139.65 131.079 139.78 131.209 139.78 131.369Z" fill="#565656"/>
<path d="M141.07 131.369C141.07 131.529 140.94 131.659 140.78 131.659C140.62 131.659 140.49 131.529 140.49 131.369C140.49 131.209 140.62 131.079 140.78 131.079C140.94 131.079 141.07 131.209 141.07 131.369Z" fill="#565656"/>
<path d="M142.35 131.369C142.35 131.529 142.22 131.659 142.06 131.659C141.9 131.659 141.77 131.529 141.77 131.369C141.77 131.209 141.9 131.079 142.06 131.079C142.22 131.079 142.35 131.209 142.35 131.369Z" fill="#565656"/>
<path d="M130.8 132.43C130.8 132.59 130.67 132.72 130.51 132.72C130.35 132.72 130.22 132.59 130.22 132.43C130.22 132.27 130.35 132.14 130.51 132.14C130.67 132.14 130.8 132.27 130.8 132.43Z" fill="#565656"/>
<path d="M132.08 132.43C132.08 132.59 131.95 132.72 131.79 132.72C131.63 132.72 131.5 132.59 131.5 132.43C131.5 132.27 131.63 132.14 131.79 132.14C131.95 132.14 132.08 132.27 132.08 132.43Z" fill="#565656"/>
<path d="M133.37 132.43C133.37 132.59 133.24 132.72 133.08 132.72C132.92 132.72 132.79 132.59 132.79 132.43C132.79 132.27 132.92 132.14 133.08 132.14C133.24 132.14 133.37 132.27 133.37 132.43Z" fill="#565656"/>
<path d="M134.65 132.43C134.65 132.59 134.52 132.72 134.36 132.72C134.2 132.72 134.07 132.59 134.07 132.43C134.07 132.27 134.2 132.14 134.36 132.14C134.52 132.14 134.65 132.27 134.65 132.43Z" fill="#565656"/>
<path d="M135.93 132.43C135.93 132.59 135.8 132.72 135.64 132.72C135.48 132.72 135.35 132.59 135.35 132.43C135.35 132.27 135.48 132.14 135.64 132.14C135.8 132.14 135.93 132.27 135.93 132.43Z" fill="#565656"/>
<path d="M137.22 132.43C137.22 132.59 137.09 132.72 136.93 132.72C136.77 132.72 136.64 132.59 136.64 132.43C136.64 132.27 136.77 132.14 136.93 132.14C137.09 132.14 137.22 132.27 137.22 132.43Z" fill="#565656"/>
<path d="M138.5 132.43C138.5 132.59 138.37 132.72 138.21 132.72C138.05 132.72 137.92 132.59 137.92 132.43C137.92 132.27 138.05 132.14 138.21 132.14C138.37 132.14 138.5 132.27 138.5 132.43Z" fill="#565656"/>
<path d="M139.78 132.43C139.78 132.59 139.65 132.72 139.49 132.72C139.33 132.72 139.2 132.59 139.2 132.43C139.2 132.27 139.33 132.14 139.49 132.14C139.65 132.14 139.78 132.27 139.78 132.43Z" fill="#565656"/>
<path d="M141.07 132.43C141.07 132.59 140.94 132.72 140.78 132.72C140.62 132.72 140.49 132.59 140.49 132.43C140.49 132.27 140.62 132.14 140.78 132.14C140.94 132.14 141.07 132.27 141.07 132.43Z" fill="#565656"/>
<path d="M142.35 132.43C142.35 132.59 142.22 132.72 142.06 132.72C141.9 132.72 141.77 132.59 141.77 132.43C141.77 132.27 141.9 132.14 142.06 132.14C142.22 132.14 142.35 132.27 142.35 132.43Z" fill="#565656"/>
<path d="M130.8 133.489C130.8 133.649 130.67 133.779 130.51 133.779C130.35 133.779 130.22 133.649 130.22 133.489C130.22 133.329 130.35 133.199 130.51 133.199C130.67 133.199 130.8 133.329 130.8 133.489Z" fill="#565656"/>
<path d="M132.08 133.489C132.08 133.649 131.95 133.779 131.79 133.779C131.63 133.779 131.5 133.649 131.5 133.489C131.5 133.329 131.63 133.199 131.79 133.199C131.95 133.199 132.08 133.329 132.08 133.489Z" fill="#565656"/>
<path d="M133.37 133.489C133.37 133.649 133.24 133.779 133.08 133.779C132.92 133.779 132.79 133.649 132.79 133.489C132.79 133.329 132.92 133.199 133.08 133.199C133.24 133.199 133.37 133.329 133.37 133.489Z" fill="#565656"/>
<path d="M134.65 133.489C134.65 133.649 134.52 133.779 134.36 133.779C134.2 133.779 134.07 133.649 134.07 133.489C134.07 133.329 134.2 133.199 134.36 133.199C134.52 133.199 134.65 133.329 134.65 133.489Z" fill="#565656"/>
<path d="M135.93 133.489C135.93 133.649 135.8 133.779 135.64 133.779C135.48 133.779 135.35 133.649 135.35 133.489C135.35 133.329 135.48 133.199 135.64 133.199C135.8 133.199 135.93 133.329 135.93 133.489Z" fill="#565656"/>
<path d="M137.22 133.489C137.22 133.649 137.09 133.779 136.93 133.779C136.77 133.779 136.64 133.649 136.64 133.489C136.64 133.329 136.77 133.199 136.93 133.199C137.09 133.199 137.22 133.329 137.22 133.489Z" fill="#565656"/>
<path d="M138.5 133.489C138.5 133.649 138.37 133.779 138.21 133.779C138.05 133.779 137.92 133.649 137.92 133.489C137.92 133.329 138.05 133.199 138.21 133.199C138.37 133.199 138.5 133.329 138.5 133.489Z" fill="#565656"/>
<path d="M139.78 133.489C139.78 133.649 139.65 133.779 139.49 133.779C139.33 133.779 139.2 133.649 139.2 133.489C139.2 133.329 139.33 133.199 139.49 133.199C139.65 133.199 139.78 133.329 139.78 133.489Z" fill="#565656"/>
<path d="M141.07 133.489C141.07 133.649 140.94 133.779 140.78 133.779C140.62 133.779 140.49 133.649 140.49 133.489C140.49 133.329 140.62 133.199 140.78 133.199C140.94 133.199 141.07 133.329 141.07 133.489Z" fill="#565656"/>
<path d="M142.35 133.489C142.35 133.649 142.22 133.779 142.06 133.779C141.9 133.779 141.77 133.649 141.77 133.489C141.77 133.329 141.9 133.199 142.06 133.199C142.22 133.199 142.35 133.329 142.35 133.489Z" fill="#565656"/>
<path d="M144.56 140.43H113.4C112.483 140.43 111.74 141.173 111.74 142.09V142.47C111.74 143.386 112.483 144.13 113.4 144.13H144.56C145.477 144.13 146.22 143.386 146.22 142.47V142.09C146.22 141.173 145.477 140.43 144.56 140.43Z" fill="#778FA5"/>
<path d="M122.68 141.27H113.11V143.3H122.68V141.27Z" fill="#191919"/>
<path d="M117.76 141.8H113.63V142.81H117.76V141.8Z" fill="url(#paint9_linear_695_5349)"/>
<path d="M130.8 141.269C130.8 141.429 130.67 141.56 130.51 141.56C130.35 141.56 130.22 141.429 130.22 141.269C130.22 141.109 130.35 140.979 130.51 140.979C130.67 140.979 130.8 141.109 130.8 141.269Z" fill="#565656"/>
<path d="M132.08 141.269C132.08 141.429 131.95 141.56 131.79 141.56C131.63 141.56 131.5 141.429 131.5 141.269C131.5 141.109 131.63 140.979 131.79 140.979C131.95 140.979 132.08 141.109 132.08 141.269Z" fill="#565656"/>
<path d="M133.37 141.269C133.37 141.429 133.24 141.56 133.08 141.56C132.92 141.56 132.79 141.429 132.79 141.269C132.79 141.109 132.92 140.979 133.08 140.979C133.24 140.979 133.37 141.109 133.37 141.269Z" fill="#565656"/>
<path d="M134.65 141.269C134.65 141.429 134.52 141.56 134.36 141.56C134.2 141.56 134.07 141.429 134.07 141.269C134.07 141.109 134.2 140.979 134.36 140.979C134.52 140.979 134.65 141.109 134.65 141.269Z" fill="#565656"/>
<path d="M135.93 141.269C135.93 141.429 135.8 141.56 135.64 141.56C135.48 141.56 135.35 141.429 135.35 141.269C135.35 141.109 135.48 140.979 135.64 140.979C135.8 140.979 135.93 141.109 135.93 141.269Z" fill="#565656"/>
<path d="M137.22 141.269C137.22 141.429 137.09 141.56 136.93 141.56C136.77 141.56 136.64 141.429 136.64 141.269C136.64 141.109 136.77 140.979 136.93 140.979C137.09 140.979 137.22 141.109 137.22 141.269Z" fill="#565656"/>
<path d="M138.5 141.269C138.5 141.429 138.37 141.56 138.21 141.56C138.05 141.56 137.92 141.429 137.92 141.269C137.92 141.109 138.05 140.979 138.21 140.979C138.37 140.979 138.5 141.109 138.5 141.269Z" fill="#565656"/>
<path d="M139.78 141.269C139.78 141.429 139.65 141.56 139.49 141.56C139.33 141.56 139.2 141.429 139.2 141.269C139.2 141.109 139.33 140.979 139.49 140.979C139.65 140.979 139.78 141.109 139.78 141.269Z" fill="#565656"/>
<path d="M141.07 141.269C141.07 141.429 140.94 141.56 140.78 141.56C140.62 141.56 140.49 141.429 140.49 141.269C140.49 141.109 140.62 140.979 140.78 140.979C140.94 140.979 141.07 141.109 141.07 141.269Z" fill="#565656"/>
<path d="M142.35 141.269C142.35 141.429 142.22 141.56 142.06 141.56C141.9 141.56 141.77 141.429 141.77 141.269C141.77 141.109 141.9 140.979 142.06 140.979C142.22 140.979 142.35 141.109 142.35 141.269Z" fill="#565656"/>
<path d="M130.8 142.33C130.8 142.49 130.67 142.62 130.51 142.62C130.35 142.62 130.22 142.49 130.22 142.33C130.22 142.17 130.35 142.04 130.51 142.04C130.67 142.04 130.8 142.17 130.8 142.33Z" fill="#565656"/>
<path d="M132.08 142.33C132.08 142.49 131.95 142.62 131.79 142.62C131.63 142.62 131.5 142.49 131.5 142.33C131.5 142.17 131.63 142.04 131.79 142.04C131.95 142.04 132.08 142.17 132.08 142.33Z" fill="#565656"/>
<path d="M133.37 142.33C133.37 142.49 133.24 142.62 133.08 142.62C132.92 142.62 132.79 142.49 132.79 142.33C132.79 142.17 132.92 142.04 133.08 142.04C133.24 142.04 133.37 142.17 133.37 142.33Z" fill="#565656"/>
<path d="M134.65 142.33C134.65 142.49 134.52 142.62 134.36 142.62C134.2 142.62 134.07 142.49 134.07 142.33C134.07 142.17 134.2 142.04 134.36 142.04C134.52 142.04 134.65 142.17 134.65 142.33Z" fill="#565656"/>
<path d="M135.93 142.33C135.93 142.49 135.8 142.62 135.64 142.62C135.48 142.62 135.35 142.49 135.35 142.33C135.35 142.17 135.48 142.04 135.64 142.04C135.8 142.04 135.93 142.17 135.93 142.33Z" fill="#565656"/>
<path d="M137.22 142.33C137.22 142.49 137.09 142.62 136.93 142.62C136.77 142.62 136.64 142.49 136.64 142.33C136.64 142.17 136.77 142.04 136.93 142.04C137.09 142.04 137.22 142.17 137.22 142.33Z" fill="#565656"/>
<path d="M138.5 142.33C138.5 142.49 138.37 142.62 138.21 142.62C138.05 142.62 137.92 142.49 137.92 142.33C137.92 142.17 138.05 142.04 138.21 142.04C138.37 142.04 138.5 142.17 138.5 142.33Z" fill="#565656"/>
<path d="M139.78 142.33C139.78 142.49 139.65 142.62 139.49 142.62C139.33 142.62 139.2 142.49 139.2 142.33C139.2 142.17 139.33 142.04 139.49 142.04C139.65 142.04 139.78 142.17 139.78 142.33Z" fill="#565656"/>
<path d="M141.07 142.33C141.07 142.49 140.94 142.62 140.78 142.62C140.62 142.62 140.49 142.49 140.49 142.33C140.49 142.17 140.62 142.04 140.78 142.04C140.94 142.04 141.07 142.17 141.07 142.33Z" fill="#565656"/>
<path d="M142.35 142.33C142.35 142.49 142.22 142.62 142.06 142.62C141.9 142.62 141.77 142.49 141.77 142.33C141.77 142.17 141.9 142.04 142.06 142.04C142.22 142.04 142.35 142.17 142.35 142.33Z" fill="#565656"/>
<path d="M130.8 143.39C130.8 143.55 130.67 143.68 130.51 143.68C130.35 143.68 130.22 143.55 130.22 143.39C130.22 143.23 130.35 143.1 130.51 143.1C130.67 143.1 130.8 143.23 130.8 143.39Z" fill="#565656"/>
<path d="M132.08 143.39C132.08 143.55 131.95 143.68 131.79 143.68C131.63 143.68 131.5 143.55 131.5 143.39C131.5 143.23 131.63 143.1 131.79 143.1C131.95 143.1 132.08 143.23 132.08 143.39Z" fill="#565656"/>
<path d="M133.37 143.39C133.37 143.55 133.24 143.68 133.08 143.68C132.92 143.68 132.79 143.55 132.79 143.39C132.79 143.23 132.92 143.1 133.08 143.1C133.24 143.1 133.37 143.23 133.37 143.39Z" fill="#565656"/>
<path d="M134.65 143.39C134.65 143.55 134.52 143.68 134.36 143.68C134.2 143.68 134.07 143.55 134.07 143.39C134.07 143.23 134.2 143.1 134.36 143.1C134.52 143.1 134.65 143.23 134.65 143.39Z" fill="#565656"/>
<path d="M135.93 143.39C135.93 143.55 135.8 143.68 135.64 143.68C135.48 143.68 135.35 143.55 135.35 143.39C135.35 143.23 135.48 143.1 135.64 143.1C135.8 143.1 135.93 143.23 135.93 143.39Z" fill="#565656"/>
<path d="M137.22 143.39C137.22 143.55 137.09 143.68 136.93 143.68C136.77 143.68 136.64 143.55 136.64 143.39C136.64 143.23 136.77 143.1 136.93 143.1C137.09 143.1 137.22 143.23 137.22 143.39Z" fill="#565656"/>
<path d="M138.5 143.39C138.5 143.55 138.37 143.68 138.21 143.68C138.05 143.68 137.92 143.55 137.92 143.39C137.92 143.23 138.05 143.1 138.21 143.1C138.37 143.1 138.5 143.23 138.5 143.39Z" fill="#565656"/>
<path d="M139.78 143.39C139.78 143.55 139.65 143.68 139.49 143.68C139.33 143.68 139.2 143.55 139.2 143.39C139.2 143.23 139.33 143.1 139.49 143.1C139.65 143.1 139.78 143.23 139.78 143.39Z" fill="#565656"/>
<path d="M141.07 143.39C141.07 143.55 140.94 143.68 140.78 143.68C140.62 143.68 140.49 143.55 140.49 143.39C140.49 143.23 140.62 143.1 140.78 143.1C140.94 143.1 141.07 143.23 141.07 143.39Z" fill="#565656"/>
<path d="M142.35 143.39C142.35 143.55 142.22 143.68 142.06 143.68C141.9 143.68 141.77 143.55 141.77 143.39C141.77 143.23 141.9 143.1 142.06 143.1C142.22 143.1 142.35 143.23 142.35 143.39Z" fill="#565656"/>
<path d="M144.56 144.949H113.4C112.483 144.949 111.74 145.692 111.74 146.609V146.989C111.74 147.906 112.483 148.649 113.4 148.649H144.56C145.477 148.649 146.22 147.906 146.22 146.989V146.609C146.22 145.692 145.477 144.949 144.56 144.949Z" fill="#778FA5"/>
<path d="M122.75 145.779H113.11V147.809H122.75V145.779Z" fill="#191919"/>
<path d="M117.67 146.319H113.63V147.329H117.67V146.319Z" fill="url(#paint10_linear_695_5349)"/>
<path d="M130.8 145.789C130.8 145.949 130.67 146.079 130.51 146.079C130.35 146.079 130.22 145.949 130.22 145.789C130.22 145.629 130.35 145.499 130.51 145.499C130.67 145.499 130.8 145.629 130.8 145.789Z" fill="#565656"/>
<path d="M132.08 145.789C132.08 145.949 131.95 146.079 131.79 146.079C131.63 146.079 131.5 145.949 131.5 145.789C131.5 145.629 131.63 145.499 131.79 145.499C131.95 145.499 132.08 145.629 132.08 145.789Z" fill="#565656"/>
<path d="M133.37 145.789C133.37 145.949 133.24 146.079 133.08 146.079C132.92 146.079 132.79 145.949 132.79 145.789C132.79 145.629 132.92 145.499 133.08 145.499C133.24 145.499 133.37 145.629 133.37 145.789Z" fill="#565656"/>
<path d="M134.65 145.789C134.65 145.949 134.52 146.079 134.36 146.079C134.2 146.079 134.07 145.949 134.07 145.789C134.07 145.629 134.2 145.499 134.36 145.499C134.52 145.499 134.65 145.629 134.65 145.789Z" fill="#565656"/>
<path d="M135.93 145.789C135.93 145.949 135.8 146.079 135.64 146.079C135.48 146.079 135.35 145.949 135.35 145.789C135.35 145.629 135.48 145.499 135.64 145.499C135.8 145.499 135.93 145.629 135.93 145.789Z" fill="#565656"/>
<path d="M137.22 145.789C137.22 145.949 137.09 146.079 136.93 146.079C136.77 146.079 136.64 145.949 136.64 145.789C136.64 145.629 136.77 145.499 136.93 145.499C137.09 145.499 137.22 145.629 137.22 145.789Z" fill="#565656"/>
<path d="M138.5 145.789C138.5 145.949 138.37 146.079 138.21 146.079C138.05 146.079 137.92 145.949 137.92 145.789C137.92 145.629 138.05 145.499 138.21 145.499C138.37 145.499 138.5 145.629 138.5 145.789Z" fill="#565656"/>
<path d="M139.78 145.789C139.78 145.949 139.65 146.079 139.49 146.079C139.33 146.079 139.2 145.949 139.2 145.789C139.2 145.629 139.33 145.499 139.49 145.499C139.65 145.499 139.78 145.629 139.78 145.789Z" fill="#565656"/>
<path d="M141.07 145.789C141.07 145.949 140.94 146.079 140.78 146.079C140.62 146.079 140.49 145.949 140.49 145.789C140.49 145.629 140.62 145.499 140.78 145.499C140.94 145.499 141.07 145.629 141.07 145.789Z" fill="#565656"/>
<path d="M142.35 145.789C142.35 145.949 142.22 146.079 142.06 146.079C141.9 146.079 141.77 145.949 141.77 145.789C141.77 145.629 141.9 145.499 142.06 145.499C142.22 145.499 142.35 145.629 142.35 145.789Z" fill="#565656"/>
<path d="M130.8 146.85C130.8 147.01 130.67 147.14 130.51 147.14C130.35 147.14 130.22 147.01 130.22 146.85C130.22 146.69 130.35 146.56 130.51 146.56C130.67 146.56 130.8 146.69 130.8 146.85Z" fill="#565656"/>
<path d="M132.08 146.85C132.08 147.01 131.95 147.14 131.79 147.14C131.63 147.14 131.5 147.01 131.5 146.85C131.5 146.69 131.63 146.56 131.79 146.56C131.95 146.56 132.08 146.69 132.08 146.85Z" fill="#565656"/>
<path d="M133.37 146.85C133.37 147.01 133.24 147.14 133.08 147.14C132.92 147.14 132.79 147.01 132.79 146.85C132.79 146.69 132.92 146.56 133.08 146.56C133.24 146.56 133.37 146.69 133.37 146.85Z" fill="#565656"/>
<path d="M134.65 146.85C134.65 147.01 134.52 147.14 134.36 147.14C134.2 147.14 134.07 147.01 134.07 146.85C134.07 146.69 134.2 146.56 134.36 146.56C134.52 146.56 134.65 146.69 134.65 146.85Z" fill="#565656"/>
<path d="M135.93 146.85C135.93 147.01 135.8 147.14 135.64 147.14C135.48 147.14 135.35 147.01 135.35 146.85C135.35 146.69 135.48 146.56 135.64 146.56C135.8 146.56 135.93 146.69 135.93 146.85Z" fill="#565656"/>
<path d="M137.22 146.85C137.22 147.01 137.09 147.14 136.93 147.14C136.77 147.14 136.64 147.01 136.64 146.85C136.64 146.69 136.77 146.56 136.93 146.56C137.09 146.56 137.22 146.69 137.22 146.85Z" fill="#565656"/>
<path d="M138.5 146.85C138.5 147.01 138.37 147.14 138.21 147.14C138.05 147.14 137.92 147.01 137.92 146.85C137.92 146.69 138.05 146.56 138.21 146.56C138.37 146.56 138.5 146.69 138.5 146.85Z" fill="#565656"/>
<path d="M139.78 146.85C139.78 147.01 139.65 147.14 139.49 147.14C139.33 147.14 139.2 147.01 139.2 146.85C139.2 146.69 139.33 146.56 139.49 146.56C139.65 146.56 139.78 146.69 139.78 146.85Z" fill="#565656"/>
<path d="M141.07 146.85C141.07 147.01 140.94 147.14 140.78 147.14C140.62 147.14 140.49 147.01 140.49 146.85C140.49 146.69 140.62 146.56 140.78 146.56C140.94 146.56 141.07 146.69 141.07 146.85Z" fill="#565656"/>
<path d="M142.35 146.85C142.35 147.01 142.22 147.14 142.06 147.14C141.9 147.14 141.77 147.01 141.77 146.85C141.77 146.69 141.9 146.56 142.06 146.56C142.22 146.56 142.35 146.69 142.35 146.85Z" fill="#565656"/>
<path d="M130.8 147.909C130.8 148.069 130.67 148.199 130.51 148.199C130.35 148.199 130.22 148.069 130.22 147.909C130.22 147.749 130.35 147.619 130.51 147.619C130.67 147.619 130.8 147.749 130.8 147.909Z" fill="#565656"/>
<path d="M132.08 147.909C132.08 148.069 131.95 148.199 131.79 148.199C131.63 148.199 131.5 148.069 131.5 147.909C131.5 147.749 131.63 147.619 131.79 147.619C131.95 147.619 132.08 147.749 132.08 147.909Z" fill="#565656"/>
<path d="M133.37 147.909C133.37 148.069 133.24 148.199 133.08 148.199C132.92 148.199 132.79 148.069 132.79 147.909C132.79 147.749 132.92 147.619 133.08 147.619C133.24 147.619 133.37 147.749 133.37 147.909Z" fill="#565656"/>
<path d="M134.65 147.909C134.65 148.069 134.52 148.199 134.36 148.199C134.2 148.199 134.07 148.069 134.07 147.909C134.07 147.749 134.2 147.619 134.36 147.619C134.52 147.619 134.65 147.749 134.65 147.909Z" fill="#565656"/>
<path d="M135.93 147.909C135.93 148.069 135.8 148.199 135.64 148.199C135.48 148.199 135.35 148.069 135.35 147.909C135.35 147.749 135.48 147.619 135.64 147.619C135.8 147.619 135.93 147.749 135.93 147.909Z" fill="#565656"/>
<path d="M137.22 147.909C137.22 148.069 137.09 148.199 136.93 148.199C136.77 148.199 136.64 148.069 136.64 147.909C136.64 147.749 136.77 147.619 136.93 147.619C137.09 147.619 137.22 147.749 137.22 147.909Z" fill="#565656"/>
<path d="M138.5 147.909C138.5 148.069 138.37 148.199 138.21 148.199C138.05 148.199 137.92 148.069 137.92 147.909C137.92 147.749 138.05 147.619 138.21 147.619C138.37 147.619 138.5 147.749 138.5 147.909Z" fill="#565656"/>
<path d="M139.78 147.909C139.78 148.069 139.65 148.199 139.49 148.199C139.33 148.199 139.2 148.069 139.2 147.909C139.2 147.749 139.33 147.619 139.49 147.619C139.65 147.619 139.78 147.749 139.78 147.909Z" fill="#565656"/>
<path d="M141.07 147.909C141.07 148.069 140.94 148.199 140.78 148.199C140.62 148.199 140.49 148.069 140.49 147.909C140.49 147.749 140.62 147.619 140.78 147.619C140.94 147.619 141.07 147.749 141.07 147.909Z" fill="#565656"/>
<path d="M142.35 147.909C142.35 148.069 142.22 148.199 142.06 148.199C141.9 148.199 141.77 148.069 141.77 147.909C141.77 147.749 141.9 147.619 142.06 147.619C142.22 147.619 142.35 147.749 142.35 147.909Z" fill="#565656"/>
<path d="M144.56 154.85H113.4C112.483 154.85 111.74 155.593 111.74 156.51V156.89C111.74 157.806 112.483 158.55 113.4 158.55H144.56C145.477 158.55 146.22 157.806 146.22 156.89V156.51C146.22 155.593 145.477 154.85 144.56 154.85Z" fill="#778FA5"/>
<path d="M122.68 155.689H113.11V157.719H122.68V155.689Z" fill="#191919"/>
<path d="M117.76 156.22H113.63V157.23H117.76V156.22Z" fill="url(#paint11_linear_695_5349)"/>
<path d="M130.8 155.689C130.8 155.849 130.67 155.979 130.51 155.979C130.35 155.979 130.22 155.849 130.22 155.689C130.22 155.529 130.35 155.399 130.51 155.399C130.67 155.399 130.8 155.529 130.8 155.689Z" fill="#565656"/>
<path d="M132.08 155.689C132.08 155.849 131.95 155.979 131.79 155.979C131.63 155.979 131.5 155.849 131.5 155.689C131.5 155.529 131.63 155.399 131.79 155.399C131.95 155.399 132.08 155.529 132.08 155.689Z" fill="#565656"/>
<path d="M133.37 155.689C133.37 155.849 133.24 155.979 133.08 155.979C132.92 155.979 132.79 155.849 132.79 155.689C132.79 155.529 132.92 155.399 133.08 155.399C133.24 155.399 133.37 155.529 133.37 155.689Z" fill="#565656"/>
<path d="M134.65 155.689C134.65 155.849 134.52 155.979 134.36 155.979C134.2 155.979 134.07 155.849 134.07 155.689C134.07 155.529 134.2 155.399 134.36 155.399C134.52 155.399 134.65 155.529 134.65 155.689Z" fill="#565656"/>
<path d="M135.93 155.689C135.93 155.849 135.8 155.979 135.64 155.979C135.48 155.979 135.35 155.849 135.35 155.689C135.35 155.529 135.48 155.399 135.64 155.399C135.8 155.399 135.93 155.529 135.93 155.689Z" fill="#565656"/>
<path d="M137.22 155.689C137.22 155.849 137.09 155.979 136.93 155.979C136.77 155.979 136.64 155.849 136.64 155.689C136.64 155.529 136.77 155.399 136.93 155.399C137.09 155.399 137.22 155.529 137.22 155.689Z" fill="#565656"/>
<path d="M138.5 155.689C138.5 155.849 138.37 155.979 138.21 155.979C138.05 155.979 137.92 155.849 137.92 155.689C137.92 155.529 138.05 155.399 138.21 155.399C138.37 155.399 138.5 155.529 138.5 155.689Z" fill="#565656"/>
<path d="M139.78 155.689C139.78 155.849 139.65 155.979 139.49 155.979C139.33 155.979 139.2 155.849 139.2 155.689C139.2 155.529 139.33 155.399 139.49 155.399C139.65 155.399 139.78 155.529 139.78 155.689Z" fill="#565656"/>
<path d="M141.07 155.689C141.07 155.849 140.94 155.979 140.78 155.979C140.62 155.979 140.49 155.849 140.49 155.689C140.49 155.529 140.62 155.399 140.78 155.399C140.94 155.399 141.07 155.529 141.07 155.689Z" fill="#565656"/>
<path d="M142.35 155.689C142.35 155.849 142.22 155.979 142.06 155.979C141.9 155.979 141.77 155.849 141.77 155.689C141.77 155.529 141.9 155.399 142.06 155.399C142.22 155.399 142.35 155.529 142.35 155.689Z" fill="#565656"/>
<path d="M130.8 156.75C130.8 156.91 130.67 157.04 130.51 157.04C130.35 157.04 130.22 156.91 130.22 156.75C130.22 156.59 130.35 156.46 130.51 156.46C130.67 156.46 130.8 156.59 130.8 156.75Z" fill="#565656"/>
<path d="M132.08 156.75C132.08 156.91 131.95 157.04 131.79 157.04C131.63 157.04 131.5 156.91 131.5 156.75C131.5 156.59 131.63 156.46 131.79 156.46C131.95 156.46 132.08 156.59 132.08 156.75Z" fill="#565656"/>
<path d="M133.37 156.75C133.37 156.91 133.24 157.04 133.08 157.04C132.92 157.04 132.79 156.91 132.79 156.75C132.79 156.59 132.92 156.46 133.08 156.46C133.24 156.46 133.37 156.59 133.37 156.75Z" fill="#565656"/>
<path d="M134.65 156.75C134.65 156.91 134.52 157.04 134.36 157.04C134.2 157.04 134.07 156.91 134.07 156.75C134.07 156.59 134.2 156.46 134.36 156.46C134.52 156.46 134.65 156.59 134.65 156.75Z" fill="#565656"/>
<path d="M135.93 156.75C135.93 156.91 135.8 157.04 135.64 157.04C135.48 157.04 135.35 156.91 135.35 156.75C135.35 156.59 135.48 156.46 135.64 156.46C135.8 156.46 135.93 156.59 135.93 156.75Z" fill="#565656"/>
<path d="M137.22 156.75C137.22 156.91 137.09 157.04 136.93 157.04C136.77 157.04 136.64 156.91 136.64 156.75C136.64 156.59 136.77 156.46 136.93 156.46C137.09 156.46 137.22 156.59 137.22 156.75Z" fill="#565656"/>
<path d="M138.5 156.75C138.5 156.91 138.37 157.04 138.21 157.04C138.05 157.04 137.92 156.91 137.92 156.75C137.92 156.59 138.05 156.46 138.21 156.46C138.37 156.46 138.5 156.59 138.5 156.75Z" fill="#565656"/>
<path d="M139.78 156.75C139.78 156.91 139.65 157.04 139.49 157.04C139.33 157.04 139.2 156.91 139.2 156.75C139.2 156.59 139.33 156.46 139.49 156.46C139.65 156.46 139.78 156.59 139.78 156.75Z" fill="#565656"/>
<path d="M141.07 156.75C141.07 156.91 140.94 157.04 140.78 157.04C140.62 157.04 140.49 156.91 140.49 156.75C140.49 156.59 140.62 156.46 140.78 156.46C140.94 156.46 141.07 156.59 141.07 156.75Z" fill="#565656"/>
<path d="M142.35 156.75C142.35 156.91 142.22 157.04 142.06 157.04C141.9 157.04 141.77 156.91 141.77 156.75C141.77 156.59 141.9 156.46 142.06 156.46C142.22 156.46 142.35 156.59 142.35 156.75Z" fill="#565656"/>
<path d="M130.8 157.81C130.8 157.97 130.67 158.1 130.51 158.1C130.35 158.1 130.22 157.97 130.22 157.81C130.22 157.65 130.35 157.52 130.51 157.52C130.67 157.52 130.8 157.65 130.8 157.81Z" fill="#565656"/>
<path d="M132.08 157.81C132.08 157.97 131.95 158.1 131.79 158.1C131.63 158.1 131.5 157.97 131.5 157.81C131.5 157.65 131.63 157.52 131.79 157.52C131.95 157.52 132.08 157.65 132.08 157.81Z" fill="#565656"/>
<path d="M133.37 157.81C133.37 157.97 133.24 158.1 133.08 158.1C132.92 158.1 132.79 157.97 132.79 157.81C132.79 157.65 132.92 157.52 133.08 157.52C133.24 157.52 133.37 157.65 133.37 157.81Z" fill="#565656"/>
<path d="M134.65 157.81C134.65 157.97 134.52 158.1 134.36 158.1C134.2 158.1 134.07 157.97 134.07 157.81C134.07 157.65 134.2 157.52 134.36 157.52C134.52 157.52 134.65 157.65 134.65 157.81Z" fill="#565656"/>
<path d="M135.93 157.81C135.93 157.97 135.8 158.1 135.64 158.1C135.48 158.1 135.35 157.97 135.35 157.81C135.35 157.65 135.48 157.52 135.64 157.52C135.8 157.52 135.93 157.65 135.93 157.81Z" fill="#565656"/>
<path d="M137.22 157.81C137.22 157.97 137.09 158.1 136.93 158.1C136.77 158.1 136.64 157.97 136.64 157.81C136.64 157.65 136.77 157.52 136.93 157.52C137.09 157.52 137.22 157.65 137.22 157.81Z" fill="#565656"/>
<path d="M138.5 157.81C138.5 157.97 138.37 158.1 138.21 158.1C138.05 158.1 137.92 157.97 137.92 157.81C137.92 157.65 138.05 157.52 138.21 157.52C138.37 157.52 138.5 157.65 138.5 157.81Z" fill="#565656"/>
<path d="M139.78 157.81C139.78 157.97 139.65 158.1 139.49 158.1C139.33 158.1 139.2 157.97 139.2 157.81C139.2 157.65 139.33 157.52 139.49 157.52C139.65 157.52 139.78 157.65 139.78 157.81Z" fill="#565656"/>
<path d="M141.07 157.81C141.07 157.97 140.94 158.1 140.78 158.1C140.62 158.1 140.49 157.97 140.49 157.81C140.49 157.65 140.62 157.52 140.78 157.52C140.94 157.52 141.07 157.65 141.07 157.81Z" fill="#565656"/>
<path d="M142.35 157.81C142.35 157.97 142.22 158.1 142.06 158.1C141.9 158.1 141.77 157.97 141.77 157.81C141.77 157.65 141.9 157.52 142.06 157.52C142.22 157.52 142.35 157.65 142.35 157.81Z" fill="#565656"/>
<path d="M144.56 159.369H113.4C112.483 159.369 111.74 160.112 111.74 161.029V161.409C111.74 162.326 112.483 163.069 113.4 163.069H144.56C145.477 163.069 146.22 162.326 146.22 161.409V161.029C146.22 160.112 145.477 159.369 144.56 159.369Z" fill="#778FA5"/>
<path d="M122.75 160.199H113.11V162.229H122.75V160.199Z" fill="#191919"/>
<path d="M117.67 160.739H113.63V161.749H117.67V160.739Z" fill="url(#paint12_linear_695_5349)"/>
<path d="M130.8 160.209C130.8 160.369 130.67 160.499 130.51 160.499C130.35 160.499 130.22 160.369 130.22 160.209C130.22 160.049 130.35 159.919 130.51 159.919C130.67 159.919 130.8 160.049 130.8 160.209Z" fill="#565656"/>
<path d="M132.08 160.209C132.08 160.369 131.95 160.499 131.79 160.499C131.63 160.499 131.5 160.369 131.5 160.209C131.5 160.049 131.63 159.919 131.79 159.919C131.95 159.919 132.08 160.049 132.08 160.209Z" fill="#565656"/>
<path d="M133.37 160.209C133.37 160.369 133.24 160.499 133.08 160.499C132.92 160.499 132.79 160.369 132.79 160.209C132.79 160.049 132.92 159.919 133.08 159.919C133.24 159.919 133.37 160.049 133.37 160.209Z" fill="#565656"/>
<path d="M134.65 160.209C134.65 160.369 134.52 160.499 134.36 160.499C134.2 160.499 134.07 160.369 134.07 160.209C134.07 160.049 134.2 159.919 134.36 159.919C134.52 159.919 134.65 160.049 134.65 160.209Z" fill="#565656"/>
<path d="M135.93 160.209C135.93 160.369 135.8 160.499 135.64 160.499C135.48 160.499 135.35 160.369 135.35 160.209C135.35 160.049 135.48 159.919 135.64 159.919C135.8 159.919 135.93 160.049 135.93 160.209Z" fill="#565656"/>
<path d="M137.22 160.209C137.22 160.369 137.09 160.499 136.93 160.499C136.77 160.499 136.64 160.369 136.64 160.209C136.64 160.049 136.77 159.919 136.93 159.919C137.09 159.919 137.22 160.049 137.22 160.209Z" fill="#565656"/>
<path d="M138.5 160.209C138.5 160.369 138.37 160.499 138.21 160.499C138.05 160.499 137.92 160.369 137.92 160.209C137.92 160.049 138.05 159.919 138.21 159.919C138.37 159.919 138.5 160.049 138.5 160.209Z" fill="#565656"/>
<path d="M139.78 160.209C139.78 160.369 139.65 160.499 139.49 160.499C139.33 160.499 139.2 160.369 139.2 160.209C139.2 160.049 139.33 159.919 139.49 159.919C139.65 159.919 139.78 160.049 139.78 160.209Z" fill="#565656"/>
<path d="M141.07 160.209C141.07 160.369 140.94 160.499 140.78 160.499C140.62 160.499 140.49 160.369 140.49 160.209C140.49 160.049 140.62 159.919 140.78 159.919C140.94 159.919 141.07 160.049 141.07 160.209Z" fill="#565656"/>
<path d="M142.35 160.209C142.35 160.369 142.22 160.499 142.06 160.499C141.9 160.499 141.77 160.369 141.77 160.209C141.77 160.049 141.9 159.919 142.06 159.919C142.22 159.919 142.35 160.049 142.35 160.209Z" fill="#565656"/>
<path d="M130.8 161.269C130.8 161.429 130.67 161.56 130.51 161.56C130.35 161.56 130.22 161.429 130.22 161.269C130.22 161.109 130.35 160.979 130.51 160.979C130.67 160.979 130.8 161.109 130.8 161.269Z" fill="#565656"/>
<path d="M132.08 161.269C132.08 161.429 131.95 161.56 131.79 161.56C131.63 161.56 131.5 161.429 131.5 161.269C131.5 161.109 131.63 160.979 131.79 160.979C131.95 160.979 132.08 161.109 132.08 161.269Z" fill="#565656"/>
<path d="M133.37 161.269C133.37 161.429 133.24 161.56 133.08 161.56C132.92 161.56 132.79 161.429 132.79 161.269C132.79 161.109 132.92 160.979 133.08 160.979C133.24 160.979 133.37 161.109 133.37 161.269Z" fill="#565656"/>
<path d="M134.65 161.269C134.65 161.429 134.52 161.56 134.36 161.56C134.2 161.56 134.07 161.429 134.07 161.269C134.07 161.109 134.2 160.979 134.36 160.979C134.52 160.979 134.65 161.109 134.65 161.269Z" fill="#565656"/>
<path d="M135.93 161.269C135.93 161.429 135.8 161.56 135.64 161.56C135.48 161.56 135.35 161.429 135.35 161.269C135.35 161.109 135.48 160.979 135.64 160.979C135.8 160.979 135.93 161.109 135.93 161.269Z" fill="#565656"/>
<path d="M137.22 161.269C137.22 161.429 137.09 161.56 136.93 161.56C136.77 161.56 136.64 161.429 136.64 161.269C136.64 161.109 136.77 160.979 136.93 160.979C137.09 160.979 137.22 161.109 137.22 161.269Z" fill="#565656"/>
<path d="M138.5 161.269C138.5 161.429 138.37 161.56 138.21 161.56C138.05 161.56 137.92 161.429 137.92 161.269C137.92 161.109 138.05 160.979 138.21 160.979C138.37 160.979 138.5 161.109 138.5 161.269Z" fill="#565656"/>
<path d="M139.78 161.269C139.78 161.429 139.65 161.56 139.49 161.56C139.33 161.56 139.2 161.429 139.2 161.269C139.2 161.109 139.33 160.979 139.49 160.979C139.65 160.979 139.78 161.109 139.78 161.269Z" fill="#565656"/>
<path d="M141.07 161.269C141.07 161.429 140.94 161.56 140.78 161.56C140.62 161.56 140.49 161.429 140.49 161.269C140.49 161.109 140.62 160.979 140.78 160.979C140.94 160.979 141.07 161.109 141.07 161.269Z" fill="#565656"/>
<path d="M142.35 161.269C142.35 161.429 142.22 161.56 142.06 161.56C141.9 161.56 141.77 161.429 141.77 161.269C141.77 161.109 141.9 160.979 142.06 160.979C142.22 160.979 142.35 161.109 142.35 161.269Z" fill="#565656"/>
<path d="M130.8 162.329C130.8 162.489 130.67 162.619 130.51 162.619C130.35 162.619 130.22 162.489 130.22 162.329C130.22 162.169 130.35 162.039 130.51 162.039C130.67 162.039 130.8 162.169 130.8 162.329Z" fill="#565656"/>
<path d="M132.08 162.329C132.08 162.489 131.95 162.619 131.79 162.619C131.63 162.619 131.5 162.489 131.5 162.329C131.5 162.169 131.63 162.039 131.79 162.039C131.95 162.039 132.08 162.169 132.08 162.329Z" fill="#565656"/>
<path d="M133.37 162.329C133.37 162.489 133.24 162.619 133.08 162.619C132.92 162.619 132.79 162.489 132.79 162.329C132.79 162.169 132.92 162.039 133.08 162.039C133.24 162.039 133.37 162.169 133.37 162.329Z" fill="#565656"/>
<path d="M134.65 162.329C134.65 162.489 134.52 162.619 134.36 162.619C134.2 162.619 134.07 162.489 134.07 162.329C134.07 162.169 134.2 162.039 134.36 162.039C134.52 162.039 134.65 162.169 134.65 162.329Z" fill="#565656"/>
<path d="M135.93 162.329C135.93 162.489 135.8 162.619 135.64 162.619C135.48 162.619 135.35 162.489 135.35 162.329C135.35 162.169 135.48 162.039 135.64 162.039C135.8 162.039 135.93 162.169 135.93 162.329Z" fill="#565656"/>
<path d="M137.22 162.329C137.22 162.489 137.09 162.619 136.93 162.619C136.77 162.619 136.64 162.489 136.64 162.329C136.64 162.169 136.77 162.039 136.93 162.039C137.09 162.039 137.22 162.169 137.22 162.329Z" fill="#565656"/>
<path d="M138.5 162.329C138.5 162.489 138.37 162.619 138.21 162.619C138.05 162.619 137.92 162.489 137.92 162.329C137.92 162.169 138.05 162.039 138.21 162.039C138.37 162.039 138.5 162.169 138.5 162.329Z" fill="#565656"/>
<path d="M139.78 162.329C139.78 162.489 139.65 162.619 139.49 162.619C139.33 162.619 139.2 162.489 139.2 162.329C139.2 162.169 139.33 162.039 139.49 162.039C139.65 162.039 139.78 162.169 139.78 162.329Z" fill="#565656"/>
<path d="M141.07 162.329C141.07 162.489 140.94 162.619 140.78 162.619C140.62 162.619 140.49 162.489 140.49 162.329C140.49 162.169 140.62 162.039 140.78 162.039C140.94 162.039 141.07 162.169 141.07 162.329Z" fill="#565656"/>
<path d="M142.35 162.329C142.35 162.489 142.22 162.619 142.06 162.619C141.9 162.619 141.77 162.489 141.77 162.329C141.77 162.169 141.9 162.039 142.06 162.039C142.22 162.039 142.35 162.169 142.35 162.329Z" fill="#565656"/>
<path d="M114.86 175.43C114.86 175.98 114.41 176.43 113.86 176.43C113.31 176.43 112.86 175.98 112.86 175.43C112.86 174.88 113.31 174.43 113.86 174.43C114.41 174.43 114.86 174.88 114.86 175.43Z" fill="#3B3B3B"/>
<path d="M118.21 175.43C118.21 175.98 117.76 176.43 117.21 176.43C116.66 176.43 116.21 175.98 116.21 175.43C116.21 174.88 116.66 174.43 117.21 174.43C117.76 174.43 118.21 174.88 118.21 175.43Z" fill="#3B3B3B"/>
<path d="M121.57 175.43C121.57 175.98 121.12 176.43 120.57 176.43C120.02 176.43 119.57 175.98 119.57 175.43C119.57 174.88 120.02 174.43 120.57 174.43C121.12 174.43 121.57 174.88 121.57 175.43Z" fill="#3B3B3B"/>
<path d="M124.92 175.43C124.92 175.98 124.47 176.43 123.92 176.43C123.37 176.43 122.92 175.98 122.92 175.43C122.92 174.88 123.37 174.43 123.92 174.43C124.47 174.43 124.92 174.88 124.92 175.43Z" fill="#3B3B3B"/>
<path d="M128.28 175.43C128.28 175.98 127.83 176.43 127.28 176.43C126.73 176.43 126.28 175.98 126.28 175.43C126.28 174.88 126.73 174.43 127.28 174.43C127.83 174.43 128.28 174.88 128.28 175.43Z" fill="#3B3B3B"/>
<path d="M131.63 175.43C131.63 175.98 131.18 176.43 130.63 176.43C130.08 176.43 129.63 175.98 129.63 175.43C129.63 174.88 130.08 174.43 130.63 174.43C131.18 174.43 131.63 174.88 131.63 175.43Z" fill="#3B3B3B"/>
<path d="M134.98 175.43C134.98 175.98 134.53 176.43 133.98 176.43C133.43 176.43 132.98 175.98 132.98 175.43C132.98 174.88 133.43 174.43 133.98 174.43C134.53 174.43 134.98 174.88 134.98 175.43Z" fill="#3B3B3B"/>
<path d="M138.34 175.43C138.34 175.98 137.89 176.43 137.34 176.43C136.79 176.43 136.34 175.98 136.34 175.43C136.34 174.88 136.79 174.43 137.34 174.43C137.89 174.43 138.34 174.88 138.34 175.43Z" fill="#3B3B3B"/>
<path d="M141.69 175.43C141.69 175.98 141.24 176.43 140.69 176.43C140.14 176.43 139.69 175.98 139.69 175.43C139.69 174.88 140.14 174.43 140.69 174.43C141.24 174.43 141.69 174.88 141.69 175.43Z" fill="#3B3B3B"/>
<path d="M145.04 175.43C145.04 175.98 144.59 176.43 144.04 176.43C143.49 176.43 143.04 175.98 143.04 175.43C143.04 174.88 143.49 174.43 144.04 174.43C144.59 174.43 145.04 174.88 145.04 175.43Z" fill="#3B3B3B"/>
<path d="M113.88 179.36C114.432 179.36 114.88 178.913 114.88 178.36C114.88 177.808 114.432 177.36 113.88 177.36C113.328 177.36 112.88 177.808 112.88 178.36C112.88 178.913 113.328 179.36 113.88 179.36Z" fill="#3B3B3B"/>
<path d="M117.24 179.36C117.792 179.36 118.24 178.913 118.24 178.36C118.24 177.808 117.792 177.36 117.24 177.36C116.687 177.36 116.24 177.808 116.24 178.36C116.24 178.913 116.687 179.36 117.24 179.36Z" fill="#3B3B3B"/>
<path d="M120.59 179.36C121.142 179.36 121.59 178.913 121.59 178.36C121.59 177.808 121.142 177.36 120.59 177.36C120.038 177.36 119.59 177.808 119.59 178.36C119.59 178.913 120.038 179.36 120.59 179.36Z" fill="#3B3B3B"/>
<path d="M124.94 178.36C124.94 178.91 124.49 179.36 123.94 179.36C123.39 179.36 122.94 178.91 122.94 178.36C122.94 177.81 123.39 177.36 123.94 177.36C124.49 177.36 124.94 177.81 124.94 178.36Z" fill="#3B3B3B"/>
<path d="M127.3 179.36C127.852 179.36 128.3 178.913 128.3 178.36C128.3 177.808 127.852 177.36 127.3 177.36C126.748 177.36 126.3 177.808 126.3 178.36C126.3 178.913 126.748 179.36 127.3 179.36Z" fill="#3B3B3B"/>
<path d="M130.65 179.36C131.202 179.36 131.65 178.913 131.65 178.36C131.65 177.808 131.202 177.36 130.65 177.36C130.098 177.36 129.65 177.808 129.65 178.36C129.65 178.913 130.098 179.36 130.65 179.36Z" fill="#3B3B3B"/>
<path d="M135.01 178.36C135.01 178.91 134.56 179.36 134.01 179.36C133.46 179.36 133.01 178.91 133.01 178.36C133.01 177.81 133.46 177.36 134.01 177.36C134.56 177.36 135.01 177.81 135.01 178.36Z" fill="#3B3B3B"/>
<path d="M138.36 178.36C138.36 178.91 137.91 179.36 137.36 179.36C136.81 179.36 136.36 178.91 136.36 178.36C136.36 177.81 136.81 177.36 137.36 177.36C137.91 177.36 138.36 177.81 138.36 178.36Z" fill="#3B3B3B"/>
<path d="M140.71 179.36C141.262 179.36 141.71 178.913 141.71 178.36C141.71 177.808 141.262 177.36 140.71 177.36C140.158 177.36 139.71 177.808 139.71 178.36C139.71 178.913 140.158 179.36 140.71 179.36Z" fill="#3B3B3B"/>
<path d="M144.07 179.36C144.622 179.36 145.07 178.913 145.07 178.36C145.07 177.808 144.622 177.36 144.07 177.36C143.518 177.36 143.07 177.808 143.07 178.36C143.07 178.913 143.518 179.36 144.07 179.36Z" fill="#3B3B3B"/>
<path d="M116.77 93.1895H110.31V94.9495H116.77V93.1895Z" fill="#565656"/>
<path d="M147.66 93.1895H141.2V94.9495H147.66V93.1895Z" fill="#565656"/>
<path d="M116.76 107.61H110.3V109.37H116.76V107.61Z" fill="#565656"/>
<path d="M147.65 107.61H141.19V109.37H147.65V107.61Z" fill="#565656"/>
<path d="M116.75 122.03H110.29V123.79H116.75V122.03Z" fill="#565656"/>
<path d="M147.64 122.03H141.18V123.79H147.64V122.03Z" fill="#565656"/>
<path d="M116.74 136.45H110.28V138.21H116.74V136.45Z" fill="#565656"/>
<path d="M147.63 136.45H141.17V138.21H147.63V136.45Z" fill="#565656"/>
<path d="M116.74 150.87H110.28V152.63H116.74V150.87Z" fill="#565656"/>
<path d="M147.63 150.87H141.17V152.63H147.63V150.87Z" fill="#565656"/>
<path d="M116.73 165.29H110.27V167.05H116.73V165.29Z" fill="#565656"/>
<path d="M147.62 165.29H141.16V167.05H147.62V165.29Z" fill="#565656"/>
<path d="M107.83 136.19C107.26 136.19 106.8 135.73 106.8 135.16V116.52C106.8 115.95 107.26 115.49 107.83 115.49C108.4 115.49 108.86 115.95 108.86 116.52V135.16C108.86 135.73 108.4 136.19 107.83 136.19Z" fill="#191919"/>
<defs>
<linearGradient id="paint0_linear_695_5349" x1="163.95" y1="63.84" x2="184.49" y2="63.84" gradientUnits="userSpaceOnUse">
<stop stop-color="#D12F17"/>
<stop offset="0.14" stop-color="#D63E17"/>
<stop offset="0.51" stop-color="#E36218"/>
<stop offset="0.81" stop-color="#EC7818"/>
<stop offset="1" stop-color="#EF8019"/>
</linearGradient>
<linearGradient id="paint1_linear_695_5349" x1="113.63" y1="86.47" x2="117.76" y2="86.47" gradientUnits="userSpaceOnUse">
<stop stop-color="#D12F17"/>
<stop offset="0.14" stop-color="#D63E17"/>
<stop offset="0.51" stop-color="#E36218"/>
<stop offset="0.81" stop-color="#EC7818"/>
<stop offset="1" stop-color="#EF8019"/>
</linearGradient>
<linearGradient id="paint2_linear_695_5349" x1="113.63" y1="90.9795" x2="117.67" y2="90.9795" gradientUnits="userSpaceOnUse">
<stop stop-color="#D12F17"/>
<stop offset="0.14" stop-color="#D63E17"/>
<stop offset="0.51" stop-color="#E36218"/>
<stop offset="0.81" stop-color="#EC7818"/>
<stop offset="1" stop-color="#EF8019"/>
</linearGradient>
<linearGradient id="paint3_linear_695_5349" x1="113.63" y1="99.3303" x2="117.76" y2="99.3303" gradientUnits="userSpaceOnUse">
<stop stop-color="#D12F17"/>
<stop offset="0.14" stop-color="#D63E17"/>
<stop offset="0.51" stop-color="#E36218"/>
<stop offset="0.81" stop-color="#EC7818"/>
<stop offset="1" stop-color="#EF8019"/>
</linearGradient>
<linearGradient id="paint4_linear_695_5349" x1="113.63" y1="103.84" x2="117.67" y2="103.84" gradientUnits="userSpaceOnUse">
<stop stop-color="#D12F17"/>
<stop offset="0.14" stop-color="#D63E17"/>
<stop offset="0.51" stop-color="#E36218"/>
<stop offset="0.81" stop-color="#EC7818"/>
<stop offset="1" stop-color="#EF8019"/>
</linearGradient>
<linearGradient id="paint5_linear_695_5349" x1="113.63" y1="113.47" x2="117.76" y2="113.47" gradientUnits="userSpaceOnUse">
<stop stop-color="#D12F17"/>
<stop offset="0.14" stop-color="#D63E17"/>
<stop offset="0.51" stop-color="#E36218"/>
<stop offset="0.81" stop-color="#EC7818"/>
<stop offset="1" stop-color="#EF8019"/>
</linearGradient>
<linearGradient id="paint6_linear_695_5349" x1="113.63" y1="117.979" x2="117.67" y2="117.979" gradientUnits="userSpaceOnUse">
<stop stop-color="#D12F17"/>
<stop offset="0.14" stop-color="#D63E17"/>
<stop offset="0.51" stop-color="#E36218"/>
<stop offset="0.81" stop-color="#EC7818"/>
<stop offset="1" stop-color="#EF8019"/>
</linearGradient>
<linearGradient id="paint7_linear_695_5349" x1="113.63" y1="127.88" x2="117.76" y2="127.88" gradientUnits="userSpaceOnUse">
<stop stop-color="#D12F17"/>
<stop offset="0.14" stop-color="#D63E17"/>
<stop offset="0.51" stop-color="#E36218"/>
<stop offset="0.81" stop-color="#EC7818"/>
<stop offset="1" stop-color="#EF8019"/>
</linearGradient>
<linearGradient id="paint8_linear_695_5349" x1="113.63" y1="132.399" x2="117.67" y2="132.399" gradientUnits="userSpaceOnUse">
<stop stop-color="#D12F17"/>
<stop offset="0.14" stop-color="#D63E17"/>
<stop offset="0.51" stop-color="#E36218"/>
<stop offset="0.81" stop-color="#EC7818"/>
<stop offset="1" stop-color="#EF8019"/>
</linearGradient>
<linearGradient id="paint9_linear_695_5349" x1="113.63" y1="142.3" x2="117.76" y2="142.3" gradientUnits="userSpaceOnUse">
<stop stop-color="#D12F17"/>
<stop offset="0.14" stop-color="#D63E17"/>
<stop offset="0.51" stop-color="#E36218"/>
<stop offset="0.81" stop-color="#EC7818"/>
<stop offset="1" stop-color="#EF8019"/>
</linearGradient>
<linearGradient id="paint10_linear_695_5349" x1="113.63" y1="146.819" x2="117.67" y2="146.819" gradientUnits="userSpaceOnUse">
<stop stop-color="#D12F17"/>
<stop offset="0.14" stop-color="#D63E17"/>
<stop offset="0.51" stop-color="#E36218"/>
<stop offset="0.81" stop-color="#EC7818"/>
<stop offset="1" stop-color="#EF8019"/>
</linearGradient>
<linearGradient id="paint11_linear_695_5349" x1="113.63" y1="156.72" x2="117.76" y2="156.72" gradientUnits="userSpaceOnUse">
<stop stop-color="#D12F17"/>
<stop offset="0.14" stop-color="#D63E17"/>
<stop offset="0.51" stop-color="#E36218"/>
<stop offset="0.81" stop-color="#EC7818"/>
<stop offset="1" stop-color="#EF8019"/>
</linearGradient>
<linearGradient id="paint12_linear_695_5349" x1="113.63" y1="161.239" x2="117.67" y2="161.239" gradientUnits="userSpaceOnUse">
<stop stop-color="#D12F17"/>
<stop offset="0.14" stop-color="#D63E17"/>
<stop offset="0.51" stop-color="#E36218"/>
<stop offset="0.81" stop-color="#EC7818"/>
<stop offset="1" stop-color="#EF8019"/>
</linearGradient>
</defs>
</svg>
