<svg width="67" height="247" viewBox="0 0 67 247" fill="none" xmlns="http://www.w3.org/2000/svg">
<path d="M35.56 84.4902H29.64V246.35H35.56V84.4902Z" fill="#AEAAA7"/>
<g style="mix-blend-mode:multiply">
<path d="M29.64 84.4902V94.2702C32.41 96.4902 33.28 100.8 33.75 104.08C34.34 108.18 34.71 112.48 34.18 116.62C34.12 117.11 33.56 246.36 33.56 246.36H35.56V84.5002H29.64V84.4902Z" fill="#EBE9E9"/>
</g>
<path d="M62.72 0H4.17C1.86697 0 0 1.86696 0 4.16998V88.89C0 91.193 1.86697 93.06 4.17 93.06H62.72C65.023 93.06 66.89 91.193 66.89 88.89V4.16998C66.89 1.86696 65.023 0 62.72 0Z" fill="#AEAAA7"/>
<path d="M59.79 4.14062H7.09998C5.02891 4.14062 3.34998 5.81956 3.34998 7.89062V84.1306C3.34998 86.2017 5.02891 87.8806 7.09998 87.8806H59.79C61.861 87.8806 63.54 86.2017 63.54 84.1306V7.89062C63.54 5.81956 61.861 4.14062 59.79 4.14062Z" fill="white"/>
<path d="M9.31004 37.7798C10.6963 37.7798 11.82 36.656 11.82 35.2698C11.82 33.8835 10.6963 32.7598 9.31004 32.7598C7.92381 32.7598 6.80005 33.8835 6.80005 35.2698C6.80005 36.656 7.92381 37.7798 9.31004 37.7798Z" fill="#D12F17"/>
<path d="M11.78 39.0098H6.84004C6.81795 39.0098 6.80005 39.0277 6.80005 39.0498V56.5998C6.80005 56.6219 6.81795 56.6398 6.84004 56.6398H11.78C11.8021 56.6398 11.82 56.6219 11.82 56.5998V39.0498C11.82 39.0277 11.8021 39.0098 11.78 39.0098Z" fill="#D12F17"/>
<path d="M20.43 41.2092V56.2892C20.43 56.3792 20.4 56.4592 20.35 56.5192L15.41 45.8992V41.2092C15.41 39.8192 16.53 38.6992 17.92 38.6992C18.61 38.6992 19.24 38.9793 19.69 39.4293C20.14 39.8793 20.42 40.5092 20.42 41.1992L20.43 41.2092Z" fill="#EF8019"/>
<path d="M19.82 56.6398H15.3C15.12 56.6398 14.96 56.5398 14.89 56.3798C14.89 56.3798 8.09003 41.7698 6.96003 39.3498C6.89003 39.1898 7.00003 39.0098 7.18003 39.0098H11.54C11.71 39.0098 11.87 39.1098 11.94 39.2698L19.94 56.4598C19.98 56.5498 19.92 56.6498 19.82 56.6498V56.6398Z" fill="url(#paint0_linear_695_5165)"/>
<path d="M21.7701 35.2498C21.5801 35.4498 21.2601 35.4498 21.0801 35.2498C20.2901 34.3598 19.1201 33.7998 17.8201 33.7998C16.5201 33.7998 15.3701 34.3498 14.5801 35.2298C14.4001 35.4298 14.0801 35.4298 13.8901 35.2298C13.7301 35.0598 13.7301 34.7998 13.8701 34.6198C14.7301 33.4998 16.1801 32.7598 17.8301 32.7598C19.4801 32.7598 20.9601 33.5098 21.8201 34.6598C21.9501 34.8398 21.9401 35.0898 21.7901 35.2498H21.7701Z" fill="#EF8019"/>
<path d="M20.6701 36.4495C20.4801 36.6495 20.1601 36.6495 19.9801 36.4495C19.4001 35.8295 18.6401 35.4595 17.8201 35.4595C17.0001 35.4595 16.2601 35.8195 15.6801 36.4295C15.4901 36.6295 15.1701 36.6295 14.9901 36.4295C14.8301 36.2495 14.8201 35.9795 14.9801 35.7995C15.6901 34.9595 16.7001 34.4395 17.8301 34.4395C18.9601 34.4395 19.9901 34.9695 20.7001 35.8295C20.8501 36.0095 20.8501 36.2795 20.6901 36.4495H20.6701Z" fill="#EF8019"/>
<path d="M19.64 37.5701H19.63C19.46 37.7701 19.17 37.7802 18.97 37.6202C18.63 37.3302 18.25 37.1702 17.85 37.1702C17.45 37.1702 17.06 37.3401 16.72 37.6301C16.53 37.8001 16.23 37.7902 16.06 37.6002H16.05C15.88 37.4002 15.88 37.1102 16.07 36.9302C16.57 36.4402 17.19 36.1602 17.85 36.1602C18.51 36.1602 19.12 36.4402 19.62 36.9302C19.8 37.1102 19.81 37.4001 19.64 37.5901V37.5701Z" fill="#EF8019"/>
<path d="M27.6201 56.3298C27.7501 56.3298 27.8501 56.3098 27.9101 56.2598C27.9701 56.2098 28.0001 56.1498 28.0001 56.0698C28.0001 56.0198 27.9901 55.9798 27.9701 55.9398C27.9501 55.8998 27.9201 55.8698 27.8801 55.8398C27.8401 55.8098 27.7901 55.7798 27.7401 55.7598C27.6801 55.7398 27.6201 55.7098 27.5501 55.6898C27.4801 55.6598 27.4101 55.6398 27.3401 55.6098C27.2701 55.5798 27.2201 55.5398 27.1601 55.4998C27.1101 55.4498 27.0701 55.3998 27.0401 55.3398C27.0101 55.2798 26.9901 55.1998 26.9901 55.1098C26.9901 54.9198 27.0501 54.7798 27.1801 54.6698C27.3101 54.5598 27.4801 54.5098 27.7101 54.5098C27.8401 54.5098 27.9501 54.5198 28.0501 54.5498C28.1501 54.5798 28.2301 54.6098 28.2901 54.6398L28.1701 54.9398C28.1001 54.8998 28.0301 54.8698 27.9501 54.8498C27.8701 54.8298 27.7901 54.8198 27.7001 54.8198C27.6001 54.8198 27.5201 54.8398 27.4601 54.8798C27.4001 54.9198 27.3801 54.9798 27.3801 55.0598C27.3801 55.1098 27.3801 55.1398 27.4101 55.1798C27.4301 55.2098 27.4601 55.2398 27.4901 55.2698C27.5201 55.2998 27.5701 55.3198 27.6101 55.3398C27.6601 55.3598 27.7101 55.3798 27.7601 55.3998C27.8601 55.4398 27.9401 55.4698 28.0201 55.5098C28.1001 55.5498 28.1601 55.5898 28.2101 55.6398C28.2601 55.6898 28.3001 55.7498 28.3301 55.8198C28.3601 55.8898 28.3701 55.9698 28.3701 56.0698C28.3701 56.2598 28.3001 56.3998 28.1701 56.4998C28.0401 56.5998 27.8501 56.6498 27.5901 56.6498C27.5001 56.6498 27.4301 56.6498 27.3601 56.6298C27.2901 56.6098 27.2301 56.6098 27.1701 56.5898C27.1201 56.5698 27.0701 56.5598 27.0301 56.5398C26.9901 56.5198 26.9601 56.5098 26.9301 56.4898L27.0401 56.1798C27.0901 56.2098 27.1701 56.2398 27.2601 56.2698C27.3501 56.2998 27.4601 56.3098 27.5901 56.3098L27.6201 56.3298Z" fill="#D12F17"/>
<path d="M30.5801 55.5704C30.5801 55.7504 30.5501 55.9005 30.5001 56.0405C30.4501 56.1705 30.3801 56.2904 30.2901 56.3804C30.2001 56.4704 30.0901 56.5404 29.9701 56.5804C29.8501 56.6304 29.7201 56.6505 29.5801 56.6505C29.4401 56.6505 29.3101 56.6304 29.1901 56.5804C29.0701 56.5304 28.9601 56.4704 28.8701 56.3804C28.7801 56.2904 28.7101 56.1805 28.6501 56.0405C28.6001 55.9105 28.5701 55.7504 28.5701 55.5704C28.5701 55.3904 28.6001 55.2405 28.6501 55.1005C28.7001 54.9605 28.7801 54.8504 28.8701 54.7604C28.9601 54.6704 29.0701 54.6005 29.1901 54.5505C29.3101 54.5005 29.4401 54.4805 29.5701 54.4805C29.7001 54.4805 29.8301 54.5005 29.9501 54.5505C30.0701 54.6005 30.1801 54.6604 30.2701 54.7604C30.3601 54.8504 30.4301 54.9605 30.4901 55.1005C30.5501 55.2405 30.5701 55.3904 30.5701 55.5704H30.5801ZM28.9701 55.5704C28.9701 55.6804 28.9801 55.7904 29.0101 55.8804C29.0401 55.9704 29.0801 56.0505 29.1301 56.1105C29.1801 56.1705 29.2501 56.2204 29.3201 56.2604C29.4001 56.3004 29.4801 56.3105 29.5801 56.3105C29.6801 56.3105 29.7601 56.2904 29.8301 56.2604C29.9101 56.2204 29.9701 56.1705 30.0201 56.1105C30.0701 56.0505 30.1101 55.9704 30.1401 55.8804C30.1701 55.7904 30.1801 55.6904 30.1801 55.5704C30.1801 55.4504 30.1701 55.3504 30.1401 55.2604C30.1101 55.1704 30.0701 55.0905 30.0201 55.0305C29.9701 54.9705 29.9001 54.9204 29.8301 54.8804C29.7501 54.8404 29.6701 54.8304 29.5801 54.8304C29.4901 54.8304 29.4001 54.8504 29.3201 54.8804C29.2401 54.9204 29.1801 54.9705 29.1301 55.0305C29.0801 55.1005 29.0401 55.1704 29.0101 55.2604C28.9801 55.3504 28.9701 55.4504 28.9701 55.5704Z" fill="#D12F17"/>
<path d="M31.8501 56.6502C31.7001 56.6502 31.5601 56.6302 31.4301 56.5802C31.3101 56.5302 31.2001 56.4602 31.1201 56.3702C31.0301 56.2802 30.9701 56.1702 30.9201 56.0302C30.8701 55.9002 30.8501 55.7402 30.8501 55.5702C30.8501 55.4002 30.8801 55.2402 30.9301 55.1102C30.9801 54.9802 31.0501 54.8602 31.1501 54.7702C31.2501 54.6802 31.3501 54.6102 31.4701 54.5602C31.5901 54.5102 31.7201 54.4902 31.8701 54.4902C31.9601 54.4902 32.0301 54.4902 32.1001 54.5102C32.1701 54.5202 32.2301 54.5402 32.2801 54.5502C32.3301 54.5702 32.3701 54.5802 32.4101 54.6002C32.4401 54.6202 32.4701 54.6302 32.4801 54.6402L32.3701 54.9502C32.3701 54.9502 32.2501 54.8902 32.1701 54.8702C32.0801 54.8402 31.9901 54.8302 31.8801 54.8302C31.7901 54.8302 31.7101 54.8502 31.6301 54.8802C31.5501 54.9102 31.4901 54.9602 31.4301 55.0202C31.3701 55.0802 31.3301 55.1602 31.3001 55.2502C31.2701 55.3402 31.2501 55.4502 31.2501 55.5702C31.2501 55.6802 31.2601 55.7802 31.2901 55.8702C31.3201 55.9602 31.3501 56.0402 31.4001 56.1102C31.4501 56.1802 31.5201 56.2302 31.6001 56.2602C31.6801 56.3002 31.7701 56.3102 31.8901 56.3102C32.0201 56.3102 32.1301 56.3002 32.2101 56.2702C32.2901 56.2402 32.3601 56.2202 32.4001 56.1902L32.5001 56.5002C32.5001 56.5002 32.4401 56.5302 32.4001 56.5502C32.3601 56.5702 32.3101 56.5802 32.2601 56.6002C32.2001 56.6102 32.1401 56.6302 32.0701 56.6402C32.0001 56.6402 31.9301 56.6502 31.8501 56.6502Z" fill="#D12F17"/>
<path d="M32.77 54.541H33.14V56.601H32.77V54.541Z" fill="#D12F17"/>
<path d="M33.5801 56.6108V54.5508H34.9001V54.8708H33.9501V55.3807H34.7901V55.6907H33.9501V56.2908H34.9701V56.6108H33.5801Z" fill="#D12F17"/>
<path d="M37.01 55.571C37.01 55.751 36.98 55.901 36.93 56.041C36.87 56.171 36.8 56.281 36.69 56.371C36.59 56.461 36.46 56.521 36.32 56.571C36.18 56.621 36.02 56.631 35.84 56.631C35.76 56.631 35.66 56.631 35.56 56.621C35.45 56.621 35.35 56.601 35.26 56.581V54.581C35.36 54.561 35.46 54.541 35.56 54.541C35.66 54.541 35.76 54.541 35.85 54.541C36.02 54.541 36.18 54.561 36.32 54.601C36.46 54.641 36.59 54.701 36.69 54.791C36.79 54.881 36.87 54.991 36.93 55.121C36.99 55.251 37.01 55.411 37.01 55.591V55.571ZM35.64 56.301C35.64 56.301 35.69 56.301 35.73 56.301C35.77 56.301 35.81 56.301 35.88 56.301C36.13 56.301 36.32 56.241 36.44 56.111C36.56 55.981 36.63 55.801 36.63 55.571C36.63 55.341 36.57 55.161 36.45 55.031C36.33 54.901 36.14 54.841 35.89 54.841C35.78 54.841 35.7 54.841 35.65 54.841V56.281L35.64 56.301Z" fill="#D12F17"/>
<path d="M38.6801 56.6108C38.6501 56.5308 38.6201 56.4508 38.5901 56.3708C38.5601 56.2908 38.5301 56.2107 38.5001 56.1307H37.6301C37.6001 56.2107 37.5701 56.3007 37.5401 56.3807C37.5101 56.4607 37.4801 56.5408 37.4601 56.6208H37.0701C37.1501 56.4008 37.2201 56.2007 37.2901 56.0107C37.3601 55.8207 37.4301 55.6508 37.4901 55.4808C37.5601 55.3108 37.6201 55.1508 37.6901 55.0008C37.7601 54.8508 37.8201 54.7008 37.8901 54.5508H38.2501C38.3201 54.7008 38.3901 54.8508 38.4501 55.0008C38.5201 55.1508 38.5801 55.3108 38.6501 55.4808C38.7201 55.6508 38.7801 55.8207 38.8601 56.0107C38.9301 56.2007 39.0001 56.4008 39.0801 56.6208H38.6801V56.6108ZM38.0701 54.9407C38.0201 55.0507 37.9701 55.1707 37.9101 55.3207C37.8501 55.4707 37.7901 55.6308 37.7301 55.8108H38.4101C38.3501 55.6308 38.2901 55.4707 38.2301 55.3207C38.1701 55.1707 38.1201 55.0407 38.0801 54.9407H38.0701Z" fill="#D12F17"/>
<path d="M41.04 55.571C41.04 55.751 41.0101 55.901 40.9601 56.041C40.9001 56.171 40.83 56.281 40.72 56.371C40.62 56.461 40.4901 56.521 40.3501 56.571C40.2101 56.621 40.05 56.631 39.87 56.631C39.79 56.631 39.69 56.631 39.59 56.621C39.48 56.621 39.38 56.601 39.29 56.581V54.581C39.39 54.561 39.49 54.541 39.59 54.541C39.69 54.541 39.7901 54.541 39.8801 54.541C40.0501 54.541 40.2101 54.561 40.3501 54.601C40.4901 54.641 40.62 54.701 40.72 54.791C40.82 54.881 40.9001 54.991 40.9601 55.121C41.0201 55.251 41.04 55.411 41.04 55.591V55.571ZM39.66 56.301C39.66 56.301 39.71 56.301 39.75 56.301C39.79 56.301 39.83 56.301 39.9 56.301C40.15 56.301 40.3401 56.241 40.4601 56.111C40.5801 55.981 40.65 55.801 40.65 55.571C40.65 55.341 40.59 55.161 40.47 55.031C40.35 54.901 40.16 54.841 39.91 54.841C39.8 54.841 39.72 54.841 39.67 54.841V56.281L39.66 56.301Z" fill="#D12F17"/>
<path d="M43.77 55.571C43.77 55.751 43.74 55.901 43.69 56.041C43.63 56.171 43.56 56.281 43.45 56.371C43.35 56.461 43.22 56.521 43.08 56.571C42.94 56.621 42.78 56.631 42.6 56.631C42.52 56.631 42.42 56.631 42.32 56.621C42.21 56.621 42.11 56.601 42.02 56.581V54.581C42.12 54.561 42.22 54.541 42.32 54.541C42.42 54.541 42.52 54.541 42.61 54.541C42.78 54.541 42.94 54.561 43.08 54.601C43.22 54.641 43.35 54.701 43.45 54.791C43.55 54.881 43.63 54.991 43.69 55.121C43.75 55.251 43.77 55.411 43.77 55.591V55.571ZM42.39 56.301C42.39 56.301 42.44 56.301 42.48 56.301C42.52 56.301 42.56 56.301 42.63 56.301C42.88 56.301 43.07 56.241 43.19 56.111C43.31 55.981 43.38 55.801 43.38 55.571C43.38 55.341 43.32 55.161 43.2 55.031C43.08 54.901 42.89 54.841 42.64 54.841C42.53 54.841 42.45 54.841 42.4 54.841V56.281L42.39 56.301Z" fill="#D12F17"/>
<path d="M44.1201 56.6108V54.5508H45.4401V54.8708H44.4901V55.3807H45.3301V55.6907H44.4901V56.2908H45.5101V56.6108H44.1201Z" fill="#D12F17"/>
<path d="M47.1101 56.281V56.601H45.8101V54.541H46.1801V56.281H47.1101Z" fill="#D12F17"/>
<path d="M47.97 56.6108V54.5508H49.29V54.8708H48.34V55.3807H49.18V55.6907H48.34V56.2908H49.36V56.6108H47.97Z" fill="#D12F17"/>
<path d="M50.1499 56.3298C50.2799 56.3298 50.38 56.3098 50.44 56.2598C50.5 56.2098 50.53 56.1498 50.53 56.0698C50.53 56.0198 50.52 55.9798 50.5 55.9398C50.48 55.8998 50.45 55.8698 50.41 55.8398C50.37 55.8098 50.32 55.7798 50.27 55.7598C50.21 55.7398 50.15 55.7098 50.08 55.6898C50.01 55.6598 49.9399 55.6398 49.8699 55.6098C49.7999 55.5798 49.75 55.5398 49.69 55.4998C49.64 55.4498 49.6 55.3998 49.57 55.3398C49.54 55.2798 49.52 55.1998 49.52 55.1098C49.52 54.9198 49.58 54.7798 49.71 54.6698C49.84 54.5598 50.01 54.5098 50.24 54.5098C50.37 54.5098 50.48 54.5198 50.58 54.5498C50.68 54.5798 50.76 54.6098 50.82 54.6398L50.7 54.9398C50.63 54.8998 50.5599 54.8698 50.4799 54.8498C50.3999 54.8298 50.3199 54.8198 50.2299 54.8198C50.1299 54.8198 50.05 54.8398 49.99 54.8798C49.93 54.9198 49.91 54.9798 49.91 55.0598C49.91 55.1098 49.91 55.1398 49.94 55.1798C49.96 55.2098 49.99 55.2398 50.02 55.2698C50.05 55.2998 50.1 55.3198 50.14 55.3398C50.19 55.3598 50.2399 55.3798 50.2899 55.3998C50.3899 55.4398 50.47 55.4698 50.55 55.5098C50.63 55.5498 50.69 55.5898 50.74 55.6398C50.79 55.6898 50.83 55.7498 50.86 55.8198C50.89 55.8898 50.8999 55.9698 50.8999 56.0698C50.8999 56.2598 50.83 56.3998 50.7 56.4998C50.57 56.5998 50.3799 56.6498 50.1199 56.6498C50.0299 56.6498 49.96 56.6498 49.89 56.6298C49.82 56.6098 49.76 56.6098 49.7 56.5898C49.65 56.5698 49.6 56.5598 49.56 56.5398C49.52 56.5198 49.49 56.5098 49.46 56.4898L49.57 56.1798C49.62 56.2098 49.6999 56.2398 49.7899 56.2698C49.8799 56.2998 49.9899 56.3098 50.1199 56.3098L50.1499 56.3298Z" fill="#D12F17"/>
<path d="M52.63 54.541V54.861H52V56.601H51.62V54.861H50.99V54.541H52.63Z" fill="#D12F17"/>
<path d="M54.06 56.6108C54.03 56.5308 54 56.4508 53.97 56.3708C53.94 56.2908 53.91 56.2107 53.88 56.1307H53.0099C52.9799 56.2107 52.95 56.3007 52.92 56.3807C52.89 56.4607 52.86 56.5408 52.84 56.6208H52.45C52.53 56.4008 52.6 56.2007 52.67 56.0107C52.74 55.8207 52.8099 55.6508 52.8699 55.4808C52.9399 55.3108 53 55.1508 53.07 55.0008C53.14 54.8508 53.2 54.7008 53.27 54.5508H53.63C53.7 54.7008 53.77 54.8508 53.83 55.0008C53.9 55.1508 53.96 55.3108 54.03 55.4808C54.1 55.6508 54.16 55.8207 54.24 56.0107C54.31 56.2007 54.38 56.4008 54.46 56.6208H54.06V56.6108ZM53.45 54.9407C53.4 55.0507 53.3499 55.1707 53.2899 55.3207C53.2299 55.4707 53.17 55.6308 53.11 55.8108H53.7899C53.7299 55.6308 53.67 55.4707 53.61 55.3207C53.55 55.1707 53.5 55.0407 53.46 54.9407H53.45Z" fill="#D12F17"/>
<path d="M56.4102 55.571C56.4102 55.751 56.3802 55.901 56.3302 56.041C56.2702 56.171 56.2001 56.281 56.0901 56.371C55.9901 56.461 55.8602 56.521 55.7202 56.571C55.5802 56.621 55.4202 56.631 55.2402 56.631C55.1602 56.631 55.0602 56.631 54.9602 56.621C54.8502 56.621 54.7502 56.601 54.6602 56.581V54.581C54.7602 54.561 54.8602 54.541 54.9602 54.541C55.0602 54.541 55.1602 54.541 55.2502 54.541C55.4202 54.541 55.5802 54.561 55.7202 54.601C55.8602 54.641 55.9901 54.701 56.0901 54.791C56.1901 54.881 56.2702 54.991 56.3302 55.121C56.3902 55.251 56.4102 55.411 56.4102 55.591V55.571ZM55.0401 56.301C55.0401 56.301 55.0902 56.301 55.1302 56.301C55.1702 56.301 55.2102 56.301 55.2802 56.301C55.5302 56.301 55.7201 56.241 55.8401 56.111C55.9601 55.981 56.0302 55.801 56.0302 55.571C56.0302 55.341 55.9702 55.161 55.8502 55.031C55.7302 54.901 55.5401 54.841 55.2901 54.841C55.1801 54.841 55.1002 54.841 55.0502 54.841V56.281L55.0401 56.301Z" fill="#D12F17"/>
<path d="M58.6802 55.5704C58.6802 55.7504 58.6502 55.9005 58.6002 56.0405C58.5502 56.1705 58.4802 56.2904 58.3902 56.3804C58.3002 56.4704 58.1902 56.5404 58.0702 56.5804C57.9502 56.6304 57.8202 56.6505 57.6802 56.6505C57.5402 56.6505 57.4102 56.6304 57.2902 56.5804C57.1702 56.5304 57.0602 56.4704 56.9702 56.3804C56.8802 56.2904 56.8102 56.1805 56.7502 56.0405C56.7002 55.9105 56.6702 55.7504 56.6702 55.5704C56.6702 55.3904 56.7002 55.2405 56.7502 55.1005C56.8002 54.9605 56.8802 54.8504 56.9702 54.7604C57.0602 54.6704 57.1702 54.6005 57.2902 54.5505C57.4102 54.5005 57.5402 54.4805 57.6702 54.4805C57.8002 54.4805 57.9302 54.5005 58.0502 54.5505C58.1702 54.6005 58.2802 54.6604 58.3702 54.7604C58.4602 54.8504 58.5302 54.9605 58.5902 55.1005C58.6502 55.2405 58.6702 55.3904 58.6702 55.5704H58.6802ZM57.0702 55.5704C57.0702 55.6804 57.0802 55.7904 57.1102 55.8804C57.1402 55.9704 57.1802 56.0505 57.2302 56.1105C57.2802 56.1705 57.3502 56.2204 57.4202 56.2604C57.5002 56.3004 57.5802 56.3105 57.6802 56.3105C57.7802 56.3105 57.8602 56.2904 57.9302 56.2604C58.0102 56.2204 58.0702 56.1705 58.1202 56.1105C58.1702 56.0505 58.2102 55.9704 58.2402 55.8804C58.2702 55.7904 58.2802 55.6904 58.2802 55.5704C58.2802 55.4504 58.2702 55.3504 58.2402 55.2604C58.2102 55.1704 58.1702 55.0905 58.1202 55.0305C58.0702 54.9705 58.0002 54.9204 57.9302 54.8804C57.8502 54.8404 57.7702 54.8304 57.6802 54.8304C57.5902 54.8304 57.5002 54.8504 57.4202 54.8804C57.3402 54.9204 57.2802 54.9705 57.2302 55.0305C57.1802 55.1005 57.1402 55.1704 57.1102 55.2604C57.0802 55.3504 57.0702 55.4504 57.0702 55.5704Z" fill="#D12F17"/>
<path d="M27.81 43.6197C27.91 43.6197 27.99 43.6197 28.06 43.5997C28.13 43.5797 28.18 43.5597 28.22 43.5297C28.26 43.4997 28.29 43.4697 28.3 43.4297C28.31 43.3897 28.32 43.3497 28.32 43.2997C28.32 43.1997 28.27 43.1097 28.17 43.0397C28.07 42.9697 27.91 42.8996 27.67 42.8196C27.57 42.7796 27.46 42.7396 27.36 42.6896C27.26 42.6396 27.16 42.5796 27.08 42.5096C27 42.4396 26.93 42.3497 26.88 42.2497C26.83 42.1497 26.8 42.0196 26.8 41.8796C26.8 41.7396 26.83 41.5997 26.88 41.4897C26.93 41.3697 27.01 41.2696 27.11 41.1896C27.21 41.1096 27.33 41.0397 27.47 40.9997C27.61 40.9597 27.77 40.9297 27.95 40.9297C28.16 40.9297 28.35 40.9497 28.5 40.9997C28.66 41.0497 28.78 41.0997 28.88 41.1497L28.67 41.7097C28.58 41.6597 28.48 41.6197 28.38 41.5897C28.27 41.5597 28.14 41.5397 27.99 41.5397C27.82 41.5397 27.7 41.5597 27.62 41.6097C27.55 41.6597 27.51 41.7297 27.51 41.8297C27.51 41.8897 27.52 41.9397 27.55 41.9797C27.58 42.0197 27.62 42.0597 27.67 42.0897C27.72 42.1197 27.78 42.1497 27.84 42.1797C27.91 42.2097 27.98 42.2296 28.06 42.2596C28.22 42.3196 28.37 42.3796 28.49 42.4396C28.61 42.4996 28.71 42.5697 28.79 42.6497C28.87 42.7297 28.93 42.8197 28.97 42.9297C29.01 43.0397 29.03 43.1696 29.03 43.3196C29.03 43.6096 28.93 43.8396 28.72 44.0096C28.51 44.1696 28.2 44.2497 27.79 44.2497C27.65 44.2497 27.52 44.2497 27.41 44.2197C27.3 44.1897 27.2 44.1797 27.11 44.1597C27.02 44.1397 26.95 44.1097 26.89 44.0797C26.83 44.0497 26.78 44.0297 26.73 43.9997L26.93 43.4297C27.02 43.4797 27.14 43.5296 27.28 43.5696C27.42 43.6096 27.59 43.6296 27.79 43.6296L27.81 43.6197Z" fill="#D12F17"/>
<path d="M31.4899 44.16C31.4499 44.05 31.4199 43.9399 31.3799 43.8199C31.3399 43.6999 31.2999 43.59 31.2599 43.47H30.0299C29.9899 43.59 29.9499 43.6999 29.9099 43.8199C29.8699 43.9399 29.8299 44.05 29.7999 44.16H29.0599C29.1799 43.82 29.2899 43.5 29.3999 43.22C29.5099 42.93 29.6099 42.66 29.7099 42.4C29.8099 42.14 29.9099 41.9 30.0099 41.67C30.1099 41.44 30.2099 41.22 30.3199 41H30.9899C31.0899 41.22 31.1999 41.44 31.2999 41.67C31.3999 41.9 31.4999 42.14 31.5999 42.4C31.6999 42.66 31.8099 42.93 31.9099 43.22C32.0099 43.51 32.1299 43.82 32.2499 44.16H31.4899ZM30.6399 41.71C30.6399 41.71 30.5999 41.82 30.5699 41.9C30.5399 41.98 30.4999 42.07 30.4699 42.17C30.4299 42.27 30.3899 42.3899 30.3399 42.5099C30.2899 42.6299 30.2399 42.77 30.1899 42.9H31.0899C31.0399 42.76 30.9899 42.6299 30.9499 42.5099C30.9099 42.3899 30.8599 42.27 30.8199 42.17C30.7799 42.07 30.7399 41.98 30.7099 41.9C30.6799 41.82 30.6499 41.76 30.6399 41.71Z" fill="#D12F17"/>
<path d="M34.5499 44.16C34.3499 43.8 34.1299 43.44 33.8899 43.09C33.6499 42.74 33.3999 42.4 33.1299 42.09V44.16H32.4299V41H33.0099C33.1099 41.1 33.2199 41.22 33.3399 41.37C33.4599 41.52 33.5899 41.67 33.7099 41.84C33.8399 42.01 33.9599 42.18 34.0899 42.36C34.2099 42.54 34.3299 42.71 34.4399 42.87V41H35.1499V44.16H34.5499Z" fill="#D12F17"/>
<path d="M38.25 43.1C38.25 43.26 38.23 43.4 38.2 43.54C38.17 43.68 38.1 43.8 38.02 43.9C37.94 44 37.82 44.08 37.67 44.14C37.52 44.2 37.34 44.23 37.11 44.23C36.9 44.23 36.73 44.2 36.58 44.15C36.43 44.1 36.31 44.04 36.21 43.97L36.45 43.42C36.54 43.47 36.6299 43.52 36.7299 43.56C36.8299 43.6 36.94 43.62 37.06 43.62C37.23 43.62 37.3599 43.58 37.4299 43.49C37.5099 43.4 37.5399 43.26 37.5399 43.06V41H38.25V43.1Z" fill="#D12F17"/>
<path d="M39.94 44.2202C39.72 44.2202 39.53 44.1902 39.37 44.1302C39.21 44.0702 39.08 43.9802 38.97 43.8702C38.87 43.7602 38.79 43.6302 38.74 43.4702C38.69 43.3202 38.66 43.1502 38.66 42.9602V40.9902H39.37V42.9002C39.37 43.0302 39.38 43.1402 39.41 43.2302C39.44 43.3202 39.48 43.3902 39.53 43.4502C39.58 43.5102 39.64 43.5502 39.71 43.5702C39.78 43.5902 39.86 43.6102 39.94 43.6102C40.11 43.6102 40.25 43.5602 40.36 43.4502C40.47 43.3402 40.52 43.1602 40.52 42.9102V41.0002H41.23V42.9702C41.23 43.1602 41.2 43.3302 41.15 43.4802C41.1 43.6302 41.02 43.7702 40.91 43.8802C40.8 43.9902 40.67 44.0802 40.5 44.1402C40.33 44.2002 40.14 44.2302 39.92 44.2302L39.94 44.2202Z" fill="#D12F17"/>
<path d="M43.73 44.16C43.69 44.05 43.66 43.9399 43.62 43.8199C43.58 43.6999 43.54 43.59 43.5 43.47H42.2701C42.2301 43.59 42.19 43.6999 42.15 43.8199C42.11 43.9399 42.07 44.05 42.04 44.16H41.3C41.42 43.82 41.53 43.5 41.64 43.22C41.75 42.93 41.85 42.66 41.95 42.4C42.05 42.14 42.15 41.9 42.25 41.67C42.35 41.44 42.45 41.22 42.56 41H43.23C43.33 41.22 43.44 41.44 43.54 41.67C43.64 41.9 43.74 42.14 43.84 42.4C43.94 42.66 44.05 42.93 44.15 43.22C44.25 43.51 44.3701 43.82 44.4901 44.16H43.73ZM42.87 41.71C42.87 41.71 42.83 41.82 42.8 41.9C42.77 41.98 42.73 42.07 42.7 42.17C42.66 42.27 42.6201 42.3899 42.5701 42.5099C42.5201 42.6299 42.47 42.77 42.42 42.9H43.3201C43.2701 42.76 43.22 42.6299 43.18 42.5099C43.14 42.3899 43.09 42.27 43.05 42.17C43.01 42.07 42.97 41.98 42.94 41.9C42.91 41.82 42.88 41.76 42.87 41.71Z" fill="#D12F17"/>
<path d="M46.7899 44.16C46.5899 43.8 46.3699 43.44 46.1299 43.09C45.8899 42.74 45.6399 42.4 45.3699 42.09V44.16H44.6699V41H45.2499C45.3499 41.1 45.4599 41.22 45.5799 41.37C45.6999 41.52 45.8299 41.67 45.9499 41.84C46.0799 42.01 46.1999 42.18 46.3299 42.36C46.4499 42.54 46.5699 42.71 46.6799 42.87V41H47.3899V44.16H46.7899Z" fill="#D12F17"/>
<path d="M26.89 46.2207H28.34V52.6807H26.89V46.2207Z" fill="#D12F17"/>
<path d="M33.33 52.671C32.91 51.931 32.46 51.201 31.98 50.481C31.5 49.761 30.98 49.0809 30.43 48.4409V52.671H28.99V46.2109H30.17C30.38 46.4209 30.6 46.6709 30.85 46.9709C31.1 47.2709 31.35 47.591 31.61 47.931C31.87 48.271 32.12 48.621 32.38 48.981C32.63 49.341 32.87 49.6909 33.1 50.0309V46.2209H34.54V52.681H33.32L33.33 52.671Z" fill="#D12F17"/>
<path d="M39.5301 52.671C39.1101 51.931 38.6601 51.201 38.1801 50.481C37.7001 49.761 37.1801 49.0809 36.6301 48.4409V52.671H35.1901V46.2109H36.3701C36.5801 46.4209 36.8001 46.6709 37.0501 46.9709C37.3001 47.2709 37.5501 47.591 37.8101 47.931C38.0701 48.271 38.3201 48.621 38.5801 48.981C38.8301 49.341 39.0701 49.6909 39.3001 50.0309V46.2209H40.7401V52.681H39.5201L39.5301 52.671Z" fill="#D12F17"/>
<path d="M47.5601 49.4403C47.5601 49.9903 47.4801 50.4803 47.3101 50.9003C47.1501 51.3203 46.9201 51.6703 46.6301 51.9503C46.3401 52.2303 46.0001 52.4503 45.6101 52.5903C45.2201 52.7303 44.7901 52.8004 44.3401 52.8004C43.8901 52.8004 43.4801 52.7303 43.0901 52.5903C42.7001 52.4503 42.3601 52.2303 42.0601 51.9503C41.7701 51.6703 41.5401 51.3203 41.3701 50.9003C41.2001 50.4803 41.1201 49.9903 41.1201 49.4403C41.1201 48.8903 41.2101 48.4003 41.3801 47.9803C41.5501 47.5603 41.7901 47.2103 42.0801 46.9203C42.3801 46.6303 42.7201 46.4203 43.1101 46.2803C43.5001 46.1403 43.9101 46.0703 44.3401 46.0703C44.7701 46.0703 45.2001 46.1403 45.5901 46.2803C45.9801 46.4203 46.3201 46.6403 46.6201 46.9203C46.9101 47.2103 47.1401 47.5603 47.3101 47.9803C47.4801 48.4003 47.5601 48.8903 47.5601 49.4403ZM42.6301 49.4403C42.6301 49.7603 42.6701 50.0404 42.7501 50.3004C42.8301 50.5504 42.9401 50.7703 43.0901 50.9603C43.2401 51.1403 43.4101 51.2803 43.6301 51.3803C43.8401 51.4803 44.0801 51.5303 44.3601 51.5303C44.6401 51.5303 44.8701 51.4803 45.0801 51.3803C45.2901 51.2803 45.4701 51.1403 45.6201 50.9603C45.7701 50.7803 45.8801 50.5604 45.9601 50.3004C46.0401 50.0504 46.0801 49.7603 46.0801 49.4403C46.0801 49.1203 46.0401 48.8403 45.9601 48.5803C45.8801 48.3203 45.7701 48.1003 45.6201 47.9203C45.4701 47.7403 45.2901 47.6004 45.0801 47.5004C44.8701 47.4004 44.6201 47.3503 44.3601 47.3503C44.1001 47.3503 43.8401 47.4004 43.6301 47.5004C43.4201 47.6004 43.2401 47.7504 43.0901 47.9304C42.9401 48.1104 42.8301 48.3303 42.7501 48.5903C42.6701 48.8503 42.6301 49.1303 42.6301 49.4403Z" fill="#D12F17"/>
<path d="M49.6301 52.671C49.3701 52.131 49.12 51.561 48.87 50.981C48.62 50.401 48.38 49.821 48.16 49.251C47.93 48.681 47.73 48.131 47.54 47.611C47.35 47.091 47.19 46.6209 47.05 46.2109H48.65C48.77 46.5809 48.91 46.991 49.05 47.421C49.19 47.851 49.35 48.2809 49.5 48.7109C49.65 49.1409 49.8 49.5509 49.94 49.9409C50.08 50.3309 50.22 50.6709 50.34 50.9609C50.46 50.6809 50.5901 50.3409 50.7401 49.9509C50.8801 49.5609 51.03 49.1509 51.19 48.7209C51.34 48.2909 51.49 47.861 51.64 47.431C51.79 47.001 51.92 46.6009 52.04 46.2209H53.59C53.45 46.6309 53.28 47.101 53.09 47.621C52.9 48.141 52.7 48.6909 52.47 49.2609C52.25 49.8309 52.01 50.411 51.76 50.991C51.51 51.571 51.26 52.141 51 52.681H49.61L49.6301 52.671Z" fill="#D12F17"/>
<path d="M57.3101 52.671C57.2401 52.451 57.1601 52.221 57.0801 51.981C57.0001 51.741 56.9101 51.5109 56.8301 51.2709H54.3101C54.2301 51.5109 54.1501 51.741 54.0601 51.981C53.9801 52.221 53.9001 52.451 53.8301 52.671H52.3201C52.5601 51.971 52.7901 51.331 53.0101 50.741C53.2301 50.151 53.4401 49.5909 53.6501 49.0709C53.8601 48.5509 54.0601 48.0509 54.2701 47.5809C54.4701 47.1109 54.6801 46.6509 54.9001 46.2109H56.2801C56.4901 46.6609 56.7001 47.1209 56.9101 47.5809C57.1201 48.0509 57.3201 48.5409 57.5301 49.0709C57.7401 49.5909 57.9501 50.151 58.1701 50.741C58.3901 51.331 58.6201 51.971 58.8601 52.671H57.3001H57.3101ZM55.5701 47.681C55.5401 47.771 55.4901 47.901 55.4301 48.061C55.3701 48.221 55.3001 48.411 55.2201 48.621C55.1401 48.831 55.0501 49.0609 54.9501 49.3209C54.8501 49.5809 54.7501 49.841 54.6501 50.121H56.5001C56.4001 49.841 56.3101 49.5709 56.2101 49.3209C56.1201 49.0609 56.0301 48.831 55.9501 48.621C55.8701 48.411 55.7901 48.221 55.7301 48.061C55.6701 47.901 55.6201 47.771 55.5801 47.681H55.5701Z" fill="#D12F17"/>
<path d="M5.82996 10.5H24.73V19.6299L16.01 24.54L5.82996 19.39V10.5Z" fill="#EF8019"/>
<path d="M6.71997 13.0605H7.78997V17.8005H6.71997V13.0605Z" fill="white"/>
<path d="M11.66 17.8008C11.35 17.2608 11.02 16.7207 10.67 16.1907C10.31 15.6607 9.92998 15.1607 9.52998 14.6907V17.8008H8.47998V13.0608H9.34998C9.49998 13.2108 9.66998 13.3908 9.84998 13.6108C10.03 13.8308 10.22 14.0608 10.41 14.3108C10.6 14.5608 10.79 14.8207 10.97 15.0807C11.16 15.3507 11.33 15.6008 11.5 15.8508V13.0508H12.56V17.7908H11.66V17.8008Z" fill="white"/>
<path d="M16.76 13.0605V13.9705H15.33V17.8005H14.26V13.9705H12.83V13.0605H16.76Z" fill="white"/>
<path d="M17.03 17.8005V13.0605H20.23V13.9605H18.09V14.8905H19.99V15.7705H18.09V16.9105H20.38V17.8105H17.02L17.03 17.8005Z" fill="white"/>
<path d="M22.1599 13.0002C22.8699 13.0002 23.4199 13.1302 23.7999 13.3802C24.1799 13.6302 24.3699 14.0302 24.3699 14.5602C24.3699 14.8902 24.2899 15.1602 24.1399 15.3702C23.9899 15.5802 23.7699 15.7402 23.4799 15.8602C23.5799 15.9802 23.6799 16.1102 23.7799 16.2702C23.8799 16.4202 23.9899 16.5802 24.0899 16.7502C24.1899 16.9202 24.2899 17.0902 24.3899 17.2702C24.4899 17.4502 24.5699 17.6302 24.6599 17.8002H23.4699C23.3799 17.6402 23.2999 17.4902 23.2099 17.3302C23.1199 17.1702 23.0299 17.0202 22.9399 16.8702C22.8499 16.7202 22.7499 16.5802 22.6599 16.4402C22.5699 16.3102 22.4799 16.1802 22.3899 16.0702H21.8599V17.8002H20.7899V13.1202C21.0199 13.0702 21.2599 13.0402 21.5099 13.0202C21.7599 13.0002 21.9799 12.9902 22.1799 12.9902L22.1599 13.0002ZM22.2199 13.9102C22.1399 13.9102 22.0699 13.9102 22.0099 13.9102C21.9499 13.9102 21.8899 13.9102 21.8399 13.9202V15.2102H22.1399C22.5399 15.2102 22.8299 15.1602 22.9999 15.0602C23.1699 14.9602 23.2599 14.7902 23.2599 14.5502C23.2599 14.3102 23.1699 14.1502 22.9999 14.0502C22.8199 13.9502 22.5699 13.9002 22.2199 13.9002V13.9102Z" fill="white"/>
<path d="M28.1099 17.8008C27.7999 17.2608 27.4699 16.7207 27.1199 16.1907C26.7599 15.6607 26.3799 15.1607 25.9799 14.6907V17.8008H24.9299V13.0608H25.7999C25.9499 13.2108 26.1199 13.3908 26.2999 13.6108C26.4799 13.8308 26.6699 14.0608 26.8599 14.3108C27.0499 14.5608 27.2399 14.8207 27.4199 15.0807C27.6099 15.3507 27.7799 15.6008 27.9499 15.8508V13.0508H29.0099V17.7908H28.1099V17.8008Z" fill="#EF8019"/>
<path d="M29.6899 17.8005V13.0605H32.8899V13.9605H30.7499V14.8905H32.6499V15.7705H30.7499V16.9105H33.0399V17.8105H29.6799L29.6899 17.8005Z" fill="#EF8019"/>
<path d="M36.95 13.0605V13.9705H35.52V17.8005H34.45V13.9705H33.02V13.0605H36.95Z" fill="#EF8019"/>
<path d="M58.17 18.0508H24.73V19.6808H58.17V18.0508Z" fill="#D12F17"/>
<defs>
<linearGradient id="paint0_linear_695_5165" x1="6.94003" y1="47.8298" x2="19.95" y2="47.8298" gradientUnits="userSpaceOnUse">
<stop stop-color="#D12F17"/>
<stop offset="0.14" stop-color="#D63E17"/>
<stop offset="0.51" stop-color="#E36218"/>
<stop offset="0.81" stop-color="#EC7818"/>
<stop offset="1" stop-color="#EF8019"/>
</linearGradient>
</defs>
</svg>
