<svg width="202" height="213" viewBox="0 0 202 213" fill="none" xmlns="http://www.w3.org/2000/svg">
<path d="M34.34 181.514C24.81 187.724 21.97 187.254 18.52 195.474C18.24 196.144 17.47 197.494 17.07 198.214C16.07 200.034 15.49 201.714 19.24 202.674C19.3 202.694 19.36 202.724 19.24 202.674C20.11 202.864 21.11 202.454 21.5 201.804C22.95 199.374 25.62 195.414 26.36 194.804C27.58 193.794 32.36 190.264 34.91 187.674C40.61 181.894 39.42 178.204 34.33 181.524L34.34 181.514Z" fill="#ECA98D"/>
<path d="M58.07 187.334C58.07 187.334 59.26 194.034 73.39 196.984C73.39 196.984 76.67 198.284 76.23 201.554C76.05 202.904 76.14 204.084 76.3 204.944C76.45 205.794 77.37 206.264 78.15 205.904L80.76 204.714C81.07 204.574 81.31 204.314 81.44 204.004C81.95 202.724 82.76 199.144 78.84 194.194C73.89 187.944 69.4 190.114 64.1 180.244C62.69 177.614 55.5 180.524 58.08 187.334H58.07Z" fill="#ECA98D"/>
<path d="M0.539991 165.924C0.539991 165.924 0.369993 173.124 5.93999 174.484C5.93999 174.484 6.30999 174.514 6.75999 173.194C7.22999 171.784 13.69 165.654 16.68 165.924C19.67 166.194 20.76 172.584 22.39 176.114C24.02 179.644 25.65 186.164 27.96 191.194C27.96 191.194 28.07 204.804 25.79 207.474C25.22 208.964 26.33 210.564 27.92 210.564H29.52C30.34 210.564 31.09 210.124 31.5 209.414C32.42 207.814 33.89 204.594 34.07 200.164C34.34 193.644 35.39 189.714 35.39 189.714C35.39 189.714 42.56 187.394 46.94 184.134C51.32 180.874 56.89 182.774 56.89 182.774C56.89 182.774 57.88 189.974 62.34 193.774C66.41 197.234 72.18 200.774 70.41 205.914C69.94 207.284 69.63 208.704 69.58 210.144C69.58 210.374 69.76 210.554 69.98 210.554H73.69C73.69 210.554 76.72 208.294 77.54 203.954C78.36 199.614 75.23 195.804 72.38 192.274C69.53 188.744 69.12 186.844 69.53 183.444C69.94 180.044 69.12 173.934 64.91 169.044C64.91 169.044 68.17 157.364 66.95 152.604C66.95 152.604 66.18 151.664 65.73 154.644C65.23 157.904 62.42 166.064 60.3 167.144C60.3 167.144 52.72 167.284 48.5 167.964C44.28 168.644 34.16 168.164 23.76 158.324C14.08 149.154 9.16 157.074 8.85 157.504C8.75 157.644 3.73 163.614 0.569998 165.924H0.539991Z" fill="#F8C2AB"/>
<path d="M10.95 158.534C10.95 158.534 9.97999 151.014 15.05 152.514C21.37 154.374 18.09 155.314 15.84 156.454C14.13 157.324 12.58 165.594 10.95 158.534Z" fill="#ECA98D"/>
<path d="M2.36 172.093C2.36 172.093 7.33 168.683 10.01 167.233C12.68 165.783 8.36 160.813 3.24 163.533L0.539996 165.923C0.539996 165.923 0.370004 170.073 2.36 172.093Z" fill="#DDF7ED"/>
<path d="M28.2 162.694C28.2 162.694 18.65 162.584 21.19 172.764C23.73 182.934 26.99 189.824 30.79 186.014C34.59 182.214 42.32 171.774 39.09 168.114C39.09 168.114 33.64 166.334 28.2 162.694Z" fill="#DDF7ED"/>
<path d="M29.36 162.804C29.36 162.804 20.68 165.714 25.75 168.994C30.82 172.274 29.55 172.454 30.1 174.454C30.64 176.444 33.54 179.374 38.07 177.004C42.6 174.634 38.31 186.784 43.32 183.874C50.35 179.774 62.34 181.334 57.63 172.464C57.63 172.464 63.08 170.294 62.9 163.414C62.9 163.414 61.4 166.424 60.26 167.154C60.26 167.154 53.79 167.424 46.45 167.664C40.27 167.864 35.4 166.564 29.36 162.814V162.804Z" fill="#ECA98D"/>
<path d="M33.14 164.954C33.14 164.954 29.08 165.244 32.92 168.504C36.76 171.764 33.23 174.554 39.48 173.564C45.73 172.574 49.35 179.634 52.88 175.204C56.41 170.764 61.12 168.434 58.4 167.224C58.4 167.224 43.93 167.824 39.7 167.164C38.1 166.914 33.13 164.954 33.13 164.954H33.14Z" fill="#063536"/>
<path d="M64.46 159.344C64.46 159.344 65.08 157.544 65.98 153.324C65.98 153.324 66.91 152.724 66.55 155.394C66.19 158.054 66.19 161.784 64.46 159.354V159.344Z" fill="#063536"/>
<path d="M14.8 154.194C14.8 154.194 15.75 156.474 17.2 155.104C18.65 153.734 14.75 151.294 14.8 154.194Z" fill="#DDF7ED"/>
<path d="M9.73 159.874C9.73 160.304 9.40999 160.544 8.93999 160.724C8.53999 160.874 8.14999 160.554 8.14999 160.124C8.14999 159.694 8.49 159.354 8.92 159.354C9.35 159.354 9.74 159.454 9.74 159.874H9.73Z" fill="#063536"/>
<path d="M1.85 166.504C1.58 166.984 1.26 167.454 0.699997 167.454C0.139997 167.454 0 166.514 0 165.964C0 165.414 0.449995 164.954 1.00999 164.954C2.79999 164.954 2.47 165.414 1.86 166.504H1.85Z" fill="#063536"/>
<path d="M11.41 154.284C11.41 154.284 11.05 158.724 12.5 157.634C13.95 156.544 15.49 156.454 16.12 154.824C16.75 153.194 15.76 152.784 15.06 152.514C14.09 152.134 11.94 151.834 11.41 154.284Z" fill="#063536"/>
<path d="M24.82 158.574L17.19 166.794L18.73 168.564L26.38 160.144L24.82 158.574Z" fill="#063536"/>
<path d="M69.52 182.284C69.52 182.284 68.96 186.364 70.05 188.604C70.05 188.604 70.19 191.384 68.56 191.524C66.93 191.664 63.19 190.844 64.15 187.114C65.1 183.374 67.68 182.144 68.29 181.204C68.9 180.264 69.6 181.204 69.53 182.294L69.52 182.284Z" fill="#DDF7ED"/>
<path d="M68.21 185.894C68.21 185.894 67.02 179.774 63.98 181.204C60.94 182.634 61.96 187.664 64.95 187.734C67.94 187.804 68.21 185.904 68.21 185.904V185.894Z" fill="#ECA98D"/>
<path d="M25.08 161.424L24.66 160.114C24.76 160.084 34.25 157.034 41.64 152.684C54.32 145.224 71.93 125.304 86.09 109.294C97.59 96.2842 106.67 86.0142 110.58 85.0342L110.92 86.3642C107.42 87.2442 98.01 97.8842 87.12 110.204C72.9 126.284 55.21 146.294 42.34 153.874C34.8 158.304 25.17 161.404 25.08 161.434V161.424Z" fill="#063536"/>
<path d="M175.98 179.214L188.33 197.884C188.33 197.884 187.09 200.804 183.29 206.314C183.29 206.314 185.13 209.364 188.3 207.014C194.9 202.124 196.93 197.744 195.02 195.294C193.11 192.844 185.56 173.054 185.56 173.054L175.99 179.214H175.98Z" fill="#ECA98D"/>
<path d="M195.02 195.294C195.02 195.294 193.61 195.314 191.97 200.434C191.97 200.434 190.71 196.734 188.34 197.884L180.06 209.954C180.06 209.954 180.02 214.904 193.45 207.124C193.45 207.124 201.17 202.794 199.64 199.974C198.11 197.154 195.03 195.294 195.03 195.294H195.02Z" fill="#DF7807"/>
<path d="M201.02 202.604C201.02 202.604 202.49 198.734 198.73 198.744C198.73 198.744 195.54 201.614 194.17 203.674C192.37 206.394 189.36 208.294 188.02 208.934C184.67 210.554 180.89 211.344 180.05 209.964C180.05 209.964 180.05 211.904 182 212.144C189.88 213.114 193.76 207.094 193.76 207.094C199.1 204.604 201.02 202.604 201.02 202.604Z" fill="#063536"/>
<path d="M167.52 74.1541C167.52 74.1541 161.37 76.6641 144.29 46.0841C144.29 46.0841 138.47 35.5341 144.33 32.3341C147.31 30.7041 153.16 32.614 157.53 36.744C164.45 43.284 172.04 62.9041 172.04 62.9041C172.94 69.0641 170.09 73.8541 167.53 74.1541H167.52Z" fill="#ECA98D"/>
<path d="M172.03 62.894C172.03 62.894 174.9 75.454 176.67 94.784C176.67 94.784 173.66 98.424 172.43 97.064L161.07 69.894C160.29 63.664 165.21 60.834 172.02 62.894H172.03Z" fill="#ECA98D"/>
<path d="M175.88 93.6338C175.88 93.6338 181.89 101.414 180.13 108.544L175.91 110.914C173.31 108.354 171.89 101.584 172.54 96.0738L175.89 93.6338H175.88Z" fill="#ECA98D"/>
<path d="M179.48 100.484L175.64 104.644C175.64 104.644 177 109.204 175.91 110.914L180.13 108.544C180.13 108.544 181.1 103.764 179.49 100.484H179.48Z" fill="#E09B82"/>
<path d="M151.32 60.814L170.01 53.854C170.01 53.854 163.13 36.6941 159.3 31.4041C155.47 26.1141 142.15 29.3741 142.48 38.5241L151.32 60.824V60.814Z" fill="#D32F05"/>
<path d="M197.04 180.384C197.04 180.384 182.93 158.074 173.85 134.794C168.46 120.954 165.21 102.254 159.17 88.4938L145.19 80.0938L127.69 103.094L148.42 151.144C149.33 153.254 150.43 155.284 151.7 157.194L175.27 192.654L197.02 180.384H197.04Z" fill="url(#paint0_linear_693_75)"/>
<path d="M109.49 174.884L100.38 199.384C100.38 199.384 97.29 200.104 90.6 200.274C90.6 200.274 89.22 203.554 92.99 204.734C100.83 207.174 105.56 206.244 106.41 203.254C107.26 200.274 121.04 179.774 121.04 179.774L109.49 174.884Z" fill="#F8C2AB"/>
<path d="M106.41 203.254C106.41 203.254 105.56 202.124 100.46 203.824C100.46 203.824 102.71 200.624 100.38 199.384L85.74 199.804C85.74 199.804 81.72 202.694 95.92 208.954C95.92 208.954 103.97 212.634 105.34 209.734C106.72 206.834 106.4 203.244 106.4 203.244L106.41 203.254Z" fill="#DF7807"/>
<path d="M104.05 212.404C104.05 212.404 108.05 211.314 105.82 208.274C105.82 208.274 101.62 207.384 99.15 207.494C95.89 207.644 92.59 206.334 91.27 205.624C87.99 203.874 85.12 201.284 85.74 199.794C85.74 199.794 84.17 200.934 85.13 202.654C88.99 209.594 96.14 209.174 96.14 209.174C101.3 212.024 104.05 212.394 104.05 212.394V212.404Z" fill="#063536"/>
<path d="M139.11 17.3334C139.11 17.3334 138.93 19.2134 140.48 19.6334L142.77 28.7734C140.37 36.8334 151.4 39.2034 157.03 33.1534C157.03 33.1534 146.56 20.0834 148.13 11.1934C148.13 11.1934 142.76 13.0734 139.11 17.3234V17.3334Z" fill="#F8C2AB"/>
<path d="M140.48 19.6337L139.61 16.7737C139.61 16.7737 139.63 14.0737 142.3 14.9537C144.97 15.8337 145.15 22.1336 141.9 25.2836L140.48 19.6337Z" fill="#ECA98D"/>
<path d="M133.23 12.1439C132.27 18.1339 133.17 23.9939 137.43 23.3339C141.86 22.6439 145.27 20.2238 146.23 14.2338C147.19 8.24383 144.62 2.84384 140.5 2.18384C136.37 1.52384 134.19 6.15386 133.23 12.1439Z" fill="#F8C2AB"/>
<path d="M140.05 13.7039C140.05 13.7039 138.08 11.6339 136.6 10.8239C135.08 10.0039 133.91 8.93389 133.91 8.93389C134.51 6.87389 135.51 3.4439 136.99 3.5739C137.9 3.6539 139.46 4.51388 140.41 5.73388C142.95 8.97388 140.05 13.6939 140.05 13.6939V13.7039Z" fill="#ECA98D"/>
<path d="M121.37 192.654C121.37 192.654 165.91 118.094 163.89 89.2542L157.98 69.7842L135.04 71.8442L97.83 184.014L121.37 192.654Z" fill="url(#paint1_linear_693_75)"/>
<path d="M168.49 95.3139C168.49 95.3139 170.65 48.4239 159.4 30.9439C159.4 30.9439 147.8 18.7839 140.93 31.8239C137.68 37.9939 130.94 83.9738 130.94 83.9738L168.49 95.3038V95.3139Z" fill="#D32F05"/>
<path d="M139.61 56.1941L140.74 53.3041C138.58 46.5741 137.92 44.5041 141.07 38.8541C144.47 32.7541 155.22 32.6041 156.26 37.6941C158.22 47.3241 157.63 54.7842 154.48 61.2142C151.88 66.5142 148.08 69.2841 143.45 64.5941C143.45 64.5941 141.25 59.0941 139.62 56.1941H139.61Z" fill="#D32F05"/>
<path d="M137.64 76.2837C137.64 76.2837 131.27 74.5337 132.98 66.5737C133.15 65.7737 139.61 38.2637 139.61 38.2637C139.61 38.2637 140.98 32.9137 147.42 34.6537C150.7 35.5337 156.8 35.0737 156.21 41.0537C154.64 56.9737 142.18 77.0737 137.64 76.2837Z" fill="#F8C2AB"/>
<path d="M139.59 75.834C139.59 75.834 134.08 79.724 110.89 88.374C110.89 88.374 106.86 87.074 111.16 83.204L134.24 63.2939C138.33 67.2239 141.84 73.064 139.59 75.834Z" fill="#F8C2AB"/>
<path d="M114.62 85.6338C114.62 85.6338 113.52 88.0438 111.35 90.7338L107.76 94.3938C105.71 95.3838 104.35 94.8638 102.86 92.9938C102.86 92.9938 102.43 88.4338 110.64 83.6338L114.62 85.6238V85.6338Z" fill="#F8C2AB"/>
<path d="M133.23 12.1436C133.23 12.1436 133.06 13.3936 132.21 14.8336C131.74 15.6436 131.18 15.9135 131.28 16.4135C131.43 17.1535 133.56 16.8435 133.56 16.8435C133.56 16.8435 133.72 14.9736 133.23 12.1436Z" fill="#F8C2AB"/>
<path d="M134.83 54.7733L153.89 57.4232C153.89 57.4232 157.04 45.3332 157.04 38.8032C157.04 30.7332 143.74 24.7532 139.11 36.8132L134.83 54.7832V54.7733Z" fill="#D32F05"/>
<path d="M133 2.12373C135.62 -2.37627 143.67 1.67372 143.67 1.67372C143.67 1.67372 153.68 0.333731 152.25 10.5637C151.93 12.8637 148.94 18.6337 148.94 18.6337C148.94 18.6337 147.1 20.2238 144.46 16.9038C136.7 7.12376 128.59 9.70372 133 2.11372V2.12373Z" fill="#063536"/>
<path d="M139.39 14.5339C139.18 15.8239 140.06 17.0339 141.35 17.2339C142.64 17.4339 143.85 16.564 144.05 15.274C144.26 13.984 143.38 12.774 142.09 12.574C140.8 12.364 139.59 13.2439 139.39 14.5339Z" fill="#F8C2AB"/>
<path d="M134.04 12.8742C133.97 13.3042 134.27 13.7142 134.7 13.7842C135.13 13.8542 135.54 13.5542 135.61 13.1242C135.68 12.6942 135.38 12.2842 134.95 12.2142C134.52 12.1442 134.11 12.4442 134.04 12.8742Z" fill="#063536"/>
<path d="M140.76 14.8838C140.89 15.5138 141.63 16.5338 142.26 16.4038C142.89 16.2738 143.16 15.0437 143.03 14.4137C142.9 13.7837 142.29 13.3838 141.66 13.5138C141.03 13.6438 140.63 14.2538 140.76 14.8838Z" fill="#ECA98D"/>
<path d="M132.99 18.274L134.83 17.7939C134.83 17.7939 134.76 19.6839 133.31 19.9839C133.31 19.9839 133.06 18.964 133 18.274H132.99Z" fill="white"/>
<path d="M133.43 11.0439C133.43 11.0439 134.25 9.3939 136.31 11.0839L133.43 11.0439Z" fill="#063536"/>
<path d="M113.74 89.0536C113.74 89.0536 113.66 89.0536 113.62 89.0536C113.25 88.9936 113 88.6336 113.06 88.2636C113.06 88.2436 113.35 86.4236 112.4 85.5336C111.8 84.9736 110.77 84.8736 109.33 85.2236C108.95 85.3136 108.59 85.0836 108.5 84.7236C108.41 84.3536 108.63 83.9836 109 83.8936C110.91 83.4236 112.37 83.6336 113.33 84.5336C114.82 85.9236 114.42 88.3836 114.4 88.4936C114.34 88.8236 114.05 89.0636 113.73 89.0636L113.74 89.0536Z" fill="#063536"/>
<defs>
<linearGradient id="paint0_linear_693_75" x1="127.7" y1="136.374" x2="197.04" y2="136.374" gradientUnits="userSpaceOnUse">
<stop stop-color="#D12F17"/>
<stop offset="0.14" stop-color="#D63E17"/>
<stop offset="0.51" stop-color="#E36218"/>
<stop offset="0.81" stop-color="#EC7818"/>
<stop offset="1" stop-color="#EF8019"/>
</linearGradient>
<linearGradient id="paint1_linear_693_75" x1="97.82" y1="131.214" x2="163.95" y2="131.214" gradientUnits="userSpaceOnUse">
<stop stop-color="#D12F17"/>
<stop offset="0.14" stop-color="#D63E17"/>
<stop offset="0.51" stop-color="#E36218"/>
<stop offset="0.81" stop-color="#EC7818"/>
<stop offset="1" stop-color="#EF8019"/>
</linearGradient>
</defs>
</svg>
