<svg width="86" height="157" viewBox="0 0 86 157" fill="none" xmlns="http://www.w3.org/2000/svg">
<path d="M18.5973 132.192L9.52726 145.902C9.52726 145.902 10.4373 148.042 13.2273 152.092C13.2273 152.092 11.8773 154.332 9.54727 152.602C4.70727 149.012 3.20728 145.792 4.61728 144.002C6.01728 142.202 11.5673 127.672 11.5673 127.672L18.5973 132.192Z" fill="#ECA98D"/>
<path d="M4.61734 144.002C4.61734 144.002 5.65733 144.022 6.85733 147.782C6.85733 147.782 7.78731 145.062 9.52731 145.912L15.6173 154.782C15.6173 154.782 15.6473 158.422 5.77731 152.702C5.77731 152.702 0.107337 149.522 1.23734 147.452C2.35734 145.382 4.62735 144.012 4.62735 144.012L4.61734 144.002Z" fill="#D36C05"/>
<path d="M0.207317 149.372C0.207317 149.372 -0.87268 146.532 1.89732 146.542C1.89732 146.542 4.24736 148.652 5.24736 150.162C6.56736 152.162 8.77732 153.552 9.76731 154.032C12.2273 155.222 14.9974 155.802 15.6174 154.792C15.6174 154.792 15.6174 156.222 14.1874 156.392C8.39736 157.102 5.54734 152.682 5.54734 152.682C1.61734 150.852 0.217327 149.382 0.217327 149.382L0.207317 149.372Z" fill="#063536"/>
<path d="M28.4973 52.9022C28.4973 52.9022 32.8173 55.1722 47.4773 34.0422C47.4773 34.0422 52.4773 26.7422 48.4273 23.9822C46.3673 22.5822 41.9473 23.5622 38.4673 26.2622C32.9373 30.5522 25.9973 44.3522 25.9973 44.3522C24.8973 48.7922 26.6373 52.4922 28.4873 52.9022H28.4973Z" fill="#ECA98D"/>
<path d="M26.0074 44.3526C26.0074 44.3526 23.0174 53.3325 20.3374 67.3325C20.3374 67.3325 22.4574 69.6525 23.4574 68.7525L33.5174 50.2525C34.5274 45.7525 31.1374 43.3326 26.0074 44.3526Z" fill="#ECA98D"/>
<path d="M21.0074 66.542C21.0074 66.542 16.0674 71.802 16.8374 77.142L19.7474 79.172C21.8274 77.482 23.3573 72.642 23.2673 68.562L20.9974 66.542H21.0074Z" fill="#ECA98D"/>
<path d="M17.8674 71.332L20.7174 74.252C20.7174 74.252 18.8074 77.6821 19.7574 79.1721L16.8474 77.142C16.8474 77.142 16.6074 73.042 17.8774 71.332H17.8674Z" fill="#E09B82"/>
<path d="M40.3875 44.9317L28.8574 35.1316C28.8574 35.1316 35.6674 25.7816 39.2374 22.5816C42.8174 19.3816 51.8674 23.8016 50.1974 30.3116L40.3774 44.9416L40.3875 44.9317Z" fill="url(#paint0_linear_693_131)"/>
<path d="M6.3374 128.172C6.3374 128.172 19.0574 92.6616 30.9474 65.5616L41.2174 59.3916L54.0674 76.2816L21.1074 134.072L6.34741 128.172H6.3374Z" fill="#D36C05"/>
<path d="M67.4374 129.012L74.1274 147.012C74.1274 147.012 76.3974 147.542 81.3074 147.672C81.3074 147.672 82.3274 150.082 79.5474 150.942C73.7874 152.732 70.3174 152.052 69.6874 149.852C69.0574 147.662 58.9374 132.602 58.9374 132.602L67.4274 129.012H67.4374Z" fill="#F8C2AB"/>
<path d="M69.6973 149.852C69.6973 149.852 70.3173 149.022 74.0673 150.272C74.0673 150.272 72.4173 147.922 74.1273 147.012L84.8773 147.322C84.8773 147.322 87.8373 149.442 77.3973 154.042C77.3973 154.042 71.4873 156.742 70.4773 154.612C69.4673 152.482 69.6973 149.852 69.6973 149.852Z" fill="#DF7807"/>
<path d="M71.4374 156.572C71.4374 156.572 68.4974 155.772 70.1374 153.542C70.1374 153.542 73.2273 152.892 75.0373 152.972C77.4273 153.082 79.8573 152.122 80.8273 151.602C83.2373 150.312 85.3374 148.422 84.8874 147.322C84.8874 147.322 86.0373 148.162 85.3373 149.422C82.4973 154.522 77.2474 154.212 77.2474 154.212C73.4574 156.302 71.4374 156.572 71.4374 156.572Z" fill="#063536"/>
<path d="M69.2773 21.5416L69.7274 20.8516L72.0173 22.3315L73.0873 28.1616L72.2773 28.3016L71.2673 22.8315L69.2773 21.5416Z" fill="#FFB0C1"/>
<path d="M76.8573 36.4712L71.4173 37.4712C71.4173 37.4712 71.0073 37.5812 70.7073 36.4412C70.4073 35.3012 68.5073 28.1312 68.5073 28.1312L76.3173 26.7012L77.1473 34.9212C77.1473 34.9212 77.3273 36.3912 76.8473 36.4712H76.8573Z" fill="#FF9FB8"/>
<path d="M76.2575 25.8012C76.2575 25.8012 76.0875 24.6111 75.1075 24.7611C74.1275 24.9111 69.1775 25.8511 69.1775 25.8511C69.1775 25.8511 68.1274 26.0311 68.3474 27.2611L76.2575 25.8111V25.8012Z" fill="#C3EDCF"/>
<path d="M76.8304 25.4001L67.6042 27.0918L67.8098 28.2131L77.036 26.5215L76.8304 25.4001Z" fill="#5AD59F"/>
<path d="M71.1674 31.8711C71.3674 32.9611 72.4074 33.6812 73.4974 33.4812C74.5874 33.2812 75.3074 32.2412 75.1074 31.1512C74.9074 30.0612 73.8674 29.3412 72.7774 29.5412C71.6874 29.7412 70.9674 30.7811 71.1674 31.8711Z" fill="#A3E2BB"/>
<path d="M54.3773 12.7314C54.3773 12.7314 54.5073 14.1114 53.3673 14.4214L51.6873 21.1414C53.4473 27.0614 45.3473 28.8015 41.2073 24.3615C41.2073 24.3615 48.8973 14.7614 47.7473 8.23145C47.7473 8.23145 51.6973 9.61145 54.3773 12.7314Z" fill="#F8C2AB"/>
<path d="M53.3674 14.4216L54.0074 12.3215C54.0074 12.3215 51.2874 8.36153 49.3374 9.01153C47.3774 9.66153 50.1374 15.4716 52.5274 17.7916L53.3774 14.4116L53.3674 14.4216Z" fill="#ECA98D"/>
<path d="M58.6874 8.92162C59.3974 13.3216 58.7374 17.6216 55.5974 17.1416C52.3474 16.6316 49.8374 14.8616 49.1374 10.4516C48.4274 6.05158 50.3174 2.09161 53.3474 1.60161C56.3774 1.11161 57.9774 4.52162 58.6874 8.92162Z" fill="#F8C2AB"/>
<path d="M53.5373 9.80184C53.5373 9.80184 55.1373 8.36181 56.2273 7.77181C57.3473 7.17181 58.1973 6.56179 58.1973 6.56179C57.7573 5.05179 57.0273 2.53179 55.9373 2.63179C55.2673 2.69179 54.1273 3.32181 53.4273 4.21181C51.5673 6.59181 53.5473 9.79183 53.5473 9.79183L53.5373 9.80184Z" fill="#ECA98D"/>
<path d="M56.8274 135.722C56.8274 135.722 25.9974 87.3023 27.4774 66.1223L31.8174 51.8223L48.6674 53.3423L71.0974 128.732L56.8274 135.732V135.722Z" fill="#DF7807"/>
<path d="M31.8174 51.8116C31.8174 51.8116 34.0373 33.2117 39.4673 22.7317C39.4673 22.7317 47.6974 13.9616 53.0374 23.3816C59.1174 34.1216 57.0974 36.8116 55.4274 41.3716C55.4274 41.3716 50.6074 46.7216 48.6674 53.3316L31.8174 51.8116Z" fill="url(#paint1_linear_693_131)"/>
<path d="M54.0073 41.2811L56.6073 38.1612C58.1973 33.2212 57.7373 32.2411 55.4273 28.0911C52.9373 23.6111 42.5473 23.9511 41.7873 27.6911C40.3473 34.7711 40.7773 40.2412 43.0973 44.9712C45.0073 48.8612 47.7973 50.9011 51.1973 47.4511C51.1973 47.4511 52.8073 43.4111 54.0073 41.2811Z" fill="url(#paint2_linear_693_131)"/>
<path d="M68.3973 38.2416C68.3973 38.2416 70.2774 37.7216 72.4774 36.4616C72.4774 36.4616 74.9073 34.8016 75.8273 34.3416C78.1673 33.1916 77.6974 32.5816 77.5674 30.9816C77.5674 30.9816 71.8373 29.7316 67.4073 35.1316L68.3973 38.2416Z" fill="#F8C2AB"/>
<path d="M58.6873 8.92188C58.6873 8.92188 58.8073 9.84186 59.4373 10.9019C59.7873 11.4919 60.1973 11.6918 60.1173 12.0618C60.0073 12.6118 58.4373 12.3818 58.4373 12.3818C58.4373 12.3818 58.3273 11.0119 58.6773 8.93188L58.6873 8.92188Z" fill="#F8C2AB"/>
<path d="M58.8574 1.56181C56.9374 -1.74819 51.0173 1.23186 51.0173 1.23186C51.0173 1.23186 45.0773 0.291822 41.2073 7.82182C37.7873 14.4818 35.1274 7.98184 30.1974 20.2718C30.1974 20.2718 31.2774 21.2118 38.3774 22.5818C45.4774 23.9418 48.1273 21.9718 51.3373 12.6918C53.5273 6.36182 62.0974 7.14182 58.8574 1.57182V1.56181Z" fill="#063536"/>
<path d="M54.1674 10.6718C54.3174 11.6218 53.6774 12.5017 52.7274 12.6617C51.7774 12.8117 50.8974 12.1717 50.7374 11.2217C50.5874 10.2717 51.2274 9.39175 52.1774 9.23175C53.1274 9.08175 54.0074 9.72175 54.1674 10.6718Z" fill="#F8C2AB"/>
<path d="M58.0974 9.45192C58.1474 9.77192 57.9274 10.0719 57.6174 10.1219C57.2974 10.1719 56.9974 9.95192 56.9474 9.64192C56.8974 9.32192 57.1174 9.02194 57.4274 8.97194C57.7474 8.92194 58.0474 9.14192 58.0974 9.45192Z" fill="#063536"/>
<path d="M53.2074 10.7819C53.1074 11.2419 52.5674 11.9919 52.1074 11.9019C51.6474 11.8019 51.4474 10.9019 51.5374 10.4419C51.6374 9.98192 52.0874 9.68194 52.5474 9.78194C53.0074 9.88194 53.3074 10.332 53.2074 10.792V10.7819Z" fill="#ECA98D"/>
<path d="M58.8774 13.3721L57.8574 13.9221L58.7774 13.9521C58.7774 13.9521 59.0774 13.7921 58.8774 13.3721Z" fill="#FF9FB8"/>
<path d="M57.8474 13.9219L58.6474 14.6218C58.6474 14.6218 59.0774 14.3118 58.7674 13.9518L57.8474 13.9219Z" fill="#FF9FB8"/>
<path d="M52.9174 15.1619C52.7274 15.2019 52.5273 15.2119 52.3273 15.1919C51.8373 15.1319 51.3974 14.8919 51.0874 14.5019C50.5274 13.7919 50.5674 12.7619 51.1774 12.1019L51.4874 12.3919C51.0174 12.9019 50.9874 13.702 51.4174 14.242C51.6574 14.542 51.9874 14.7319 52.3674 14.7719C52.7474 14.8119 53.1174 14.7119 53.4174 14.4719C54.0274 13.9819 54.1373 13.0819 53.6473 12.4719C53.2373 11.9619 52.5373 11.822 51.8273 12.112L51.6674 11.7219C52.5674 11.3619 53.4474 11.5419 53.9774 12.2119C54.6074 13.0119 54.4774 14.172 53.6774 14.802C53.4474 14.982 53.1874 15.1019 52.9074 15.1619H52.9174Z" fill="white"/>
<path d="M48.6674 53.3321C46.9774 63.6121 44.8875 78.9821 29.5075 72.8621C13.0275 66.3021 23.5475 52.9721 30.1975 44.1221L48.6674 53.3321Z" fill="#063536"/>
<path d="M45.2973 66.0721L43.7673 65.6721L53.3973 28.9521C54.1473 26.0821 52.6273 23.1221 49.8673 22.0421C47.1573 20.9921 44.0673 22.1121 42.6673 24.6521C36.8973 35.0921 24.1473 58.0421 24.1473 58.0421L22.7573 57.2721C22.7573 57.2721 35.5073 34.3221 41.2773 23.8821C43.0673 20.6521 46.9973 19.232 50.4373 20.562C53.9573 21.922 55.8873 25.7021 54.9273 29.3521L45.2973 66.0721Z" fill="#063536"/>
<path d="M55.4574 56.0317C55.4574 56.0317 60.1374 54.7517 58.8874 48.9017C58.7574 48.3217 54.0174 28.1017 54.0174 28.1017C54.0174 28.1017 53.0174 24.1716 48.2774 25.4516C45.8674 26.1016 41.3874 25.7617 41.8174 30.1517C42.9674 41.8417 52.1174 56.6117 55.4574 56.0317Z" fill="#F8C2AB"/>
<path d="M56.5674 55.5123C56.4174 55.7023 61.4974 52.3723 70.8174 35.8423C70.8174 35.8423 70.3374 32.7622 67.0374 35.4422L49.9474 49.9023C52.3374 53.3223 54.1973 56.0422 56.5773 55.5022L56.5674 55.5123Z" fill="#F8C2AB"/>
<path d="M57.5173 40.2318L43.5173 42.1718C43.5173 42.1718 41.2073 33.2918 41.2073 28.4918C41.2073 22.5618 50.9773 18.1718 54.3773 27.0318L57.5173 40.2318Z" fill="url(#paint3_linear_693_131)"/>
<path d="M22.1573 67.5714C21.8173 66.9214 30.6573 74.1114 37.8473 71.3414C42.9673 69.3614 45.6173 64.8414 47.1573 61.4814C47.1573 61.4814 44.8973 72.8614 37.3273 74.3514C30.4473 75.7014 23.9274 70.8814 22.1674 67.5714H22.1573Z" fill="#032323"/>
<path d="M36.8574 55.4323C36.8574 56.0423 36.3574 56.5423 35.7474 56.5423C35.1374 56.5423 34.6375 56.0423 34.6375 55.4323C34.6375 54.8223 35.1374 54.3223 35.7474 54.3223C36.3574 54.3223 36.8574 54.8223 36.8574 55.4323Z" fill="#032323"/>
<path d="M58.4273 8.06199C58.4273 8.06199 57.5373 6.93203 55.9573 8.28203L58.4273 8.06199Z" fill="#063536"/>
<defs>
<linearGradient id="paint0_linear_693_131" x1="28.8574" y1="33.2216" x2="50.4074" y2="33.2216" gradientUnits="userSpaceOnUse">
<stop stop-color="#D12F17"/>
<stop offset="0.14" stop-color="#D63E17"/>
<stop offset="0.51" stop-color="#E36218"/>
<stop offset="0.81" stop-color="#EC7818"/>
<stop offset="1" stop-color="#EF8019"/>
</linearGradient>
<linearGradient id="paint1_linear_693_131" x1="31.8174" y1="36.1716" x2="57.1374" y2="36.1716" gradientUnits="userSpaceOnUse">
<stop stop-color="#D12F17"/>
<stop offset="0.14" stop-color="#D63E17"/>
<stop offset="0.51" stop-color="#E36218"/>
<stop offset="0.81" stop-color="#EC7818"/>
<stop offset="1" stop-color="#EF8019"/>
</linearGradient>
<linearGradient id="paint2_linear_693_131" x1="40.9573" y1="37.0011" x2="57.5473" y2="37.0011" gradientUnits="userSpaceOnUse">
<stop stop-color="#D12F17"/>
<stop offset="0.14" stop-color="#D63E17"/>
<stop offset="0.51" stop-color="#E36218"/>
<stop offset="0.81" stop-color="#EC7818"/>
<stop offset="1" stop-color="#EF8019"/>
</linearGradient>
<linearGradient id="paint3_linear_693_131" x1="41.2073" y1="32.0918" x2="57.5173" y2="32.0918" gradientUnits="userSpaceOnUse">
<stop stop-color="#D12F17"/>
<stop offset="0.14" stop-color="#D63E17"/>
<stop offset="0.51" stop-color="#E36218"/>
<stop offset="0.81" stop-color="#EC7818"/>
<stop offset="1" stop-color="#EF8019"/>
</linearGradient>
</defs>
</svg>
