<svg width="256" height="118" viewBox="0 0 256 118" fill="none" xmlns="http://www.w3.org/2000/svg">
<path d="M12.31 24.62C19.1086 24.62 24.62 19.1086 24.62 12.31C24.62 5.51137 19.1086 0 12.31 0C5.51137 0 0 5.51137 0 12.31C0 19.1086 5.51137 24.62 12.31 24.62Z" fill="white"/>
<path d="M24.44 30.68H0.180023C0.0806119 30.68 0 30.7606 0 30.86V117.05C0 117.149 0.0806119 117.23 0.180023 117.23H24.44C24.5394 117.23 24.62 117.149 24.62 117.05V30.86C24.62 30.7606 24.5394 30.68 24.44 30.68Z" fill="white"/>
<path d="M66.88 41.48V115.49C66.88 115.91 66.73 116.3 66.48 116.6L42.26 64.49V41.47C42.26 34.67 47.77 29.16 54.57 29.16C57.97 29.16 61.05 30.54 63.28 32.77C65.51 35 66.89 38.08 66.89 41.48H66.88Z" fill="white"/>
<path d="M63.88 117.23H41.71C40.84 117.23 40.05 116.73 39.68 115.94C39.68 115.94 6.30001 44.22 0.770007 32.34C0.410007 31.57 0.970004 30.68 1.83 30.68H23.24C24.08 30.68 24.85 31.17 25.21 31.94L64.48 116.31C64.68 116.74 64.37 117.24 63.89 117.24L63.88 117.23Z" fill="white"/>
<path d="M73.47 12.24C72.55 13.24 70.97 13.24 70.07 12.24C66.17 7.86999 60.45 5.12 54.07 5.12C47.69 5.12 42.07 7.82999 38.17 12.13C37.27 13.13 35.69 13.12 34.78 12.13C34.02 11.29 33.97 10.04 34.66 9.14C38.89 3.62 46.01 0 54.08 0C62.15 0 69.43 3.7 73.64 9.33C74.3 10.21 74.22 11.44 73.48 12.25L73.47 12.24Z" fill="white"/>
<path d="M68.08 18.1C67.16 19.1 65.6 19.09 64.67 18.1C61.8 15.06 58.1 13.23 54.07 13.23C50.04 13.23 46.43 15.02 43.57 17.99C42.64 18.96 41.09 18.97 40.17 17.97C39.38 17.1 39.35 15.78 40.11 14.89C43.59 10.79 48.56 8.22 54.08 8.22C59.6 8.22 64.68 10.84 68.16 15.03C68.91 15.92 68.87 17.23 68.09 18.09L68.08 18.1Z" fill="white"/>
<path d="M63.01 23.61L62.96 23.67C62.11 24.59 60.69 24.66 59.73 23.84C58.07 22.42 56.2 21.62 54.22 21.62C52.24 21.62 50.34 22.43 48.68 23.88C47.73 24.71 46.3 24.65 45.45 23.72L45.4 23.66C44.55 22.74 44.59 21.31 45.49 20.44C47.96 18.04 50.98 16.64 54.23 16.64C57.48 16.64 60.46 18.03 62.93 20.4C63.83 21.27 63.87 22.7 63.02 23.62L63.01 23.61Z" fill="white"/>
<path d="M102.17 115.66C102.83 115.66 103.31 115.55 103.62 115.32C103.93 115.09 104.07 114.78 104.07 114.37C104.07 114.13 104.02 113.92 103.92 113.74C103.82 113.56 103.67 113.41 103.48 113.27C103.29 113.13 103.06 113 102.79 112.88C102.52 112.76 102.21 112.64 101.86 112.52C101.51 112.39 101.17 112.25 100.85 112.1C100.52 111.95 100.24 111.76 99.99 111.54C99.74 111.32 99.54 111.05 99.39 110.74C99.24 110.43 99.16 110.05 99.16 109.62C99.16 108.71 99.48 107.99 100.11 107.47C100.74 106.95 101.6 106.69 102.69 106.69C103.32 106.69 103.88 106.76 104.38 106.9C104.87 107.04 105.26 107.19 105.54 107.36L104.97 108.85C104.64 108.67 104.28 108.52 103.88 108.43C103.49 108.33 103.08 108.28 102.66 108.28C102.16 108.28 101.78 108.38 101.5 108.59C101.22 108.79 101.08 109.08 101.08 109.45C101.08 109.67 101.13 109.87 101.22 110.03C101.31 110.19 101.44 110.33 101.61 110.46C101.78 110.59 101.98 110.7 102.21 110.81C102.44 110.92 102.69 111.02 102.96 111.12C103.44 111.29 103.86 111.47 104.24 111.65C104.61 111.83 104.93 112.04 105.19 112.29C105.45 112.54 105.65 112.83 105.78 113.17C105.92 113.51 105.98 113.91 105.98 114.39C105.98 115.31 105.66 116.01 105.01 116.51C104.36 117.01 103.42 117.26 102.17 117.26C101.75 117.26 101.37 117.23 101.02 117.18C100.67 117.13 100.37 117.06 100.1 116.98C99.83 116.9 99.6 116.82 99.41 116.74C99.22 116.66 99.06 116.58 98.94 116.51L99.48 115.01C99.74 115.16 100.1 115.3 100.55 115.45C101 115.6 101.54 115.67 102.17 115.67V115.66Z" fill="white"/>
<path d="M116.71 111.97C116.71 112.84 116.58 113.6 116.32 114.26C116.06 114.92 115.71 115.47 115.27 115.92C114.83 116.36 114.31 116.7 113.72 116.92C113.13 117.14 112.49 117.26 111.82 117.26C111.15 117.26 110.51 117.15 109.91 116.92C109.31 116.7 108.79 116.36 108.35 115.92C107.91 115.48 107.55 114.92 107.29 114.26C107.03 113.6 106.9 112.83 106.9 111.97C106.9 111.11 107.03 110.34 107.29 109.69C107.55 109.03 107.91 108.48 108.36 108.03C108.81 107.58 109.34 107.25 109.93 107.02C110.52 106.8 111.15 106.68 111.81 106.68C112.47 106.68 113.1 106.79 113.69 107.02C114.28 107.24 114.8 107.58 115.24 108.03C115.68 108.48 116.04 109.03 116.3 109.69C116.56 110.35 116.69 111.11 116.69 111.97H116.71ZM108.81 111.97C108.81 112.53 108.88 113.03 109.01 113.48C109.14 113.93 109.34 114.32 109.6 114.63C109.86 114.95 110.17 115.19 110.54 115.37C110.91 115.54 111.33 115.63 111.8 115.63C112.27 115.63 112.67 115.54 113.04 115.37C113.41 115.2 113.72 114.95 113.98 114.63C114.24 114.31 114.43 113.93 114.57 113.48C114.71 113.03 114.77 112.52 114.77 111.97C114.77 111.42 114.7 110.91 114.57 110.46C114.44 110.01 114.24 109.62 113.98 109.31C113.72 109 113.41 108.75 113.04 108.57C112.67 108.4 112.26 108.31 111.8 108.31C111.34 108.31 110.91 108.4 110.54 108.57C110.17 108.75 109.86 108.99 109.6 109.32C109.34 109.64 109.15 110.03 109.01 110.47C108.87 110.92 108.81 111.42 108.81 111.97Z" fill="white"/>
<path d="M122.93 117.25C122.17 117.25 121.49 117.13 120.89 116.9C120.29 116.67 119.78 116.32 119.36 115.87C118.94 115.42 118.62 114.87 118.4 114.21C118.18 113.56 118.06 112.81 118.06 111.96C118.06 111.11 118.19 110.36 118.45 109.71C118.71 109.06 119.06 108.5 119.51 108.05C119.96 107.6 120.48 107.25 121.09 107.02C121.69 106.79 122.34 106.67 123.03 106.67C123.45 106.67 123.83 106.7 124.17 106.77C124.51 106.83 124.81 106.9 125.06 106.98C125.31 107.06 125.52 107.14 125.69 107.23C125.86 107.32 125.97 107.38 126.04 107.42L125.5 108.92C125.27 108.77 124.93 108.64 124.5 108.5C124.07 108.37 123.6 108.3 123.09 108.3C122.65 108.3 122.24 108.38 121.86 108.53C121.48 108.68 121.15 108.91 120.87 109.21C120.59 109.51 120.38 109.89 120.22 110.35C120.06 110.81 119.99 111.34 119.99 111.94C119.99 112.48 120.05 112.97 120.17 113.41C120.29 113.86 120.48 114.24 120.73 114.57C120.98 114.9 121.3 115.15 121.69 115.33C122.08 115.51 122.55 115.6 123.09 115.6C123.74 115.6 124.27 115.53 124.68 115.4C125.09 115.27 125.4 115.14 125.63 115.03L126.13 116.53C126.01 116.61 125.85 116.69 125.66 116.76C125.46 116.84 125.22 116.91 124.95 116.99C124.68 117.06 124.37 117.12 124.03 117.16C123.69 117.2 123.32 117.23 122.94 117.23L122.93 117.25Z" fill="white"/>
<path d="M127.46 106.92H129.3V117.04H127.46V106.92Z" fill="white"/>
<path d="M131.43 117.04V106.92H137.93V108.48H133.27V110.98H137.42V112.51H133.27V115.47H138.28V117.03H131.43V117.04Z" fill="white"/>
<path d="M148.27 111.97C148.27 112.85 148.13 113.61 147.86 114.25C147.59 114.9 147.2 115.44 146.7 115.87C146.2 116.3 145.6 116.62 144.89 116.83C144.18 117.04 143.4 117.14 142.55 117.14C142.14 117.14 141.68 117.12 141.16 117.09C140.64 117.06 140.15 116.99 139.69 116.88V107.06C140.16 106.95 140.65 106.89 141.18 106.86C141.71 106.83 142.17 106.82 142.58 106.82C143.43 106.82 144.2 106.92 144.9 107.12C145.6 107.32 146.2 107.63 146.7 108.05C147.2 108.47 147.59 109.01 147.86 109.66C148.13 110.31 148.27 111.08 148.27 111.97ZM141.53 115.52C141.64 115.52 141.78 115.54 141.95 115.54C142.13 115.54 142.36 115.54 142.67 115.54C143.91 115.54 144.83 115.23 145.44 114.6C146.05 113.97 146.35 113.09 146.35 111.96C146.35 110.83 146.05 109.93 145.46 109.32C144.87 108.71 143.95 108.4 142.7 108.4C142.15 108.4 141.77 108.42 141.53 108.44V115.52Z" fill="white"/>
<path d="M156.48 117.04C156.34 116.64 156.2 116.25 156.06 115.86C155.91 115.47 155.77 115.07 155.64 114.66H151.37C151.23 115.07 151.09 115.47 150.95 115.87C150.81 116.26 150.67 116.66 150.53 117.04H148.62C149 115.96 149.36 114.96 149.7 114.05C150.04 113.14 150.37 112.27 150.7 111.45C151.03 110.63 151.35 109.85 151.67 109.11C151.99 108.37 152.32 107.64 152.66 106.92H154.42C154.76 107.64 155.09 108.37 155.41 109.11C155.73 109.85 156.05 110.63 156.38 111.45C156.71 112.27 157.04 113.13 157.39 114.05C157.74 114.97 158.1 115.96 158.48 117.04H156.48ZM153.49 108.87C153.27 109.39 153.01 110.01 152.72 110.75C152.43 111.49 152.13 112.29 151.82 113.16H155.15C154.84 112.29 154.54 111.49 154.24 110.74C153.95 109.99 153.69 109.37 153.48 108.87H153.49Z" fill="white"/>
<path d="M168.03 111.97C168.03 112.85 167.89 113.61 167.62 114.25C167.35 114.9 166.96 115.44 166.46 115.87C165.96 116.3 165.36 116.62 164.65 116.83C163.94 117.04 163.16 117.14 162.31 117.14C161.9 117.14 161.44 117.12 160.92 117.09C160.4 117.06 159.91 116.99 159.45 116.88V107.06C159.92 106.95 160.41 106.89 160.94 106.86C161.47 106.83 161.93 106.82 162.34 106.82C163.19 106.82 163.96 106.92 164.66 107.12C165.36 107.32 165.96 107.63 166.46 108.05C166.96 108.47 167.35 109.01 167.62 109.66C167.89 110.31 168.03 111.08 168.03 111.97ZM161.28 115.52C161.39 115.52 161.53 115.54 161.7 115.54C161.88 115.54 162.11 115.54 162.42 115.54C163.66 115.54 164.58 115.23 165.19 114.6C165.8 113.97 166.1 113.09 166.1 111.96C166.1 110.83 165.8 109.93 165.21 109.32C164.62 108.71 163.7 108.4 162.45 108.4C161.9 108.4 161.52 108.42 161.28 108.44V115.52Z" fill="white"/>
<path d="M181.44 111.97C181.44 112.85 181.3 113.61 181.03 114.25C180.76 114.9 180.37 115.44 179.87 115.87C179.37 116.3 178.77 116.62 178.06 116.83C177.35 117.04 176.57 117.14 175.72 117.14C175.31 117.14 174.85 117.12 174.33 117.09C173.81 117.06 173.32 116.99 172.86 116.88V107.06C173.33 106.95 173.82 106.89 174.35 106.86C174.88 106.83 175.34 106.82 175.75 106.82C176.6 106.82 177.37 106.92 178.07 107.12C178.77 107.32 179.37 107.63 179.87 108.05C180.37 108.47 180.76 109.01 181.03 109.66C181.3 110.31 181.44 111.08 181.44 111.97ZM174.7 115.52C174.81 115.52 174.95 115.54 175.12 115.54C175.3 115.54 175.53 115.54 175.84 115.54C177.08 115.54 178 115.23 178.61 114.6C179.22 113.97 179.52 113.09 179.52 111.96C179.52 110.83 179.22 109.93 178.63 109.32C178.04 108.71 177.12 108.4 175.87 108.4C175.32 108.4 174.94 108.42 174.7 108.44V115.52Z" fill="white"/>
<path d="M183.17 117.04V106.92H189.67V108.48H185.01V110.98H189.16V112.51H185.01V115.47H190.02V117.03H183.17V117.04Z" fill="white"/>
<path d="M197.82 115.44V117.03H191.43V106.91H193.27V115.44H197.83H197.82Z" fill="white"/>
<path d="M202.04 117.04V106.92H208.54V108.48H203.88V110.98H208.03V112.51H203.88V115.47H208.89V117.03H202.04V117.04Z" fill="white"/>
<path d="M212.76 115.66C213.42 115.66 213.9 115.55 214.21 115.32C214.52 115.09 214.66 114.78 214.66 114.37C214.66 114.13 214.61 113.92 214.51 113.74C214.41 113.56 214.26 113.41 214.07 113.27C213.88 113.13 213.65 113 213.38 112.88C213.11 112.76 212.8 112.64 212.45 112.52C212.1 112.39 211.76 112.25 211.44 112.1C211.11 111.95 210.83 111.76 210.58 111.54C210.33 111.32 210.13 111.05 209.98 110.74C209.83 110.43 209.75 110.05 209.75 109.62C209.75 108.71 210.07 107.99 210.7 107.47C211.33 106.95 212.19 106.69 213.28 106.69C213.91 106.69 214.47 106.76 214.97 106.9C215.46 107.04 215.85 107.19 216.13 107.36L215.56 108.85C215.23 108.67 214.87 108.52 214.47 108.43C214.08 108.33 213.67 108.28 213.25 108.28C212.75 108.28 212.37 108.38 212.09 108.59C211.81 108.79 211.67 109.08 211.67 109.45C211.67 109.67 211.72 109.87 211.81 110.03C211.9 110.19 212.03 110.33 212.2 110.46C212.37 110.59 212.57 110.7 212.8 110.81C213.03 110.92 213.28 111.02 213.55 111.12C214.03 111.29 214.45 111.47 214.83 111.65C215.2 111.83 215.52 112.04 215.78 112.29C216.04 112.54 216.24 112.83 216.37 113.17C216.51 113.51 216.57 113.91 216.57 114.39C216.57 115.31 216.25 116.01 215.6 116.51C214.95 117.01 214.01 117.26 212.76 117.26C212.34 117.26 211.96 117.23 211.61 117.18C211.26 117.13 210.96 117.06 210.69 116.98C210.42 116.9 210.19 116.82 210 116.74C209.81 116.66 209.65 116.58 209.53 116.51L210.07 115.01C210.33 115.16 210.69 115.3 211.14 115.45C211.59 115.6 212.13 115.67 212.76 115.67V115.66Z" fill="white"/>
<path d="M224.95 106.92V108.51H221.84V117.04H219.99V108.51H216.88V106.92H224.95Z" fill="white"/>
<path d="M231.95 117.04C231.81 116.64 231.67 116.25 231.53 115.86C231.38 115.47 231.24 115.07 231.11 114.66H226.84C226.7 115.07 226.56 115.47 226.42 115.87C226.28 116.26 226.14 116.66 226 117.04H224.09C224.47 115.96 224.83 114.96 225.17 114.05C225.51 113.14 225.84 112.27 226.17 111.45C226.5 110.63 226.82 109.85 227.14 109.11C227.46 108.37 227.79 107.64 228.13 106.92H229.89C230.23 107.64 230.56 108.37 230.88 109.11C231.2 109.85 231.52 110.63 231.85 111.45C232.18 112.27 232.51 113.13 232.86 114.05C233.21 114.97 233.57 115.96 233.95 117.04H231.95ZM228.97 108.87C228.75 109.39 228.49 110.01 228.2 110.75C227.91 111.49 227.61 112.29 227.3 113.16H230.63C230.32 112.29 230.02 111.49 229.72 110.74C229.43 109.99 229.17 109.37 228.96 108.87H228.97Z" fill="white"/>
<path d="M243.5 111.97C243.5 112.85 243.36 113.61 243.09 114.25C242.82 114.9 242.43 115.44 241.93 115.87C241.43 116.3 240.83 116.62 240.12 116.83C239.41 117.04 238.63 117.14 237.78 117.14C237.37 117.14 236.91 117.12 236.39 117.09C235.87 117.06 235.38 116.99 234.92 116.88V107.06C235.39 106.95 235.88 106.89 236.41 106.86C236.94 106.83 237.4 106.82 237.81 106.82C238.66 106.82 239.43 106.92 240.13 107.12C240.83 107.32 241.43 107.63 241.93 108.05C242.43 108.47 242.82 109.01 243.09 109.66C243.36 110.31 243.5 111.08 243.5 111.97ZM236.76 115.52C236.87 115.52 237.01 115.54 237.18 115.54C237.36 115.54 237.59 115.54 237.9 115.54C239.14 115.54 240.06 115.23 240.67 114.6C241.28 113.97 241.58 113.09 241.58 111.96C241.58 110.83 241.28 109.93 240.69 109.32C240.1 108.71 239.18 108.4 237.93 108.4C237.38 108.4 237 108.42 236.76 108.44V115.52Z" fill="white"/>
<path d="M254.63 111.97C254.63 112.84 254.5 113.6 254.24 114.26C253.98 114.92 253.63 115.47 253.19 115.92C252.75 116.36 252.23 116.7 251.64 116.92C251.05 117.14 250.41 117.26 249.74 117.26C249.07 117.26 248.43 117.15 247.83 116.92C247.23 116.7 246.71 116.36 246.27 115.92C245.83 115.48 245.47 114.92 245.21 114.26C244.95 113.6 244.82 112.83 244.82 111.97C244.82 111.11 244.95 110.34 245.21 109.69C245.47 109.03 245.83 108.48 246.28 108.03C246.73 107.58 247.26 107.25 247.85 107.02C248.44 106.8 249.07 106.68 249.73 106.68C250.39 106.68 251.02 106.79 251.61 107.02C252.2 107.24 252.72 107.58 253.16 108.03C253.6 108.48 253.96 109.03 254.22 109.69C254.48 110.35 254.61 111.11 254.61 111.97H254.63ZM246.73 111.97C246.73 112.53 246.8 113.03 246.93 113.48C247.07 113.93 247.26 114.32 247.52 114.63C247.78 114.95 248.09 115.19 248.46 115.37C248.83 115.54 249.25 115.63 249.72 115.63C250.19 115.63 250.59 115.54 250.96 115.37C251.33 115.2 251.64 114.95 251.9 114.63C252.16 114.31 252.35 113.93 252.49 113.48C252.63 113.03 252.69 112.52 252.69 111.97C252.69 111.42 252.62 110.91 252.49 110.46C252.35 110.01 252.16 109.62 251.9 109.31C251.64 109 251.33 108.75 250.96 108.57C250.59 108.4 250.18 108.31 249.72 108.31C249.26 108.31 248.83 108.4 248.46 108.57C248.09 108.75 247.78 108.99 247.52 109.32C247.26 109.64 247.07 110.03 246.93 110.47C246.79 110.92 246.73 111.42 246.73 111.97Z" fill="white"/>
<path d="M103.1 53.28C103.59 53.28 104 53.24 104.32 53.16C104.64 53.08 104.9 52.97 105.09 52.82C105.28 52.68 105.42 52.51 105.49 52.32C105.56 52.13 105.6 51.91 105.6 51.67C105.6 51.16 105.36 50.74 104.88 50.4C104.4 50.06 103.58 49.7 102.42 49.31C101.91 49.13 101.4 48.93 100.9 48.69C100.39 48.46 99.94 48.17 99.53 47.82C99.13 47.47 98.8 47.04 98.55 46.54C98.3 46.04 98.17 45.43 98.17 44.72C98.17 44.01 98.3 43.36 98.57 42.78C98.84 42.21 99.22 41.72 99.71 41.31C100.2 40.91 100.8 40.6 101.5 40.38C102.2 40.16 102.99 40.06 103.87 40.06C104.91 40.06 105.82 40.17 106.58 40.4C107.34 40.62 107.97 40.87 108.46 41.14L107.45 43.89C107.02 43.67 106.54 43.47 106.01 43.3C105.48 43.13 104.84 43.04 104.1 43.04C103.26 43.04 102.66 43.16 102.3 43.39C101.93 43.62 101.75 43.98 101.75 44.45C101.75 44.73 101.82 44.97 101.95 45.17C102.08 45.36 102.27 45.54 102.52 45.7C102.77 45.86 103.05 46 103.37 46.12C103.69 46.25 104.04 46.38 104.43 46.51C105.24 46.81 105.94 47.1 106.53 47.39C107.13 47.68 107.62 48.02 108.02 48.41C108.42 48.8 108.71 49.25 108.9 49.77C109.09 50.29 109.19 50.93 109.19 51.67C109.19 53.12 108.68 54.24 107.67 55.04C106.65 55.84 105.13 56.24 103.08 56.24C102.39 56.24 101.77 56.2 101.22 56.12C100.67 56.04 100.18 55.94 99.75 55.82C99.32 55.7 98.96 55.57 98.65 55.44C98.34 55.31 98.09 55.18 97.88 55.06L98.86 52.28C99.32 52.53 99.89 52.76 100.57 52.96C101.25 53.16 102.08 53.26 103.07 53.26L103.1 53.28Z" fill="white"/>
<path d="M121.19 55.94C121.02 55.4 120.83 54.85 120.63 54.28C120.43 53.71 120.23 53.15 120.04 52.58H113.98C113.78 53.15 113.59 53.71 113.39 54.28C113.19 54.85 113.01 55.4 112.84 55.94H109.21C109.79 54.27 110.35 52.72 110.87 51.31C111.39 49.89 111.91 48.56 112.41 47.3C112.91 46.05 113.41 44.86 113.89 43.73C114.38 42.6 114.88 41.5 115.41 40.43H118.72C119.23 41.5 119.73 42.61 120.23 43.73C120.72 44.86 121.22 46.05 121.73 47.3C122.23 48.55 122.75 49.89 123.27 51.31C123.79 52.73 124.35 54.27 124.93 55.94H121.19ZM116.99 43.95C116.91 44.18 116.8 44.48 116.65 44.87C116.5 45.26 116.33 45.71 116.14 46.21C115.95 46.72 115.73 47.28 115.5 47.89C115.26 48.5 115.02 49.14 114.78 49.81H119.22C118.98 49.14 118.75 48.49 118.53 47.88C118.31 47.27 118.1 46.71 117.9 46.2C117.7 45.69 117.52 45.24 117.37 44.86C117.22 44.47 117.1 44.17 117 43.95H116.99Z" fill="white"/>
<path d="M136.21 55.94C135.21 54.16 134.13 52.41 132.96 50.68C131.8 48.95 130.56 47.32 129.24 45.78V55.94H125.79V40.43H128.63C129.12 40.92 129.67 41.53 130.26 42.24C130.86 42.96 131.47 43.72 132.08 44.53C132.7 45.34 133.31 46.19 133.93 47.06C134.54 47.93 135.12 48.77 135.65 49.58V40.42H139.12V55.93H136.19L136.21 55.94Z" fill="white"/>
<path d="M154.34 50.73C154.34 51.49 154.25 52.21 154.08 52.88C153.91 53.55 153.61 54.14 153.18 54.64C152.75 55.14 152.18 55.54 151.46 55.83C150.74 56.12 149.82 56.27 148.72 56.27C147.7 56.27 146.83 56.15 146.1 55.9C145.37 55.65 144.76 55.37 144.29 55.04L145.45 52.33C145.88 52.58 146.35 52.81 146.84 53C147.33 53.19 147.87 53.29 148.45 53.29C149.3 53.29 149.91 53.08 150.29 52.66C150.66 52.24 150.85 51.54 150.85 50.56V40.44H154.34V50.74V50.73Z" fill="white"/>
<path d="M162.64 56.26C161.55 56.26 160.61 56.11 159.82 55.8C159.03 55.49 158.38 55.07 157.86 54.52C157.34 53.98 156.96 53.33 156.72 52.57C156.47 51.82 156.35 50.98 156.35 50.07V40.42H159.84V49.78C159.84 50.41 159.91 50.94 160.05 51.38C160.19 51.82 160.39 52.18 160.63 52.45C160.88 52.73 161.17 52.92 161.53 53.04C161.88 53.16 162.26 53.22 162.68 53.22C163.53 53.22 164.22 52.96 164.75 52.44C165.28 51.92 165.54 51.03 165.54 49.78V40.42H169.03V50.07C169.03 50.98 168.9 51.82 168.65 52.58C168.4 53.34 168.01 53.99 167.49 54.54C166.97 55.08 166.3 55.51 165.5 55.81C164.7 56.11 163.74 56.26 162.63 56.26H162.64Z" fill="white"/>
<path d="M181.24 55.94C181.07 55.4 180.88 54.85 180.68 54.28C180.48 53.71 180.28 53.15 180.09 52.58H174.03C173.83 53.15 173.64 53.71 173.44 54.28C173.24 54.85 173.06 55.4 172.89 55.94H169.26C169.84 54.27 170.4 52.72 170.92 51.31C171.44 49.89 171.96 48.56 172.46 47.3C172.96 46.05 173.46 44.86 173.94 43.73C174.43 42.6 174.93 41.5 175.46 40.43H178.77C179.28 41.5 179.78 42.61 180.28 43.73C180.77 44.86 181.27 46.05 181.78 47.3C182.29 48.55 182.8 49.89 183.32 51.31C183.84 52.73 184.4 54.27 184.98 55.94H181.24ZM177.05 43.95C176.97 44.18 176.86 44.48 176.71 44.87C176.56 45.26 176.39 45.71 176.2 46.21C176.01 46.72 175.79 47.28 175.56 47.89C175.32 48.5 175.08 49.14 174.84 49.81H179.28C179.04 49.14 178.81 48.49 178.59 47.88C178.37 47.27 178.16 46.71 177.96 46.2C177.76 45.69 177.58 45.24 177.43 44.86C177.28 44.47 177.16 44.17 177.06 43.95H177.05Z" fill="white"/>
<path d="M196.27 55.94C195.27 54.16 194.19 52.41 193.02 50.68C191.86 48.95 190.62 47.32 189.3 45.78V55.94H185.85V40.43H188.69C189.18 40.92 189.73 41.53 190.32 42.24C190.92 42.96 191.53 43.72 192.14 44.53C192.76 45.34 193.37 46.19 193.99 47.06C194.6 47.93 195.18 48.77 195.71 49.58V40.42H199.18V55.93H196.25L196.27 55.94Z" fill="white"/>
<path d="M98.58 66.04H105.72V97.74H98.58V66.04Z" fill="white"/>
<path d="M130.19 97.74C128.15 94.11 125.94 90.53 123.56 86.99C121.18 83.45 118.65 80.11 115.97 76.97V97.74H108.93V66.04H114.74C115.75 67.05 116.86 68.28 118.08 69.75C119.3 71.21 120.54 72.78 121.81 74.44C123.08 76.1 124.33 77.82 125.58 79.61C126.83 81.39 128 83.11 129.1 84.76V66.05H136.19V97.75H130.2L130.19 97.74Z" fill="white"/>
<path d="M160.65 97.74C158.61 94.11 156.4 90.53 154.02 86.99C151.64 83.45 149.11 80.11 146.43 76.97V97.74H139.39V66.04H145.2C146.21 67.05 147.32 68.28 148.54 69.75C149.76 71.21 151 72.78 152.27 74.44C153.54 76.1 154.79 77.82 156.04 79.61C157.29 81.39 158.46 83.11 159.56 84.76V66.05H166.65V97.75H160.66L160.65 97.74Z" fill="white"/>
<path d="M200.04 81.86C200.04 84.57 199.64 86.96 198.83 89.02C198.02 91.08 196.92 92.8 195.51 94.19C194.11 95.58 192.44 96.62 190.5 97.32C188.56 98.02 186.48 98.37 184.26 98.37C182.04 98.37 180.05 98.02 178.13 97.32C176.21 96.62 174.53 95.57 173.1 94.19C171.67 92.8 170.54 91.08 169.71 89.02C168.89 86.96 168.47 84.58 168.47 81.86C168.47 79.14 168.9 76.76 169.75 74.7C170.6 72.64 171.75 70.91 173.2 69.51C174.65 68.11 176.33 67.06 178.23 66.35C180.14 65.65 182.14 65.3 184.25 65.3C186.36 65.3 188.46 65.65 190.38 66.35C192.3 67.05 193.98 68.1 195.41 69.51C196.84 70.91 197.97 72.64 198.8 74.7C199.62 76.76 200.03 79.14 200.03 81.86H200.04ZM175.84 81.86C175.84 83.41 176.03 84.82 176.41 86.07C176.79 87.32 177.34 88.4 178.06 89.29C178.78 90.19 179.65 90.88 180.69 91.37C181.73 91.86 182.92 92.1 184.26 92.1C185.6 92.1 186.75 91.86 187.81 91.37C188.86 90.88 189.75 90.19 190.46 89.29C191.18 88.39 191.73 87.32 192.11 86.07C192.49 84.82 192.68 83.42 192.68 81.86C192.68 80.3 192.49 78.89 192.11 77.63C191.73 76.36 191.18 75.28 190.46 74.38C189.74 73.48 188.86 72.79 187.81 72.3C186.76 71.81 185.58 71.57 184.26 71.57C182.94 71.57 181.73 71.82 180.69 72.32C179.65 72.82 178.78 73.53 178.06 74.42C177.34 75.32 176.79 76.4 176.41 77.67C176.03 78.94 175.84 80.33 175.84 81.86Z" fill="white"/>
<path d="M210.2 97.74C208.94 95.08 207.69 92.31 206.47 89.45C205.24 86.59 204.08 83.75 202.97 80.95C201.87 78.15 200.85 75.46 199.92 72.9C198.99 70.34 198.19 68.05 197.52 66.04H205.39C205.98 67.88 206.64 69.85 207.37 71.97C208.1 74.09 208.84 76.19 209.59 78.3C210.34 80.4 211.07 82.42 211.76 84.34C212.45 86.27 213.11 87.93 213.74 89.33C214.34 87.94 214.99 86.28 215.69 84.36C216.4 82.43 217.13 80.42 217.88 78.32C218.63 76.22 219.37 74.11 220.1 71.99C220.83 69.87 221.49 67.89 222.08 66.05H229.68C228.97 68.07 228.15 70.36 227.23 72.92C226.31 75.48 225.29 78.16 224.2 80.96C223.1 83.77 221.94 86.6 220.73 89.47C219.51 92.34 218.27 95.1 217.02 97.75H210.21L210.2 97.74Z" fill="white"/>
<path d="M247.93 97.74C247.58 96.64 247.2 95.51 246.79 94.35C246.38 93.19 245.98 92.03 245.58 90.88H233.2C232.8 92.04 232.4 93.2 232 94.36C231.6 95.52 231.22 96.65 230.88 97.74H223.47C224.66 94.33 225.79 91.17 226.87 88.27C227.95 85.37 228.99 82.64 230.01 80.08C231.03 77.52 232.04 75.09 233.04 72.78C234.03 70.48 235.07 68.23 236.14 66.03H242.9C243.94 68.23 244.97 70.48 245.98 72.78C246.99 75.08 248.01 77.51 249.04 80.08C250.07 82.64 251.12 85.37 252.19 88.27C253.26 91.17 254.4 94.32 255.59 97.74H247.93ZM239.36 73.22C239.2 73.68 238.97 74.31 238.66 75.1C238.35 75.89 238 76.81 237.61 77.85C237.22 78.89 236.78 80.03 236.3 81.28C235.82 82.53 235.32 83.84 234.82 85.21H243.88C243.39 83.84 242.93 82.52 242.47 81.27C242.02 80.02 241.58 78.87 241.17 77.83C240.76 76.79 240.4 75.88 240.09 75.08C239.78 74.29 239.53 73.67 239.34 73.22H239.36Z" fill="white"/>
</svg>
