<svg width="149" height="110" viewBox="0 0 149 110" fill="none" xmlns="http://www.w3.org/2000/svg">
<path d="M15.74 59.4639V62.9739H10.22V77.7639H6.10004V62.9739H0.580017V59.4639H15.74Z" fill="white"/>
<path d="M23.95 78.1336C22.66 78.1336 21.56 77.9536 20.62 77.5936C19.69 77.2336 18.92 76.7336 18.31 76.0936C17.7 75.4536 17.25 74.6836 16.96 73.7936C16.67 72.9036 16.52 71.9236 16.52 70.8536V59.4736H20.64V70.5136C20.64 71.2536 20.72 71.8836 20.89 72.4036C21.06 72.9236 21.29 73.3436 21.58 73.6736C21.87 74.0036 22.22 74.2336 22.64 74.3736C23.05 74.5136 23.51 74.5836 24 74.5836C25 74.5836 25.82 74.2736 26.44 73.6636C27.06 73.0536 27.38 72.0036 27.38 70.5236V59.4836H31.5V70.8636C31.5 71.9336 31.35 72.9236 31.05 73.8236C30.75 74.7236 30.29 75.4936 29.68 76.1336C29.06 76.7736 28.28 77.2736 27.33 77.6236C26.38 77.9736 25.25 78.1536 23.95 78.1536V78.1336Z" fill="white"/>
<path d="M44.13 59.2539C46.86 59.2539 48.95 59.7339 50.42 60.6939C51.88 61.6539 52.61 63.2239 52.61 65.4039C52.61 67.5839 51.87 69.1939 50.39 70.1739C48.91 71.1539 46.8 71.6439 44.05 71.6439H42.76V77.7739H38.64V59.7339C39.54 59.5539 40.49 59.4339 41.49 59.3639C42.49 59.2939 43.37 59.2539 44.13 59.2539ZM44.39 62.7639C44.09 62.7639 43.8 62.7639 43.51 62.7939C43.22 62.8239 42.97 62.8339 42.76 62.8439V68.1239H44.05C45.48 68.1239 46.55 67.9339 47.27 67.5439C47.99 67.1539 48.35 66.4339 48.35 65.3739C48.35 64.8639 48.26 64.4439 48.07 64.1039C47.88 63.7639 47.62 63.5039 47.28 63.2939C46.94 63.0939 46.52 62.9539 46.03 62.8739C45.54 62.7939 44.99 62.7539 44.39 62.7539V62.7639Z" fill="white"/>
<path d="M59.42 59.2539C62.17 59.2539 64.27 59.7439 65.73 60.7239C67.19 61.7039 67.92 63.2239 67.92 65.2739C67.92 66.5639 67.6301 67.6039 67.0401 68.4039C66.4501 69.2039 65.6001 69.8339 64.4901 70.2939C64.8601 70.7539 65.2501 71.2739 65.6501 71.8639C66.0501 72.4539 66.4501 73.0739 66.8501 73.7139C67.2501 74.3539 67.6301 75.0239 68.0001 75.7239C68.3701 76.4239 68.7101 77.1039 69.0301 77.7739H64.42C64.08 77.1739 63.7401 76.5639 63.4001 75.9539C63.0601 75.3439 62.7001 74.7439 62.3401 74.1539C61.9801 73.5639 61.6201 73.0239 61.2701 72.5039C60.9201 71.9839 60.5601 71.5139 60.2101 71.0939H58.1801V77.7739H54.0601V59.7339C54.9601 59.5539 55.8901 59.4339 56.8501 59.3639C57.8101 59.2939 58.67 59.2539 59.42 59.2539ZM59.6501 62.7639C59.3501 62.7639 59.0801 62.7639 58.8401 62.7939C58.6001 62.8239 58.38 62.8339 58.17 62.8439V67.8039H59.3301C60.8801 67.8039 61.9901 67.6139 62.6601 67.2239C63.3301 66.8339 63.6601 66.1739 63.6601 65.2439C63.6601 64.3139 63.3201 63.7039 62.6401 63.3339C61.9601 62.9539 60.9601 62.7639 59.6401 62.7639H59.6501Z" fill="white"/>
<path d="M70.0801 59.4639H74.2001V77.7639H70.0801V59.4639Z" fill="white"/>
<path d="M81.7001 59.4639C82.0201 60.0439 82.38 60.7639 82.8 61.6139C83.21 62.4639 83.6501 63.3939 84.1001 64.3839C84.5501 65.3739 85.0001 66.3939 85.4401 67.4339C85.8801 68.4739 86.3001 69.4539 86.6801 70.3639C87.0701 69.4439 87.4801 68.4739 87.9301 67.4339C88.3701 66.3939 88.8201 65.3739 89.2701 64.3839C89.7201 63.3939 90.1501 62.4639 90.5701 61.6139C90.9901 60.7639 91.35 60.0439 91.67 59.4639H95.42C95.6 60.6739 95.7601 62.0339 95.9101 63.5439C96.0601 65.0539 96.1901 66.6139 96.3101 68.2439C96.4201 69.8739 96.5301 71.5039 96.6301 73.1439C96.7301 74.7839 96.8101 76.3239 96.8801 77.7639H92.8701C92.8201 75.9839 92.7501 74.0539 92.6601 71.9539C92.5701 69.8539 92.4401 67.7439 92.2601 65.6139C91.9401 66.3539 91.5901 67.1739 91.2001 68.0739C90.8101 68.9739 90.43 69.8739 90.05 70.7639C89.67 71.6639 89.3001 72.5239 88.9501 73.3339C88.6001 74.1539 88.3 74.8539 88.05 75.4339H85.17C84.92 74.8539 84.6201 74.1539 84.2701 73.3339C83.9201 72.5139 83.55 71.6539 83.17 70.7639C82.79 69.8739 82.4101 68.9639 82.0201 68.0739C81.6301 67.1839 81.2801 66.3539 80.9601 65.6139C80.7801 67.7439 80.6501 69.8539 80.5601 71.9539C80.4701 74.0439 80.4001 75.9839 80.3501 77.7639H76.3401C76.4101 76.3239 76.4901 74.7839 76.5901 73.1439C76.6901 71.5039 76.7901 69.8739 76.9101 68.2439C77.0201 66.6139 77.1601 65.0539 77.3101 63.5439C77.4601 62.0439 77.62 60.6839 77.8 59.4639H81.73H81.7001Z" fill="white"/>
<path d="M98.9399 77.7639V59.4639H111.3V62.9239H103.06V66.5139H110.37V69.8939H103.06V74.3039H111.91V77.7639H98.9399Z" fill="white"/>
<path d="M118.72 59.2539C121.47 59.2539 123.57 59.7439 125.03 60.7239C126.49 61.7039 127.22 63.2239 127.22 65.2739C127.22 66.5639 126.93 67.6039 126.34 68.4039C125.75 69.2039 124.9 69.8339 123.79 70.2939C124.16 70.7539 124.55 71.2739 124.95 71.8639C125.35 72.4539 125.75 73.0739 126.15 73.7139C126.55 74.3539 126.93 75.0239 127.3 75.7239C127.67 76.4239 128.01 77.1039 128.33 77.7739H123.72C123.38 77.1739 123.04 76.5639 122.7 75.9539C122.36 75.3439 122 74.7439 121.64 74.1539C121.28 73.5639 120.92 73.0239 120.57 72.5039C120.22 71.9839 119.86 71.5139 119.51 71.0939H117.48V77.7739H113.36V59.7339C114.26 59.5539 115.19 59.4339 116.15 59.3639C117.11 59.2939 117.97 59.2539 118.72 59.2539ZM118.96 62.7639C118.66 62.7639 118.39 62.7639 118.15 62.7939C117.91 62.8239 117.69 62.8339 117.48 62.8439V67.8039H118.64C120.19 67.8039 121.3 67.6139 121.97 67.2239C122.64 66.8339 122.97 66.1739 122.97 65.2439C122.97 64.3139 122.63 63.7039 121.95 63.3339C121.27 62.9539 120.27 62.7639 118.95 62.7639H118.96Z" fill="white"/>
<path d="M142.49 77.7641C142.29 77.1241 142.07 76.4741 141.83 75.8041C141.59 75.1341 141.36 74.4641 141.13 73.8041H133.98C133.75 74.4741 133.52 75.1441 133.29 75.8141C133.06 76.4841 132.84 77.1341 132.64 77.7641H128.36C129.05 75.7941 129.7 73.9741 130.32 72.2941C130.94 70.6141 131.54 69.0441 132.13 67.5641C132.72 66.0841 133.3 64.6841 133.88 63.3541C134.46 62.0241 135.05 60.7241 135.67 59.4541H139.58C140.18 60.7241 140.77 62.0241 141.36 63.3541C141.94 64.6841 142.53 66.0841 143.12 67.5641C143.71 69.0441 144.32 70.6141 144.94 72.2941C145.56 73.9741 146.21 75.7841 146.9 77.7641H142.49ZM137.54 63.6041C137.45 63.8741 137.31 64.2341 137.14 64.6841C136.96 65.1441 136.76 65.6741 136.54 66.2741C136.31 66.8741 136.06 67.5341 135.78 68.2541C135.5 68.9741 135.22 69.7341 134.93 70.5241H140.16C139.88 69.7341 139.61 68.9741 139.35 68.2541C139.09 67.5341 138.84 66.8741 138.6 66.2741C138.36 65.6741 138.16 65.1441 137.98 64.6941C137.8 64.2341 137.66 63.8841 137.55 63.6141L137.54 63.6041Z" fill="white"/>
<path d="M0 98.8939C0 97.3939 0.23998 95.9839 0.72998 94.6539C1.21998 93.3239 1.92003 92.1739 2.84003 91.1839C3.76003 90.1939 4.88 89.4139 6.19 88.8339C7.5 88.2539 8.99999 87.9639 10.68 87.9639C11.78 87.9639 12.8 88.0639 13.72 88.2639C14.64 88.4639 15.53 88.7439 16.4 89.1139L15.18 93.8039C14.63 93.5939 14.02 93.4139 13.37 93.2539C12.72 93.0939 11.98 93.0139 11.16 93.0139C9.42003 93.0139 8.13003 93.5539 7.28003 94.6339C6.43003 95.7139 6 97.1339 6 98.8939C6 100.764 6.40001 102.204 7.20001 103.234C8.00001 104.254 9.40002 104.774 11.4 104.774C12.11 104.774 12.87 104.704 13.69 104.574C14.5 104.444 15.25 104.234 15.94 103.944L16.77 108.754C16.09 109.044 15.23 109.294 14.21 109.504C13.19 109.714 12.05 109.824 10.82 109.824C8.93001 109.824 7.29999 109.544 5.92999 108.974C4.55999 108.414 3.44 107.644 2.56 106.664C1.68 105.694 1.03 104.544 0.630005 103.214C0.220005 101.884 0.0200195 100.444 0.0200195 98.8939H0Z" fill="white"/>
<path d="M36.74 98.8536C36.74 100.484 36.5 101.974 36.03 103.324C35.56 104.674 34.87 105.834 33.98 106.794C33.09 107.754 32.02 108.494 30.77 109.024C29.52 109.554 28.12 109.814 26.57 109.814C25.02 109.814 23.66 109.554 22.41 109.024C21.16 108.494 20.09 107.754 19.2 106.794C18.31 105.834 17.61 104.674 17.11 103.324C16.61 101.974 16.36 100.484 16.36 98.8536C16.36 97.2236 16.62 95.7436 17.13 94.4036C17.64 93.0636 18.35 91.9236 19.26 90.9736C20.17 90.0236 21.24 89.2936 22.49 88.7636C23.74 88.2336 25.1 87.9736 26.57 87.9736C28.04 87.9736 29.44 88.2336 30.69 88.7636C31.94 89.2936 33.01 90.0236 33.9 90.9736C34.79 91.9236 35.49 93.0636 35.99 94.4036C36.49 95.7436 36.74 97.2336 36.74 98.8536ZM30.75 98.8536C30.75 97.0436 30.39 95.6136 29.67 94.5736C28.95 93.5336 27.92 93.0136 26.58 93.0136C25.24 93.0136 24.2 93.5336 23.46 94.5736C22.72 95.6136 22.36 97.0336 22.36 98.8536C22.36 100.674 22.73 102.104 23.46 103.174C24.2 104.234 25.23 104.774 26.58 104.774C27.93 104.774 28.95 104.244 29.67 103.174C30.39 102.114 30.75 100.674 30.75 98.8536Z" fill="white"/>
<path d="M38.91 89.2337C39.91 88.9437 41.2 88.6737 42.77 88.4237C44.35 88.1737 46 88.0537 47.74 88.0537C49.48 88.0537 50.97 88.2837 52.14 88.7437C53.31 89.2037 54.24 89.8537 54.92 90.6937C55.6 91.5337 56.09 92.5337 56.38 93.6937C56.67 94.8537 56.81 96.1337 56.81 97.5537V109.264H50.94V98.2637C50.94 96.3737 50.69 95.0337 50.19 94.2437C49.69 93.4537 48.76 93.0637 47.39 93.0637C46.97 93.0637 46.52 93.0837 46.05 93.1237C45.58 93.1637 45.16 93.2137 44.79 93.2637V109.274H38.92V89.2437L38.91 89.2337Z" fill="white"/>
<path d="M58.78 99.0536C58.78 97.2136 59.06 95.6036 59.63 94.2236C60.19 92.8436 60.94 91.6936 61.86 90.7736C62.78 89.8536 63.84 89.1536 65.03 88.6836C66.22 88.2136 67.45 87.9736 68.72 87.9736C71.66 87.9736 73.99 88.8736 75.7 90.6736C77.41 92.4736 78.26 95.1236 78.26 98.6136C78.26 98.9536 78.25 99.3336 78.22 99.7336C78.19 100.144 78.17 100.504 78.14 100.814H64.81C64.94 102.024 65.51 102.984 66.51 103.694C67.51 104.404 68.85 104.754 70.53 104.754C71.61 104.754 72.66 104.654 73.7 104.454C74.74 104.254 75.59 104.014 76.24 103.724L77.03 108.494C76.71 108.654 76.29 108.814 75.77 108.964C75.25 109.114 74.66 109.264 74.02 109.374C73.38 109.494 72.69 109.594 71.95 109.674C71.21 109.754 70.48 109.794 69.74 109.794C67.87 109.794 66.25 109.514 64.87 108.964C63.49 108.414 62.35 107.654 61.44 106.694C60.53 105.734 59.86 104.594 59.43 103.284C59 101.974 58.78 100.554 58.78 99.0236V99.0536ZM72.58 96.8036C72.55 96.3036 72.47 95.8136 72.32 95.3436C72.18 94.8736 71.95 94.4536 71.65 94.0836C71.35 93.7136 70.97 93.4136 70.51 93.1736C70.05 92.9336 69.48 92.8236 68.8 92.8236C68.12 92.8236 67.58 92.9336 67.1 93.1536C66.63 93.3736 66.23 93.6736 65.92 94.0436C65.6 94.4136 65.36 94.8436 65.19 95.3236C65.02 95.8136 64.89 96.3036 64.81 96.8036H72.58Z" fill="white"/>
<path d="M88.6401 94.3334L92.7601 88.5234H98.8301L91.6301 98.6034C93.2801 100.503 94.7401 102.383 96.0301 104.253C97.3101 106.123 98.34 107.793 99.11 109.253H92.8101C92.6001 108.853 92.3301 108.363 92.0201 107.773C91.7001 107.183 91.3501 106.563 90.9601 105.923C90.5701 105.283 90.16 104.733 89.73 104.283C89.3 103.833 88.8801 103.433 88.4601 103.063C88.0601 103.403 87.6601 103.783 87.2501 104.193C86.8401 104.603 86.4501 105.123 86.0801 105.733C85.7101 106.353 85.3501 106.963 84.9901 107.563C84.6301 108.163 84.3201 108.733 84.0401 109.253H78.0601C78.3901 108.603 78.8301 107.833 79.3701 106.933C79.9101 106.033 80.5101 105.103 81.1501 104.143C81.7901 103.183 82.5001 102.253 83.2501 101.353C84.0001 100.453 84.7401 99.6034 85.4701 98.8134C84.1801 96.9834 82.9401 95.2234 81.7501 93.5334C80.5601 91.8434 79.3801 90.1734 78.2201 88.5234H84.5701L88.6501 94.3334H88.6401Z" fill="white"/>
<path d="M106.32 82.5335C106.32 83.6135 105.97 84.4635 105.28 85.0735C104.58 85.6935 103.76 86.0035 102.82 86.0035C101.88 86.0035 101.05 85.6935 100.36 85.0735C99.66 84.4535 99.3201 83.6135 99.3201 82.5335C99.3201 81.4535 99.67 80.6035 100.36 79.9935C101.06 79.3735 101.88 79.0635 102.82 79.0635C103.76 79.0635 104.59 79.3735 105.28 79.9935C105.98 80.6135 106.32 81.4635 106.32 82.5335ZM105.77 109.263H99.9001V88.5235H105.77V109.263Z" fill="white"/>
<path d="M128.32 98.8537C128.32 100.484 128.08 101.974 127.61 103.324C127.14 104.674 126.45 105.834 125.56 106.794C124.67 107.754 123.6 108.494 122.35 109.024C121.1 109.554 119.7 109.814 118.15 109.814C116.6 109.814 115.24 109.554 113.99 109.024C112.74 108.494 111.67 107.754 110.78 106.794C109.89 105.834 109.19 104.674 108.69 103.324C108.19 101.974 107.94 100.484 107.94 98.8537C107.94 97.2237 108.2 95.7437 108.71 94.4037C109.22 93.0637 109.93 91.9237 110.84 90.9737C111.75 90.0237 112.82 89.2937 114.07 88.7637C115.32 88.2337 116.68 87.9737 118.15 87.9737C119.62 87.9737 121.02 88.2337 122.27 88.7637C123.52 89.2937 124.59 90.0237 125.48 90.9737C126.37 91.9237 127.07 93.0637 127.57 94.4037C128.07 95.7437 128.32 97.2337 128.32 98.8537ZM123 81.0737L116.51 86.5537L113.81 84.1537L119.39 77.7637L123 81.0737ZM122.33 98.8537C122.33 97.0437 121.97 95.6137 121.25 94.5737C120.53 93.5337 119.5 93.0137 118.16 93.0137C116.82 93.0137 115.78 93.5337 115.04 94.5737C114.3 95.6137 113.94 97.0337 113.94 98.8537C113.94 100.674 114.31 102.104 115.04 103.174C115.78 104.234 116.81 104.774 118.16 104.774C119.51 104.774 120.53 104.244 121.25 103.174C121.97 102.114 122.33 100.674 122.33 98.8537Z" fill="white"/>
<path d="M130.49 89.2337C131.49 88.9437 132.78 88.6737 134.35 88.4237C135.93 88.1737 137.58 88.0537 139.32 88.0537C141.06 88.0537 142.55 88.2837 143.72 88.7437C144.89 89.2037 145.82 89.8537 146.5 90.6937C147.18 91.5337 147.67 92.5337 147.96 93.6937C148.25 94.8537 148.39 96.1337 148.39 97.5537V109.264H142.52V98.2637C142.52 96.3737 142.27 95.0337 141.77 94.2437C141.27 93.4537 140.34 93.0637 138.97 93.0637C138.55 93.0637 138.1 93.0837 137.63 93.1237C137.16 93.1637 136.74 93.2137 136.37 93.2637V109.274H130.5V89.2437L130.49 89.2337Z" fill="white"/>
<path d="M51.67 50.2135C54.1166 50.2135 56.1 48.2301 56.1 45.7835C56.1 43.3369 54.1166 41.3535 51.67 41.3535C49.2234 41.3535 47.24 43.3369 47.24 45.7835C47.24 48.2301 49.2234 50.2135 51.67 50.2135Z" fill="url(#paint0_linear_693_221)"/>
<path d="M43.7501 46.8235C43.6901 46.3435 43.7001 45.2835 43.7501 44.8035C43.8801 43.5935 44.5501 42.1635 45.2401 41.1735C47.3501 38.1535 51.1601 37.1535 54.6001 38.3435L62.9001 25.8535C62.9501 25.6435 61.9901 24.5135 61.8001 24.1535C57.3301 16.1635 67.9801 8.2535 74.3201 14.6635C76.9101 17.2835 77.2101 20.9435 75.7401 24.2335L81.3401 29.2535C83.2801 27.9035 85.6701 27.5435 87.9601 28.1035L95.2801 13.9135C91.5801 10.5835 91.7101 4.6735 95.6901 1.6335C99.4501 -1.2465 104.95 -0.20649 107.33 3.87351C110.92 10.0535 105.36 17.2735 98.5401 15.6135L91.0601 29.6235C91.9001 30.6335 92.7201 31.5335 93.2201 32.7935C94.8701 37.0135 92.7001 41.9835 88.3301 43.3235C82.2501 45.1835 76.6901 39.8635 78.2101 33.7035C78.3201 33.2535 78.9401 32.0535 78.8201 31.7835L73.2601 26.8435C71.0401 28.2735 68.4601 28.6235 65.9401 27.7535L57.4101 40.3135C62.4701 45.9735 58.1201 54.4335 50.5201 53.6335C47.2301 53.2935 44.1301 50.0735 43.7401 46.8235H43.7501ZM104.95 7.92351C104.95 5.47351 102.96 3.48351 100.52 3.48351C98.0801 3.48351 96.0901 5.47351 96.0901 7.92351C96.0901 10.3735 98.0801 12.3635 100.52 12.3635C102.96 12.3635 104.95 10.3735 104.95 7.92351ZM73.1601 20.2935C73.1601 17.8435 71.1801 15.8635 68.7301 15.8635C66.2801 15.8635 64.3001 17.8535 64.3001 20.2935C64.3001 22.7335 66.2801 24.7235 68.7301 24.7235C71.1801 24.7235 73.1601 22.7335 73.1601 20.2935ZM90.3101 35.7735C90.3101 33.3235 88.3201 31.3335 85.8801 31.3335C83.4401 31.3335 81.4501 33.3235 81.4501 35.7735C81.4501 38.2235 83.4401 40.2135 85.8801 40.2135C88.3201 40.2135 90.3101 38.2235 90.3101 35.7735ZM56.1201 45.7835C56.1201 43.3335 54.1301 41.3435 51.6901 41.3435C49.2501 41.3435 47.2601 43.3335 47.2601 45.7835C47.2601 48.2335 49.2501 50.2235 51.6901 50.2235C54.1301 50.2235 56.1201 48.2335 56.1201 45.7835Z" fill="white"/>
<path d="M85.86 40.2038C88.3067 40.2038 90.2901 38.2204 90.2901 35.7737C90.2901 33.3271 88.3067 31.3438 85.86 31.3438C83.4134 31.3438 81.4301 33.3271 81.4301 35.7737C81.4301 38.2204 83.4134 40.2038 85.86 40.2038Z" fill="url(#paint1_linear_693_221)"/>
<path d="M100.5 12.3532C102.947 12.3532 104.93 10.3698 104.93 7.92317C104.93 5.47655 102.947 3.49316 100.5 3.49316C98.0534 3.49316 96.0701 5.47655 96.0701 7.92317C96.0701 10.3698 98.0534 12.3532 100.5 12.3532Z" fill="url(#paint2_linear_693_221)"/>
<path d="M68.71 24.7233C71.1566 24.7233 73.14 22.7399 73.14 20.2933C73.14 17.8467 71.1566 15.8633 68.71 15.8633C66.2634 15.8633 64.28 17.8467 64.28 20.2933C64.28 22.7399 66.2634 24.7233 68.71 24.7233Z" fill="url(#paint3_linear_693_221)"/>
<defs>
<linearGradient id="paint0_linear_693_221" x1="47.23" y1="45.7835" x2="56.1" y2="45.7835" gradientUnits="userSpaceOnUse">
<stop stop-color="#D12F17"/>
<stop offset="0.14" stop-color="#D63E17"/>
<stop offset="0.51" stop-color="#E36218"/>
<stop offset="0.81" stop-color="#EC7818"/>
<stop offset="1" stop-color="#EF8019"/>
</linearGradient>
<linearGradient id="paint1_linear_693_221" x1="81.4201" y1="35.7738" x2="90.2901" y2="35.7738" gradientUnits="userSpaceOnUse">
<stop stop-color="#D12F17"/>
<stop offset="0.14" stop-color="#D63E17"/>
<stop offset="0.51" stop-color="#E36218"/>
<stop offset="0.81" stop-color="#EC7818"/>
<stop offset="1" stop-color="#EF8019"/>
</linearGradient>
<linearGradient id="paint2_linear_693_221" x1="96.0701" y1="7.92316" x2="104.94" y2="7.92316" gradientUnits="userSpaceOnUse">
<stop stop-color="#D12F17"/>
<stop offset="0.14" stop-color="#D63E17"/>
<stop offset="0.51" stop-color="#E36218"/>
<stop offset="0.81" stop-color="#EC7818"/>
<stop offset="1" stop-color="#EF8019"/>
</linearGradient>
<linearGradient id="paint3_linear_693_221" x1="64.28" y1="20.2933" x2="73.15" y2="20.2933" gradientUnits="userSpaceOnUse">
<stop stop-color="#D12F17"/>
<stop offset="0.14" stop-color="#D63E17"/>
<stop offset="0.51" stop-color="#E36218"/>
<stop offset="0.81" stop-color="#EC7818"/>
<stop offset="1" stop-color="#EF8019"/>
</linearGradient>
</defs>
</svg>
