<svg width="157" height="26" viewBox="0 0 157 26" fill="none" xmlns="http://www.w3.org/2000/svg">
<path d="M152.94 0H3.62C1.62072 0 0 1.62072 0 3.62V22.17C0 24.1693 1.62072 25.79 3.62 25.79H152.94C154.939 25.79 156.56 24.1693 156.56 22.17V3.62C156.56 1.62072 154.939 0 152.94 0Z" fill="white"/>
<path d="M15.6799 18.3395C14.0299 18.3395 12.7799 17.8795 11.9199 16.9595C11.0599 16.0395 10.6299 14.7395 10.6299 13.0595C10.6299 12.2195 10.7599 11.4695 11.0199 10.8195C11.2799 10.1595 11.6399 9.60951 12.0999 9.14951C12.5599 8.69951 13.0999 8.34951 13.7399 8.11951C14.3699 7.88951 15.0599 7.76953 15.7999 7.76953C16.2299 7.76953 16.6199 7.79953 16.9699 7.85953C17.3199 7.91953 17.6299 7.99953 17.8899 8.07953C18.1499 8.15953 18.3699 8.24951 18.5499 8.33951C18.7299 8.42951 18.8499 8.49952 18.9299 8.53952L18.2699 10.3795C17.9599 10.2095 17.5999 10.0695 17.1799 9.95953C16.7699 9.83953 16.2999 9.77951 15.7699 9.77951C15.4199 9.77951 15.0799 9.83953 14.7399 9.95953C14.3999 10.0795 14.1099 10.2595 13.8499 10.5195C13.5899 10.7795 13.3899 11.1095 13.2299 11.5195C13.0699 11.9295 12.9999 12.4295 12.9999 13.0095C12.9999 13.4795 13.0499 13.9095 13.1499 14.3195C13.2499 14.7295 13.4199 15.0695 13.6499 15.3695C13.8799 15.6595 14.1799 15.8895 14.5499 16.0595C14.9199 16.2295 15.3699 16.3195 15.8899 16.3195C16.2199 16.3195 16.5199 16.2995 16.7799 16.2595C17.0399 16.2195 17.2799 16.1795 17.4799 16.1195C17.6899 16.0695 17.8599 16.0095 18.0199 15.9395C18.1799 15.8695 18.3199 15.8095 18.4399 15.7495L19.0699 17.5795C18.7499 17.7795 18.2999 17.9495 17.7099 18.1095C17.1299 18.2695 16.4499 18.3395 15.6799 18.3395Z" fill="black"/>
<path d="M27.7299 18.1292C27.6199 17.7792 27.4999 17.4193 27.3699 17.0493C27.2399 16.6793 27.1099 16.3092 26.9799 15.9392H23.0199C22.8899 16.3092 22.7599 16.6793 22.6399 17.0493C22.5099 17.4193 22.3899 17.7792 22.2799 18.1292H19.9099C20.2899 17.0392 20.6499 16.0292 20.9899 15.0992C21.3299 14.1692 21.6699 13.2992 21.9899 12.4792C22.3199 11.6592 22.6399 10.8792 22.9599 10.1492C23.2799 9.40923 23.6099 8.69926 23.9499 7.98926H26.1099C26.4399 8.68926 26.7699 9.40923 27.0899 10.1492C27.4099 10.8892 27.7399 11.6592 28.0699 12.4792C28.3999 13.2992 28.7299 14.1692 29.0799 15.0992C29.4199 16.0292 29.7799 17.0292 30.1699 18.1292H27.7299ZM24.9999 10.2993C24.9499 10.4493 24.8699 10.6492 24.7799 10.8992C24.6799 11.1492 24.5699 11.4492 24.4499 11.7792C24.3299 12.1092 24.1899 12.4792 24.0299 12.8792C23.8799 13.2792 23.7199 13.6992 23.5599 14.1292H26.4599C26.2999 13.6892 26.1599 13.2692 26.0099 12.8692C25.8599 12.4692 25.7299 12.0993 25.5999 11.7693C25.4699 11.4393 25.3499 11.1493 25.2599 10.8893C25.1599 10.6393 25.0799 10.4392 25.0199 10.2892L24.9999 10.2993Z" fill="black"/>
<path d="M37.4999 14.7298C37.4999 15.2298 37.44 15.6898 37.33 16.1298C37.22 16.5698 37.0199 16.9498 36.7499 17.2798C36.4699 17.6098 36.0999 17.8598 35.6299 18.0598C35.1599 18.2498 34.56 18.3498 33.84 18.3498C33.18 18.3498 32.6099 18.2698 32.1299 18.1098C31.6499 17.9498 31.26 17.7598 30.95 17.5498L31.71 15.7798C31.99 15.9498 32.2899 16.0898 32.6199 16.2198C32.9399 16.3498 33.29 16.4098 33.67 16.4098C34.23 16.4098 34.6299 16.2698 34.8699 15.9998C35.1099 15.7298 35.24 15.2698 35.24 14.6198V8.00977H37.52V14.7298H37.4999Z" fill="black"/>
<path d="M46.2099 18.1292C46.0999 17.7792 45.9799 17.4193 45.8499 17.0493C45.7199 16.6793 45.5899 16.3092 45.4599 15.9392H41.4999C41.3699 16.3092 41.2399 16.6793 41.1199 17.0493C40.9899 17.4193 40.8699 17.7792 40.7599 18.1292H38.3899C38.7699 17.0392 39.1299 16.0292 39.4699 15.0992C39.8099 14.1692 40.1499 13.2992 40.4699 12.4792C40.7999 11.6592 41.1199 10.8792 41.4399 10.1492C41.7599 9.40923 42.0899 8.69926 42.4299 7.98926H44.5899C44.9199 8.68926 45.2499 9.40923 45.5699 10.1492C45.8899 10.8892 46.2199 11.6592 46.5499 12.4792C46.8799 13.2992 47.2099 14.1692 47.5599 15.0992C47.8999 16.0292 48.2599 17.0292 48.6499 18.1292H46.2099ZM43.4699 10.2993C43.4199 10.4493 43.3399 10.6492 43.2499 10.8992C43.1499 11.1492 43.0399 11.4492 42.9199 11.7792C42.7999 12.1092 42.6599 12.4792 42.4999 12.8792C42.3499 13.2792 42.1899 13.6992 42.0299 14.1292H44.9299C44.7699 13.6892 44.6299 13.2692 44.4799 12.8692C44.3299 12.4692 44.1999 12.0993 44.0699 11.7693C43.9399 11.4393 43.8199 11.1493 43.7299 10.8893C43.6299 10.6393 43.5499 10.4392 43.4899 10.2892L43.4699 10.2993Z" fill="black"/>
<path d="M62.34 13.0591C62.34 13.9391 62.2 14.6992 61.93 15.3492C61.66 15.9992 61.27 16.5391 60.77 16.9691C60.27 17.3991 59.6599 17.7191 58.9399 17.9291C58.2199 18.1391 57.4099 18.2491 56.5099 18.2491C56.0999 18.2491 55.62 18.2292 55.08 18.1992C54.54 18.1692 54 18.0992 53.47 17.9892V8.11914C54 8.01914 54.55 7.95916 55.11 7.91916C55.68 7.88916 56.17 7.86914 56.58 7.86914C57.45 7.86914 58.2299 7.96915 58.9399 8.15915C59.6499 8.35915 60.2499 8.65916 60.7599 9.07916C61.2699 9.49916 61.66 10.0391 61.93 10.6891C62.2 11.3391 62.34 12.1292 62.34 13.0392V13.0591ZM55.7499 16.2791C55.8599 16.2791 55.9799 16.2992 56.1199 16.2992C56.2599 16.2992 56.4299 16.2992 56.6199 16.2992C57.7599 16.2992 58.61 16.0091 59.16 15.4391C59.71 14.8691 59.99 14.0691 59.99 13.0591C59.99 12.0491 59.73 11.1891 59.2 10.6491C58.67 10.1091 57.84 9.82916 56.7 9.82916C56.54 9.82916 56.38 9.82916 56.22 9.82916C56.05 9.82916 55.8999 9.84914 55.7499 9.86914V16.2692V16.2791Z" fill="black"/>
<path d="M64.24 18.13V8H71.08V9.92001H66.52V11.91H70.5699V13.78H66.52V16.22H71.42V18.14H64.24V18.13Z" fill="black"/>
<path d="M76.5999 18.13V8H83.4398V9.92001H78.8798V11.91H82.9299V13.78H78.8798V16.22H83.7798V18.14H76.5999V18.13Z" fill="black"/>
<path d="M88.1499 8C88.3299 8.32 88.5299 8.72 88.7599 9.19C88.9899 9.66 89.2299 10.17 89.4799 10.73C89.7299 11.28 89.9799 11.84 90.2199 12.42C90.4599 13 90.6899 13.54 90.9099 14.04C91.1199 13.53 91.3499 12.99 91.5999 12.42C91.8499 11.85 92.0899 11.28 92.3399 10.73C92.5899 10.18 92.8299 9.67 93.0599 9.19C93.2899 8.72 93.4899 8.32 93.6699 8H95.7499C95.8499 8.67 95.9399 9.43001 96.0199 10.26C96.0999 11.09 96.1799 11.96 96.2399 12.86C96.2999 13.76 96.3599 14.66 96.4099 15.57C96.4599 16.48 96.5099 17.33 96.5499 18.13H94.3299C94.2999 17.15 94.2599 16.07 94.2099 14.91C94.1599 13.75 94.0899 12.58 93.9899 11.4C93.8099 11.81 93.6199 12.26 93.3999 12.76C93.1799 13.26 92.9699 13.75 92.7599 14.25C92.5499 14.75 92.3499 15.22 92.1499 15.68C91.9499 16.14 91.7899 16.52 91.6499 16.84H90.0599C89.9199 16.52 89.7599 16.13 89.5599 15.68C89.3599 15.23 89.1599 14.75 88.9499 14.25C88.7399 13.75 88.5299 13.26 88.3099 12.76C88.0899 12.26 87.8999 11.81 87.7199 11.4C87.6199 12.58 87.5499 13.75 87.4999 14.91C87.4499 16.07 87.4099 17.14 87.3799 18.13H85.1599C85.1999 17.33 85.2499 16.48 85.2999 15.57C85.3499 14.66 85.4099 13.76 85.4699 12.86C85.5299 11.96 85.6099 11.09 85.6899 10.26C85.7699 9.43001 85.8599 8.67 85.9599 8H88.1399H88.1499Z" fill="black"/>
<path d="M101.62 7.88965C103.13 7.88965 104.29 8.15964 105.1 8.68964C105.91 9.21964 106.31 10.0897 106.31 11.2997C106.31 12.5097 105.9 13.3996 105.08 13.9396C104.26 14.4796 103.09 14.7496 101.57 14.7496H100.85V18.1396H98.5698V8.15964C99.0698 8.05964 99.5898 7.98965 100.15 7.94965C100.71 7.90965 101.19 7.88965 101.61 7.88965H101.62ZM101.76 9.82965C101.59 9.82965 101.43 9.82963 101.27 9.83963C101.11 9.83963 100.97 9.85963 100.85 9.86963V12.7896H101.57C102.36 12.7896 102.95 12.6796 103.35 12.4696C103.75 12.2596 103.95 11.8597 103.95 11.2697C103.95 10.9897 103.9 10.7496 103.8 10.5696C103.7 10.3796 103.55 10.2396 103.36 10.1196C103.17 10.0096 102.94 9.92965 102.67 9.88965C102.4 9.84965 102.09 9.81964 101.76 9.81964V9.82965Z" fill="black"/>
<path d="M113.79 18.1292C113.68 17.7792 113.56 17.4193 113.43 17.0493C113.3 16.6793 113.17 16.3092 113.04 15.9392H109.08C108.95 16.3092 108.82 16.6793 108.7 17.0493C108.57 17.4193 108.45 17.7792 108.34 18.1292H105.97C106.35 17.0392 106.71 16.0292 107.05 15.0992C107.39 14.1692 107.73 13.2992 108.05 12.4792C108.38 11.6592 108.7 10.8792 109.02 10.1492C109.34 9.40923 109.67 8.69926 110.01 7.98926H112.17C112.5 8.68926 112.83 9.40923 113.15 10.1492C113.47 10.8892 113.8 11.6592 114.13 12.4792C114.46 13.2992 114.79 14.1692 115.14 15.0992C115.48 16.0292 115.85 17.0292 116.23 18.1292H113.79ZM111.05 10.2993C111 10.4493 110.93 10.6492 110.83 10.8992C110.73 11.1492 110.62 11.4492 110.5 11.7792C110.38 12.1092 110.23 12.4792 110.08 12.8792C109.93 13.2792 109.77 13.6992 109.61 14.1292H112.51C112.35 13.6892 112.2 13.2692 112.06 12.8692C111.92 12.4692 111.78 12.0993 111.65 11.7693C111.52 11.4393 111.4 11.1493 111.31 10.8893C111.22 10.6293 111.13 10.4392 111.07 10.2892L111.05 10.2993Z" fill="black"/>
<path d="M124.31 16.17V18.13H117.54V8H119.82V16.17H124.31Z" fill="black"/>
<path d="M128.6 8C128.78 8.32 128.98 8.72 129.21 9.19C129.44 9.66 129.68 10.17 129.93 10.73C130.18 11.29 130.43 11.84 130.67 12.42C130.91 13 131.14 13.54 131.36 14.04C131.57 13.53 131.81 12.99 132.05 12.42C132.29 11.85 132.54 11.28 132.79 10.73C133.04 10.18 133.28 9.67 133.51 9.19C133.74 8.71 133.94 8.32 134.12 8H136.2C136.3 8.67 136.39 9.43001 136.47 10.26C136.55 11.09 136.63 11.96 136.69 12.86C136.75 13.76 136.81 14.66 136.87 15.57C136.93 16.48 136.97 17.33 137.01 18.13H134.79C134.76 17.15 134.72 16.07 134.67 14.91C134.62 13.75 134.55 12.58 134.45 11.4C134.27 11.81 134.08 12.26 133.86 12.76C133.64 13.26 133.43 13.75 133.22 14.25C133.01 14.75 132.81 15.22 132.61 15.68C132.41 16.13 132.25 16.52 132.11 16.84H130.52C130.38 16.52 130.22 16.13 130.02 15.68C129.82 15.23 129.62 14.75 129.41 14.25C129.2 13.75 128.99 13.26 128.77 12.76C128.55 12.26 128.36 11.81 128.18 11.4C128.08 12.58 128.01 13.75 127.96 14.91C127.91 16.07 127.87 17.14 127.84 18.13H125.62C125.66 17.33 125.7 16.48 125.76 15.57C125.82 14.66 125.87 13.76 125.94 12.86C126.01 11.96 126.08 11.09 126.16 10.26C126.24 9.43001 126.33 8.67 126.43 8H128.61H128.6Z" fill="black"/>
<path d="M139.03 18.13V8H145.87V9.92001H141.31V11.91H145.36V13.78H141.31V16.22H146.21V18.14H139.03V18.13Z" fill="black"/>
</svg>
