<svg width="82" height="26" viewBox="0 0 82 26" fill="none" xmlns="http://www.w3.org/2000/svg">
<path d="M79.29 0H2.60999C1.16852 0 0 1.16852 0 2.60999V23.18C0 24.6215 1.16852 25.79 2.60999 25.79H79.29C80.7314 25.79 81.9 24.6215 81.9 23.18V2.60999C81.9 1.16852 80.7314 0 79.29 0Z" fill="white"/>
<path d="M11.05 18.13V8H17.8901V9.91998H13.3301V11.91H17.3801V13.78H13.3301V16.22H18.23V18.14H11.05V18.13Z" fill="black"/>
<path d="M22.67 16.3896C22.99 16.3896 23.26 16.3596 23.47 16.3096C23.68 16.2596 23.85 16.1795 23.97 16.0895C24.09 15.9995 24.18 15.8896 24.23 15.7596C24.28 15.6296 24.3 15.4895 24.3 15.3395C24.3 15.0095 24.14 14.7296 23.83 14.5096C23.52 14.2896 22.98 14.0496 22.22 13.7996C21.89 13.6796 21.56 13.5495 21.23 13.3995C20.9 13.2495 20.6 13.0596 20.34 12.8296C20.08 12.5996 19.86 12.3196 19.7 11.9996C19.53 11.6696 19.45 11.2796 19.45 10.8096C19.45 10.3396 19.54 9.91956 19.71 9.54956C19.89 9.16956 20.13 8.85954 20.46 8.58954C20.78 8.32954 21.17 8.12955 21.63 7.97955C22.09 7.82955 22.6 7.76953 23.18 7.76953C23.86 7.76953 24.45 7.83956 24.95 7.98956C25.45 8.13956 25.86 8.29954 26.18 8.46954L25.52 10.2695C25.24 10.1195 24.92 9.99958 24.58 9.87958C24.23 9.76958 23.82 9.70953 23.33 9.70953C22.78 9.70953 22.39 9.78958 22.15 9.93958C21.91 10.0896 21.79 10.3196 21.79 10.6296C21.79 10.8096 21.83 10.9695 21.92 11.0995C22.01 11.2295 22.13 11.3396 22.29 11.4396C22.45 11.5396 22.64 11.6295 22.85 11.7195C23.06 11.8095 23.29 11.8896 23.54 11.9796C24.07 12.1796 24.52 12.3696 24.91 12.5596C25.3 12.7496 25.62 12.9696 25.88 13.2296C26.14 13.4796 26.33 13.7796 26.46 14.1196C26.59 14.4596 26.65 14.8796 26.65 15.3596C26.65 16.3096 26.32 17.0396 25.66 17.5596C25 18.0796 24 18.3395 22.66 18.3395C22.21 18.3395 21.81 18.3096 21.45 18.2596C21.09 18.2096 20.77 18.1396 20.49 18.0596C20.21 17.9796 19.97 17.8996 19.77 17.8096C19.57 17.7196 19.4 17.6396 19.27 17.5596L19.91 15.7496C20.21 15.9196 20.58 16.0596 21.03 16.1996C21.47 16.3296 22.02 16.3995 22.66 16.3995L22.67 16.3896Z" fill="black"/>
<path d="M33.03 18.3395C31.38 18.3395 30.13 17.8795 29.27 16.9595C28.41 16.0395 27.98 14.7396 27.98 13.0596C27.98 12.2196 28.11 11.4696 28.37 10.8196C28.63 10.1596 28.99 9.60954 29.45 9.14954C29.91 8.68954 30.45 8.34957 31.09 8.11957C31.72 7.88957 32.41 7.76953 33.15 7.76953C33.58 7.76953 33.97 7.79956 34.32 7.85956C34.67 7.91956 34.98 7.99959 35.24 8.07959C35.5 8.15959 35.72 8.24954 35.9 8.33954C36.07 8.42954 36.2 8.49955 36.28 8.53955L35.62 10.3796C35.31 10.2096 34.95 10.0695 34.53 9.95953C34.11 9.84953 33.65 9.77954 33.12 9.77954C32.77 9.77954 32.43 9.83953 32.09 9.95953C31.75 10.0795 31.46 10.2595 31.2 10.5195C30.94 10.7795 30.73 11.1095 30.58 11.5195C30.42 11.9295 30.35 12.4296 30.35 13.0096C30.35 13.4796 30.4 13.9096 30.5 14.3196C30.6 14.7296 30.77 15.0696 31 15.3696C31.23 15.6596 31.53 15.8896 31.9 16.0596C32.27 16.2296 32.72 16.3196 33.24 16.3196C33.57 16.3196 33.87 16.2996 34.13 16.2596C34.39 16.2196 34.63 16.1796 34.83 16.1196C35.03 16.0696 35.21 16.0096 35.37 15.9396C35.53 15.8696 35.67 15.8096 35.79 15.7496L36.42 17.5796C36.1 17.7796 35.64 17.9496 35.06 18.1096C34.48 18.2696 33.8 18.3395 33.03 18.3395Z" fill="black"/>
<path d="M41.85 18.3397C41.14 18.3397 40.52 18.2397 40.01 18.0397C39.49 17.8397 39.07 17.5597 38.73 17.2097C38.39 16.8497 38.15 16.4298 37.98 15.9398C37.81 15.4498 37.74 14.8998 37.74 14.3098V8.00977H40.02V14.1198C40.02 14.5298 40.07 14.8797 40.16 15.1697C40.25 15.4597 40.38 15.6898 40.54 15.8698C40.7 16.0498 40.9 16.1798 41.12 16.2598C41.35 16.3398 41.6 16.3798 41.87 16.3798C42.43 16.3798 42.88 16.2098 43.22 15.8698C43.56 15.5298 43.74 14.9498 43.74 14.1298V8.01971H46.02V14.3198C46.02 14.9098 45.94 15.4597 45.77 15.9597C45.6 16.4597 45.35 16.8797 45.01 17.2397C44.67 17.5997 44.23 17.8698 43.71 18.0698C43.18 18.2698 42.56 18.3597 41.84 18.3597L41.85 18.3397Z" fill="black"/>
<path d="M48.22 18.13V8H55.06V9.91998H50.5V11.91H54.55V13.78H50.5V16.22H55.4V18.14H48.22V18.13Z" fill="black"/>
<path d="M63.85 16.17V18.13H57.0801V8H59.36V16.17H63.85Z" fill="black"/>
<path d="M72.56 18.1302C72.45 17.7802 72.33 17.4202 72.2 17.0502C72.07 16.6802 71.94 16.3102 71.81 15.9402H67.85C67.72 16.3102 67.59 16.6802 67.47 17.0502C67.34 17.4202 67.22 17.7802 67.11 18.1302H64.74C65.12 17.0402 65.48 16.0302 65.82 15.1002C66.16 14.1702 66.5 13.3002 66.82 12.4802C67.15 11.6602 67.47 10.8802 67.79 10.1502C68.11 9.41021 68.44 8.70023 68.78 7.99023H70.94C71.27 8.69023 71.6 9.41021 71.92 10.1502C72.24 10.8902 72.57 11.6602 72.9 12.4802C73.23 13.3002 73.56 14.1702 73.91 15.1002C74.25 16.0302 74.62 17.0302 75 18.1302H72.56ZM69.82 10.3002C69.77 10.4502 69.7 10.6502 69.6 10.9002C69.5 11.1502 69.39 11.4502 69.27 11.7802C69.15 12.1102 69 12.4802 68.85 12.8802C68.7 13.2802 68.54 13.7002 68.38 14.1302H71.28C71.12 13.6902 70.97 13.2702 70.83 12.8702C70.69 12.4702 70.55 12.1002 70.42 11.7702C70.29 11.4402 70.17 11.1503 70.08 10.8903C69.99 10.6303 69.9 10.4402 69.84 10.2902L69.82 10.3002Z" fill="black"/>
</svg>
