<svg width="82" height="26" viewBox="0 0 82 26" fill="none" xmlns="http://www.w3.org/2000/svg">
<path d="M79.29 0H2.61005C1.16858 0 0 1.16852 0 2.60999V23.18C0 24.6215 1.16858 25.79 2.61005 25.79H79.29C80.7315 25.79 81.9 24.6215 81.9 23.18V2.60999C81.9 1.16852 80.7315 0 79.29 0Z" fill="white"/>
<path d="M13.16 8H15.44V18.13H13.16V13.83H9.33002V18.13H7.05005V8H9.33002V11.87H13.16V8Z" fill="black"/>
<path d="M27.4301 13.0598C27.4301 13.9298 27.3001 14.6897 27.0401 15.3497C26.7801 16.0097 26.4301 16.5598 25.9801 16.9998C25.5301 17.4398 25.0001 17.7798 24.3801 17.9998C23.7601 18.2198 23.0901 18.3397 22.3801 18.3397C21.6701 18.3397 21.0401 18.2298 20.4201 17.9998C19.8101 17.7798 19.2701 17.4398 18.8101 16.9998C18.3501 16.5598 17.9901 16.0097 17.7301 15.3497C17.4701 14.6897 17.3401 13.9298 17.3401 13.0598C17.3401 12.1898 17.4801 11.4297 17.7501 10.7697C18.0201 10.1097 18.3901 9.55974 18.8501 9.10974C19.3101 8.65974 19.8501 8.32973 20.4601 8.09973C21.0701 7.87973 21.7101 7.75977 22.3801 7.75977C23.0501 7.75977 23.7301 7.86973 24.3401 8.09973C24.9601 8.31973 25.4901 8.65974 25.9501 9.10974C26.4101 9.55974 26.7701 10.1097 27.0301 10.7697C27.2901 11.4297 27.4201 12.1898 27.4201 13.0598H27.4301ZM19.6901 13.0598C19.6901 13.5598 19.7501 14.0097 19.8701 14.3997C19.9901 14.7997 20.1701 15.1397 20.4001 15.4297C20.6301 15.7197 20.9101 15.9397 21.2401 16.0997C21.5701 16.2597 21.9501 16.3298 22.3801 16.3298C22.8101 16.3298 23.1801 16.2497 23.5101 16.0997C23.8501 15.9397 24.1301 15.7197 24.3601 15.4297C24.5901 15.1397 24.7601 14.7997 24.8901 14.3997C25.0101 13.9997 25.0701 13.5498 25.0701 13.0598C25.0701 12.5698 25.0101 12.1097 24.8901 11.7097C24.7701 11.3097 24.5901 10.9597 24.3601 10.6697C24.1301 10.3797 23.8501 10.1598 23.5101 9.99976C23.1701 9.83976 22.8001 9.76971 22.3801 9.76971C21.9601 9.76971 21.5701 9.84977 21.2401 10.0098C20.9101 10.1698 20.6301 10.3897 20.4001 10.6797C20.1701 10.9697 20.0001 11.3097 19.8701 11.7197C19.7501 12.1197 19.6901 12.5698 19.6901 13.0598Z" fill="black"/>
<path d="M32.09 16.3896C32.41 16.3896 32.68 16.3596 32.89 16.3096C33.1 16.2596 33.27 16.1795 33.39 16.0895C33.51 15.9995 33.6 15.8896 33.65 15.7596C33.7 15.6296 33.72 15.4895 33.72 15.3395C33.72 15.0095 33.5699 14.7296 33.2499 14.5096C32.9399 14.2896 32.4 14.0496 31.64 13.7996C31.31 13.6796 30.98 13.5495 30.65 13.3995C30.32 13.2495 30.0199 13.0596 29.7599 12.8296C29.4999 12.5996 29.2799 12.3196 29.1199 11.9996C28.9499 11.6696 28.8699 11.2796 28.8699 10.8096C28.8699 10.3396 28.9599 9.91956 29.1299 9.54956C29.3099 9.16956 29.5499 8.85954 29.8799 8.58954C30.2099 8.31954 30.59 8.12955 31.05 7.97955C31.51 7.83955 32.02 7.76953 32.6 7.76953C33.28 7.76953 33.8699 7.83956 34.3699 7.98956C34.8699 8.13956 35.28 8.29954 35.6 8.46954L34.9399 10.2695C34.6599 10.1195 34.3399 9.99958 33.9999 9.87958C33.6599 9.75958 33.2399 9.70953 32.7499 9.70953C32.1999 9.70953 31.8099 9.78958 31.5699 9.93958C31.3299 10.0896 31.21 10.3196 31.21 10.6296C31.21 10.8096 31.25 10.9695 31.34 11.0995C31.43 11.2295 31.55 11.3396 31.71 11.4396C31.87 11.5396 32.06 11.6295 32.27 11.7195C32.48 11.7995 32.71 11.8896 32.96 11.9796C33.49 12.1796 33.94 12.3696 34.34 12.5596C34.73 12.7496 35.0499 12.9696 35.3099 13.2296C35.5699 13.4796 35.76 13.7796 35.89 14.1196C36.02 14.4596 36.08 14.8796 36.08 15.3596C36.08 16.3096 35.75 17.0396 35.09 17.5596C34.43 18.0796 33.43 18.3395 32.09 18.3395C31.64 18.3395 31.2399 18.3096 30.8799 18.2596C30.5199 18.2096 30.2 18.1396 29.92 18.0596C29.64 17.9796 29.4 17.8996 29.2 17.8096C29 17.7196 28.83 17.6396 28.7 17.5596L29.34 15.7496C29.64 15.9196 30.01 16.0596 30.46 16.1996C30.9 16.3296 31.45 16.3995 32.09 16.3995V16.3896Z" fill="black"/>
<path d="M40.8801 7.89062C42.3901 7.89062 43.5501 8.16061 44.3601 8.69061C45.1701 9.22061 45.5701 10.0906 45.5701 11.3006C45.5701 12.5106 45.1601 13.4006 44.3401 13.9406C43.5201 14.4806 42.3501 14.7506 40.8301 14.7506H40.1101V18.1406H37.8301V8.16058C38.3301 8.06058 38.8501 7.99062 39.4101 7.95062C39.9601 7.91062 40.4501 7.89062 40.8701 7.89062H40.8801ZM41.0201 9.83063C40.8501 9.83063 40.6901 9.83058 40.5301 9.84058C40.3701 9.84058 40.2301 9.86061 40.1101 9.87061V12.7906H40.8301C41.6201 12.7906 42.2101 12.6806 42.6101 12.4706C43.0101 12.2606 43.2101 11.8606 43.2101 11.2706C43.2101 10.9906 43.1601 10.7506 43.0601 10.5706C42.9601 10.3806 42.8101 10.2406 42.6201 10.1206C42.4301 10.0106 42.2001 9.93062 41.9201 9.89062C41.6401 9.85063 41.3501 9.82062 41.0101 9.82062L41.0201 9.83063Z" fill="black"/>
<path d="M47.25 8H49.53V18.13H47.25V8Z" fill="black"/>
<path d="M59.38 8V9.94H56.33V18.13H54.05V9.94H51V8H59.39H59.38Z" fill="black"/>
<path d="M66.4401 18.1302C66.3301 17.7802 66.2101 17.4202 66.0801 17.0502C65.9501 16.6802 65.8201 16.3102 65.6901 15.9402H61.7302C61.6002 16.3102 61.4702 16.6802 61.3502 17.0502C61.2202 17.4202 61.1002 17.7802 60.9902 18.1302H58.6201C59.0001 17.0402 59.3601 16.0302 59.7001 15.1002C60.0401 14.1702 60.3801 13.3002 60.7001 12.4802C61.0301 11.6602 61.3502 10.8802 61.6702 10.1502C61.9902 9.41021 62.3202 8.70023 62.6602 7.99023H64.8201C65.1501 8.69023 65.4802 9.41021 65.8002 10.1502C66.1202 10.8902 66.4502 11.6602 66.7802 12.4802C67.1102 13.3002 67.4402 14.1702 67.7902 15.1002C68.1302 16.0302 68.5001 17.0302 68.8801 18.1302H66.4401ZM63.7001 10.3002C63.6501 10.4502 63.5702 10.6502 63.4802 10.9002C63.3802 11.1502 63.2701 11.4502 63.1501 11.7802C63.0301 12.1102 62.8802 12.4802 62.7302 12.8802C62.5802 13.2802 62.4201 13.7002 62.2601 14.1302H65.1602C65.0002 13.6902 64.8601 13.2702 64.7101 12.8702C64.5701 12.4702 64.4302 12.1002 64.3002 11.7702C64.1702 11.4402 64.0501 11.1503 63.9601 10.8903C63.8601 10.6403 63.7802 10.4402 63.7202 10.2902L63.7001 10.3002Z" fill="black"/>
<path d="M76.9501 16.17V18.13H70.1802V8H72.4601V16.17H76.9501Z" fill="black"/>
</svg>
