<svg width="191" height="26" viewBox="0 0 191 26" fill="none" xmlns="http://www.w3.org/2000/svg">
<path d="M186.91 0H3.98999C1.78637 0 0 1.7864 0 3.99002V21.8C0 24.0036 1.78637 25.79 3.98999 25.79H186.91C189.114 25.79 190.9 24.0036 190.9 21.8V3.99002C190.9 1.7864 189.114 0 186.91 0Z" fill="white"/>
<path d="M16.36 17.9401C14.71 17.9401 13.4601 17.4801 12.6001 16.5601C11.7401 15.6401 11.3101 14.3401 11.3101 12.6601C11.3101 11.8201 11.4401 11.0701 11.7001 10.4201C11.9601 9.76014 12.3201 9.21012 12.7801 8.75012C13.2401 8.29012 13.78 7.95012 14.42 7.72012C15.05 7.49012 15.74 7.37012 16.48 7.37012C16.91 7.37012 17.3001 7.40014 17.6501 7.46014C18.0001 7.52014 18.3101 7.60011 18.5701 7.68011C18.8301 7.76011 19.05 7.85012 19.23 7.94012C19.41 8.03012 19.53 8.10014 19.61 8.14014L18.9501 9.98013C18.6401 9.81013 18.28 9.67012 17.86 9.56012C17.45 9.44012 16.9801 9.38013 16.4501 9.38013C16.1001 9.38013 15.76 9.44012 15.42 9.56012C15.08 9.68012 14.7901 9.86012 14.5301 10.1201C14.2701 10.3801 14.0601 10.7101 13.9101 11.1201C13.7501 11.5301 13.6801 12.0301 13.6801 12.6101C13.6801 13.0801 13.7301 13.5101 13.8301 13.9201C13.9301 14.3301 14.1001 14.6701 14.3301 14.9701C14.5601 15.2601 14.86 15.4901 15.23 15.6601C15.6 15.8301 16.0501 15.9201 16.5701 15.9201C16.9001 15.9201 17.2001 15.9001 17.4601 15.8601C17.7201 15.8201 17.9601 15.7801 18.1601 15.7201C18.3601 15.6701 18.5401 15.6101 18.7001 15.5401C18.8601 15.4701 19.0001 15.4101 19.1201 15.3501L19.7501 17.1801C19.4301 17.3801 18.9701 17.5501 18.3901 17.7101C17.8101 17.8701 17.13 17.9401 16.36 17.9401Z" fill="black"/>
<path d="M28.1201 17.7396C28.0101 17.3896 27.8901 17.0296 27.7601 16.6596C27.6301 16.2896 27.5001 15.9196 27.3701 15.5496H23.4101C23.2801 15.9196 23.1501 16.2896 23.0301 16.6596C22.9001 17.0296 22.78 17.3896 22.67 17.7396H20.3C20.68 16.6496 21.0401 15.6396 21.3801 14.7096C21.7201 13.7796 22.0601 12.9096 22.3801 12.0896C22.7101 11.2696 23.0301 10.4896 23.3501 9.75961C23.6701 9.01961 24.0001 8.30961 24.3401 7.59961H26.5001C26.8301 8.29961 27.16 9.01961 27.48 9.75961C27.8 10.4996 28.1301 11.2696 28.4601 12.0896C28.7901 12.9096 29.1201 13.7796 29.4701 14.7096C29.8101 15.6396 30.1801 16.6396 30.5601 17.7396H28.1201ZM25.3801 9.8996C25.3301 10.0496 25.2601 10.2496 25.1601 10.4996C25.0601 10.7496 24.9501 11.0496 24.8201 11.3796C24.7001 11.7096 24.5601 12.0796 24.4001 12.4796C24.2501 12.8796 24.0901 13.2996 23.9301 13.7296H26.8301C26.6801 13.2896 26.5301 12.8696 26.3801 12.4696C26.2301 12.0696 26.1001 11.6996 25.9701 11.3696C25.8401 11.0396 25.7201 10.7496 25.6301 10.4896C25.5301 10.2396 25.4501 10.0396 25.3901 9.88962L25.3801 9.8996Z" fill="black"/>
<path d="M37.6 14.3294C37.6 14.8294 37.54 15.2894 37.43 15.7294C37.32 16.1694 37.12 16.5494 36.85 16.8794C36.57 17.2094 36.2 17.4594 35.72 17.6594C35.25 17.8494 34.65 17.9494 33.93 17.9494C33.27 17.9494 32.7 17.8694 32.22 17.7094C31.74 17.5494 31.35 17.3594 31.04 17.1494L31.8 15.3794C32.08 15.5494 32.38 15.6894 32.71 15.8194C33.03 15.9494 33.38 16.0094 33.76 16.0094C34.31 16.0094 34.72 15.8694 34.96 15.5994C35.2 15.3294 35.33 14.8694 35.33 14.2194V7.60938H37.61V14.3294H37.6Z" fill="black"/>
<path d="M46.02 17.7396C45.91 17.3896 45.79 17.0296 45.66 16.6596C45.53 16.2896 45.4 15.9196 45.27 15.5496H41.3099C41.1799 15.9196 41.0499 16.2896 40.9299 16.6596C40.7999 17.0296 40.6799 17.3896 40.5699 17.7396H38.2C38.58 16.6496 38.94 15.6396 39.28 14.7096C39.62 13.7796 39.96 12.9096 40.28 12.0896C40.61 11.2696 40.9299 10.4896 41.2499 9.75961C41.5699 9.01961 41.8999 8.30961 42.2399 7.59961H44.4C44.73 8.29961 45.0599 9.01961 45.3799 9.75961C45.6999 10.4996 46.0299 11.2696 46.3599 12.0896C46.6899 12.9096 47.0199 13.7796 47.3699 14.7096C47.7099 15.6396 48.08 16.6396 48.46 17.7396H46.02ZM43.28 9.8996C43.23 10.0496 43.1599 10.2496 43.0599 10.4996C42.9599 10.7496 42.85 11.0496 42.72 11.3796C42.6 11.7096 42.4599 12.0796 42.2999 12.4796C42.1499 12.8796 41.99 13.2996 41.83 13.7296H44.7299C44.5799 13.2896 44.43 12.8696 44.28 12.4696C44.13 12.0696 43.9999 11.6996 43.8699 11.3696C43.7399 11.0396 43.62 10.7496 43.53 10.4896C43.43 10.2396 43.35 10.0396 43.29 9.88962L43.28 9.8996Z" fill="black"/>
<path d="M60.2001 7.60938V9.54938H57.1401V17.7394H54.86V9.54938H51.8V7.60938H60.1901H60.2001Z" fill="black"/>
<path d="M61.3701 17.7394V7.60938H68.2101V9.52936H63.6501V11.5194H67.7001V13.3894H63.6501V15.8294H68.5501V17.7494H61.3701V17.7394Z" fill="black"/>
<path d="M72.9002 7.49023C74.4202 7.49023 75.5802 7.76023 76.3902 8.30023C77.2002 8.84023 77.6002 9.68022 77.6002 10.8202C77.6002 11.5302 77.4402 12.1102 77.1102 12.5502C76.7802 12.9902 76.3102 13.3402 75.7002 13.6002C75.9002 13.8502 76.1202 14.1402 76.3402 14.4702C76.5602 14.8002 76.7902 15.1402 77.0002 15.4902C77.2202 15.8502 77.4302 16.2202 77.6402 16.6002C77.8502 16.9802 78.0302 17.3602 78.2102 17.7302H75.6602C75.4702 17.4002 75.2902 17.0602 75.0902 16.7202C74.9002 16.3802 74.7002 16.0502 74.5002 15.7302C74.3002 15.4102 74.1002 15.1002 73.9102 14.8202C73.7102 14.5302 73.5202 14.2702 73.3202 14.0402H72.2002V17.7402H69.9202V7.76022C70.4202 7.66022 70.9302 7.59023 71.4602 7.55023C71.9902 7.51023 72.4702 7.49023 72.8802 7.49023H72.9002ZM73.0302 9.44022C72.8602 9.44022 72.7202 9.44023 72.5802 9.45023C72.4502 9.45023 72.3202 9.47022 72.2102 9.48022V12.2302H72.8502C73.7102 12.2302 74.3202 12.1202 74.6902 11.9102C75.0602 11.7002 75.2502 11.3302 75.2502 10.8102C75.2502 10.2902 75.0602 9.96021 74.6902 9.75021C74.3102 9.54021 73.7602 9.44022 73.0302 9.44022Z" fill="black"/>
<path d="M82.0801 7.60938C82.2601 7.92937 82.4601 8.32938 82.6901 8.79938C82.9201 9.26938 83.1601 9.77936 83.4101 10.3394C83.6601 10.8894 83.9101 11.4494 84.1501 12.0294C84.3901 12.6094 84.6201 13.1494 84.8401 13.6494C85.0501 13.1394 85.2801 12.5994 85.5301 12.0294C85.7801 11.4594 86.0201 10.8894 86.2701 10.3394C86.5201 9.78936 86.7601 9.27938 86.9901 8.79938C87.2201 8.32938 87.4201 7.92937 87.6001 7.60938H89.6801C89.7801 8.27938 89.8701 9.03935 89.9501 9.86935C90.0301 10.6994 90.11 11.5694 90.17 12.4694C90.23 13.3694 90.2901 14.2694 90.3501 15.1794C90.4001 16.0894 90.4501 16.9394 90.4901 17.7394H88.2701C88.2401 16.7594 88.2001 15.6794 88.1501 14.5194C88.1001 13.3594 88.0301 12.1894 87.9301 11.0094C87.7501 11.4194 87.5601 11.8694 87.3401 12.3694C87.1201 12.8694 86.9101 13.3594 86.7001 13.8594C86.4901 14.3594 86.2901 14.8294 86.0901 15.2894C85.8901 15.7394 85.7301 16.1294 85.5901 16.4494H84.0001C83.8601 16.1294 83.7001 15.7394 83.5001 15.2894C83.3001 14.8394 83.1001 14.3594 82.8901 13.8594C82.6801 13.3594 82.4701 12.8694 82.2501 12.3694C82.0301 11.8694 81.8401 11.4194 81.6601 11.0094C81.5601 12.1894 81.4901 13.3594 81.4401 14.5194C81.3901 15.6794 81.3501 16.7494 81.3201 17.7394H79.1001C79.1401 16.9394 79.1801 16.0894 79.2401 15.1794C79.2901 14.2694 79.35 13.3694 79.42 12.4694C79.48 11.5694 79.5601 10.6994 79.6401 9.86935C79.7201 9.03935 79.8101 8.27938 79.9101 7.60938H82.0901H82.0801Z" fill="black"/>
<path d="M92.2102 7.60938H94.4902V17.7394H92.2102V7.60938Z" fill="black"/>
<path d="M103.33 17.7396C102.68 16.5796 101.97 15.4396 101.21 14.2996C100.45 13.1696 99.64 12.0996 98.78 11.0996V17.7396H96.53V7.60962H98.39C98.71 7.92962 99.07 8.32961 99.46 8.78961C99.85 9.25961 100.25 9.75961 100.65 10.2896C101.05 10.8196 101.46 11.3696 101.86 11.9396C102.26 12.5096 102.63 13.0596 102.99 13.5796V7.59961H105.26V17.7296H103.34L103.33 17.7396Z" fill="black"/>
<path d="M114.09 17.7396C113.98 17.3896 113.86 17.0296 113.73 16.6596C113.6 16.2896 113.47 15.9196 113.34 15.5496H109.38C109.25 15.9196 109.12 16.2896 109 16.6596C108.87 17.0296 108.75 17.3896 108.64 17.7396H106.27C106.65 16.6496 107.01 15.6396 107.35 14.7096C107.69 13.7796 108.03 12.9096 108.35 12.0896C108.67 11.2696 109 10.4896 109.32 9.75961C109.64 9.01961 109.97 8.30961 110.31 7.59961H112.47C112.8 8.29961 113.13 9.01961 113.45 9.75961C113.77 10.4996 114.1 11.2696 114.43 12.0896C114.76 12.9096 115.09 13.7796 115.44 14.7096C115.78 15.6396 116.14 16.6396 116.53 17.7396H114.09ZM111.35 9.8996C111.3 10.0496 111.22 10.2496 111.13 10.4996C111.03 10.7496 110.92 11.0496 110.8 11.3796C110.68 11.7096 110.53 12.0796 110.38 12.4796C110.23 12.8796 110.07 13.2996 109.91 13.7296H112.81C112.65 13.2896 112.51 12.8696 112.36 12.4696C112.22 12.0696 112.08 11.6996 111.95 11.3696C111.82 11.0396 111.71 10.7496 111.61 10.4896C111.51 10.2396 111.43 10.0396 111.37 9.88962L111.35 9.8996Z" fill="black"/>
<path d="M124.31 15.7794V17.7394H117.54V7.60938H119.82V15.7794H124.31Z" fill="black"/>
<path d="M138.35 12.6697C138.35 13.5397 138.22 14.2997 137.96 14.9597C137.7 15.6197 137.35 16.1697 136.9 16.6097C136.45 17.0497 135.92 17.3897 135.3 17.6097C134.68 17.8297 134.02 17.9497 133.31 17.9497C132.6 17.9497 131.96 17.8397 131.35 17.6097C130.74 17.3897 130.2 17.0497 129.74 16.6097C129.28 16.1697 128.92 15.6197 128.66 14.9597C128.4 14.2997 128.27 13.5397 128.27 12.6697C128.27 11.7997 128.41 11.0397 128.68 10.3797C128.95 9.71973 129.32 9.16973 129.78 8.71973C130.24 8.26973 130.78 7.93975 131.39 7.70975C132 7.48975 132.64 7.36972 133.31 7.36972C133.98 7.36972 134.65 7.47975 135.27 7.70975C135.88 7.92975 136.42 8.26973 136.88 8.71973C137.34 9.16973 137.7 9.71973 137.96 10.3797C138.22 11.0397 138.35 11.7997 138.35 12.6697ZM130.61 12.6697C130.61 13.1697 130.67 13.6197 130.79 14.0097C130.91 14.4097 131.09 14.7497 131.32 15.0397C131.55 15.3297 131.83 15.5497 132.16 15.7097C132.49 15.8697 132.87 15.9397 133.3 15.9397C133.73 15.9397 134.1 15.8597 134.43 15.7097C134.77 15.5497 135.05 15.3297 135.28 15.0397C135.51 14.7497 135.68 14.4097 135.81 14.0097C135.93 13.6097 135.99 13.1597 135.99 12.6697C135.99 12.1797 135.93 11.7197 135.81 11.3197C135.69 10.9197 135.51 10.5697 135.28 10.2797C135.05 9.98972 134.77 9.76974 134.43 9.60974C134.09 9.44974 133.72 9.37973 133.3 9.37973C132.88 9.37973 132.49 9.45972 132.16 9.61972C131.83 9.77972 131.55 9.99973 131.32 10.2897C131.09 10.5797 130.92 10.9197 130.79 11.3297C130.67 11.7297 130.61 12.1797 130.61 12.6697ZM135.01 4.94974L132.6 6.97974L131.6 6.08972L133.67 3.71973L135.01 4.94974Z" fill="black"/>
<path d="M142.99 7.49023C144.5 7.49023 145.66 7.76022 146.47 8.29022C147.28 8.82022 147.68 9.69021 147.68 10.9002C147.68 12.1102 147.27 13.0002 146.45 13.5402C145.63 14.0802 144.46 14.3502 142.94 14.3502H142.22V17.7402H139.94V7.76022C140.44 7.66022 140.96 7.59023 141.52 7.55023C142.08 7.51023 142.56 7.49023 142.98 7.49023H142.99ZM143.14 9.44022C142.97 9.44022 142.81 9.44023 142.65 9.45023C142.49 9.45023 142.35 9.47022 142.23 9.48022V12.4002H142.95C143.74 12.4002 144.33 12.2902 144.73 12.0802C145.13 11.8702 145.33 11.4702 145.33 10.8802C145.33 10.6002 145.28 10.3602 145.18 10.1802C145.08 9.99021 144.93 9.85022 144.74 9.73022C144.55 9.62022 144.32 9.54021 144.05 9.50021C143.78 9.46021 143.47 9.43021 143.14 9.43021V9.44022Z" fill="black"/>
<path d="M156.78 7.60938V9.54938H153.72V17.7394H151.44V9.54938H148.39V7.60938H156.78Z" fill="black"/>
<path d="M157.95 7.60938H160.23V17.7394H157.95V7.60938Z" fill="black"/>
<path d="M166.9 17.9401C165.25 17.9401 164 17.4801 163.14 16.5601C162.28 15.6401 161.85 14.3401 161.85 12.6601C161.85 11.8201 161.98 11.0701 162.24 10.4201C162.5 9.76014 162.86 9.21012 163.32 8.75012C163.78 8.30012 164.32 7.95012 164.96 7.72012C165.59 7.49012 166.28 7.37012 167.02 7.37012C167.45 7.37012 167.84 7.40014 168.19 7.46014C168.54 7.52014 168.85 7.60011 169.11 7.68011C169.37 7.76011 169.59 7.85012 169.77 7.94012C169.94 8.03012 170.07 8.10014 170.15 8.14014L169.49 9.98013C169.18 9.81013 168.82 9.67012 168.4 9.56012C167.99 9.44012 167.52 9.38013 166.99 9.38013C166.64 9.38013 166.3 9.44012 165.96 9.56012C165.62 9.68012 165.33 9.86012 165.07 10.1201C164.81 10.3801 164.61 10.7101 164.45 11.1201C164.29 11.5301 164.22 12.0301 164.22 12.6101C164.22 13.0801 164.27 13.5101 164.37 13.9201C164.47 14.3301 164.64 14.6701 164.87 14.9701C165.1 15.2601 165.4 15.4901 165.77 15.6601C166.14 15.8301 166.59 15.9201 167.11 15.9201C167.44 15.9201 167.74 15.9001 168 15.8601C168.26 15.8201 168.5 15.7801 168.7 15.7201C168.9 15.6601 169.08 15.6101 169.24 15.5401C169.4 15.4701 169.54 15.4101 169.66 15.3501L170.29 17.1801C169.97 17.3801 169.51 17.5501 168.93 17.7101C168.35 17.8701 167.67 17.9401 166.9 17.9401Z" fill="black"/>
<path d="M178.66 17.7396C178.55 17.3896 178.43 17.0296 178.3 16.6596C178.17 16.2896 178.04 15.9196 177.91 15.5496H173.95C173.82 15.9196 173.69 16.2896 173.57 16.6596C173.44 17.0296 173.32 17.3896 173.21 17.7396H170.84C171.22 16.6496 171.58 15.6396 171.92 14.7096C172.26 13.7796 172.6 12.9096 172.92 12.0896C173.25 11.2696 173.57 10.4896 173.89 9.75961C174.21 9.01961 174.54 8.30961 174.88 7.59961H177.04C177.37 8.29961 177.7 9.01961 178.02 9.75961C178.34 10.4996 178.67 11.2696 179 12.0896C179.33 12.9096 179.66 13.7796 180.01 14.7096C180.35 15.6396 180.72 16.6396 181.1 17.7396H178.66ZM175.92 9.8996C175.87 10.0496 175.8 10.2496 175.7 10.4996C175.6 10.7496 175.49 11.0496 175.36 11.3796C175.24 11.7096 175.1 12.0796 174.94 12.4796C174.79 12.8796 174.63 13.2996 174.47 13.7296H177.37C177.22 13.2896 177.07 12.8696 176.92 12.4696C176.77 12.0696 176.64 11.6996 176.51 11.3696C176.38 11.0396 176.26 10.7496 176.17 10.4896C176.07 10.2396 175.99 10.0396 175.93 9.88962L175.92 9.8996Z" fill="black"/>
</svg>
