<svg width="117" height="26" viewBox="0 0 117 26" fill="none" xmlns="http://www.w3.org/2000/svg">
<path d="M113.56 0H3.12C1.39687 0 0 1.39687 0 3.12V22.67C0 24.3931 1.39687 25.79 3.12 25.79H113.56C115.283 25.79 116.68 24.3931 116.68 22.67V3.12C116.68 1.39687 115.283 0 113.56 0Z" fill="white"/>
<path d="M30.89 16.3895C31.21 16.3895 31.48 16.3595 31.69 16.3095C31.9 16.2595 32.07 16.1795 32.19 16.0895C32.31 15.9995 32.4 15.8895 32.45 15.7595C32.5 15.6295 32.52 15.4895 32.52 15.3395C32.52 15.0095 32.36 14.7295 32.05 14.5095C31.74 14.2895 31.2 14.0495 30.44 13.7995C30.11 13.6795 29.78 13.5495 29.45 13.3995C29.12 13.2495 28.82 13.0595 28.56 12.8295C28.3 12.5995 28.08 12.3195 27.92 11.9995C27.75 11.6695 27.67 11.2795 27.67 10.8095C27.67 10.3395 27.76 9.91953 27.93 9.54953C28.11 9.16953 28.35 8.85951 28.68 8.58951C29 8.32951 29.39 8.12952 29.85 7.97952C30.31 7.82952 30.82 7.76953 31.4 7.76953C32.08 7.76953 32.67 7.83953 33.17 7.98953C33.67 8.13953 34.08 8.29951 34.4 8.46951L33.74 10.2695C33.46 10.1195 33.14 9.99952 32.8 9.87952C32.45 9.76952 32.04 9.70953 31.55 9.70953C31 9.70953 30.61 9.78951 30.37 9.93951C30.13 10.0895 30.01 10.3195 30.01 10.6295C30.01 10.8095 30.05 10.9695 30.14 11.0995C30.23 11.2295 30.35 11.3395 30.51 11.4395C30.67 11.5395 30.86 11.6295 31.07 11.7195C31.28 11.8095 31.51 11.8895 31.76 11.9795C32.29 12.1795 32.74 12.3695 33.13 12.5595C33.52 12.7495 33.84 12.9695 34.1 13.2295C34.36 13.4795 34.55 13.7795 34.68 14.1195C34.81 14.4595 34.87 14.8795 34.87 15.3595C34.87 16.3095 34.54 17.0395 33.88 17.5595C33.22 18.0795 32.22 18.3395 30.88 18.3395C30.43 18.3395 30.03 18.3095 29.67 18.2595C29.31 18.2095 28.99 18.1395 28.71 18.0595C28.43 17.9795 28.19 17.8995 27.99 17.8095C27.79 17.7195 27.62 17.6395 27.49 17.5595L28.13 15.7495C28.43 15.9195 28.8 16.0595 29.25 16.1995C29.69 16.3295 30.24 16.3995 30.88 16.3995L30.89 16.3895Z" fill="black"/>
<path d="M42.7401 8H45.0201V18.13H42.7401V13.83H38.9101V18.13H36.6301V8H38.9101V11.87H42.7401V8Z" fill="black"/>
<path d="M47.3601 18.13V8H54.2001V9.92001H49.6401V11.91H53.6901V13.78H49.6401V16.22H54.5401V18.14H47.3601V18.13Z" fill="black"/>
<path d="M62.99 16.17V18.13H56.22V8H58.5V16.17H62.99Z" fill="black"/>
<path d="M70.8199 8V9.94H67.7599V18.13H65.4799V9.94H62.4299V8H70.8199Z" fill="black"/>
<path d="M72.29 18.13V8H79.13V9.92001H74.57V11.91H78.6201V13.78H74.57V16.22H79.47V18.14H72.29V18.13Z" fill="black"/>
<path d="M84.1099 7.88965C85.6299 7.88965 86.7899 8.15965 87.5999 8.69965C88.4099 9.23965 88.8099 10.0796 88.8099 11.2196C88.8099 11.9296 88.6499 12.5096 88.3199 12.9496C87.9899 13.3896 87.5199 13.7396 86.9099 13.9996C87.1099 14.2496 87.3299 14.5396 87.5499 14.8696C87.7699 15.1996 87.9999 15.5396 88.2199 15.8896C88.4399 16.2496 88.6499 16.6196 88.8599 16.9996C89.0599 17.3796 89.2499 17.7596 89.4299 18.1296H86.8799C86.6899 17.7996 86.5099 17.4596 86.3099 17.1196C86.1199 16.7796 85.9199 16.4496 85.7199 16.1296C85.5199 15.8096 85.3199 15.4996 85.1299 15.2196C84.9299 14.9296 84.7399 14.6696 84.5399 14.4396H83.4099V18.1396H81.1299V8.15964C81.6299 8.05964 82.1399 7.98965 82.6699 7.94965C83.1999 7.90965 83.6799 7.88965 84.0999 7.88965H84.1099ZM84.2399 9.82965C84.0699 9.82965 83.9299 9.82963 83.7899 9.83963C83.6599 9.83963 83.5299 9.85963 83.4199 9.86963V12.6196H84.0599C84.9199 12.6196 85.5299 12.5097 85.8999 12.2997C86.2699 12.0897 86.4599 11.7196 86.4599 11.1996C86.4599 10.6796 86.2699 10.3496 85.8999 10.1396C85.5199 9.92965 84.9699 9.82965 84.2399 9.82965Z" fill="black"/>
</svg>
